<?xml version="1.0" encoding="utf-8" ?>
<svg baseProfile="full" height="5000px" version="1.1" width="5000px" xmlns="http://www.w3.org/2000/svg" xmlns:ev="http://www.w3.org/2001/xml-events" xmlns:xlink="http://www.w3.org/1999/xlink"><defs><clipPath id="border_clip"><rect height="5000" width="5000" x="0" y="0" /></clipPath></defs><polyline clip-path="url(#border_clip)" fill="none" points="320.2463355018522,585.5637555192754 330.18081179530463,605.1948158122427 344.1677795121582,622.178251316845 361.53016822277004,635.6919408838326 381.42751270108965,645.0817241700634 402.8966375221503,649.8930677317949 424.8982817209662,649.8930677317949 446.3674065420264,645.0817241700634 466.2647510203458,635.6919408838326 483.6271397309574,622.178251316845 497.61410744781074,605.1948158122425 507.5485837412634,585.5637555192752 512.9496680853083,564.2353557818406 513.555908922225,542.2420654527666 509.3379598095087,520.6485188998304 500.5000000000018,500.4999999999998" stroke="black" stroke-linecap="round" stroke-width="5" /><polygon clip-path="url(#border_clip)" fill="#ff0000" fill-rule="evenodd" points="4500.5,500.5 4600.5,500.4999999999998 4650.5,587.1025403784433 4600.5,673.7050807568874 4500.5,673.7050807568876 4450.5,587.102540378444 4500.5,500.5" stroke-width="0" /><polyline clip-path="url(#border_clip)" fill="none" points="320.2463355018526,1585.5637555192761 330.1808117953051,1605.1948158122432 344.16777951215863,1622.1782513168455 361.5301682227705,1635.691940883833 381.4275127010901,1645.0817241700638 402.89663752215074,1649.8930677317953 424.8982817209667,1649.893067731795 446.36740654202686,1645.0817241700636 466.26475102034624,1635.6919408838328 483.6271397309579,1622.178251316845 497.6141074478112,1605.1948158122427 507.54858374126366,1585.5637555192754 512.9496680853083,1564.2353557818408 513.555908922225,1542.2420654527668 509.3379598095087,1520.6485188998306 500.5000000000018,1500.5" stroke="black" stroke-linecap="round" stroke-width="5" /><polygon clip-path="url(#border_clip)" fill="#ff0000" fill-rule="evenodd" points="4500.5,1500.5 4600.5,1500.4999999999995 4650.5,1587.1025403784429 4600.500000000001,1673.705080756887 4500.500000000001,1673.7050807568876 4450.5,1587.1025403784442 4500.5,1500.5" stroke-width="0" /><polyline clip-path="url(#border_clip)" fill="none" points="320.2463355018517,2585.5637555192766 330.18081179530463,2605.1948158122436 344.1677795121582,2622.178251316846 361.53016822277004,2635.6919408838335 381.42751270108965,2645.0817241700643 402.8966375221503,2649.8930677317953 424.8982817209662,2649.8930677317953 446.3674065420264,2645.081724170064 466.2647510203458,2635.6919408838326 483.6271397309574,2622.178251316845 497.6141074478105,2605.1948158122423 507.548583741263,2585.563755519275 512.9496680853076,2564.2353557818406 513.555908922224,2542.2420654527664 509.33795980950754,2520.6485188998304 500.50000000000045,2500.5" stroke="black" stroke-linecap="round" stroke-width="5" /><polygon clip-path="url(#border_clip)" fill="#ff0000" fill-rule="evenodd" points="4500.5,2500.5 4600.5,2500.499999999999 4650.500000000001,2587.1025403784424 4600.500000000002,2673.7050807568867 4500.500000000002,2673.7050807568876 4450.500000000001,2587.1025403784442 4500.5,2500.5" stroke-width="0" /><polyline clip-path="url(#border_clip)" fill="none" points="320.2463355018517,3585.563755519277 330.18081179530463,3605.194815812244 344.1677795121582,3622.1782513168464 361.53016822277004,3635.6919408838335 381.42751270108965,3645.0817241700643 402.8966375221503,3649.8930677317953 424.8982817209662,3649.893067731795 446.3674065420264,3645.0817241700634 466.2647510203458,3635.691940883832 483.6271397309574,3622.1782513168446 497.6141074478105,3605.1948158122423 507.548583741263,3585.5637555192748 512.9496680853076,3564.23535578184 513.555908922224,3542.242065452766 509.33795980950754,3520.64851889983 500.50000000000045,3500.4999999999995" stroke="black" stroke-linecap="round" stroke-width="5" /><polygon clip-path="url(#border_clip)" fill="#ff0000" fill-rule="evenodd" points="4500.5,3500.5 4600.5,3500.4999999999986 4650.500000000001,3587.102540378442 4600.500000000002,3673.7050807568867 4500.500000000002,3673.7050807568876 4450.500000000001,3587.1025403784447 4500.5,3500.5" stroke-width="0" /><polyline clip-path="url(#border_clip)" fill="none" points="320.24633550185126,4585.563755519278 330.1808117953042,4605.194815812245 344.1677795121577,4622.178251316847 361.5301682227696,4635.691940883835 381.4275127010892,4645.081724170065 402.89663752214983,4649.893067731797 424.89828172096577,4649.893067731796 446.36740654202595,4645.081724170064 466.26475102034533,4635.691940883833 483.62713973095697,4622.1782513168455 497.61410744781006,4605.194815812242 507.5485837412623,4585.563755519275 512.9496680853069,4564.235355781841 513.5559089222234,4542.242065452766 509.33795980950686,4520.64851889983 500.4999999999998,4500.5" stroke="black" stroke-linecap="round" stroke-width="5" /><polygon clip-path="url(#border_clip)" fill="#ff0000" fill-rule="evenodd" points="4500.5,4500.5 4600.5,4500.499999999998 4650.500000000002,4587.1025403784415 4600.500000000003,4673.705080756887 4500.500000000003,4673.7050807568885 4450.500000000002,4587.102540378445 4500.5,4500.5" stroke-width="0" /><polyline clip-path="url(#border_clip)" fill="none" points="0.5,0.5 1000.5,0.5 1000.5,1000.5 0.5,1000.5000000000002 0.5,0.5" stroke="black" stroke-linecap="round" stroke-width="5" /><polyline clip-path="url(#border_clip)" fill="none" points="500.5,500.5 522.3681091206377,498.07963826274363 543.1776435496404,490.93571606975775 561.9212712689668,479.4140509396393 577.6916650916321,464.07237482099686 589.7254238618393,445.65333583108895 597.440026593933,425.04854871407997 600.462030702495,403.2554342368162 598.6451493252416,381.3289368076262 592.0773326655055,360.3304575347029 581.0765105660976,341.2764747335018 566.1752024047732,325.08933902231 548.0947393037072,312.5526248793508 527.7103464845334,304.27319996907454 506.0087760355864,300.65184835666787 484.0405409719265,301.86386965972724 462.86906280521634,307.8505932785192 443.51919424897324,318.32221847747496 426.9276089326868,332.77184283742554 413.8974596215562,350.49999999999955 400.86731031042564,332.77184283742554 384.2757249941392,318.32221847747496 364.9258564378961,307.8505932785192 343.75437827118594,301.86386965972724 321.78614320752604,300.65184835666787 300.08457275857927,304.27319996907454 279.70017993940564,312.5526248793508 261.6197168383396,325.08933902231 246.7184086770153,341.2764747335018 235.71758657760756,360.3304575347029 229.1497699178717,381.3289368076262 227.33288854061857,403.2554342368162 230.35489264918078,425.04854871407997 238.06949538127446,445.65333583108895 250.1032541514819,464.07237482099686 265.8736479741474,479.4140509396393 284.61727569347386,490.93571606975775 305.4268101224766,498.07963826274363 327.29491924311424,500.5 318.45695943360715,520.6485188998306 314.2390103208909,542.2420654527668 314.8452511578075,564.2353557818408 320.2463355018522,585.5637555192754" stroke="black" stroke-linecap="round" stroke-width="5" /><polyline clip-path="url(#border_clip)" fill="none" points="1000.5,0.5 2000.499999999999,0.49999999999954525 2000.4999999999995,1000.4999999999986 1000.5000000000005,1000.4999999999991 1000.4999999999998,0.5" stroke="black" stroke-linecap="round" stroke-width="5" /><polyline clip-path="url(#border_clip)" fill="none" points="1500.5,500.5 1522.7520933956314,497.99279121818245 1543.8883739117557,490.596886790242 1562.8489801858732,478.68314824680306 1578.6831482468028,462.8489801858734 1590.5968867902416,443.88837391175593 1597.992791218182,422.7520933956316 1600.4999999999998,400.5 1597.992791218182,378.2479066043684 1590.5968867902416,357.11162608824407 1578.6831482468028,338.15101981412636 1562.8489801858732,322.3168517531967 1543.8883739117555,310.403113209758 1522.7520933956312,303.00720878181755 1500.5,300.5 1478.2479066043684,303.00720878181755 1457.111626088244,310.403113209758 1438.1510198141266,322.3168517531967 1422.316851753197,338.15101981412636 1410.403113209758,357.11162608824407 1403.0072087818176,378.2479066043684 1400.5,400.5 1403.0072087818176,422.7520933956316 1410.403113209758,443.88837391175593 1422.316851753197,462.8489801858734 1438.1510198141266,478.68314824680306 1457.111626088244,490.596886790242 1478.2479066043684,497.99279121818245 1500.4999999999998,500.5" stroke="black" stroke-linecap="round" stroke-width="5" /><polyline clip-path="url(#border_clip)" fill="none" points="2000.5,0.5 3000.499999999999,0.49999999999954525 3000.4999999999995,1000.4999999999986 2000.5000000000007,1000.4999999999993 2000.5,0.5000000000004547" stroke="black" stroke-linecap="round" stroke-width="5" /><polyline clip-path="url(#border_clip)" fill="none" points="2500.5,500.5 2600.5,500.5 2519.5983005625053,559.2785252292474 2550.5,464.17287359973216 2581.4016994374947,559.2785252292474 2500.5,500.5000000000002" stroke="black" stroke-linecap="round" stroke-width="5" /><polyline clip-path="url(#border_clip)" fill="none" points="3000.5,0.5 4000.499999999999,0.499999999998181 4000.500000000001,1000.4999999999973 3000.500000000002,1000.4999999999991 3000.5,0.5" stroke="black" stroke-linecap="round" stroke-width="5" /><polyline clip-path="url(#border_clip)" fill="none" points="3500.5,500.5 3600.5,500.4999999999998 3550.5,587.1025403784436 3500.5,500.5" stroke="black" stroke-linecap="round" stroke-width="5" /><polyline clip-path="url(#border_clip)" fill="none" points="4000.5,0.5 5000.499999999999,0.4999999999972715 5000.500000000002,1000.4999999999961 4000.5000000000027,1000.4999999999989 4000.5,0.5" stroke="black" stroke-linecap="round" stroke-width="5" /><polyline clip-path="url(#border_clip)" fill="none" points="4500.5,500.5 4600.5,500.4999999999998 4650.5,587.1025403784433 4600.5,673.7050807568874 4500.5,673.7050807568876 4450.5,587.102540378444 4500.5,500.5" stroke="black" stroke-linecap="round" stroke-width="5" /><polyline clip-path="url(#border_clip)" fill="none" points="0.5,1000.5 1000.4999999999989,1000.4999999999961 1000.5000000000027,2000.499999999995 0.500000000003638,2000.4999999999989 0.49999999999954525,1000.5" stroke="black" stroke-linecap="round" stroke-width="5" /><polyline clip-path="url(#border_clip)" fill="none" points="500.5,1500.5 522.3681091206377,1498.0796382627436 543.1776435496404,1490.9357160697577 561.9212712689666,1479.4140509396393 577.6916650916319,1464.0723748209966 589.7254238618391,1445.6533358310887 597.4400265939325,1425.0485487140797 600.4620307024945,1403.255434236816 598.6451493252412,1381.328936807626 592.0773326655051,1360.3304575347029 581.0765105660971,1341.2764747335018 566.1752024047728,1325.0893390223102 548.0947393037068,1312.552624879351 527.7103464845329,1304.273199969075 506.0087760355859,1300.6518483566686 484.040540971926,1301.863869659728 462.8690628052159,1307.8505932785201 443.5191942489728,1318.3222184774759 426.9276089326863,1332.7718428374262 413.89745962155575,1350.5000000000005 400.8673103104252,1332.7718428374264 384.2757249941387,1318.322218477476 364.9258564378956,1307.8505932785206 343.7543782711855,1301.8638696597286 321.7861432075256,1300.6518483566692 300.0845727585788,1304.273199969076 279.7001799394052,1312.5526248793522 261.6197168383392,1325.0893390223114 246.71840867701485,1341.276474733503 235.7175865776071,1360.330457534704 229.14976991787125,1381.328936807627 227.33288854061811,1403.255434236817 230.35489264918033,1425.0485487140809 238.069495381274,1445.6533358310899 250.10325415148145,1464.0723748209978 265.87364797414693,1479.4140509396402 284.6172756934734,1490.9357160697587 305.4268101224761,1498.0796382627443 327.2949192431138,1500.5000000000007 318.45695943360715,1520.6485188998313 314.2390103208909,1542.2420654527675 314.8452511578075,1564.2353557818415 320.2463355018526,1585.5637555192761" stroke="black" stroke-linecap="round" stroke-width="5" /><polyline clip-path="url(#border_clip)" fill="none" points="1000.5,1000.5 2000.4999999999984,1000.4999999999959 2000.5000000000025,2000.4999999999943 1000.5000000000041,2000.4999999999984 1000.4999999999998,1000.5" stroke="black" stroke-linecap="round" stroke-width="5" /><polyline clip-path="url(#border_clip)" fill="none" points="1500.5,1500.5 1522.7520933956314,1497.9927912181822 1543.8883739117557,1490.5968867902416 1562.8489801858732,1478.6831482468028 1578.6831482468028,1462.848980185873 1590.5968867902416,1443.8883739117555 1597.992791218182,1422.7520933956312 1600.4999999999995,1400.4999999999998 1597.9927912181815,1378.2479066043684 1590.5968867902411,1357.111626088244 1578.6831482468021,1338.1510198141266 1562.8489801858725,1322.316851753197 1543.888373911755,1310.4031132097582 1522.7520933956305,1303.0072087818178 1500.499999999999,1300.5000000000002 1478.2479066043677,1303.007208781818 1457.1116260882434,1310.4031132097584 1438.151019814126,1322.3168517531974 1422.3168517531963,1338.151019814127 1410.4031132097575,1357.1116260882445 1403.007208781817,1378.2479066043688 1400.4999999999995,1400.5000000000002 1403.0072087818173,1422.7520933956316 1410.4031132097577,1443.888373911756 1422.3168517531967,1462.8489801858734 1438.1510198141264,1478.6831482468028 1457.1116260882438,1490.5968867902418 1478.2479066043684,1497.992791218182 1500.4999999999995,1500.4999999999995" stroke="black" stroke-linecap="round" stroke-width="5" /><polyline clip-path="url(#border_clip)" fill="none" points="2000.5,1000.5 3000.499999999999,1000.4999999999961 3000.5000000000027,2000.499999999995 2000.5000000000039,2000.499999999999 2000.5,1000.5" stroke="black" stroke-linecap="round" stroke-width="5" /><polyline clip-path="url(#border_clip)" fill="none" points="2500.5,1500.5 2600.5,1500.4999999999995 2519.5983005625053,1559.2785252292472 2550.5,1464.1728735997317 2581.401699437495,1559.278525229247 2500.5,1500.5" stroke="black" stroke-linecap="round" stroke-width="5" /><polyline clip-path="url(#border_clip)" fill="none" points="3000.5,1000.5 4000.499999999999,1000.4999999999952 4000.500000000004,2000.4999999999943 3000.500000000005,2000.4999999999993 3000.5,1000.5000000000002" stroke="black" stroke-linecap="round" stroke-width="5" /><polyline clip-path="url(#border_clip)" fill="none" points="3500.5,1500.5 3600.5,1500.4999999999995 3550.5000000000005,1587.1025403784433 3500.5,1500.5" stroke="black" stroke-linecap="round" stroke-width="5" /><polyline clip-path="url(#border_clip)" fill="none" points="4000.5,1000.5 5000.499999999999,1000.4999999999943 5000.5000000000055,2000.4999999999932 4000.5000000000064,2000.499999999999 4000.5,1000.5000000000002" stroke="black" stroke-linecap="round" stroke-width="5" /><polyline clip-path="url(#border_clip)" fill="none" points="4500.5,1500.5 4600.5,1500.4999999999995 4650.5,1587.1025403784429 4600.500000000001,1673.705080756887 4500.500000000001,1673.7050807568876 4450.5,1587.1025403784442 4500.5,1500.5" stroke="black" stroke-linecap="round" stroke-width="5" /><polyline clip-path="url(#border_clip)" fill="none" points="0.5,2000.5 1000.4999999999989,2000.4999999999932 1000.5000000000059,3000.499999999992 0.500000000007276,3000.499999999999 0.5,2000.5" stroke="black" stroke-linecap="round" stroke-width="5" /><polyline clip-path="url(#border_clip)" fill="none" points="500.5,2500.5 522.3681091206377,2498.0796382627436 543.1776435496404,2490.9357160697573 561.9212712689666,2479.414050939639 577.6916650916319,2464.072374820996 589.7254238618391,2445.6533358310885 597.4400265939325,2425.0485487140795 600.4620307024945,2403.2554342368157 598.6451493252409,2381.3289368076257 592.0773326655049,2360.3304575347024 581.0765105660969,2341.2764747335013 566.1752024047723,2325.08933902231 548.0947393037061,2312.552624879351 527.7103464845322,2304.273199969075 506.00877603558524,2300.6518483566683 484.04054097192534,2301.863869659728 462.8690628052152,2307.85059327852 443.5191942489723,2318.322218477476 426.92760893268587,2332.7718428374264 413.8974596215553,2350.500000000001 400.8673103104243,2332.771842837427 384.2757249941378,2318.3222184774763 364.9258564378947,2307.850593278521 343.7543782711846,2301.863869659729 321.7861432075247,2300.6518483566697 300.0845727585779,2304.273199969077 279.7001799394043,2312.552624879353 261.61971683833826,2325.0893390223123 246.71840867701394,2341.276474733504 235.7175865776062,2360.330457534705 229.14976991787034,2381.3289368076285 227.3328885406172,2403.2554342368185 230.35489264917942,2425.048548714082 238.0694953812731,2445.6533358310908 250.10325415148054,2464.0723748209984 265.873647974146,2479.414050939641 284.6172756934725,2490.935716069759 305.4268101224752,2498.079638262745 327.2949192431129,2500.5000000000014 318.45695943360624,2520.6485188998317 314.23901032089,2542.242065452768 314.8452511578066,2564.235355781842 320.2463355018517,2585.5637555192766" stroke="black" stroke-linecap="round" stroke-width="5" /><polyline clip-path="url(#border_clip)" fill="none" points="1000.5,2000.5 2000.499999999999,2000.4999999999927 2000.5000000000064,3000.499999999992 1000.5000000000075,3000.499999999999 1000.5,2000.5" stroke="black" stroke-linecap="round" stroke-width="5" /><polyline clip-path="url(#border_clip)" fill="none" points="1500.5,2500.5 1522.7520933956314,2497.992791218182 1543.8883739117557,2490.5968867902416 1562.8489801858732,2478.6831482468024 1578.6831482468028,2462.8489801858727 1590.5968867902416,2443.888373911755 1597.9927912181818,2422.7520933956307 1600.499999999999,2400.4999999999995 1597.9927912181815,2378.247906604368 1590.5968867902407,2357.1116260882436 1578.6831482468017,2338.1510198141264 1562.8489801858718,2322.3168517531967 1543.8883739117543,2310.403113209758 1522.7520933956298,2303.0072087818176 1500.4999999999986,2300.5 1478.247906604367,2303.007208781818 1457.111626088243,2310.4031132097584 1438.1510198141254,2322.3168517531976 1422.316851753196,2338.1510198141273 1410.4031132097573,2357.111626088245 1403.007208781817,2378.2479066043693 1400.4999999999995,2400.500000000001 1403.0072087818173,2422.752093395632 1410.403113209758,2443.8883739117564 1422.316851753197,2462.848980185874 1438.1510198141266,2478.6831482468033 1457.1116260882443,2490.5968867902425 1478.2479066043688,2497.9927912181824 1500.5000000000002,2500.5" stroke="black" stroke-linecap="round" stroke-width="5" /><polyline clip-path="url(#border_clip)" fill="none" points="2000.5,2000.5 3000.4999999999995,2000.499999999993 3000.5000000000064,3000.4999999999927 2000.500000000007,3000.4999999999995 2000.5,2000.5" stroke="black" stroke-linecap="round" stroke-width="5" /><polyline clip-path="url(#border_clip)" fill="none" points="2500.5,2500.5 2600.5,2500.499999999999 2519.5983005625058,2559.278525229247 2550.4999999999995,2464.1728735997317 2581.401699437495,2559.2785252292465 2500.5,2500.5" stroke="black" stroke-linecap="round" stroke-width="5" /><polyline clip-path="url(#border_clip)" fill="none" points="3000.5,2000.5 4000.5,2000.4999999999918 4000.500000000008,3000.499999999992 3000.500000000008,3000.5 3000.5,2000.5" stroke="black" stroke-linecap="round" stroke-width="5" /><polyline clip-path="url(#border_clip)" fill="none" points="3500.5,2500.5 3600.5,2500.499999999999 3550.500000000001,2587.1025403784433 3500.5,2500.5" stroke="black" stroke-linecap="round" stroke-width="5" /><polyline clip-path="url(#border_clip)" fill="none" points="4000.5,2000.5 5000.5,2000.499999999991 5000.500000000009,3000.4999999999905 4000.500000000009,3000.4999999999995 4000.5,2000.5" stroke="black" stroke-linecap="round" stroke-width="5" /><polyline clip-path="url(#border_clip)" fill="none" points="4500.5,2500.5 4600.5,2500.499999999999 4650.500000000001,2587.1025403784424 4600.500000000002,2673.7050807568867 4500.500000000002,2673.7050807568876 4450.500000000001,2587.1025403784442 4500.5,2500.5" stroke="black" stroke-linecap="round" stroke-width="5" /><polyline clip-path="url(#border_clip)" fill="none" points="0.5,3000.5 1000.4999999999995,3000.49999999999 1000.5000000000095,4000.4999999999895 0.5000000000100044,4000.4999999999995 0.5,3000.5" stroke="black" stroke-linecap="round" stroke-width="5" /><polyline clip-path="url(#border_clip)" fill="none" points="500.5,3500.5 522.3681091206377,3498.079638262743 543.1776435496404,3490.9357160697573 561.9212712689666,3479.414050939639 577.6916650916319,3464.072374820996 589.7254238618391,3445.653335831088 597.4400265939325,3425.048548714079 600.4620307024945,3403.2554342368153 598.6451493252409,3381.3289368076253 592.0773326655046,3360.330457534702 581.0765105660964,3341.2764747335013 566.1752024047719,3325.0893390223096 548.0947393037056,3312.5526248793503 527.7103464845318,3304.2731999690745 506.0087760355848,3300.6518483566683 484.0405409719249,3301.863869659728 462.86906280521475,3307.85059327852 443.51919424897187,3318.322218477476 426.9276089326854,3332.7718428374264 413.89745962155484,3350.500000000001 400.8673103104238,3332.771842837427 384.2757249941369,3318.322218477477 364.9258564378938,3307.850593278521 343.75437827118367,3301.863869659729 321.78614320752376,3300.65184835667 300.084572758577,3304.273199969077 279.70017993940337,3312.552624879353 261.61971683833735,3325.0893390223127 246.71840867701303,3341.2764747335045 235.7175865776053,3360.3304575347056 229.14976991786943,3381.328936807629 227.3328885406163,3403.255434236819 230.3548926491785,3425.0485487140827 238.0694953812722,3445.6533358310917 250.10325415147963,3464.0723748209994 265.8736479741451,3479.4140509396416 284.6172756934716,3490.93571606976 305.4268101224743,3498.0796382627454 327.29491924311196,3500.500000000002 318.45695943360533,3520.648518899832 314.2390103208895,3542.2420654527687 314.8452511578066,3564.2353557818424 320.2463355018517,3585.563755519277" stroke="black" stroke-linecap="round" stroke-width="5" /><polyline clip-path="url(#border_clip)" fill="none" points="1000.5,3000.5 2000.4999999999989,3000.4999999999895 2000.5000000000093,4000.499999999988 1000.5000000000105,4000.499999999999 1000.4999999999998,3000.5" stroke="black" stroke-linecap="round" stroke-width="5" /><polyline clip-path="url(#border_clip)" fill="none" points="1500.5,3500.5 1522.7520933956314,3497.992791218182 1543.8883739117557,3490.5968867902416 1562.8489801858732,3478.6831482468024 1578.6831482468024,3462.8489801858727 1590.5968867902411,3443.888373911755 1597.9927912181815,3422.7520933956307 1600.4999999999989,3400.499999999999 1597.992791218181,3378.247906604368 1590.5968867902402,3357.1116260882436 1578.6831482468012,3338.151019814126 1562.8489801858714,3322.3168517531967 1543.888373911754,3310.403113209758 1522.7520933956293,3303.007208781818 1500.499999999998,3300.5000000000005 1478.2479066043666,3303.007208781818 1457.1116260882422,3310.403113209759 1438.1510198141248,3322.316851753198 1422.3168517531954,3338.1510198141277 1410.4031132097566,3357.1116260882454 1403.0072087818164,3378.2479066043697 1400.499999999999,3400.5000000000014 1403.0072087818169,3422.752093395633 1410.4031132097575,3443.8883739117573 1422.3168517531967,3462.8489801858746 1438.1510198141266,3478.6831482468037 1457.1116260882443,3490.5968867902425 1478.2479066043688,3497.992791218183 1500.5000000000002,3500.5" stroke="black" stroke-linecap="round" stroke-width="5" /><polyline clip-path="url(#border_clip)" fill="none" points="2000.5,3000.5 3000.499999999999,3000.4999999999895 3000.50000000001,4000.4999999999886 2000.5000000000107,4000.499999999999 2000.5,3000.5" stroke="black" stroke-linecap="round" stroke-width="5" /><polyline clip-path="url(#border_clip)" fill="none" points="2500.5,3500.5 2600.5,3500.499999999999 2519.5983005625058,3559.278525229247 2550.4999999999995,3464.1728735997312 2581.401699437495,3559.278525229246 2500.5,3500.5" stroke="black" stroke-linecap="round" stroke-width="5" /><polyline clip-path="url(#border_clip)" fill="none" points="3000.5,3000.5 4000.499999999999,3000.499999999988 4000.500000000011,4000.4999999999873 3000.500000000012,4000.499999999999 3000.5,3000.5" stroke="black" stroke-linecap="round" stroke-width="5" /><polyline clip-path="url(#border_clip)" fill="none" points="3500.5,3500.5 3600.5,3500.499999999999 3550.500000000001,3587.1025403784433 3500.5,3500.5" stroke="black" stroke-linecap="round" stroke-width="5" /><polyline clip-path="url(#border_clip)" fill="none" points="4000.5,3000.5 5000.499999999999,3000.4999999999873 5000.500000000012,4000.4999999999864 4000.5000000000127,4000.499999999999 4000.5,3000.5" stroke="black" stroke-linecap="round" stroke-width="5" /><polyline clip-path="url(#border_clip)" fill="none" points="4500.5,3500.5 4600.5,3500.4999999999986 4650.500000000001,3587.102540378442 4600.500000000002,3673.7050807568867 4500.500000000002,3673.7050807568876 4450.500000000001,3587.1025403784447 4500.5,3500.5" stroke="black" stroke-linecap="round" stroke-width="5" /><polyline clip-path="url(#border_clip)" fill="none" points="0.5,4000.5 1000.4999999999991,4000.4999999999864 1000.5000000000127,5000.499999999985 0.5000000000136424,5000.499999999999 0.5,4000.5" stroke="black" stroke-linecap="round" stroke-width="5" /><polyline clip-path="url(#border_clip)" fill="none" points="500.5,4500.5 522.3681091206374,4498.079638262743 543.1776435496402,4490.935716069757 561.9212712689664,4479.414050939638 577.6916650916314,4464.072374820996 589.7254238618384,4445.653335831088 597.4400265939319,4425.048548714079 600.4620307024936,4403.255434236815 598.64514932524,4381.328936807625 592.0773326655037,4360.330457534702 581.0765105660955,4341.2764747335 566.175202404771,4325.08933902231 548.0947393037047,4312.55262487935 527.7103464845309,4304.273199969075 506.0087760355839,4300.651848356669 484.040540971924,4301.863869659728 462.86906280521384,4307.850593278521 443.51919424897096,4318.322218477477 426.9276089326845,4332.771842837427 413.89745962155393,4350.500000000002 400.8673103104229,4332.771842837427 384.275724994136,4318.322218477477 364.9258564378929,4307.850593278522 343.75437827118276,4301.86386965973 321.78614320752285,4300.651848356671 300.0845727585761,4304.273199969078 279.70017993940246,4312.552624879354 261.61971683833644,4325.089339022314 246.71840867701212,4341.276474733506 235.71758657760438,4360.3304575347065 229.14976991786853,4381.32893680763 227.3328885406154,4403.25543423682 230.3548926491776,4425.048548714083 238.06949538127174,4445.653335831093 250.10325415147918,4464.072374821 265.87364797414466,4479.414050939642 284.61727569347113,4490.935716069761 305.42681012247385,4498.079638262746 327.2949192431115,4500.500000000002 318.4569594336049,4520.648518899833 314.23901032088907,4542.242065452769 314.84525115780616,4564.235355781843 320.24633550185126,4585.563755519278" stroke="black" stroke-linecap="round" stroke-width="5" /><polyline clip-path="url(#border_clip)" fill="none" points="1000.5,4000.5 2000.4999999999986,4000.499999999986 2000.5000000000127,5000.4999999999845 1000.5000000000141,5000.499999999998 1000.4999999999998,4000.5" stroke="black" stroke-linecap="round" stroke-width="5" /><polyline clip-path="url(#border_clip)" fill="none" points="1500.5,4500.5 1522.7520933956314,4497.992791218182 1543.8883739117555,4490.596886790241 1562.848980185873,4478.683148246802 1578.6831482468024,4462.848980185872 1590.5968867902411,4443.888373911755 1597.992791218181,4422.75209339563 1600.4999999999986,4400.499999999998 1597.9927912181806,4378.247906604367 1590.5968867902398,4357.111626088243 1578.6831482468006,4338.151019814126 1562.848980185871,4322.316851753196 1543.8883739117532,4310.403113209757 1522.7520933956287,4303.007208781817 1500.4999999999973,4300.5 1478.2479066043657,4303.007208781818 1457.1116260882416,4310.403113209759 1438.1510198141243,4322.316851753198 1422.316851753195,4338.151019814128 1410.4031132097562,4357.111626088245 1403.007208781816,4378.24790660437 1400.4999999999986,4400.500000000002 1403.0072087818166,4422.752093395633 1410.4031132097573,4443.888373911757 1422.3168517531965,4462.848980185874 1438.1510198141264,4478.683148246804 1457.111626088244,4490.596886790243 1478.2479066043684,4497.992791218183 1500.5,4500.5" stroke="black" stroke-linecap="round" stroke-width="5" /><polyline clip-path="url(#border_clip)" fill="none" points="2000.5,4000.5 3000.499999999999,4000.4999999999864 3000.5000000000127,5000.499999999985 2000.5000000000136,5000.499999999999 2000.5,4000.5" stroke="black" stroke-linecap="round" stroke-width="5" /><polyline clip-path="url(#border_clip)" fill="none" points="2500.5,4500.5 2600.5,4500.499999999998 2519.598300562506,4559.278525229247 2550.4999999999995,4464.172873599731 2581.4016994374956,4559.278525229246 2500.5,4500.5" stroke="black" stroke-linecap="round" stroke-width="5" /><polyline clip-path="url(#border_clip)" fill="none" points="3000.5,4000.5 4000.499999999999,4000.4999999999854 4000.5000000000136,5000.4999999999845 3000.5000000000146,5000.499999999999 3000.5,4000.5" stroke="black" stroke-linecap="round" stroke-width="5" /><polyline clip-path="url(#border_clip)" fill="none" points="3500.5,4500.5 3600.5,4500.499999999998 3550.5000000000014,4587.102540378442 3500.5,4500.5" stroke="black" stroke-linecap="round" stroke-width="5" /><polyline clip-path="url(#border_clip)" fill="none" points="4000.5,4000.5 5000.499999999999,4000.4999999999845 5000.500000000015,5000.499999999984 4000.5000000000155,5000.499999999999 4000.5,4000.5" stroke="black" stroke-linecap="round" stroke-width="5" /><polyline clip-path="url(#border_clip)" fill="none" points="4500.5,4500.5 4600.5,4500.499999999998 4650.500000000002,4587.1025403784415 4600.500000000003,4673.705080756887 4500.500000000003,4673.7050807568885 4450.500000000002,4587.102540378445 4500.5,4500.5" stroke="black" stroke-linecap="round" stroke-width="5" /></svg>