<?xml version="1.0" encoding="utf-8" ?>
<svg baseProfile="full" height="1000px" version="1.1" width="1000px" xmlns="http://www.w3.org/2000/svg" xmlns:ev="http://www.w3.org/2001/xml-events" xmlns:xlink="http://www.w3.org/1999/xlink"><defs><clipPath id="border_clip"><rect height="1000" width="1000" x="0" y="0" /></clipPath></defs><polyline clip-path="url(#border_clip)" fill="none" points="0.5,0.5 200.5,0.5 200.5,200.5 0.5,200.5 0.49999999999994316,0.5" stroke="black" stroke-linecap="round" stroke-width="5" /><polyline clip-path="url(#border_clip)" fill="none" points="200.5,0.5 400.5,0.49999999999994316 400.50000000000006,200.49999999999994 200.50000000000006,200.5 200.49999999999994,0.5" stroke="black" stroke-linecap="round" stroke-width="5" /><polyline clip-path="url(#border_clip)" fill="none" points="400.5,0.5 600.5,0.4999999999998863 600.5000000000001,200.4999999999999 400.5000000000001,200.5 400.5,0.5" stroke="black" stroke-linecap="round" stroke-width="5" /><polyline clip-path="url(#border_clip)" fill="none" points="600.5,0.5 800.5,0.49999999999982947 800.5000000000002,200.49999999999983 600.5000000000002,200.5 600.5,0.5" stroke="black" stroke-linecap="round" stroke-width="5" /><polyline clip-path="url(#border_clip)" fill="none" points="800.5,0.5 1000.5,0.49999999999982947 1000.5000000000002,200.49999999999983 800.5000000000002,200.50000000000006 800.5,0.5000000000000568" stroke="black" stroke-linecap="round" stroke-width="5" /><polyline clip-path="url(#border_clip)" fill="none" points="0.5,200.5 200.5,200.49999999999977 200.50000000000028,400.4999999999998 0.5000000000002842,400.50000000000006 0.5,200.50000000000006" stroke="black" stroke-linecap="round" stroke-width="5" /><polyline clip-path="url(#border_clip)" fill="none" points="200.5,200.5 400.5,200.49999999999972 400.50000000000034,400.4999999999997 200.50000000000034,400.5 200.5,200.5" stroke="black" stroke-linecap="round" stroke-width="5" /><polyline clip-path="url(#border_clip)" fill="none" points="400.5,200.5 600.5,200.49999999999966 600.5000000000003,400.49999999999966 400.50000000000034,400.5 400.5,200.5" stroke="black" stroke-linecap="round" stroke-width="5" /><polyline clip-path="url(#border_clip)" fill="none" points="600.5,200.5 800.5,200.4999999999996 800.5000000000005,400.4999999999996 600.5000000000005,400.5 600.5,200.5" stroke="black" stroke-linecap="round" stroke-width="5" /><polyline clip-path="url(#border_clip)" fill="none" points="800.5,200.5 1000.5,200.49999999999955 1000.5000000000005,400.49999999999955 800.5000000000005,400.5 800.5,200.5" stroke="black" stroke-linecap="round" stroke-width="5" /><polyline clip-path="url(#border_clip)" fill="none" points="0.5,400.5 200.5,400.49999999999955 200.5000000000005,600.4999999999995 0.5000000000005116,600.5 0.5,400.5" stroke="black" stroke-linecap="round" stroke-width="5" /><polyline clip-path="url(#border_clip)" fill="none" points="200.5,400.5 400.5,400.49999999999943 400.50000000000057,600.4999999999994 200.50000000000057,600.5 200.5,400.5" stroke="black" stroke-linecap="round" stroke-width="5" /><polyline clip-path="url(#border_clip)" fill="none" points="400.5,400.5 600.5,400.49999999999943 600.5000000000006,600.4999999999994 400.50000000000057,600.5 400.5,400.5" stroke="black" stroke-linecap="round" stroke-width="5" /><polyline clip-path="url(#border_clip)" fill="none" points="600.5,400.5 800.5,400.4999999999994 800.5000000000007,600.4999999999993 600.5000000000007,600.5 600.5,400.5" stroke="black" stroke-linecap="round" stroke-width="5" /><polyline clip-path="url(#border_clip)" fill="none" points="800.5,400.5 1000.5,400.4999999999993 1000.5000000000007,600.4999999999993 800.5000000000007,600.5 800.5,400.5" stroke="black" stroke-linecap="round" stroke-width="5" /><polyline clip-path="url(#border_clip)" fill="none" points="0.5,600.5 200.5,600.4999999999993 200.50000000000074,800.4999999999993 0.500000000000739,800.5 0.49999999999994316,600.5" stroke="black" stroke-linecap="round" stroke-width="5" /><polyline clip-path="url(#border_clip)" fill="none" points="200.5,600.5 400.5,600.4999999999992 400.5000000000008,800.4999999999992 200.5000000000008,800.5 200.5,600.5" stroke="black" stroke-linecap="round" stroke-width="5" /><polyline clip-path="url(#border_clip)" fill="none" points="400.5,600.5 600.5,600.4999999999992 600.5000000000008,800.4999999999991 400.50000000000085,800.5 400.5,600.5" stroke="black" stroke-linecap="round" stroke-width="5" /><polyline clip-path="url(#border_clip)" fill="none" points="600.5,600.5 800.5,600.4999999999991 800.5000000000009,800.4999999999991 600.5000000000009,800.5 600.5,600.5" stroke="black" stroke-linecap="round" stroke-width="5" /><polyline clip-path="url(#border_clip)" fill="none" points="800.5,600.5 1000.5,600.4999999999991 1000.5000000000009,800.4999999999991 800.5000000000009,800.5 800.5,600.5" stroke="black" stroke-linecap="round" stroke-width="5" /><polyline clip-path="url(#border_clip)" fill="none" points="0.5,800.5 200.5,800.4999999999991 200.50000000000097,1000.4999999999991 0.5000000000009663,1000.5 0.49999999999994316,800.5" stroke="black" stroke-linecap="round" stroke-width="5" /><polyline clip-path="url(#border_clip)" fill="none" points="200.5,800.5 400.5,800.499999999999 400.500000000001,1000.499999999999 200.50000000000102,1000.5 200.49999999999994,800.5" stroke="black" stroke-linecap="round" stroke-width="5" /><polyline clip-path="url(#border_clip)" fill="none" points="400.5,800.5 600.5,800.4999999999989 600.5000000000011,1000.4999999999989 400.5000000000011,1000.5 400.5,800.5" stroke="black" stroke-linecap="round" stroke-width="5" /><polyline clip-path="url(#border_clip)" fill="none" points="600.5,800.5 800.5,800.4999999999989 800.5000000000011,1000.4999999999989 600.5000000000011,1000.5 600.5,800.5" stroke="black" stroke-linecap="round" stroke-width="5" /><polyline clip-path="url(#border_clip)" fill="none" points="800.5,800.5 1000.5,800.4999999999989 1000.5000000000011,1000.4999999999989 800.5000000000011,1000.5 800.5,800.5" stroke="black" stroke-linecap="round" stroke-width="5" /></svg>