<?xml version="1.0" encoding="utf-8" ?>
<svg baseProfile="full" height="5000px" version="1.1" width="5000px" xmlns="http://www.w3.org/2000/svg" xmlns:ev="http://www.w3.org/2001/xml-events" xmlns:xlink="http://www.w3.org/1999/xlink"><defs><clipPath id="border_clip"><rect height="5000" width="5000" x="0" y="0" /></clipPath></defs><polyline clip-path="url(#border_clip)" fill="none" points="0.5,0.5 1000.5,0.5 1000.5,1000.5 0.5,1000.5000000000002 0.5,0.5" stroke="black" stroke-linecap="round" stroke-width="5" /><polyline clip-path="url(#border_clip)" fill="none" points="500.5,500.5 250.5,67.48729810778059 0.5,500.4999999999998 500.5,500.5" stroke="black" stroke-linecap="round" stroke-width="5" /><polyline clip-path="url(#border_clip)" fill="none" points="1000.5,0.5 2000.4999999999998,0.5000000000004547 2000.4999999999995,1000.5000000000002 1000.4999999999995,1000.5 1000.4999999999998,0.5" stroke="black" stroke-linecap="round" stroke-width="5" /><polyline clip-path="url(#border_clip)" fill="none" points="1500.5,500.5 1250.5000000000002,67.48729810778059 1000.5,500.49999999999955 1500.5,500.5" stroke="black" stroke-linecap="round" stroke-width="5" /><polyline clip-path="url(#border_clip)" fill="none" points="2000.5,0.5 3000.5,0.5000000000009095 3000.499999999999,1000.5000000000007 2000.4999999999993,1000.5 2000.4999999999998,0.5" stroke="black" stroke-linecap="round" stroke-width="5" /><polyline clip-path="url(#border_clip)" fill="none" points="2500.5,500.5 2250.5000000000005,67.48729810778059 2000.5,500.49999999999955 2500.5,500.5" stroke="black" stroke-linecap="round" stroke-width="5" /><polyline clip-path="url(#border_clip)" fill="none" points="3000.5,0.5 4000.4999999999995,0.5000000000009095 4000.4999999999986,1000.5000000000005 3000.499999999999,1000.4999999999995 3000.5,0.5" stroke="black" stroke-linecap="round" stroke-width="5" /><polyline clip-path="url(#border_clip)" fill="none" points="3500.5,500.5 3250.5000000000005,67.48729810778059 3000.5,500.4999999999993 3500.5,500.5" stroke="black" stroke-linecap="round" stroke-width="5" /><polyline clip-path="url(#border_clip)" fill="none" points="4000.5,0.5 5000.5,0.5000000000013642 5000.499999999998,1000.5000000000009 4000.4999999999986,1000.4999999999995 4000.5,0.5" stroke="black" stroke-linecap="round" stroke-width="5" /><polyline clip-path="url(#border_clip)" fill="none" points="4500.5,500.5 4250.500000000001,67.48729810778059 4000.5,500.4999999999991 4500.5,500.5" stroke="black" stroke-linecap="round" stroke-width="5" /><polyline clip-path="url(#border_clip)" fill="none" points="0.5,1000.5 1000.4999999999993,1000.500000000002 1000.4999999999975,2000.5000000000014 0.499999999998181,2000.4999999999995 0.5,1000.5000000000002" stroke="black" stroke-linecap="round" stroke-width="5" /><polyline clip-path="url(#border_clip)" fill="none" points="500.5,1500.5 250.5000000000009,1067.4872981077806 0.5,1500.499999999999 500.49999999999955,1500.5000000000002" stroke="black" stroke-linecap="round" stroke-width="5" /><polyline clip-path="url(#border_clip)" fill="none" points="1000.5,1000.5 2000.4999999999993,1000.5000000000023 2000.499999999997,2000.5000000000016 1000.4999999999977,2000.4999999999993 1000.4999999999998,1000.5" stroke="black" stroke-linecap="round" stroke-width="5" /><polyline clip-path="url(#border_clip)" fill="none" points="1500.5,1500.5 1250.5000000000011,1067.4872981077804 1000.5000000000002,1500.4999999999986 1500.4999999999998,1500.5" stroke="black" stroke-linecap="round" stroke-width="5" /><polyline clip-path="url(#border_clip)" fill="none" points="2000.5,1000.5 3000.499999999999,1000.5000000000027 3000.4999999999964,2000.5000000000018 2000.4999999999973,2000.499999999999 2000.5,1000.5" stroke="black" stroke-linecap="round" stroke-width="5" /><polyline clip-path="url(#border_clip)" fill="none" points="2500.5,1500.5 2250.5000000000014,1067.4872981077804 2000.5000000000005,1500.4999999999986 2500.5,1500.5" stroke="black" stroke-linecap="round" stroke-width="5" /><polyline clip-path="url(#border_clip)" fill="none" points="3000.5,1000.5 4000.499999999999,1000.500000000003 4000.4999999999964,2000.5000000000018 3000.4999999999973,2000.499999999999 3000.5,1000.5" stroke="black" stroke-linecap="round" stroke-width="5" /><polyline clip-path="url(#border_clip)" fill="none" points="3500.5,1500.5 3250.500000000002,1067.4872981077804 3000.5000000000005,1500.4999999999984 3500.5,1500.5" stroke="black" stroke-linecap="round" stroke-width="5" /><polyline clip-path="url(#border_clip)" fill="none" points="4000.5,1000.5 5000.499999999999,1000.5000000000034 5000.499999999996,2000.5000000000023 4000.4999999999973,2000.499999999999 4000.5,1000.5000000000002" stroke="black" stroke-linecap="round" stroke-width="5" /><polyline clip-path="url(#border_clip)" fill="none" points="4500.5,1500.5 4250.500000000002,1067.4872981077804 4000.500000000001,1500.4999999999982 4500.5,1500.5" stroke="black" stroke-linecap="round" stroke-width="5" /><polyline clip-path="url(#border_clip)" fill="none" points="0.5,2000.5 1000.4999999999986,2000.5000000000036 1000.499999999995,3000.5000000000023 0.499999999996362,3000.4999999999986 0.5,2000.5" stroke="black" stroke-linecap="round" stroke-width="5" /><polyline clip-path="url(#border_clip)" fill="none" points="500.5,2500.5 250.50000000000182,2067.48729810778 0.5000000000004547,2500.499999999998 500.4999999999998,2500.5" stroke="black" stroke-linecap="round" stroke-width="5" /><polyline clip-path="url(#border_clip)" fill="none" points="1000.5,2000.5 2000.4999999999986,2000.500000000004 2000.4999999999945,3000.5000000000027 1000.4999999999959,3000.4999999999986 1000.5,2000.5" stroke="black" stroke-linecap="round" stroke-width="5" /><polyline clip-path="url(#border_clip)" fill="none" points="1500.5,2500.5 1250.500000000002,2067.48729810778 1000.5000000000005,2500.4999999999977 1500.4999999999998,2500.5" stroke="black" stroke-linecap="round" stroke-width="5" /><polyline clip-path="url(#border_clip)" fill="none" points="2000.5,2000.5 3000.4999999999986,2000.5000000000045 3000.499999999994,3000.500000000003 2000.4999999999955,3000.4999999999986 2000.5,2000.5" stroke="black" stroke-linecap="round" stroke-width="5" /><polyline clip-path="url(#border_clip)" fill="none" points="2500.5,2500.5 2250.5000000000023,2067.48729810778 2000.5000000000007,2500.4999999999977 2500.5,2500.5" stroke="black" stroke-linecap="round" stroke-width="5" /><polyline clip-path="url(#border_clip)" fill="none" points="3000.5,2000.5 4000.499999999998,2000.500000000005 4000.4999999999936,3000.500000000003 3000.4999999999955,3000.4999999999986 3000.5,2000.5" stroke="black" stroke-linecap="round" stroke-width="5" /><polyline clip-path="url(#border_clip)" fill="none" points="3500.5,2500.5 3250.5000000000027,2067.48729810778 3000.500000000001,2500.4999999999973 3500.5,2500.5" stroke="black" stroke-linecap="round" stroke-width="5" /><polyline clip-path="url(#border_clip)" fill="none" points="4000.5,2000.5 5000.499999999998,2000.5000000000055 5000.499999999993,3000.5000000000036 4000.4999999999945,3000.499999999998 4000.5,2000.5" stroke="black" stroke-linecap="round" stroke-width="5" /><polyline clip-path="url(#border_clip)" fill="none" points="4500.5,2500.5 4250.500000000003,2067.48729810778 4000.500000000001,2500.4999999999973 4500.5,2500.5" stroke="black" stroke-linecap="round" stroke-width="5" /><polyline clip-path="url(#border_clip)" fill="none" points="0.5,3000.5 1000.499999999998,3000.500000000006 1000.4999999999923,4000.5000000000036 0.49999999999454303,4000.499999999998 0.5,3000.5" stroke="black" stroke-linecap="round" stroke-width="5" /><polyline clip-path="url(#border_clip)" fill="none" points="500.5,3500.5 250.50000000000318,3067.48729810778 0.5000000000009095,3500.4999999999973 500.4999999999998,3500.5" stroke="black" stroke-linecap="round" stroke-width="5" /><polyline clip-path="url(#border_clip)" fill="none" points="1000.5,3000.5 2000.4999999999977,3000.5000000000064 2000.4999999999916,4000.5000000000036 1000.4999999999939,4000.4999999999977 1000.4999999999998,3000.5" stroke="black" stroke-linecap="round" stroke-width="5" /><polyline clip-path="url(#border_clip)" fill="none" points="1500.5,3500.5 1250.5000000000032,3067.48729810778 1000.5000000000009,3500.499999999997 1500.4999999999998,3500.5" stroke="black" stroke-linecap="round" stroke-width="5" /><polyline clip-path="url(#border_clip)" fill="none" points="2000.5,3000.5 3000.4999999999977,3000.5000000000064 3000.499999999991,4000.500000000004 2000.4999999999934,4000.4999999999973 2000.5,3000.5" stroke="black" stroke-linecap="round" stroke-width="5" /><polyline clip-path="url(#border_clip)" fill="none" points="2500.5,3500.5 2250.5000000000036,3067.48729810778 2000.5000000000011,3500.4999999999964 2500.5,3500.5" stroke="black" stroke-linecap="round" stroke-width="5" /><polyline clip-path="url(#border_clip)" fill="none" points="3000.5,3000.5 4000.4999999999977,3000.500000000007 4000.499999999991,4000.5000000000045 3000.499999999993,4000.4999999999977 3000.5,3000.5" stroke="black" stroke-linecap="round" stroke-width="5" /><polyline clip-path="url(#border_clip)" fill="none" points="3500.5,3500.5 3250.5000000000036,3067.4872981077797 3000.5000000000014,3500.4999999999964 3500.5,3500.5" stroke="black" stroke-linecap="round" stroke-width="5" /><polyline clip-path="url(#border_clip)" fill="none" points="4000.5,3000.5 5000.499999999998,3000.5000000000073 5000.499999999991,4000.5000000000045 4000.4999999999927,4000.4999999999977 4000.5,3000.5" stroke="black" stroke-linecap="round" stroke-width="5" /><polyline clip-path="url(#border_clip)" fill="none" points="4500.5,3500.5 4250.500000000004,3067.4872981077797 4000.500000000001,3500.4999999999964 4500.5,3500.5" stroke="black" stroke-linecap="round" stroke-width="5" /><polyline clip-path="url(#border_clip)" fill="none" points="0.5,4000.5 1000.4999999999973,4000.5000000000073 1000.4999999999898,5000.5000000000055 0.4999999999922693,5000.499999999998 0.49999999999954525,4000.5000000000005" stroke="black" stroke-linecap="round" stroke-width="5" /><polyline clip-path="url(#border_clip)" fill="none" points="500.5,4500.5 250.5000000000041,4067.4872981077797 0.5000000000013642,4500.499999999996 500.5,4500.5" stroke="black" stroke-linecap="round" stroke-width="5" /><polyline clip-path="url(#border_clip)" fill="none" points="1000.5,4000.5 2000.4999999999973,4000.500000000008 2000.4999999999893,5000.5000000000055 1000.499999999992,5000.499999999998 1000.4999999999998,4000.5000000000005" stroke="black" stroke-linecap="round" stroke-width="5" /><polyline clip-path="url(#border_clip)" fill="none" points="1500.5,4500.5 1250.500000000004,4067.4872981077797 1000.5000000000014,4500.499999999996 1500.5,4500.5" stroke="black" stroke-linecap="round" stroke-width="5" /><polyline clip-path="url(#border_clip)" fill="none" points="2000.5,4000.5 3000.4999999999973,4000.500000000008 3000.499999999989,5000.5000000000055 2000.4999999999918,5000.499999999997 2000.5,4000.5" stroke="black" stroke-linecap="round" stroke-width="5" /><polyline clip-path="url(#border_clip)" fill="none" points="2500.5,4500.5 2250.500000000004,4067.4872981077797 2000.5000000000014,4500.499999999996 2500.5,4500.5" stroke="black" stroke-linecap="round" stroke-width="5" /><polyline clip-path="url(#border_clip)" fill="none" points="3000.5,4000.5 4000.499999999997,4000.5000000000086 4000.499999999988,5000.5000000000055 3000.4999999999914,5000.499999999996 3000.4999999999995,4000.5" stroke="black" stroke-linecap="round" stroke-width="5" /><polyline clip-path="url(#border_clip)" fill="none" points="3500.5,4500.5 3250.5000000000045,4067.4872981077797 3000.500000000002,4500.499999999995 3500.5,4500.5" stroke="black" stroke-linecap="round" stroke-width="5" /><polyline clip-path="url(#border_clip)" fill="none" points="4000.5,4000.5 5000.499999999996,4000.500000000009 5000.499999999987,5000.5000000000055 4000.499999999991,5000.499999999996 4000.5,4000.5" stroke="black" stroke-linecap="round" stroke-width="5" /><polyline clip-path="url(#border_clip)" fill="none" points="4500.5,4500.5 4250.500000000005,4067.4872981077797 4000.500000000002,4500.499999999995 4500.5,4500.5" stroke="black" stroke-linecap="round" stroke-width="5" /></svg>