<?xml version="1.0" encoding="utf-8" ?>
<svg baseProfile="full" height="1000px" version="1.1" width="1000px" xmlns="http://www.w3.org/2000/svg" xmlns:ev="http://www.w3.org/2001/xml-events" xmlns:xlink="http://www.w3.org/1999/xlink"><defs><clipPath id="border_clip"><rect height="1000" width="1000" x="0" y="0" /></clipPath></defs><polyline clip-path="url(#border_clip)" fill="none" points="-79.75366449814919,185.56375551927567 -69.81918820469662,205.1948158122429 -55.8322204878433,222.17825131684532 -38.46983177723155,235.6919408838329 -18.572487298912165,245.08172417006364 2.8966375221482394,249.8930677317951 24.898281720964064,249.8930677317951 46.36740654202447,245.0817241700636 66.26475102034391,235.69194088383284 83.62713973095566,222.17825131684526 97.61410744780898,205.19481581224284 107.54858374126161,185.56375551927562 112.94966808530643,164.235355781841 113.55590892222307,142.24206545276695 109.3379598095068,120.64851889983072 100.49999999999994,100.50000000000017" stroke="black" stroke-linecap="round" stroke-width="5" /><polygon clip-path="url(#border_clip)" fill="#ff0000" fill-rule="evenodd" points="900.5,100.5 1000.4999999999999,100.49999999999972 1050.5,187.10254037844334 1000.5000000000005,273.70508075688724 900.5000000000006,273.7050807568876 850.5000000000003,187.10254037844402 900.5,100.50000000000006" stroke-width="0" /><polyline clip-path="url(#border_clip)" fill="none" points="-79.75366449814874,385.563755519276 -69.81918820469605,405.1948158122432 -55.83222048784273,422.17825131684555 -38.46983177723098,435.69194088383307 -18.572487298911483,445.0817241700637 2.8966375221489216,449.8930677317951 24.898281720964746,449.893067731795 46.367406542025094,445.08172417006347 66.26475102034448,435.6919408838326 83.62713973095617,422.178251316845 97.61410744780937,405.1948158122425 107.5485837412619,385.5637555192753 112.94966808530666,364.23535578184067 113.55590892222324,342.2420654527666 109.33795980950691,320.6485188998305 100.49999999999994,300.5" stroke="black" stroke-linecap="round" stroke-width="5" /><polygon clip-path="url(#border_clip)" fill="#ff0000" fill-rule="evenodd" points="900.5,300.5 1000.4999999999999,300.49999999999943 1050.5000000000005,387.1025403784429 1000.5000000000009,473.70508075688696 900.500000000001,473.7050807568876 850.5000000000005,387.10254037844413 900.4999999999999,300.50000000000006" stroke-width="0" /><polyline clip-path="url(#border_clip)" fill="none" points="-79.75366449814828,585.5637555192766 -69.81918820469548,605.1948158122437 -55.83222048784205,622.1782513168461 -38.46983177723018,635.6919408838335 -18.572487298910687,645.081724170064 2.8966375221497174,649.8930677317954 24.898281720965542,649.8930677317952 46.36740654202589,645.0817241700636 66.26475102034522,635.6919408838327 83.62713973095686,622.178251316845 97.61410744781006,605.1948158122425 107.54858374126252,585.5637555192752 112.94966808530722,564.2353557818406 113.5559089222237,542.2420654527665 109.33795980950731,520.6485188998304 100.50000000000028,500.4999999999999" stroke="black" stroke-linecap="round" stroke-width="5" /><polygon clip-path="url(#border_clip)" fill="#ff0000" fill-rule="evenodd" points="900.5,500.5 1000.5,500.4999999999991 1050.5000000000007,587.1025403784424 1000.5000000000016,673.7050807568867 900.5000000000016,673.7050807568877 850.5000000000008,587.1025403784444 900.5,500.5" stroke-width="0" /><polyline clip-path="url(#border_clip)" fill="none" points="-79.75366449814851,785.563755519277 -69.8191882046957,805.1948158122442 -55.83222048784228,822.1782513168464 -38.46983177723041,835.6919408838339 -18.572487298910914,845.0817241700645 2.896637522149547,849.8930677317957 24.89828172096537,849.8930677317954 46.36740654202572,845.0817241700638 66.26475102034505,835.6919408838328 83.62713973095663,822.178251316845 97.61410744780977,805.1948158122425 107.54858374126218,785.5637555192752 112.94966808530683,764.2353557818406 113.55590892222324,742.2420654527665 109.3379598095068,720.6485188998304 100.49999999999972,700.4999999999999" stroke="black" stroke-linecap="round" stroke-width="5" /><polygon clip-path="url(#border_clip)" fill="#ff0000" fill-rule="evenodd" points="900.5,700.5 1000.4999999999999,700.4999999999987 1050.500000000001,787.1025403784419 1000.500000000002,873.7050807568862 900.5000000000022,873.7050807568876 850.500000000001,787.1025403784445 900.4999999999998,700.5" stroke-width="0" /><polyline clip-path="url(#border_clip)" fill="none" points="-79.75366449814805,985.5637555192777 -69.81918820469514,1005.1948158122448 -55.832220487841596,1022.1782513168471 -38.46983177722973,1035.6919408838344 -18.572487298910232,1045.0817241700647 2.896637522150229,1049.893067731796 24.898281720966054,1049.8930677317958 46.3674065420264,1045.0817241700638 66.26475102034567,1035.691940883833 83.6271397309572,1022.1782513168451 97.61410744781028,1005.1948158122425 107.54858374126263,985.5637555192752 112.94966808530717,964.2353557818406 113.55590892222352,942.2420654527664 109.33795980950697,920.6485188998304 100.49999999999983,900.5" stroke="black" stroke-linecap="round" stroke-width="5" /><polygon clip-path="url(#border_clip)" fill="#ff0000" fill-rule="evenodd" points="900.5,900.5 1000.4999999999999,900.4999999999984 1050.5000000000014,987.1025403784414 1000.5000000000027,1073.705080756886 900.5000000000027,1073.7050807568876 850.5000000000014,987.1025403784447 900.5,900.5" stroke-width="0" /><polyline clip-path="url(#border_clip)" fill="none" points="0.5,0.5 200.5,0.5 200.5,200.5 0.5,200.5 0.49999999999994316,0.5" stroke="black" stroke-linecap="round" stroke-width="5" /><polyline clip-path="url(#border_clip)" fill="none" points="100.5,100.5 122.3681091206376,98.07963826274357 143.17764354964038,90.93571606975775 161.9212712689668,79.41405093963937 177.6916650916321,64.0723748209968 189.72542386183943,45.65333583108895 197.44002659393306,25.048548714079914 200.46203070249516,3.2554342368161997 198.6451493252418,-18.671063192373822 192.07733266550576,-39.6695424652969 181.07651056609785,-58.72352526649797 166.17520240477347,-74.91066097768964 148.0947393037074,-87.44737512064887 127.71034648453355,-95.726800030925 106.0087760355866,-99.34815164333156 84.04054097192665,-98.13613034027219 62.86906280521646,-92.14940672148009 43.519194248973406,-81.67778152252447 26.927608932686837,-67.228157162574 13.897459621556152,-49.499999999999886 0.8673103104254665,-67.228157162574 -15.724275005861045,-81.67778152252436 -35.074143562104155,-92.14940672147998 -56.245621728814285,-98.13613034027208 -78.21385679247419,-99.34815164333145 -99.91542724142118,-95.72680003092489 -120.29982006059504,-87.44737512064876 -138.38028316166117,-74.91066097768942 -153.2815913229855,-58.723525266497745 -164.28241342239346,-39.66954246529667 -170.85023008212954,-18.671063192373595 -172.6671114593829,3.255434236816427 -169.6451073508208,25.04854871408014 -161.93050461872713,45.65333583108918 -149.8967458485198,64.07237482099703 -134.12635202585443,79.4140509396396 -115.38272430652796,90.93571606975797 -94.57318987752512,98.0796382627438 -72.70508075688758,100.50000000000023 -81.54304056639444,120.64851889983078 -85.76098967911071,142.242065452767 -85.15474884219407,164.23535578184106 -79.75366449814919,185.56375551927567" stroke="black" stroke-linecap="round" stroke-width="5" /><polyline clip-path="url(#border_clip)" fill="none" points="200.5,0.5 400.49999999999983,0.49999999999994316 400.4999999999999,200.49999999999977 200.5000000000001,200.4999999999999 200.5,0.5000000000000568" stroke="black" stroke-linecap="round" stroke-width="5" /><polyline clip-path="url(#border_clip)" fill="none" points="300.5,100.5 322.7520933956314,97.99279121818233 343.88837391175576,90.59688679024185 362.8489801858733,78.68314824680294 378.6831482468029,62.8489801858733 390.5968867902418,43.888373911755764 397.9927912181822,22.75209339563139 400.49999999999983,0.5 397.99279121818216,-21.75209339563139 390.59688679024174,-42.88837391175571 378.68314824680283,-61.84898018587319 362.8489801858732,-77.68314824680283 343.88837391175565,-89.59688679024168 322.7520933956313,-96.9927912181821 300.4999999999999,-99.49999999999977 278.2479066043685,-96.9927912181821 257.1116260882441,-89.59688679024168 238.15101981412658,-77.68314824680272 222.316851753197,-61.848980185873074 210.4031132097581,-42.88837391175559 203.00720878181767,-21.752093395631277 200.50000000000006,0.5000000000001137 203.00720878181772,22.752093395631505 210.4031132097582,43.88837391175588 222.3168517531971,62.848980185873415 238.15101981412676,78.683148246803 257.1116260882443,90.59688679024191 278.2479066043686,97.99279121818233 300.50000000000006,100.49999999999994" stroke="black" stroke-linecap="round" stroke-width="5" /><polyline clip-path="url(#border_clip)" fill="none" points="400.5,0.5 600.4999999999998,0.4999999999998863 600.5,200.49999999999966 400.5000000000001,200.49999999999983 400.5,0.5" stroke="black" stroke-linecap="round" stroke-width="5" /><polyline clip-path="url(#border_clip)" fill="none" points="500.5,100.5 600.4999999999999,100.49999999999989 519.5983005625053,159.27852522924724 550.4999999999999,64.17287359973193 581.4016994374947,159.27852522924718 500.5,100.50000000000006" stroke="black" stroke-linecap="round" stroke-width="5" /><polyline clip-path="url(#border_clip)" fill="none" points="600.5,0.5 800.4999999999998,0.49999999999965894 800.5000000000002,200.4999999999995 600.5000000000003,200.49999999999983 600.5,0.5" stroke="black" stroke-linecap="round" stroke-width="5" /><polyline clip-path="url(#border_clip)" fill="none" points="700.5,100.5 800.4999999999999,100.49999999999983 750.5000000000001,187.10254037844373 700.5,100.50000000000006" stroke="black" stroke-linecap="round" stroke-width="5" /><polyline clip-path="url(#border_clip)" fill="none" points="800.5,0.5 1000.4999999999998,0.4999999999994884 1000.5000000000002,200.49999999999926 800.5000000000005,200.49999999999977 800.5,0.5" stroke="black" stroke-linecap="round" stroke-width="5" /><polyline clip-path="url(#border_clip)" fill="none" points="900.5,100.5 1000.4999999999999,100.49999999999972 1050.5,187.10254037844334 1000.5000000000005,273.70508075688724 900.5000000000006,273.7050807568876 850.5000000000003,187.10254037844402 900.5,100.50000000000006" stroke="black" stroke-linecap="round" stroke-width="5" /><polyline clip-path="url(#border_clip)" fill="none" points="0.5,200.5 200.49999999999977,200.49999999999926 200.5000000000005,400.49999999999903 0.500000000000739,400.49999999999983 0.49999999999994316,200.50000000000006" stroke="black" stroke-linecap="round" stroke-width="5" /><polyline clip-path="url(#border_clip)" fill="none" points="100.5,300.5 122.36810912063754,298.0796382627435 143.17764354964027,290.93571606975763 161.92127126896662,279.41405093963914 177.69166509163188,264.0723748209965 189.7254238618391,245.65333583108867 197.44002659393266,225.04854871407963 200.46203070249464,203.25543423681592 198.64514932524122,181.3289368076259 192.07733266550508,160.33045753470287 181.0765105660971,141.2764747335019 166.17520240477268,125.08933902231036 148.09473930370655,112.55262487935119 127.71034648453269,104.27319996907516 106.00877603558575,100.65184835666867 84.04054097192585,101.86386965972815 62.86906280521572,107.85059327852031 43.519194248972724,118.32221847747604 26.92760893268627,132.7718428374265 13.89745962155564,150.50000000000063 0.867310310424898,132.77184283742662 -15.724275005861728,118.32221847747627 -35.07414356210484,107.8505932785207 -56.24562172881497,101.86386965972872 -78.21385679247487,100.6518483566694 -99.91542724142175,104.27319996907607 -120.2998200605955,112.55262487935227 -138.3802831616615,125.0893390223116 -153.28159132298583,141.27647473350328 -164.2824134223937,160.33045753470435 -170.85023008212966,181.32893680762743 -172.6671114593829,203.25543423681745 -169.6451073508207,225.0485487140811 -161.930504618727,245.65333583109006 -149.89674584851969,264.0723748209979 -134.12635202585432,279.41405093964033 -115.38272430652785,290.93571606975866 -94.57318987752501,298.0796382627443 -72.70508075688747,300.5000000000007 -81.54304056639421,320.64851889983123 -85.76098967911037,342.2420654527674 -85.15474884219361,364.23535578184146 -79.75366449814874,385.563755519276" stroke="black" stroke-linecap="round" stroke-width="5" /><polyline clip-path="url(#border_clip)" fill="none" points="200.5,200.5 400.49999999999966,200.4999999999992 400.5000000000005,400.49999999999886 200.5000000000008,400.4999999999997 200.49999999999994,200.50000000000006" stroke="black" stroke-linecap="round" stroke-width="5" /><polyline clip-path="url(#border_clip)" fill="none" points="300.5,300.5 322.7520933956314,297.9927912181823 343.8883739117557,290.59688679024174 362.8489801858732,278.6831482468027 378.6831482468027,262.8489801858731 390.59688679024157,243.88837391175554 397.9927912181819,222.75209339563116 400.49999999999943,200.49999999999977 397.9927912181817,178.24790660436838 390.5968867902412,157.11162608824407 378.6831482468022,138.15101981412658 362.8489801858725,122.31685175319706 343.8883739117549,110.4031132097582 322.7520933956306,103.00720878181784 300.49999999999915,100.50000000000028 278.24790660436776,103.00720878181801 257.11162608824344,110.40311320975854 238.15101981412596,122.31685175319751 222.31685175319643,138.1510198141272 210.40311320975758,157.11162608824475 203.0072087818172,178.24790660436912 200.49999999999966,200.50000000000057 203.00720878181738,222.75209339563196 210.40311320975792,243.88837391175628 222.3168517531969,262.84898018587376 238.15101981412658,278.6831482468033 257.1116260882442,290.59688679024214 278.2479066043685,297.99279121818256 300.49999999999994,300.5000000000001" stroke="black" stroke-linecap="round" stroke-width="5" /><polyline clip-path="url(#border_clip)" fill="none" points="400.5,200.5 600.4999999999998,200.4999999999992 600.5000000000006,400.499999999999 400.5000000000008,400.4999999999998 400.5,200.5" stroke="black" stroke-linecap="round" stroke-width="5" /><polyline clip-path="url(#border_clip)" fill="none" points="500.5,300.5 600.4999999999999,300.4999999999996 519.5983005625055,359.2785252292472 550.4999999999998,264.1728735997318 581.4016994374949,359.27852522924695 500.5,300.50000000000006" stroke="black" stroke-linecap="round" stroke-width="5" /><polyline clip-path="url(#border_clip)" fill="none" points="600.5,200.5 800.4999999999998,200.49999999999903 800.5000000000008,400.49999999999886 600.5000000000009,400.4999999999999 600.5,200.5" stroke="black" stroke-linecap="round" stroke-width="5" /><polyline clip-path="url(#border_clip)" fill="none" points="700.5,300.5 800.4999999999999,300.4999999999995 750.5000000000005,387.10254037844356 700.5,300.5" stroke="black" stroke-linecap="round" stroke-width="5" /><polyline clip-path="url(#border_clip)" fill="none" points="800.5,200.5 1000.4999999999998,200.49999999999886 1000.5000000000009,400.49999999999864 800.5000000000011,400.49999999999983 800.5,200.50000000000006" stroke="black" stroke-linecap="round" stroke-width="5" /><polyline clip-path="url(#border_clip)" fill="none" points="900.5,300.5 1000.4999999999999,300.49999999999943 1050.5000000000005,387.1025403784429 1000.5000000000009,473.70508075688696 900.500000000001,473.7050807568876 850.5000000000005,387.10254037844413 900.4999999999999,300.50000000000006" stroke="black" stroke-linecap="round" stroke-width="5" /><polyline clip-path="url(#border_clip)" fill="none" points="0.5,400.5 200.49999999999977,400.49999999999864 200.50000000000114,600.4999999999984 0.5000000000013642,600.4999999999998 0.49999999999994316,400.5" stroke="black" stroke-linecap="round" stroke-width="5" /><polyline clip-path="url(#border_clip)" fill="none" points="100.5,500.5 122.36810912063754,498.0796382627434 143.17764354964027,490.93571606975746 161.92127126896656,479.41405093963897 177.69166509163176,464.0723748209963 189.72542386183892,445.6533358310884 197.44002659393243,425.0485487140793 200.46203070249436,403.2554342368156 198.64514932524088,381.3289368076256 192.07733266550468,360.33045753470253 181.07651056609666,341.2764747335016 166.17520240477216,325.08933902231007 148.09473930370598,312.5526248793509 127.71034648453207,304.27319996907494 106.00877603558513,300.65184835666855 84.04054097192522,301.86386965972804 62.86906280521515,307.85059327852025 43.519194248972155,318.3222184774761 26.927608932685757,332.77184283742656 13.897459621555186,350.5000000000008 0.8673103104243864,332.7718428374268 -15.724275005862296,318.32221847747655 -35.074143562105405,307.85059327852105 -56.245621728815536,301.8638696597291 -78.21385679247544,300.6518483566699 -99.91542724142232,304.2731999690766 -120.29982006059606,312.5526248793529 -138.38028316166208,325.0893390223123 -153.2815913229863,341.27647473350396 -164.28241342239403,360.3304575347051 -170.85023008212988,381.3289368076282 -172.66711145938302,403.25543423681825 -169.6451073508208,425.0485487140819 -161.930504618727,445.6533358310909 -149.89674584851957,464.0723748209986 -134.1263520258542,479.414050939641 -115.38272430652773,490.9357160697593 -94.5731898775249,498.07963826274494 -72.70508075688736,500.5000000000012 -81.5430405663941,520.6485188998317 -85.76098967911014,542.242065452768 -85.15474884219327,564.235355781842 -79.75366449814828,585.5637555192766" stroke="black" stroke-linecap="round" stroke-width="5" /><polyline clip-path="url(#border_clip)" fill="none" points="200.5,400.5 400.4999999999998,400.4999999999985 400.5000000000013,600.4999999999983 200.50000000000148,600.4999999999998 200.49999999999994,400.5" stroke="black" stroke-linecap="round" stroke-width="5" /><polyline clip-path="url(#border_clip)" fill="none" points="300.5,500.5 322.7520933956314,497.9927912181822 343.8883739117557,490.59688679024157 362.8489801858731,478.68314824680255 378.6831482468026,462.8489801858728 390.5968867902414,443.8883739117552 397.99279121818165,422.75209339563077 400.49999999999915,400.4999999999993 397.9927912181813,378.2479066043679 390.5968867902407,357.1116260882436 378.68314824680164,338.15101981412624 362.84898018587194,322.3168517531967 343.8883739117543,310.4031132097579 322.7520933956299,303.00720878181767 300.4999999999984,300.50000000000017 278.247906604367,303.007208781818 257.1116260882427,310.40311320975854 238.15101981412528,322.3168517531976 222.31685175319575,338.1510198141274 210.40311320975695,357.111626088245 203.00720878181664,378.2479066043694 200.49999999999915,400.50000000000085 203.00720878181693,422.75209339563224 210.40311320975752,443.88837391175656 222.3168517531966,462.848980185874 238.15101981412636,478.6831482468035 257.11162608824395,490.5968867902423 278.2479066043684,497.9927912181826 300.49999999999983,500.50000000000006" stroke="black" stroke-linecap="round" stroke-width="5" /><polyline clip-path="url(#border_clip)" fill="none" points="400.5,400.5 600.4999999999999,400.49999999999864 600.5000000000014,600.4999999999985 400.5000000000014,600.5 400.5,400.5" stroke="black" stroke-linecap="round" stroke-width="5" /><polyline clip-path="url(#border_clip)" fill="none" points="500.5,500.5 600.5,500.49999999999926 519.5983005625056,559.2785252292472 550.4999999999997,464.1728735997316 581.4016994374952,559.2785252292467 500.5,500.50000000000006" stroke="black" stroke-linecap="round" stroke-width="5" /><polyline clip-path="url(#border_clip)" fill="none" points="600.5,400.5 800.5,400.4999999999984 800.5000000000016,600.4999999999983 600.5000000000016,600.5 600.5,400.5" stroke="black" stroke-linecap="round" stroke-width="5" /><polyline clip-path="url(#border_clip)" fill="none" points="700.5,500.5 800.5,500.49999999999915 750.5000000000007,587.1025403784435 700.5,500.50000000000006" stroke="black" stroke-linecap="round" stroke-width="5" /><polyline clip-path="url(#border_clip)" fill="none" points="800.5,400.5 1000.4999999999999,400.4999999999982 1000.5000000000017,600.4999999999981 800.5000000000018,600.4999999999999 800.5,400.5" stroke="black" stroke-linecap="round" stroke-width="5" /><polyline clip-path="url(#border_clip)" fill="none" points="900.5,500.5 1000.5,500.4999999999991 1050.5000000000007,587.1025403784424 1000.5000000000016,673.7050807568867 900.5000000000016,673.7050807568877 850.5000000000008,587.1025403784444 900.5,500.5" stroke="black" stroke-linecap="round" stroke-width="5" /><polyline clip-path="url(#border_clip)" fill="none" points="0.5,600.5 200.49999999999994,600.499999999998 200.50000000000193,800.499999999998 0.5000000000019895,800.5 0.49999999999994316,600.5" stroke="black" stroke-linecap="round" stroke-width="5" /><polyline clip-path="url(#border_clip)" fill="none" points="100.5,700.5 122.36810912063754,698.0796382627434 143.17764354964027,690.9357160697573 161.92127126896656,679.4140509396387 177.6916650916317,664.0723748209961 189.7254238618388,645.653335831088 197.44002659393226,625.048548714079 200.46203070249413,603.2554342368152 198.64514932524054,581.3289368076252 192.0773326655043,560.3304575347022 181.07651056609615,541.2764747335012 166.1752024047716,525.0893390223098 148.0947393037054,512.5526248793507 127.7103464845315,504.2731999690747 106.0087760355845,500.6518483566684 84.0405409719246,501.863869659728 62.869062805214526,507.85059327852025 43.51919424897159,518.3222184774761 26.92760893268519,532.7718428374267 13.897459621554674,550.5000000000009 0.867310310423818,532.7718428374269 -15.724275005862864,518.3222184774767 -35.07414356210609,507.8505932785213 -56.24562172881633,501.8638696597294 -78.21385679247624,500.65184835667026 -99.91542724142312,504.27319996907704 -120.29982006059686,512.5526248793534 -138.38028316166276,525.0893390223129 -153.28159132298697,541.2764747335046 -164.2824134223947,560.3304575347057 -170.85023008213057,581.3289368076289 -172.6671114593837,603.2554342368189 -169.64510735082138,625.0485487140827 -161.93050461872758,645.6533358310916 -149.89674584852014,664.0723748209994 -134.12635202585466,679.4140509396417 -115.38272430652819,690.9357160697599 -94.57318987752535,698.0796382627454 -72.70508075688781,700.5000000000017 -81.54304056639444,720.6485188998323 -85.76098967911048,742.2420654527685 -85.15474884219361,764.2353557818426 -79.75366449814851,785.563755519277" stroke="black" stroke-linecap="round" stroke-width="5" /><polyline clip-path="url(#border_clip)" fill="none" points="200.5,600.5 400.4999999999998,600.499999999998 400.5000000000019,800.4999999999977 200.5000000000021,800.4999999999998 200.5,600.5" stroke="black" stroke-linecap="round" stroke-width="5" /><polyline clip-path="url(#border_clip)" fill="none" points="300.5,700.5 322.7520933956314,697.9927912181821 343.88837391175565,690.5968867902415 362.8489801858731,678.6831482468024 378.6831482468025,662.8489801858725 390.59688679024123,643.8883739117549 397.9927912181814,622.7520933956305 400.4999999999988,600.4999999999991 397.99279121818097,578.2479066043677 390.59688679024026,557.1116260882434 378.6831482468011,538.151019814126 362.84898018587137,522.3168517531965 343.8883739117537,510.4031132097578 322.7520933956293,503.0072087818176 300.49999999999784,500.50000000000017 278.24790660436645,503.00720878181806 257.11162608824213,510.4031132097587 238.15101981412477,522.3168517531979 222.3168517531953,538.1510198141276 210.40311320975655,557.1116260882453 203.00720878181636,578.2479066043697 200.49999999999898,600.5000000000011 203.00720878181687,622.7520933956325 210.40311320975752,643.8883739117568 222.31685175319666,662.8489801858742 238.15101981412647,678.6831482468037 257.1116260882441,690.5968867902424 278.24790660436855,697.9927912181827 300.5,700.5" stroke="black" stroke-linecap="round" stroke-width="5" /><polyline clip-path="url(#border_clip)" fill="none" points="400.5,600.5 600.4999999999999,600.4999999999978 600.500000000002,800.4999999999977 400.50000000000216,800.4999999999999 400.5,600.5" stroke="black" stroke-linecap="round" stroke-width="5" /><polyline clip-path="url(#border_clip)" fill="none" points="500.5,700.5 600.4999999999999,700.4999999999989 519.5983005625059,759.2785252292471 550.4999999999995,664.1728735997315 581.4016994374954,759.2785252292464 500.5,700.5" stroke="black" stroke-linecap="round" stroke-width="5" /><polyline clip-path="url(#border_clip)" fill="none" points="600.5,600.5 800.4999999999999,600.4999999999977 800.5000000000023,800.4999999999975 600.5000000000024,800.4999999999998 600.5,600.5" stroke="black" stroke-linecap="round" stroke-width="5" /><polyline clip-path="url(#border_clip)" fill="none" points="700.5,700.5 800.5,700.4999999999989 750.500000000001,787.1025403784432 700.5,700.5" stroke="black" stroke-linecap="round" stroke-width="5" /><polyline clip-path="url(#border_clip)" fill="none" points="800.5,600.5 1000.4999999999998,600.4999999999975 1000.5000000000024,800.4999999999973 800.5000000000025,800.4999999999999 800.5,600.5" stroke="black" stroke-linecap="round" stroke-width="5" /><polyline clip-path="url(#border_clip)" fill="none" points="900.5,700.5 1000.4999999999999,700.4999999999987 1050.500000000001,787.1025403784419 1000.500000000002,873.7050807568862 900.5000000000022,873.7050807568876 850.500000000001,787.1025403784445 900.4999999999998,700.5" stroke="black" stroke-linecap="round" stroke-width="5" /><polyline clip-path="url(#border_clip)" fill="none" points="0.5,800.5 200.49999999999983,800.4999999999973 200.50000000000256,1000.499999999997 0.5000000000027285,1000.4999999999998 0.49999999999994316,800.5" stroke="black" stroke-linecap="round" stroke-width="5" /><polyline clip-path="url(#border_clip)" fill="none" points="100.5,900.5 122.36810912063754,898.0796382627433 143.1776435496402,890.9357160697572 161.92127126896645,879.4140509396385 177.69166509163153,864.0723748209957 189.72542386183858,845.6533358310878 197.44002659393192,825.0485487140786 200.46203070249373,803.255434236815 198.64514932524008,781.3289368076249 192.07733266550377,760.330457534702 181.07651056609558,741.276474733501 166.17520240477097,725.0893390223096 148.09473930370473,712.5526248793506 127.71034648453076,704.2731999690748 106.00877603558376,700.6518483566684 84.04054097192386,701.8638696597282 62.86906280521379,707.8505932785205 43.51919424897085,718.3222184774763 26.927608932684507,732.771842837427 13.897459621554049,750.5000000000013 0.8673103104231359,732.7718428374274 -15.724275005863547,718.3222184774772 -35.07414356210677,707.8505932785217 -56.245621728817014,701.86386965973 -78.21385679247692,700.6518483566709 -99.9154272414238,704.2731999690778 -120.29982006059754,712.5526248793542 -138.38028316166344,725.0893390223138 -153.28159132298754,741.2764747335056 -164.28241342239517,760.3304575347067 -170.8502300821309,781.3289368076299 -172.66711145938393,803.25543423682 -169.6451073508215,825.0485487140836 -161.93050461872758,845.6533358310925 -149.89674584852003,864.0723748210002 -134.12635202585454,879.4140509396425 -115.38272430652796,890.9357160697606 -94.57318987752512,898.0796382627461 -72.70508075688758,900.5000000000023 -81.54304056639421,920.6485188998329 -85.76098967911014,942.2420654527691 -85.15474884219316,964.2353557818432 -79.75366449814805,985.5637555192777" stroke="black" stroke-linecap="round" stroke-width="5" /><polyline clip-path="url(#border_clip)" fill="none" points="200.5,800.5 400.4999999999998,800.4999999999972 400.50000000000256,1000.4999999999969 200.50000000000284,1000.4999999999998 200.5,800.5" stroke="black" stroke-linecap="round" stroke-width="5" /><polyline clip-path="url(#border_clip)" fill="none" points="300.5,900.5 322.7520933956314,897.992791218182 343.8883739117556,890.5968867902413 362.84898018587296,878.6831482468021 378.6831482468024,862.8489801858723 390.596886790241,843.8883739117546 397.99279121818114,822.7520933956301 400.49999999999847,800.4999999999986 397.9927912181805,778.2479066043672 390.59688679023975,757.111626088243 378.6831482468006,738.1510198141257 362.8489801858708,722.3168517531963 343.8883739117531,710.4031132097576 322.75209339562866,703.0072087818176 300.49999999999716,700.5000000000002 278.24790660436577,703.0072087818181 257.11162608824156,710.4031132097589 238.1510198141242,722.3168517531981 222.31685175319478,738.151019814128 210.4031132097561,757.1116260882457 203.00720878181596,778.24790660437 200.49999999999864,800.5000000000015 203.0072087818166,822.7520933956329 210.4031132097573,843.8883739117571 222.3168517531965,862.8489801858746 238.1510198141263,878.683148246804 257.11162608824395,890.5968867902426 278.24790660436844,897.9927912181827 300.4999999999999,900.5" stroke="black" stroke-linecap="round" stroke-width="5" /><polyline clip-path="url(#border_clip)" fill="none" points="400.5,800.5 600.4999999999998,800.4999999999973 600.5000000000026,1000.499999999997 400.50000000000273,1000.4999999999998 400.5,800.5" stroke="black" stroke-linecap="round" stroke-width="5" /><polyline clip-path="url(#border_clip)" fill="none" points="500.5,900.5 600.4999999999999,900.4999999999986 519.5983005625061,959.278525229247 550.4999999999994,864.1728735997312 581.4016994374955,959.2785252292462 500.5,900.5" stroke="black" stroke-linecap="round" stroke-width="5" /><polyline clip-path="url(#border_clip)" fill="none" points="600.5,800.5 800.4999999999998,800.499999999997 800.5000000000027,1000.4999999999969 600.500000000003,1000.4999999999999 600.5,800.5" stroke="black" stroke-linecap="round" stroke-width="5" /><polyline clip-path="url(#border_clip)" fill="none" points="700.5,900.5 800.4999999999999,900.4999999999985 750.5000000000013,987.1025403784431 700.5,900.5" stroke="black" stroke-linecap="round" stroke-width="5" /><polyline clip-path="url(#border_clip)" fill="none" points="800.5,800.5 1000.4999999999998,800.4999999999969 1000.500000000003,1000.4999999999967 800.5000000000032,1000.4999999999998 800.5,800.5" stroke="black" stroke-linecap="round" stroke-width="5" /><polyline clip-path="url(#border_clip)" fill="none" points="900.5,900.5 1000.4999999999999,900.4999999999984 1050.5000000000014,987.1025403784414 1000.5000000000027,1073.705080756886 900.5000000000027,1073.7050807568876 850.5000000000014,987.1025403784447 900.5,900.5" stroke="black" stroke-linecap="round" stroke-width="5" /></svg>