<?xml version="1.0" encoding="utf-8" ?>
<svg baseProfile="full" height="1000px" version="1.1" width="1000px" xmlns="http://www.w3.org/2000/svg" xmlns:ev="http://www.w3.org/2001/xml-events" xmlns:xlink="http://www.w3.org/1999/xlink"><defs><clipPath id="border_clip"><rect height="1000" width="1000" x="0" y="0" /></clipPath></defs><polyline clip-path="url(#border_clip)" fill="none" points="500.5,500.5 522.3681091206375,498.0796382627436 543.1776435496404,490.93571606975775 561.9212712689668,479.41405093963937 577.6916650916321,464.0723748209968 589.7254238618394,445.65333583108895 597.440026593933,425.0485487140799 600.4620307024952,403.2554342368162 598.6451493252418,381.3289368076262 592.0773326655058,360.33045753470304 581.0765105660978,341.276474733502 566.1752024047735,325.08933902231036 548.0947393037073,312.55262487935113 527.7103464845335,304.273199969075 506.00877603558655,300.6518483566684 484.0405409719266,301.86386965972775 462.86906280521646,307.8505932785198 443.51919424897335,318.3222184774755 426.92760893268684,332.7718428374259 413.8974596215561,350.5 400.8673103104254,332.7718428374259 384.2757249941389,318.32221847747553 364.92585643789585,307.85059327851985 343.75437827118566,301.8638696597278 321.7861432075257,300.65184835666844 300.08457275857876,304.273199969075 279.7001799394049,312.55262487935113 261.61971683833883,325.0893390223104 246.71840867701445,341.276474733502 235.71758657760654,360.3304575347031 229.14976991787051,381.3289368076262 227.33288854061715,403.2554342368162 230.35489264917925,425.04854871407997 238.06949538127287,445.65333583108895 250.1032541514802,464.07237482099686 265.8736479741455,479.41405093963937 284.6172756934719,490.9357160697578 305.4268101224747,498.0796382627436 327.2949192431123,500.5 318.4569594336054,520.6485188998306 314.2390103208892,542.2420654527668 314.8452511578058,564.2353557818408 320.2463355018507,585.5637555192754" stroke="black" stroke-linecap="round" stroke-width="1" /><polyline clip-path="url(#border_clip)" fill="none" points="320.2463355018507,585.5637555192754 330.18081179530327,605.1948158122427 344.1677795121566,622.1782513168451 361.53016822276834,635.6919408838327 381.42751270108784,645.0817241700635 402.89663752214824,649.8930677317949 424.89828172096406,649.8930677317949 446.36740654202447,645.0817241700635 466.2647510203439,635.6919408838327 483.62713973095566,622.178251316845 497.614107447809,605.1948158122426 507.5485837412616,585.5637555192754 512.9496680853065,564.2353557818408 513.5559089222231,542.2420654527667 509.33795980950686,520.6485188998305 500.5,500.5" stroke="black" stroke-linecap="round" stroke-width="1" /></svg>