<?xml version="1.0" encoding="utf-8" ?>
<svg baseProfile="full" height="1000px" version="1.1" width="1000px" xmlns="http://www.w3.org/2000/svg" xmlns:ev="http://www.w3.org/2001/xml-events" xmlns:xlink="http://www.w3.org/1999/xlink"><defs><clipPath id="border_clip"><rect height="1000" width="1000" x="0" y="0" /></clipPath></defs><polyline clip-path="url(#border_clip)" fill="none" points="0.5,500.5 1000.5,500.5" stroke="black" stroke-linecap="round" stroke-width="1" /><polyline clip-path="url(#border_clip)" fill="none" points="1000.5,500.5 1000.5,510.5" stroke="black" stroke-linecap="round" stroke-width="1" /><polyline clip-path="url(#border_clip)" fill="none" points="1000.5,500.5 1000.5,490.5" stroke="black" stroke-linecap="round" stroke-width="1" /><polyline clip-path="url(#border_clip)" fill="none" points="1000.5,500.5 1010.5,500.5" stroke="black" stroke-linecap="round" stroke-width="1" /><polyline clip-path="url(#border_clip)" fill="none" points="1000.5,500.5 990.5,500.5" stroke="black" stroke-linecap="round" stroke-width="1" /><polyline clip-path="url(#border_clip)" fill="none" points="1000.5,500.5 1000.5,490.5" stroke="black" stroke-linecap="round" stroke-width="1" /><polyline clip-path="url(#border_clip)" fill="none" points="1000.5,500.5 1000.5,510.5" stroke="black" stroke-linecap="round" stroke-width="1" /><polyline clip-path="url(#border_clip)" fill="none" points="1000.5,500.5 990.5,500.5" stroke="black" stroke-linecap="round" stroke-width="1" /><polyline clip-path="url(#border_clip)" fill="none" points="1000.5,500.5 1010.5,500.5" stroke="black" stroke-linecap="round" stroke-width="1" /><polyline clip-path="url(#border_clip)" fill="none" points="1000.5,500.5 1000.5,510.5" stroke="black" stroke-linecap="round" stroke-width="1" /><polyline clip-path="url(#border_clip)" fill="none" points="1000.5,500.5 1000.5,490.5" stroke="black" stroke-linecap="round" stroke-width="1" /><polyline clip-path="url(#border_clip)" fill="none" points="1000.5,500.5 1010.5,500.5" stroke="black" stroke-linecap="round" stroke-width="1" /><polyline clip-path="url(#border_clip)" fill="none" points="1000.5,500.5 990.5,500.5" stroke="black" stroke-linecap="round" stroke-width="1" /><polyline clip-path="url(#border_clip)" fill="none" points="1000.5,500.5 1000.5,490.5" stroke="black" stroke-linecap="round" stroke-width="1" /><polyline clip-path="url(#border_clip)" fill="none" points="1000.5,500.5 1000.5,510.5" stroke="black" stroke-linecap="round" stroke-width="1" /><polyline clip-path="url(#border_clip)" fill="none" points="400.5,400.5 403.0072087818176,422.75209339563145 410.4031132097581,443.8883739117558 422.316851753197,462.84898018587336 438.1510198141266,478.683148246803 457.1116260882441,490.59688679024197 478.2479066043685,497.9927912181824 500.49999999999994,500.50000000000006 522.7520933956314,497.99279121818245 543.8883739117558,490.596886790242 562.8489801858733,478.68314824680306 578.683148246803,462.8489801858735 590.5968867902419,443.88837391175593 597.9927912181824,422.75209339563156 600.5,400.5000000000001 597.9927912181824,378.2479066043686 590.596886790242,357.11162608824424 578.6831482468031,338.1510198141267 562.8489801858734,322.31685175319706 543.8883739117559,310.4031132097581 522.7520933956315,303.00720878181755 500.50000000000006,300.4999999999999 478.2479066043686,303.00720878181755 457.11162608824424,310.403113209758 438.15101981412664,322.31685175319683 422.316851753197,338.15101981412647 410.40311320975803,357.111626088244 403.00720878181755,378.2479066043684 400.4999999999999,400.4999999999999" stroke="black" stroke-linecap="round" stroke-width="1" /><polyline clip-path="url(#border_clip)" fill="none" points="450.5,350.5 451.6454397434679,355.14723172043773 454.8193525326884,358.7298386589366 459.2946331974468,360.4270887409806 464.04604887042535,359.8501624268542 467.985107481711,357.131226582408 470.2094181742605,352.8931566428756 470.2094181742605,348.10684335712443 467.985107481711,343.868773417592 464.04604887042535,341.1498375731459 459.2946331974468,340.57291125901946 454.81935253268847,342.27016134106344 451.64543974346793,345.8527682795623 450.5,350.5" stroke="black" stroke-linecap="round" stroke-width="1" /><polyline clip-path="url(#border_clip)" fill="none" points="550.5,350.5 551.6454397434679,355.14723172043773 554.8193525326884,358.7298386589366 559.2946331974467,360.4270887409806 564.0460488704254,359.8501624268542 567.985107481711,357.131226582408 570.2094181742606,352.8931566428756 570.2094181742606,348.10684335712443 567.985107481711,343.868773417592 564.0460488704254,341.1498375731459 559.2946331974467,340.5729112590194 554.8193525326884,342.2701613410634 551.6454397434679,345.85276827956227 550.5,350.5" stroke="black" stroke-linecap="round" stroke-width="1" /><polyline clip-path="url(#border_clip)" fill="none" points="500.5,400.5 485.0491502812526,402.9471741852423 471.1107373853763,410.04915028125265 460.04915028125254,421.11073738537635 452.94717418524226,435.04915028125265 450.4999999999999,450.5 452.9471741852422,465.9508497187474 460.04915028125254,479.8892626146237 471.11073738537624,490.95084971874746 485.04915028125254,498.0528258147578 500.4999999999999,500.5000000000001" stroke="black" stroke-linecap="round" stroke-width="1" /></svg>