<?xml version="1.0" encoding="utf-8" ?>
<svg baseProfile="full" height="1000px" version="1.1" width="1000px" xmlns="http://www.w3.org/2000/svg" xmlns:ev="http://www.w3.org/2001/xml-events" xmlns:xlink="http://www.w3.org/1999/xlink"><defs><clipPath id="border_clip"><rect height="1000" width="1000" x="0" y="0" /></clipPath></defs><polyline clip-path="url(#border_clip)" fill="none" points="400.5,400.5 422.75209339563145,397.99279121818233 443.8883739117558,390.5968867902419 462.84898018587336,378.68314824680294 478.683148246803,362.8489801858733 490.5968867902419,343.8883739117558 497.9927912181824,322.7520933956314 500.50000000000006,300.5 497.9927912181824,278.2479066043685 490.59688679024197,257.1116260882442 478.683148246803,238.15101981412658 462.8489801858734,222.31685175319694 443.8883739117558,210.40311320975798 422.75209339563145,203.0072087818175 400.5,200.49999999999983 378.24790660436855,203.00720878181744 357.1116260882442,210.40311320975786 338.1510198141266,222.31685175319677 322.31685175319694,238.1510198141264 310.403113209758,257.11162608824395 303.00720878181755,278.2479066043683 300.4999999999999,300.4999999999998 303.0072087818175,322.7520933956312 310.403113209758,343.8883739117556 322.3168517531969,362.8489801858732 338.1510198141265,378.68314824680283 357.11162608824407,390.5968867902418 378.24790660436844,397.9927912181823 400.4999999999999,400.49999999999994" stroke="black" stroke-linecap="round" stroke-width="1" /><polyline clip-path="url(#border_clip)" fill="none" points="450.5,350.5 455.1472317204377,349.35456025653207 458.72983865893656,346.1806474673116 460.42708874098054,341.7053668025532 459.8501624268542,336.95395112957465 457.131226582408,333.01489251828895 452.8931566428756,330.7905818257394 448.10684335712443,330.7905818257394 443.868773417592,333.01489251828895 441.1498375731459,336.9539511295746 440.57291125901946,341.70536680255316 442.27016134106344,346.18064746731153 445.8527682795623,349.35456025653207 450.5,350.5" stroke="black" stroke-linecap="round" stroke-width="1" /><polyline clip-path="url(#border_clip)" fill="none" points="550.5,350.5 555.1472317204377,349.35456025653207 558.7298386589366,346.1806474673116 560.4270887409806,341.7053668025532 559.8501624268541,336.95395112957465 557.131226582408,333.01489251828895 552.8931566428756,330.7905818257394 548.1068433571244,330.7905818257394 543.868773417592,333.01489251828895 541.1498375731459,336.9539511295746 540.5729112590194,341.70536680255316 542.2701613410634,346.18064746731153 545.8527682795623,349.35456025653207 550.5,350.5" stroke="black" stroke-linecap="round" stroke-width="1" /><polyline clip-path="url(#border_clip)" fill="none" points="500.5,400.5 502.9471741852423,415.9508497187474 510.04915028125265,429.8892626146237 521.1107373853763,440.95084971874746 535.0491502812527,448.05282581475774 550.5,450.5000000000001 565.9508497187475,448.0528258147578 579.8892626146237,440.95084971874746 590.9508497187475,429.88926261462376 598.0528258147579,415.95084971874746 600.5000000000001,400.50000000000006" stroke="black" stroke-linecap="round" stroke-width="1" /></svg>