<?xml version="1.0" encoding="utf-8" ?>
<svg baseProfile="full" height="1000px" version="1.1" width="1000px" xmlns="http://www.w3.org/2000/svg" xmlns:ev="http://www.w3.org/2001/xml-events" xmlns:xlink="http://www.w3.org/1999/xlink"><defs><clipPath id="border_clip"><rect height="1000" width="1000" x="0" y="0" /></clipPath></defs><polyline clip-path="url(#border_clip)" fill="none" points="500.5,500.5 620.5,500.5 679.5,602.6909976465638 621.5,703.1499444855586 507.5,703.1499444855588 451.5,606.1550992617016 506.4999999999999,510.8923048454133 614.4999999999999,510.8923048454132 667.5,602.6909976465637 615.5000000000001,692.7576396401453 513.5000000000001,692.7576396401455 463.5,606.1550992617017 512.4999999999999,521.2846096908266 608.4999999999999,521.2846096908264 655.5,602.6909976465636 609.5000000000001,682.365334794732 519.5000000000001,682.3653347947322 475.5,606.1550992617017 518.4999999999998,531.6769145362399 602.4999999999998,531.6769145362398 643.5,602.6909976465636 603.5000000000002,671.9730299493187 525.5000000000002,671.973029949319 487.5,606.1550992617018 524.4999999999998,542.0692193816533 596.4999999999998,542.069219381653 631.5,602.6909976465636 597.5000000000002,661.5807251039055 531.5000000000002,661.5807251039058 499.5,606.1550992617018 530.4999999999998,552.4615242270665 590.4999999999998,552.4615242270663 619.5,602.6909976465636 591.5000000000002,651.1884202584922 537.5000000000002,651.1884202584926 511.5,606.1550992617018 536.4999999999998,562.8538290724798 584.4999999999998,562.8538290724796 607.5,602.6909976465636 585.5000000000002,640.796115413079 543.5000000000002,640.7961154130792 523.5,606.1550992617018 542.4999999999998,573.2461339178931" stroke="black" stroke-linecap="round" stroke-width="1" /><polyline clip-path="url(#border_clip)" fill="none" points="542.4999999999998,573.2461339178931 578.4999999999998,573.2461339178928 595.5,602.6909976465636 579.5000000000001,630.4038105676658 549.5000000000001,630.4038105676659 535.5,606.1550992617018 548.4999999999999,583.6384387633063" stroke="black" stroke-linecap="round" stroke-width="1" /></svg>