<?xml version="1.0" encoding="utf-8" ?>
<svg baseProfile="full" height="1000px" version="1.1" width="1000px" xmlns="http://www.w3.org/2000/svg" xmlns:ev="http://www.w3.org/2001/xml-events" xmlns:xlink="http://www.w3.org/1999/xlink"><defs><clipPath id="border_clip"><rect height="1000" width="1000" x="0" y="0" /></clipPath></defs><polyline clip-path="url(#border_clip)" fill="none" points="500.5,500.5 667.1666666666666,500.5 667.1666666666666,667.1666666666666 500.5,667.1666666666667 500.49999999999994,500.5" stroke="black" stroke-linecap="round" stroke-width="1" /><polyline clip-path="url(#border_clip)" fill="none" points="833.8333333333333,500.49999999999994 1000.4999999999999,500.4999999999999 1000.5,667.1666666666665 833.8333333333333,667.1666666666666 833.8333333333333,500.5" stroke="black" stroke-linecap="round" stroke-width="1" /><polyline clip-path="url(#border_clip)" fill="none" points="1167.1666666666665,500.49999999999983 1333.833333333333,500.4999999999997 1333.8333333333333,667.1666666666664 1167.1666666666665,667.1666666666665 1167.1666666666665,500.49999999999983" stroke="black" stroke-linecap="round" stroke-width="1" /><polyline clip-path="url(#border_clip)" fill="none" points="-499.5,-499.50000000000045 -332.83333333333337,-499.50000000000057 -332.83333333333326,-332.83333333333394 -499.4999999999999,-332.8333333333338 -499.5,-499.50000000000045" stroke="black" stroke-linecap="round" stroke-width="1" /><polyline clip-path="url(#border_clip)" fill="none" points="-166.16666666666674,-499.5000000000008 0.4999999999998863,-499.5000000000009 0.5000000000000568,-332.8333333333343 -166.16666666666663,-332.83333333333405 -166.16666666666686,-499.5000000000007" stroke="black" stroke-linecap="round" stroke-width="1" /><polyline clip-path="url(#border_clip)" fill="none" points="167.16666666666646,-499.50000000000114 333.83333333333314,-499.50000000000136 333.83333333333337,-332.83333333333474 167.16666666666669,-332.8333333333345 167.16666666666646,-499.50000000000114" stroke="black" stroke-linecap="round" stroke-width="1" /><polyline clip-path="url(#border_clip)" fill="none" points="-499.5,-1499.5000000000016 -332.83333333333337,-1499.5000000000018 -332.83333333333314,-1332.833333333335 -499.4999999999998,-1332.8333333333348 -499.5,-1499.5000000000016" stroke="black" stroke-linecap="round" stroke-width="1" /><polyline clip-path="url(#border_clip)" fill="none" points="-166.16666666666674,-1499.5000000000023 0.4999999999998863,-1499.5000000000025 0.5000000000001705,-1332.8333333333358 -166.16666666666652,-1332.8333333333355 -166.16666666666686,-1499.5000000000023" stroke="black" stroke-linecap="round" stroke-width="1" /><polyline clip-path="url(#border_clip)" fill="none" points="167.16666666666646,-1499.500000000003 333.83333333333314,-1499.5000000000032 333.8333333333335,-1332.8333333333364 167.1666666666668,-1332.833333333336 167.16666666666646,-1499.5000000000027" stroke="black" stroke-linecap="round" stroke-width="1" /></svg>