<?xml version="1.0" encoding="utf-8" ?>
<svg baseProfile="full" height="5000px" version="1.1" width="5000px" xmlns="http://www.w3.org/2000/svg" xmlns:ev="http://www.w3.org/2001/xml-events" xmlns:xlink="http://www.w3.org/1999/xlink"><defs><clipPath id="border_clip"><rect height="5000" width="5000" x="0" y="0" /></clipPath></defs><polyline clip-path="url(#border_clip)" fill="none" points="0.5,0.5 1000.5,0.5 1000.5,1000.5 0.5,1000.5000000000002 0.5,0.5" stroke="black" stroke-linecap="round" stroke-width="5" /><polyline clip-path="url(#border_clip)" fill="none" points="2400.5,2500.5 2408.634732861516,2498.770909152852 2415.3628965095477,2493.8826121271773 2419.521130325903,2486.680339887499 2420.3904379073656,2478.409430734647 2417.820508075689,2470.5 2412.2557050458495,2464.319660112501 2404.6582338163553,2460.9370479853237 2396.3417661836447,2460.9370479853237 2388.7442949541505,2464.319660112501 2383.179491924311,2470.5 2380.6095620926344,2478.409430734647 2381.478869674097,2486.680339887499 2385.6371034904523,2493.8826121271773 2392.365267138484,2498.770909152852 2400.5,2500.5" stroke="#0000ff" stroke-linecap="round" stroke-width="3" /><polyline clip-path="url(#border_clip)" fill="none" points="2420.5,2480.5 2425.1472317204375,2479.3545602565323 2428.7298386589364,2476.1806474673117 2430.4270887409807,2471.7053668025533 2429.8501624268542,2466.9539511295748 2427.131226582408,2463.014892518289 2422.8931566428755,2460.7905818257395 2418.1068433571245,2460.7905818257395 2413.868773417592,2463.014892518289 2411.1498375731458,2466.9539511295748 2410.5729112590193,2471.7053668025533 2412.2701613410636,2476.1806474673117 2415.8527682795625,2479.3545602565323 2420.5,2480.5" stroke="#0000ff" stroke-linecap="round" stroke-width="3" /><polyline clip-path="url(#border_clip)" fill="none" points="2425.5,2475.5 2425.5,2475.5" stroke="#0000ff" stroke-linecap="round" stroke-width="7" /><polyline clip-path="url(#border_clip)" fill="none" points="2415.5,2475.5 2415.5,2475.5" stroke="#0000ff" stroke-linecap="round" stroke-width="7" /><polyline clip-path="url(#border_clip)" fill="none" points="2425.5,2485.5 2432.5710678118653,2492.5710678118653 2439.642135623731,2485.5" stroke="#0000ff" stroke-linecap="round" stroke-width="3" /><polyline clip-path="url(#border_clip)" fill="none" points="2380.5,2510.5 2420.5,2510.5 2420.5,2470.5" stroke="#0000ff" stroke-linecap="round" stroke-width="3" /><polyline clip-path="url(#border_clip)" fill="none" points="2440.5,2510.5 2468.7842712474617,2482.215728752538 2440.5,2453.931457505076" stroke="#0000ff" stroke-linecap="round" stroke-width="3" /><polyline clip-path="url(#border_clip)" fill="none" points="1000.5,0.5 293.3932188134513,-706.6067811865473 1000.4999999999986,-1413.7135623730956 1707.606781186547,-706.6067811865482 1000.4999999999998,0.5" stroke="#0000ff" stroke-linecap="round" stroke-width="5" /><polyline clip-path="url(#border_clip)" fill="none" points="2400.5,2500.5 2393.525223367175,2495.970527093787 2385.3111452514104,2494.6695449286394 2377.278054381478,2496.8220051399635 2370.8149451471295,2502.055727802734 2367.0393478504875,2509.4657547216807 2366.6040975643664,2517.7708249245356 2369.5844530173604,2525.5349163240317 2375.4650836759683,2531.4155469826396 2383.2291750754644,2534.3959024356336 2391.5342452783193,2533.9606521495125 2398.944272197266,2530.1850548528705 2404.1779948600365,2523.721945618522 2406.3304550713606,2515.6888547485896 2405.029472906213,2507.474776632825 2400.5,2500.5" stroke="#0000ff" stroke-linecap="round" stroke-width="3" /><polyline clip-path="url(#border_clip)" fill="none" points="2420.5,2480.5 2416.4039627266866,2478.02385914678 2411.6263818099956,2477.734868742394 2407.261743461849,2479.699233005775 2404.3099337282138,2483.466939757338 2403.4471766459014,2488.174852786088 2404.87111946512,2492.744445953642 2408.255554046358,2496.12888053488 2412.825147213912,2497.5528233540986 2417.533060242662,2496.6900662717862 2421.300766994225,2493.738256538151 2423.265131257606,2489.3736181900044 2422.97614085322,2484.5960372733134 2420.5,2480.5" stroke="#0000ff" stroke-linecap="round" stroke-width="3" /><polyline clip-path="url(#border_clip)" fill="none" points="2425.5,2475.5 2425.5,2475.5" stroke="#0000ff" stroke-linecap="round" stroke-width="7" /><polyline clip-path="url(#border_clip)" fill="none" points="2415.5,2475.5 2415.5,2475.5" stroke="#0000ff" stroke-linecap="round" stroke-width="7" /><polyline clip-path="url(#border_clip)" fill="none" points="2425.5,2485.5 2425.5,2475.5 2415.5,2475.5" stroke="#0000ff" stroke-linecap="round" stroke-width="3" /><polyline clip-path="url(#border_clip)" fill="none" points="2380.5,2510.5 2352.215728752538,2482.2157287525383 2323.931457505076,2510.5" stroke="#0000ff" stroke-linecap="round" stroke-width="3" /><polyline clip-path="url(#border_clip)" fill="none" points="2440.5,2510.5 2400.5,2510.5 2400.5,2550.5" stroke="#0000ff" stroke-linecap="round" stroke-width="3" /><polyline clip-path="url(#border_clip)" fill="none" points="2000.5,0.5 2000.5000000000011,1000.5 1000.5000000000011,1000.5000000000011 1000.4999999999998,0.5000000000009095 2000.4999999999998,0.49999999999954525" stroke="#0000ff" stroke-linecap="round" stroke-width="5" /><polyline clip-path="url(#border_clip)" fill="none" points="2400.5,2500.5 2402.229090847148,2508.634732861516 2407.1173878728227,2515.3628965095477 2414.319660112501,2519.521130325903 2422.590569265353,2520.3904379073656 2430.5,2517.820508075689 2436.680339887499,2512.2557050458495 2440.0629520146763,2504.6582338163553 2440.0629520146763,2496.3417661836447 2436.680339887499,2488.7442949541505 2430.5,2483.179491924311 2422.590569265353,2480.6095620926344 2414.319660112501,2481.478869674097 2407.1173878728227,2485.6371034904523 2402.2290908471477,2492.365267138484 2400.5,2500.5" stroke="#0000ff" stroke-linecap="round" stroke-width="3" /><polyline clip-path="url(#border_clip)" fill="none" points="2420.5,2480.5 2421.6454397434677,2485.1472317204375 2424.8193525326883,2488.7298386589364 2429.2946331974467,2490.4270887409807 2434.0460488704252,2489.8501624268542 2437.985107481711,2487.131226582408 2440.2094181742605,2482.8931566428755 2440.2094181742605,2478.1068433571245 2437.985107481711,2473.868773417592 2434.0460488704252,2471.1498375731458 2429.2946331974467,2470.5729112590193 2424.8193525326883,2472.2701613410636 2421.6454397434677,2475.8527682795625 2420.5,2480.5" stroke="#0000ff" stroke-linecap="round" stroke-width="3" /><polyline clip-path="url(#border_clip)" fill="none" points="2425.5,2475.5 2425.5,2475.5" stroke="#0000ff" stroke-linecap="round" stroke-width="7" /><polyline clip-path="url(#border_clip)" fill="none" points="2415.5,2475.5 2415.5,2475.5" stroke="#0000ff" stroke-linecap="round" stroke-width="7" /><polyline clip-path="url(#border_clip)" fill="none" points="2425.5,2485.5 2418.4289321881347,2492.5710678118653 2425.5,2499.642135623731" stroke="#0000ff" stroke-linecap="round" stroke-width="3" /><polyline clip-path="url(#border_clip)" fill="none" points="2380.5,2510.5 2380.5,2550.5 2420.5,2550.5" stroke="#0000ff" stroke-linecap="round" stroke-width="3" /><polyline clip-path="url(#border_clip)" fill="none" points="2440.5,2510.5 2468.784271247462,2538.7842712474617 2497.068542494924,2510.5" stroke="#0000ff" stroke-linecap="round" stroke-width="3" /><polyline clip-path="url(#border_clip)" fill="none" points="3000.5,0.5 3707.606781186546,-706.6067811865487 4414.713562373095,0.4999999999972715 3707.6067811865487,707.606781186546 3000.5,0.5" stroke="#0000ff" stroke-linecap="round" stroke-width="5" /><polyline clip-path="url(#border_clip)" fill="none" points="2400.5,2500.5 2405.029472906213,2493.525223367175 2406.3304550713606,2485.3111452514104 2404.1779948600365,2477.278054381478 2398.944272197266,2470.8149451471295 2391.5342452783193,2467.0393478504875 2383.2291750754644,2466.6040975643664 2375.4650836759683,2469.584453017361 2369.5844530173604,2475.4650836759683 2366.6040975643664,2483.2291750754644 2367.0393478504875,2491.5342452783193 2370.8149451471295,2498.944272197266 2377.2780543814783,2504.1779948600365 2385.3111452514104,2506.3304550713606 2393.525223367175,2505.029472906213 2400.5,2500.5" stroke="#0000ff" stroke-linecap="round" stroke-width="3" /><polyline clip-path="url(#border_clip)" fill="none" points="2420.5,2480.5 2422.97614085322,2476.4039627266866 2423.265131257606,2471.6263818099956 2421.300766994225,2467.261743461849 2417.533060242662,2464.3099337282138 2412.825147213912,2463.4471766459014 2408.255554046358,2464.87111946512 2404.87111946512,2468.255554046358 2403.4471766459014,2472.825147213912 2404.3099337282138,2477.533060242662 2407.261743461849,2481.300766994225 2411.6263818099956,2483.265131257606 2416.4039627266866,2482.97614085322 2420.5,2480.5" stroke="#0000ff" stroke-linecap="round" stroke-width="3" /><polyline clip-path="url(#border_clip)" fill="none" points="2425.5,2475.5 2425.5,2475.5" stroke="#0000ff" stroke-linecap="round" stroke-width="7" /><polyline clip-path="url(#border_clip)" fill="none" points="2415.5,2475.5 2415.5,2475.5" stroke="#0000ff" stroke-linecap="round" stroke-width="7" /><polyline clip-path="url(#border_clip)" fill="none" points="2425.5,2485.5 2435.5,2485.5 2435.5,2475.5" stroke="#0000ff" stroke-linecap="round" stroke-width="3" /><polyline clip-path="url(#border_clip)" fill="none" points="2380.5,2510.5 2408.7842712474617,2482.215728752538 2380.5,2453.931457505076" stroke="#0000ff" stroke-linecap="round" stroke-width="3" /><polyline clip-path="url(#border_clip)" fill="none" points="2440.5,2510.5 2440.5,2470.5 2400.5,2470.5" stroke="#0000ff" stroke-linecap="round" stroke-width="3" /><polyline clip-path="url(#border_clip)" fill="none" points="4000.5,0.5 3000.5,0.500000000001819 3000.499999999998,-999.4999999999982 4000.499999999998,-999.5 4000.5,0.5" stroke="#0000ff" stroke-linecap="round" stroke-width="5" /><polyline clip-path="url(#border_clip)" fill="none" points="2400.5,2500.5 2392.365267138484,2502.229090847148 2385.6371034904523,2507.1173878728227 2381.478869674097,2514.319660112501 2380.6095620926344,2522.590569265353 2383.179491924311,2530.5 2388.7442949541505,2536.680339887499 2396.3417661836447,2540.0629520146763 2404.6582338163553,2540.0629520146763 2412.2557050458495,2536.680339887499 2417.820508075689,2530.5 2420.3904379073656,2522.590569265353 2419.521130325903,2514.319660112501 2415.3628965095477,2507.1173878728227 2408.634732861516,2502.2290908471477 2400.5,2500.5" stroke="#0000ff" stroke-linecap="round" stroke-width="3" /><polyline clip-path="url(#border_clip)" fill="none" points="2420.5,2480.5 2415.8527682795625,2481.6454397434677 2412.2701613410636,2484.8193525326883 2410.5729112590193,2489.2946331974467 2411.1498375731458,2494.0460488704252 2413.868773417592,2497.985107481711 2418.1068433571245,2500.2094181742605 2422.8931566428755,2500.2094181742605 2427.131226582408,2497.985107481711 2429.8501624268542,2494.0460488704252 2430.4270887409807,2489.2946331974467 2428.7298386589364,2484.8193525326883 2425.1472317204375,2481.6454397434677 2420.5,2480.5" stroke="#0000ff" stroke-linecap="round" stroke-width="3" /><polyline clip-path="url(#border_clip)" fill="none" points="2425.5,2475.5 2425.5,2475.5" stroke="#0000ff" stroke-linecap="round" stroke-width="7" /><polyline clip-path="url(#border_clip)" fill="none" points="2415.5,2475.5 2415.5,2475.5" stroke="#0000ff" stroke-linecap="round" stroke-width="7" /><polyline clip-path="url(#border_clip)" fill="none" points="2425.5,2485.5 2418.4289321881347,2478.4289321881347 2411.357864376269,2485.5" stroke="#0000ff" stroke-linecap="round" stroke-width="3" /><polyline clip-path="url(#border_clip)" fill="none" points="2380.5,2510.5 2340.5,2510.5 2340.5,2550.5" stroke="#0000ff" stroke-linecap="round" stroke-width="3" /><polyline clip-path="url(#border_clip)" fill="none" points="2440.5,2510.5 2412.2157287525383,2538.784271247462 2440.5,2567.068542494924" stroke="#0000ff" stroke-linecap="round" stroke-width="3" /><polyline clip-path="url(#border_clip)" fill="none" points="0.5,1000.5 707.6067811865491,1707.606781186546 0.5000000000031832,2414.713562373095 -706.606781186546,1707.6067811865491 0.5,1000.5" stroke="#0000ff" stroke-linecap="round" stroke-width="5" /><polyline clip-path="url(#border_clip)" fill="none" points="2400.5,2500.5 2407.474776632825,2505.029472906213 2415.6888547485896,2506.3304550713606 2423.721945618522,2504.1779948600365 2430.1850548528705,2498.944272197266 2433.9606521495125,2491.5342452783193 2434.3959024356336,2483.2291750754644 2431.415546982639,2475.4650836759683 2425.5349163240317,2469.5844530173604 2417.7708249245356,2466.6040975643664 2409.4657547216802,2467.0393478504875 2402.055727802734,2470.8149451471295 2396.8220051399635,2477.2780543814783 2394.6695449286394,2485.3111452514104 2395.970527093787,2493.525223367175 2400.5,2500.5" stroke="#0000ff" stroke-linecap="round" stroke-width="3" /><polyline clip-path="url(#border_clip)" fill="none" points="2420.5,2480.5 2424.5960372733134,2482.97614085322 2429.3736181900044,2483.265131257606 2433.738256538151,2481.300766994225 2436.6900662717862,2477.533060242662 2437.5528233540986,2472.825147213912 2436.12888053488,2468.2555540463577 2432.744445953642,2464.87111946512 2428.174852786088,2463.4471766459014 2423.466939757338,2464.3099337282138 2419.699233005775,2467.261743461849 2417.734868742394,2471.6263818099956 2418.02385914678,2476.4039627266866 2420.5,2480.5" stroke="#0000ff" stroke-linecap="round" stroke-width="3" /><polyline clip-path="url(#border_clip)" fill="none" points="2425.5,2475.5 2425.5,2475.5" stroke="#0000ff" stroke-linecap="round" stroke-width="7" /><polyline clip-path="url(#border_clip)" fill="none" points="2415.5,2475.5 2415.5,2475.5" stroke="#0000ff" stroke-linecap="round" stroke-width="7" /><polyline clip-path="url(#border_clip)" fill="none" points="2425.5,2485.5 2425.5,2495.5 2435.5,2495.5" stroke="#0000ff" stroke-linecap="round" stroke-width="3" /><polyline clip-path="url(#border_clip)" fill="none" points="2380.5,2510.5 2408.784271247462,2538.7842712474617 2437.068542494924,2510.5" stroke="#0000ff" stroke-linecap="round" stroke-width="3" /><polyline clip-path="url(#border_clip)" fill="none" points="2440.5,2510.5 2480.5,2510.5 2480.5,2470.5" stroke="#0000ff" stroke-linecap="round" stroke-width="3" /><polyline clip-path="url(#border_clip)" fill="none" points="1000.5,1000.5 1000.4999999999975,0.4999999999990905 2000.4999999999982,0.49999999999681677 2000.5000000000007,1000.4999999999975 1000.5,1000.5000000000002" stroke="#0000ff" stroke-linecap="round" stroke-width="5" /><polyline clip-path="url(#border_clip)" fill="none" points="2400.5,2500.5 2398.770909152852,2492.365267138484 2393.8826121271773,2485.6371034904523 2386.680339887499,2481.478869674097 2378.409430734647,2480.6095620926344 2370.5,2483.179491924311 2364.319660112501,2488.7442949541505 2360.9370479853237,2496.3417661836447 2360.9370479853237,2504.6582338163553 2364.319660112501,2512.2557050458495 2370.5,2517.820508075689 2378.409430734647,2520.3904379073656 2386.680339887499,2519.521130325903 2393.8826121271773,2515.3628965095477 2398.7709091528523,2508.634732861516 2400.5,2500.5" stroke="#0000ff" stroke-linecap="round" stroke-width="3" /><polyline clip-path="url(#border_clip)" fill="none" points="2420.5,2480.5 2419.3545602565323,2475.8527682795625 2416.1806474673117,2472.2701613410636 2411.7053668025533,2470.5729112590193 2406.9539511295748,2471.1498375731458 2403.014892518289,2473.868773417592 2400.7905818257395,2478.1068433571245 2400.7905818257395,2482.8931566428755 2403.014892518289,2487.131226582408 2406.9539511295748,2489.8501624268542 2411.7053668025533,2490.4270887409807 2416.1806474673117,2488.7298386589364 2419.3545602565323,2485.1472317204375 2420.5,2480.5" stroke="#0000ff" stroke-linecap="round" stroke-width="3" /><polyline clip-path="url(#border_clip)" fill="none" points="2425.5,2475.5 2425.5,2475.5" stroke="#0000ff" stroke-linecap="round" stroke-width="7" /><polyline clip-path="url(#border_clip)" fill="none" points="2415.5,2475.5 2415.5,2475.5" stroke="#0000ff" stroke-linecap="round" stroke-width="7" /><polyline clip-path="url(#border_clip)" fill="none" points="2425.5,2485.5 2432.5710678118653,2478.4289321881347 2425.5,2471.357864376269" stroke="#0000ff" stroke-linecap="round" stroke-width="3" /><polyline clip-path="url(#border_clip)" fill="none" points="2380.5,2510.5 2380.5,2470.5 2340.5,2470.5" stroke="#0000ff" stroke-linecap="round" stroke-width="3" /><polyline clip-path="url(#border_clip)" fill="none" points="2440.5,2510.5 2412.215728752538,2482.2157287525383 2383.931457505076,2510.5" stroke="#0000ff" stroke-linecap="round" stroke-width="3" /><polyline clip-path="url(#border_clip)" fill="none" points="2000.5,1000.5 1293.393218813454,1707.6067811865507 586.2864376269033,1000.5000000000045 1293.3932188134495,293.39321881345404 2000.5000000000002,1000.5" stroke="#0000ff" stroke-linecap="round" stroke-width="5" /><polyline clip-path="url(#border_clip)" fill="none" points="2400.5,2500.5 2395.970527093787,2507.474776632825 2394.6695449286394,2515.68885474859 2396.8220051399635,2523.721945618522 2402.0557278027345,2530.1850548528705 2409.4657547216807,2533.9606521495125 2417.7708249245356,2534.3959024356336 2425.5349163240317,2531.415546982639 2431.4155469826396,2525.534916324031 2434.3959024356336,2517.7708249245356 2433.9606521495125,2509.4657547216802 2430.1850548528705,2502.055727802734 2423.721945618522,2496.8220051399635 2415.6888547485896,2494.6695449286394 2407.474776632825,2495.970527093787 2400.5,2500.5" stroke="#0000ff" stroke-linecap="round" stroke-width="3" /><polyline clip-path="url(#border_clip)" fill="none" points="2420.5,2480.5 2418.02385914678,2484.5960372733134 2417.734868742394,2489.3736181900044 2419.699233005775,2493.738256538151 2423.466939757338,2496.6900662717862 2428.174852786088,2497.5528233540986 2432.7444459536423,2496.12888053488 2436.12888053488,2492.744445953642 2437.5528233540986,2488.174852786088 2436.6900662717862,2483.466939757338 2433.738256538151,2479.699233005775 2429.3736181900044,2477.734868742394 2424.5960372733134,2478.02385914678 2420.5,2480.5" stroke="#0000ff" stroke-linecap="round" stroke-width="3" /><polyline clip-path="url(#border_clip)" fill="none" points="2425.5,2475.5 2425.5,2475.5" stroke="#0000ff" stroke-linecap="round" stroke-width="7" /><polyline clip-path="url(#border_clip)" fill="none" points="2415.5,2475.5 2415.5,2475.5" stroke="#0000ff" stroke-linecap="round" stroke-width="7" /><polyline clip-path="url(#border_clip)" fill="none" points="2425.5,2485.5 2415.5,2485.5 2415.5,2495.5" stroke="#0000ff" stroke-linecap="round" stroke-width="3" /><polyline clip-path="url(#border_clip)" fill="none" points="2380.5,2510.5 2352.2157287525383,2538.784271247462 2380.5,2567.068542494924" stroke="#0000ff" stroke-linecap="round" stroke-width="3" /><polyline clip-path="url(#border_clip)" fill="none" points="2440.5,2510.5 2440.5,2550.5 2480.5,2550.5" stroke="#0000ff" stroke-linecap="round" stroke-width="3" /><polyline clip-path="url(#border_clip)" fill="none" points="3000.5,1000.5 4000.5000000000014,1000.4999999999964 4000.500000000005,2000.4999999999977 3000.5000000000036,2000.5000000000014 3000.5,1000.5" stroke="#0000ff" stroke-linecap="round" stroke-width="5" /><polyline clip-path="url(#border_clip)" fill="none" points="2400.5,2500.5 2408.634732861516,2498.770909152852 2415.3628965095477,2493.8826121271773 2419.521130325903,2486.680339887499 2420.3904379073656,2478.409430734647 2417.820508075689,2470.5 2412.2557050458495,2464.319660112501 2404.658233816355,2460.9370479853237 2396.3417661836447,2460.9370479853237 2388.7442949541505,2464.319660112501 2383.179491924311,2470.5 2380.6095620926344,2478.409430734647 2381.478869674097,2486.680339887499 2385.637103490452,2493.8826121271773 2392.365267138484,2498.7709091528523 2400.5,2500.5" stroke="#0000ff" stroke-linecap="round" stroke-width="3" /><polyline clip-path="url(#border_clip)" fill="none" points="2420.5,2480.5 2425.1472317204375,2479.3545602565323 2428.7298386589364,2476.1806474673117 2430.4270887409807,2471.7053668025533 2429.8501624268542,2466.9539511295748 2427.131226582408,2463.014892518289 2422.8931566428755,2460.7905818257395 2418.1068433571245,2460.7905818257395 2413.868773417592,2463.014892518289 2411.1498375731458,2466.9539511295748 2410.5729112590193,2471.7053668025533 2412.2701613410636,2476.1806474673117 2415.8527682795625,2479.3545602565323 2420.5,2480.5" stroke="#0000ff" stroke-linecap="round" stroke-width="3" /><polyline clip-path="url(#border_clip)" fill="none" points="2425.5,2475.5 2425.5,2475.5" stroke="#0000ff" stroke-linecap="round" stroke-width="7" /><polyline clip-path="url(#border_clip)" fill="none" points="2415.5,2475.5 2415.5,2475.5" stroke="#0000ff" stroke-linecap="round" stroke-width="7" /><polyline clip-path="url(#border_clip)" fill="none" points="2425.5,2485.5 2432.5710678118653,2492.5710678118653 2439.642135623731,2485.5" stroke="#0000ff" stroke-linecap="round" stroke-width="3" /><polyline clip-path="url(#border_clip)" fill="none" points="2380.5,2510.5 2420.5,2510.5 2420.5,2470.5" stroke="#0000ff" stroke-linecap="round" stroke-width="3" /><polyline clip-path="url(#border_clip)" fill="none" points="2440.5,2510.5 2468.7842712474617,2482.215728752538 2440.5,2453.931457505076" stroke="#0000ff" stroke-linecap="round" stroke-width="3" /><polyline clip-path="url(#border_clip)" fill="none" points="4000.5,1000.5 3293.3932188134486,293.39321881345404 4000.4999999999945,-413.7135623730974 4707.606781186546,293.3932188134486 4000.5,1000.4999999999998" stroke="#0000ff" stroke-linecap="round" stroke-width="5" /><polyline clip-path="url(#border_clip)" fill="none" points="2400.5,2500.5 2393.525223367175,2495.970527093787 2385.31114525141,2494.6695449286394 2377.278054381478,2496.8220051399635 2370.8149451471295,2502.0557278027345 2367.0393478504875,2509.4657547216807 2366.6040975643664,2517.7708249245356 2369.584453017361,2525.5349163240317 2375.4650836759683,2531.4155469826396 2383.2291750754644,2534.3959024356336 2391.5342452783198,2533.9606521495125 2398.944272197266,2530.1850548528705 2404.1779948600365,2523.721945618522 2406.3304550713606,2515.6888547485896 2405.029472906213,2507.474776632825 2400.5,2500.5" stroke="#0000ff" stroke-linecap="round" stroke-width="3" /><polyline clip-path="url(#border_clip)" fill="none" points="2420.5,2480.5 2416.4039627266866,2478.02385914678 2411.6263818099956,2477.734868742394 2407.261743461849,2479.699233005775 2404.3099337282138,2483.466939757338 2403.4471766459014,2488.174852786088 2404.87111946512,2492.7444459536423 2408.255554046358,2496.12888053488 2412.825147213912,2497.5528233540986 2417.533060242662,2496.6900662717862 2421.300766994225,2493.738256538151 2423.265131257606,2489.3736181900044 2422.97614085322,2484.5960372733134 2420.5,2480.5" stroke="#0000ff" stroke-linecap="round" stroke-width="3" /><polyline clip-path="url(#border_clip)" fill="none" points="2425.5,2475.5 2425.5,2475.5" stroke="#0000ff" stroke-linecap="round" stroke-width="7" /><polyline clip-path="url(#border_clip)" fill="none" points="2415.5,2475.5 2415.5,2475.5" stroke="#0000ff" stroke-linecap="round" stroke-width="7" /><polyline clip-path="url(#border_clip)" fill="none" points="2425.5,2485.5 2425.5,2475.5 2415.5,2475.5" stroke="#0000ff" stroke-linecap="round" stroke-width="3" /><polyline clip-path="url(#border_clip)" fill="none" points="2380.5,2510.5 2352.215728752538,2482.2157287525383 2323.931457505076,2510.5000000000005" stroke="#0000ff" stroke-linecap="round" stroke-width="3" /><polyline clip-path="url(#border_clip)" fill="none" points="2440.5,2510.5 2400.5,2510.5 2400.5,2550.5" stroke="#0000ff" stroke-linecap="round" stroke-width="3" /><polyline clip-path="url(#border_clip)" fill="none" points="0.5,2000.5 0.5000000000040927,3000.5000000000014 -999.4999999999973,3000.5000000000055 -999.5000000000014,2000.500000000004 0.5,2000.5" stroke="#0000ff" stroke-linecap="round" stroke-width="5" /><polyline clip-path="url(#border_clip)" fill="none" points="2400.5,2500.5 2402.229090847148,2508.634732861516 2407.1173878728227,2515.3628965095477 2414.319660112501,2519.521130325903 2422.590569265353,2520.3904379073656 2430.5,2517.820508075689 2436.680339887499,2512.2557050458495 2440.0629520146763,2504.658233816355 2440.0629520146763,2496.3417661836447 2436.680339887499,2488.7442949541505 2430.5,2483.179491924311 2422.590569265353,2480.6095620926344 2414.319660112501,2481.478869674097 2407.1173878728227,2485.637103490452 2402.2290908471477,2492.365267138484 2400.5,2500.5" stroke="#0000ff" stroke-linecap="round" stroke-width="3" /><polyline clip-path="url(#border_clip)" fill="none" points="2420.5,2480.5 2421.6454397434677,2485.1472317204375 2424.8193525326883,2488.7298386589364 2429.2946331974467,2490.4270887409807 2434.0460488704252,2489.8501624268542 2437.985107481711,2487.131226582408 2440.2094181742605,2482.8931566428755 2440.2094181742605,2478.1068433571245 2437.985107481711,2473.868773417592 2434.0460488704252,2471.1498375731458 2429.2946331974467,2470.5729112590193 2424.8193525326883,2472.2701613410636 2421.6454397434677,2475.8527682795625 2420.5,2480.5" stroke="#0000ff" stroke-linecap="round" stroke-width="3" /><polyline clip-path="url(#border_clip)" fill="none" points="2425.5,2475.5 2425.5,2475.5" stroke="#0000ff" stroke-linecap="round" stroke-width="7" /><polyline clip-path="url(#border_clip)" fill="none" points="2415.5,2475.5 2415.5,2475.5" stroke="#0000ff" stroke-linecap="round" stroke-width="7" /><polyline clip-path="url(#border_clip)" fill="none" points="2425.5,2485.5 2418.4289321881347,2492.5710678118653 2425.5,2499.642135623731" stroke="#0000ff" stroke-linecap="round" stroke-width="3" /><polyline clip-path="url(#border_clip)" fill="none" points="2380.5,2510.5 2380.5,2550.5 2420.5000000000005,2550.5" stroke="#0000ff" stroke-linecap="round" stroke-width="3" /><polyline clip-path="url(#border_clip)" fill="none" points="2440.5,2510.5 2468.784271247462,2538.7842712474617 2497.068542494924,2510.4999999999995" stroke="#0000ff" stroke-linecap="round" stroke-width="3" /><polyline clip-path="url(#border_clip)" fill="none" points="1000.5,2000.5 1707.606781186546,1293.3932188134481 2414.7135623730974,2000.499999999994 1707.6067811865519,2707.606781186546 1000.5,2000.5" stroke="#0000ff" stroke-linecap="round" stroke-width="5" /><polyline clip-path="url(#border_clip)" fill="none" points="2400.5,2500.5 2405.029472906213,2493.525223367175 2406.3304550713606,2485.31114525141 2404.1779948600365,2477.278054381478 2398.9442721972655,2470.8149451471295 2391.5342452783193,2467.0393478504875 2383.2291750754644,2466.6040975643664 2375.4650836759683,2469.584453017361 2369.5844530173604,2475.465083675969 2366.6040975643664,2483.2291750754644 2367.0393478504875,2491.5342452783198 2370.8149451471295,2498.944272197266 2377.278054381478,2504.1779948600365 2385.3111452514104,2506.3304550713606 2393.525223367175,2505.029472906213 2400.5,2500.5" stroke="#0000ff" stroke-linecap="round" stroke-width="3" /><polyline clip-path="url(#border_clip)" fill="none" points="2420.5,2480.5 2422.97614085322,2476.4039627266866 2423.265131257606,2471.6263818099956 2421.300766994225,2467.261743461849 2417.533060242662,2464.3099337282138 2412.825147213912,2463.4471766459014 2408.2555540463577,2464.87111946512 2404.87111946512,2468.255554046358 2403.4471766459014,2472.825147213912 2404.3099337282138,2477.533060242662 2407.261743461849,2481.300766994225 2411.6263818099956,2483.265131257606 2416.4039627266866,2482.97614085322 2420.5,2480.5" stroke="#0000ff" stroke-linecap="round" stroke-width="3" /><polyline clip-path="url(#border_clip)" fill="none" points="2425.5,2475.5 2425.5,2475.5" stroke="#0000ff" stroke-linecap="round" stroke-width="7" /><polyline clip-path="url(#border_clip)" fill="none" points="2415.5,2475.5 2415.5,2475.5" stroke="#0000ff" stroke-linecap="round" stroke-width="7" /><polyline clip-path="url(#border_clip)" fill="none" points="2425.5,2485.5 2435.5,2485.5 2435.5,2475.5" stroke="#0000ff" stroke-linecap="round" stroke-width="3" /><polyline clip-path="url(#border_clip)" fill="none" points="2380.5,2510.5 2408.7842712474617,2482.215728752538 2380.5,2453.931457505076" stroke="#0000ff" stroke-linecap="round" stroke-width="3" /><polyline clip-path="url(#border_clip)" fill="none" points="2440.5,2510.5 2440.5,2470.5 2400.4999999999995,2470.5" stroke="#0000ff" stroke-linecap="round" stroke-width="3" /><polyline clip-path="url(#border_clip)" fill="none" points="2000.5,2000.5 1000.4999999999977,2000.500000000004 1000.4999999999936,1000.5000000000018 2000.499999999996,1000.4999999999977 2000.5,2000.5" stroke="#0000ff" stroke-linecap="round" stroke-width="5" /><polyline clip-path="url(#border_clip)" fill="none" points="2400.5,2500.5 2392.365267138484,2502.229090847148 2385.6371034904523,2507.1173878728227 2381.478869674097,2514.319660112501 2380.6095620926344,2522.590569265353 2383.179491924311,2530.5 2388.7442949541505,2536.680339887499 2396.341766183645,2540.0629520146763 2404.6582338163553,2540.0629520146763 2412.2557050458495,2536.680339887499 2417.820508075689,2530.5 2420.3904379073656,2522.590569265353 2419.521130325903,2514.319660112501 2415.362896509548,2507.1173878728227 2408.634732861516,2502.2290908471477 2400.5,2500.5" stroke="#0000ff" stroke-linecap="round" stroke-width="3" /><polyline clip-path="url(#border_clip)" fill="none" points="2420.5,2480.5 2415.8527682795625,2481.6454397434677 2412.2701613410636,2484.8193525326883 2410.5729112590193,2489.2946331974467 2411.1498375731458,2494.0460488704252 2413.868773417592,2497.985107481711 2418.1068433571245,2500.2094181742605 2422.8931566428755,2500.2094181742605 2427.131226582408,2497.985107481711 2429.8501624268542,2494.0460488704252 2430.4270887409807,2489.2946331974467 2428.7298386589364,2484.8193525326883 2425.1472317204375,2481.6454397434677 2420.5,2480.5" stroke="#0000ff" stroke-linecap="round" stroke-width="3" /><polyline clip-path="url(#border_clip)" fill="none" points="2425.5,2475.5 2425.5,2475.5" stroke="#0000ff" stroke-linecap="round" stroke-width="7" /><polyline clip-path="url(#border_clip)" fill="none" points="2415.5,2475.5 2415.5,2475.5" stroke="#0000ff" stroke-linecap="round" stroke-width="7" /><polyline clip-path="url(#border_clip)" fill="none" points="2425.5,2485.5 2418.4289321881347,2478.4289321881347 2411.357864376269,2485.5" stroke="#0000ff" stroke-linecap="round" stroke-width="3" /><polyline clip-path="url(#border_clip)" fill="none" points="2380.5,2510.5 2340.5,2510.5 2340.5,2550.5000000000005" stroke="#0000ff" stroke-linecap="round" stroke-width="3" /><polyline clip-path="url(#border_clip)" fill="none" points="2440.5,2510.5 2412.2157287525383,2538.784271247462 2440.5000000000005,2567.068542494924" stroke="#0000ff" stroke-linecap="round" stroke-width="3" /><polyline clip-path="url(#border_clip)" fill="none" points="3000.5,2000.5 3707.6067811865523,2707.6067811865464 3000.500000000006,3414.7135623730987 2293.3932188134536,2707.6067811865523 3000.5,2000.5" stroke="#0000ff" stroke-linecap="round" stroke-width="5" /><polyline clip-path="url(#border_clip)" fill="none" points="2400.5,2500.5 2407.474776632825,2505.029472906213 2415.68885474859,2506.3304550713606 2423.721945618522,2504.1779948600365 2430.1850548528705,2498.9442721972655 2433.9606521495125,2491.5342452783193 2434.3959024356336,2483.2291750754644 2431.4155469826396,2475.4650836759683 2425.5349163240317,2469.5844530173604 2417.7708249245356,2466.604097564366 2409.4657547216802,2467.0393478504875 2402.055727802734,2470.8149451471295 2396.8220051399635,2477.278054381478 2394.6695449286394,2485.3111452514104 2395.970527093787,2493.525223367175 2400.5,2500.5" stroke="#0000ff" stroke-linecap="round" stroke-width="3" /><polyline clip-path="url(#border_clip)" fill="none" points="2420.5,2480.5 2424.5960372733134,2482.97614085322 2429.3736181900044,2483.265131257606 2433.738256538151,2481.300766994225 2436.6900662717862,2477.533060242662 2437.5528233540986,2472.8251472139114 2436.12888053488,2468.2555540463577 2432.744445953642,2464.87111946512 2428.174852786088,2463.4471766459014 2423.466939757338,2464.3099337282138 2419.699233005775,2467.261743461849 2417.734868742394,2471.6263818099956 2418.02385914678,2476.4039627266866 2420.5,2480.5" stroke="#0000ff" stroke-linecap="round" stroke-width="3" /><polyline clip-path="url(#border_clip)" fill="none" points="2425.5,2475.5 2425.5,2475.5" stroke="#0000ff" stroke-linecap="round" stroke-width="7" /><polyline clip-path="url(#border_clip)" fill="none" points="2415.5,2475.5 2415.5,2475.5" stroke="#0000ff" stroke-linecap="round" stroke-width="7" /><polyline clip-path="url(#border_clip)" fill="none" points="2425.5,2485.5 2425.5,2495.5 2435.5,2495.5" stroke="#0000ff" stroke-linecap="round" stroke-width="3" /><polyline clip-path="url(#border_clip)" fill="none" points="2380.5,2510.5 2408.784271247462,2538.7842712474617 2437.068542494924,2510.4999999999995" stroke="#0000ff" stroke-linecap="round" stroke-width="3" /><polyline clip-path="url(#border_clip)" fill="none" points="2440.5,2510.5 2480.5,2510.5 2480.5,2470.4999999999995" stroke="#0000ff" stroke-linecap="round" stroke-width="3" /><polyline clip-path="url(#border_clip)" fill="none" points="4000.5,2000.5 4000.4999999999955,1000.4999999999973 5000.499999999998,1000.4999999999927 5000.500000000003,2000.4999999999955 4000.5,2000.5" stroke="#0000ff" stroke-linecap="round" stroke-width="5" /><polyline clip-path="url(#border_clip)" fill="none" points="2400.5,2500.5 2398.770909152852,2492.365267138484 2393.8826121271773,2485.6371034904523 2386.680339887499,2481.478869674097 2378.409430734647,2480.6095620926344 2370.5,2483.179491924311 2364.319660112501,2488.7442949541505 2360.9370479853237,2496.341766183645 2360.9370479853237,2504.6582338163553 2364.319660112501,2512.2557050458495 2370.5,2517.820508075689 2378.409430734647,2520.3904379073656 2386.680339887499,2519.521130325903 2393.8826121271773,2515.362896509548 2398.770909152852,2508.634732861516 2400.5,2500.5" stroke="#0000ff" stroke-linecap="round" stroke-width="3" /><polyline clip-path="url(#border_clip)" fill="none" points="2420.5,2480.5 2419.354560256532,2475.8527682795625 2416.1806474673117,2472.2701613410636 2411.7053668025533,2470.5729112590193 2406.9539511295748,2471.1498375731458 2403.014892518289,2473.868773417592 2400.7905818257395,2478.1068433571245 2400.7905818257395,2482.8931566428755 2403.014892518289,2487.131226582408 2406.9539511295748,2489.8501624268542 2411.7053668025533,2490.4270887409807 2416.1806474673117,2488.7298386589364 2419.3545602565323,2485.1472317204375 2420.5,2480.5" stroke="#0000ff" stroke-linecap="round" stroke-width="3" /><polyline clip-path="url(#border_clip)" fill="none" points="2425.5,2475.5 2425.5,2475.5" stroke="#0000ff" stroke-linecap="round" stroke-width="7" /><polyline clip-path="url(#border_clip)" fill="none" points="2415.5,2475.5 2415.5,2475.5" stroke="#0000ff" stroke-linecap="round" stroke-width="7" /><polyline clip-path="url(#border_clip)" fill="none" points="2425.5,2485.5 2432.5710678118653,2478.4289321881347 2425.5,2471.357864376269" stroke="#0000ff" stroke-linecap="round" stroke-width="3" /><polyline clip-path="url(#border_clip)" fill="none" points="2380.5,2510.5 2380.5,2470.5 2340.4999999999995,2470.5" stroke="#0000ff" stroke-linecap="round" stroke-width="3" /><polyline clip-path="url(#border_clip)" fill="none" points="2440.5,2510.5 2412.215728752538,2482.2157287525383 2383.931457505076,2510.5000000000005" stroke="#0000ff" stroke-linecap="round" stroke-width="3" /><polyline clip-path="url(#border_clip)" fill="none" points="0.5,3000.5 -706.606781186546,3707.6067811865532 -1413.7135623730992,3000.5000000000073 -706.6067811865532,2293.393218813454 0.5,3000.5" stroke="#0000ff" stroke-linecap="round" stroke-width="5" /><polyline clip-path="url(#border_clip)" fill="none" points="2400.5,2500.5 2395.970527093787,2507.474776632825 2394.6695449286394,2515.68885474859 2396.8220051399635,2523.721945618522 2402.0557278027345,2530.1850548528705 2409.4657547216807,2533.9606521495125 2417.7708249245356,2534.3959024356336 2425.5349163240317,2531.415546982639 2431.4155469826396,2525.534916324031 2434.395902435634,2517.7708249245356 2433.9606521495125,2509.4657547216802 2430.1850548528705,2502.055727802734 2423.721945618522,2496.8220051399635 2415.68885474859,2494.6695449286394 2407.474776632825,2495.970527093787 2400.5,2500.5" stroke="#0000ff" stroke-linecap="round" stroke-width="3" /><polyline clip-path="url(#border_clip)" fill="none" points="2420.5,2480.5 2418.02385914678,2484.5960372733134 2417.734868742394,2489.3736181900044 2419.699233005775,2493.738256538151 2423.466939757338,2496.6900662717862 2428.1748527860886,2497.5528233540986 2432.7444459536423,2496.12888053488 2436.12888053488,2492.744445953642 2437.5528233540986,2488.174852786088 2436.6900662717862,2483.466939757338 2433.738256538151,2479.699233005775 2429.3736181900044,2477.734868742394 2424.5960372733134,2478.02385914678 2420.5,2480.5" stroke="#0000ff" stroke-linecap="round" stroke-width="3" /><polyline clip-path="url(#border_clip)" fill="none" points="2425.5,2475.5 2425.5,2475.5" stroke="#0000ff" stroke-linecap="round" stroke-width="7" /><polyline clip-path="url(#border_clip)" fill="none" points="2415.5,2475.5 2415.5,2475.5" stroke="#0000ff" stroke-linecap="round" stroke-width="7" /><polyline clip-path="url(#border_clip)" fill="none" points="2425.5,2485.5 2415.5,2485.5 2415.5,2495.5" stroke="#0000ff" stroke-linecap="round" stroke-width="3" /><polyline clip-path="url(#border_clip)" fill="none" points="2380.5,2510.5 2352.2157287525383,2538.784271247462 2380.5000000000005,2567.068542494924" stroke="#0000ff" stroke-linecap="round" stroke-width="3" /><polyline clip-path="url(#border_clip)" fill="none" points="2440.5,2510.5 2440.5,2550.5 2480.5000000000005,2550.5" stroke="#0000ff" stroke-linecap="round" stroke-width="3" /><polyline clip-path="url(#border_clip)" fill="none" points="1000.5,3000.5 2000.5000000000027,3000.4999999999945 2000.5000000000082,4000.4999999999977 1000.5000000000052,4000.5000000000027 1000.4999999999998,3000.5" stroke="#0000ff" stroke-linecap="round" stroke-width="5" /><polyline clip-path="url(#border_clip)" fill="none" points="2400.5,2500.5 2408.634732861516,2498.770909152852 2415.3628965095477,2493.8826121271773 2419.521130325903,2486.680339887499 2420.3904379073656,2478.409430734647 2417.820508075689,2470.5 2412.2557050458495,2464.319660112501 2404.658233816355,2460.9370479853237 2396.3417661836447,2460.9370479853237 2388.74429495415,2464.319660112501 2383.179491924311,2470.5 2380.6095620926344,2478.409430734647 2381.4788696740966,2486.680339887499 2385.637103490452,2493.8826121271773 2392.365267138484,2498.7709091528523 2400.5,2500.5" stroke="#0000ff" stroke-linecap="round" stroke-width="3" /><polyline clip-path="url(#border_clip)" fill="none" points="2420.5,2480.5 2425.1472317204375,2479.354560256532 2428.7298386589364,2476.1806474673117 2430.4270887409807,2471.7053668025533 2429.8501624268542,2466.9539511295748 2427.131226582408,2463.014892518289 2422.8931566428755,2460.7905818257395 2418.1068433571245,2460.7905818257395 2413.868773417592,2463.014892518289 2411.1498375731458,2466.9539511295748 2410.5729112590193,2471.7053668025533 2412.2701613410636,2476.1806474673117 2415.8527682795625,2479.3545602565323 2420.5,2480.5" stroke="#0000ff" stroke-linecap="round" stroke-width="3" /><polyline clip-path="url(#border_clip)" fill="none" points="2425.5,2475.5 2425.5,2475.5" stroke="#0000ff" stroke-linecap="round" stroke-width="7" /><polyline clip-path="url(#border_clip)" fill="none" points="2415.5,2475.5 2415.5,2475.5" stroke="#0000ff" stroke-linecap="round" stroke-width="7" /><polyline clip-path="url(#border_clip)" fill="none" points="2425.5,2485.5 2432.5710678118658,2492.5710678118653 2439.642135623731,2485.5" stroke="#0000ff" stroke-linecap="round" stroke-width="3" /><polyline clip-path="url(#border_clip)" fill="none" points="2380.5,2510.5 2420.5,2510.4999999999995 2420.5,2470.4999999999995" stroke="#0000ff" stroke-linecap="round" stroke-width="3" /><polyline clip-path="url(#border_clip)" fill="none" points="2440.5,2510.5 2468.7842712474617,2482.215728752538 2440.4999999999995,2453.931457505076" stroke="#0000ff" stroke-linecap="round" stroke-width="3" /><polyline clip-path="url(#border_clip)" fill="none" points="2000.5,3000.5 1293.3932188134463,2293.3932188134545 2000.4999999999918,1586.2864376269008 2707.6067811865455,2293.3932188134463 2000.5,3000.5" stroke="#0000ff" stroke-linecap="round" stroke-width="5" /><polyline clip-path="url(#border_clip)" fill="none" points="2400.5,2500.5 2393.525223367175,2495.970527093787 2385.31114525141,2494.6695449286394 2377.278054381478,2496.8220051399635 2370.8149451471295,2502.0557278027345 2367.0393478504875,2509.4657547216807 2366.6040975643664,2517.7708249245356 2369.584453017361,2525.5349163240317 2375.465083675969,2531.4155469826396 2383.229175075465,2534.395902435634 2391.5342452783198,2533.9606521495125 2398.944272197266,2530.1850548528705 2404.1779948600365,2523.721945618522 2406.3304550713606,2515.6888547485896 2405.029472906213,2507.474776632825 2400.5,2500.5" stroke="#0000ff" stroke-linecap="round" stroke-width="3" /><polyline clip-path="url(#border_clip)" fill="none" points="2420.5,2480.5 2416.4039627266866,2478.02385914678 2411.6263818099956,2477.734868742394 2407.261743461849,2479.699233005775 2404.3099337282138,2483.466939757338 2403.4471766459014,2488.1748527860886 2404.87111946512,2492.7444459536423 2408.255554046358,2496.12888053488 2412.825147213912,2497.5528233540986 2417.533060242662,2496.6900662717862 2421.3007669942253,2493.738256538151 2423.265131257606,2489.3736181900044 2422.97614085322,2484.5960372733134 2420.5,2480.5" stroke="#0000ff" stroke-linecap="round" stroke-width="3" /><polyline clip-path="url(#border_clip)" fill="none" points="2425.5,2475.5 2425.5,2475.5" stroke="#0000ff" stroke-linecap="round" stroke-width="7" /><polyline clip-path="url(#border_clip)" fill="none" points="2415.5,2475.5 2415.5,2475.5" stroke="#0000ff" stroke-linecap="round" stroke-width="7" /><polyline clip-path="url(#border_clip)" fill="none" points="2425.5,2485.5 2425.5,2475.5 2415.5,2475.5" stroke="#0000ff" stroke-linecap="round" stroke-width="3" /><polyline clip-path="url(#border_clip)" fill="none" points="2380.5,2510.5 2352.215728752538,2482.2157287525383 2323.931457505076,2510.5000000000005" stroke="#0000ff" stroke-linecap="round" stroke-width="3" /><polyline clip-path="url(#border_clip)" fill="none" points="2440.5,2510.5 2400.5,2510.5000000000005 2400.5,2550.5000000000005" stroke="#0000ff" stroke-linecap="round" stroke-width="3" /><polyline clip-path="url(#border_clip)" fill="none" points="3000.5,3000.5 3000.500000000006,4000.500000000003 2000.500000000003,4000.500000000009 2000.4999999999968,3000.5000000000064 3000.5,3000.5" stroke="#0000ff" stroke-linecap="round" stroke-width="5" /><polyline clip-path="url(#border_clip)" fill="none" points="2400.5,2500.5 2402.229090847148,2508.634732861516 2407.1173878728227,2515.3628965095477 2414.3196601125014,2519.521130325903 2422.590569265353,2520.3904379073656 2430.5,2517.820508075689 2436.680339887499,2512.2557050458495 2440.0629520146763,2504.658233816355 2440.0629520146763,2496.3417661836447 2436.680339887499,2488.74429495415 2430.5,2483.179491924311 2422.590569265353,2480.6095620926344 2414.319660112501,2481.4788696740966 2407.1173878728227,2485.637103490452 2402.2290908471477,2492.365267138484 2400.5,2500.5" stroke="#0000ff" stroke-linecap="round" stroke-width="3" /><polyline clip-path="url(#border_clip)" fill="none" points="2420.5,2480.5 2421.645439743468,2485.1472317204375 2424.8193525326883,2488.7298386589364 2429.2946331974467,2490.4270887409807 2434.0460488704252,2489.8501624268542 2437.985107481711,2487.1312265824076 2440.2094181742605,2482.8931566428755 2440.2094181742605,2478.1068433571245 2437.985107481711,2473.868773417592 2434.0460488704252,2471.1498375731458 2429.2946331974467,2470.5729112590193 2424.8193525326883,2472.270161341063 2421.6454397434677,2475.8527682795625 2420.5,2480.5" stroke="#0000ff" stroke-linecap="round" stroke-width="3" /><polyline clip-path="url(#border_clip)" fill="none" points="2425.5,2475.5 2425.5,2475.5" stroke="#0000ff" stroke-linecap="round" stroke-width="7" /><polyline clip-path="url(#border_clip)" fill="none" points="2415.5,2475.5 2415.5,2475.5" stroke="#0000ff" stroke-linecap="round" stroke-width="7" /><polyline clip-path="url(#border_clip)" fill="none" points="2425.5,2485.5 2418.4289321881347,2492.5710678118658 2425.5,2499.642135623731" stroke="#0000ff" stroke-linecap="round" stroke-width="3" /><polyline clip-path="url(#border_clip)" fill="none" points="2380.5,2510.5 2380.5000000000005,2550.5 2420.5000000000005,2550.5" stroke="#0000ff" stroke-linecap="round" stroke-width="3" /><polyline clip-path="url(#border_clip)" fill="none" points="2440.5,2510.5 2468.784271247462,2538.7842712474617 2497.068542494924,2510.4999999999995" stroke="#0000ff" stroke-linecap="round" stroke-width="3" /><polyline clip-path="url(#border_clip)" fill="none" points="4000.5,3000.5 4707.606781186545,2293.393218813446 5414.713562373099,3000.4999999999914 4707.606781186554,3707.6067811865455 4000.5,3000.5" stroke="#0000ff" stroke-linecap="round" stroke-width="5" /><polyline clip-path="url(#border_clip)" fill="none" points="2400.5,2500.5 2405.029472906213,2493.525223367175 2406.3304550713606,2485.31114525141 2404.177994860036,2477.278054381478 2398.9442721972655,2470.8149451471295 2391.5342452783193,2467.0393478504875 2383.2291750754644,2466.6040975643664 2375.4650836759683,2469.584453017361 2369.5844530173604,2475.465083675969 2366.604097564366,2483.229175075465 2367.0393478504875,2491.5342452783198 2370.8149451471295,2498.944272197266 2377.278054381478,2504.1779948600365 2385.31114525141,2506.3304550713606 2393.525223367175,2505.029472906213 2400.5,2500.5" stroke="#0000ff" stroke-linecap="round" stroke-width="3" /><polyline clip-path="url(#border_clip)" fill="none" points="2420.5,2480.5 2422.97614085322,2476.4039627266866 2423.265131257606,2471.6263818099956 2421.300766994225,2467.261743461849 2417.533060242662,2464.3099337282138 2412.8251472139114,2463.4471766459014 2408.2555540463577,2464.87111946512 2404.87111946512,2468.255554046358 2403.4471766459014,2472.825147213912 2404.3099337282138,2477.533060242662 2407.261743461849,2481.3007669942253 2411.6263818099956,2483.265131257606 2416.4039627266866,2482.97614085322 2420.5,2480.5" stroke="#0000ff" stroke-linecap="round" stroke-width="3" /><polyline clip-path="url(#border_clip)" fill="none" points="2425.5,2475.5 2425.5,2475.5" stroke="#0000ff" stroke-linecap="round" stroke-width="7" /><polyline clip-path="url(#border_clip)" fill="none" points="2415.5,2475.5 2415.5,2475.5" stroke="#0000ff" stroke-linecap="round" stroke-width="7" /><polyline clip-path="url(#border_clip)" fill="none" points="2425.5,2485.5 2435.5,2485.5 2435.5,2475.5" stroke="#0000ff" stroke-linecap="round" stroke-width="3" /><polyline clip-path="url(#border_clip)" fill="none" points="2380.5,2510.5 2408.7842712474617,2482.215728752538 2380.4999999999995,2453.931457505076" stroke="#0000ff" stroke-linecap="round" stroke-width="3" /><polyline clip-path="url(#border_clip)" fill="none" points="2440.5,2510.5 2440.4999999999995,2470.5 2400.4999999999995,2470.5" stroke="#0000ff" stroke-linecap="round" stroke-width="3" /><polyline clip-path="url(#border_clip)" fill="none" points="0.5,4000.5 -999.5000000000027,4000.5000000000064 -999.5000000000091,3000.500000000004 0.49999999999363354,3000.4999999999973 0.5000000000004547,4000.5" stroke="#0000ff" stroke-linecap="round" stroke-width="5" /><polyline clip-path="url(#border_clip)" fill="none" points="2400.5,2500.5 2392.365267138484,2502.229090847148 2385.6371034904523,2507.1173878728227 2381.478869674097,2514.3196601125014 2380.6095620926344,2522.590569265353 2383.1794919243116,2530.5 2388.744294954151,2536.680339887499 2396.341766183645,2540.0629520146763 2404.6582338163553,2540.0629520146763 2412.25570504585,2536.680339887499 2417.820508075689,2530.5 2420.3904379073656,2522.5905692653528 2419.5211303259034,2514.319660112501 2415.362896509548,2507.1173878728227 2408.634732861516,2502.2290908471477 2400.5,2500.5" stroke="#0000ff" stroke-linecap="round" stroke-width="3" /><polyline clip-path="url(#border_clip)" fill="none" points="2420.5,2480.5 2415.8527682795625,2481.645439743468 2412.2701613410636,2484.8193525326883 2410.5729112590193,2489.2946331974467 2411.1498375731458,2494.0460488704252 2413.8687734175924,2497.985107481711 2418.1068433571245,2500.2094181742605 2422.8931566428755,2500.2094181742605 2427.131226582408,2497.985107481711 2429.8501624268542,2494.0460488704252 2430.4270887409807,2489.2946331974467 2428.7298386589364,2484.8193525326883 2425.1472317204375,2481.6454397434677 2420.5,2480.5" stroke="#0000ff" stroke-linecap="round" stroke-width="3" /><polyline clip-path="url(#border_clip)" fill="none" points="2425.5,2475.5 2425.5,2475.5" stroke="#0000ff" stroke-linecap="round" stroke-width="7" /><polyline clip-path="url(#border_clip)" fill="none" points="2415.5,2475.5 2415.5,2475.5" stroke="#0000ff" stroke-linecap="round" stroke-width="7" /><polyline clip-path="url(#border_clip)" fill="none" points="2425.5,2485.5 2418.4289321881342,2478.4289321881347 2411.357864376269,2485.5" stroke="#0000ff" stroke-linecap="round" stroke-width="3" /><polyline clip-path="url(#border_clip)" fill="none" points="2380.5,2510.5 2340.5,2510.5000000000005 2340.5,2550.5000000000005" stroke="#0000ff" stroke-linecap="round" stroke-width="3" /><polyline clip-path="url(#border_clip)" fill="none" points="2440.5,2510.5 2412.2157287525383,2538.784271247462 2440.5000000000005,2567.068542494924" stroke="#0000ff" stroke-linecap="round" stroke-width="3" /><polyline clip-path="url(#border_clip)" fill="none" points="1000.5,4000.5 1707.6067811865546,4707.606781186544 1000.5000000000105,5414.713562373099 293.39321881345586,4707.606781186554 1000.5,4000.5" stroke="#0000ff" stroke-linecap="round" stroke-width="5" /><polyline clip-path="url(#border_clip)" fill="none" points="2400.5,2500.5 2407.474776632825,2505.029472906213 2415.68885474859,2506.3304550713606 2423.721945618522,2504.177994860036 2430.1850548528705,2498.9442721972655 2433.9606521495125,2491.5342452783193 2434.3959024356336,2483.2291750754644 2431.415546982639,2475.4650836759683 2425.534916324031,2469.5844530173604 2417.770824924535,2466.604097564366 2409.4657547216802,2467.0393478504875 2402.055727802734,2470.8149451471295 2396.8220051399635,2477.278054381478 2394.6695449286394,2485.3111452514104 2395.970527093787,2493.525223367175 2400.5,2500.5" stroke="#0000ff" stroke-linecap="round" stroke-width="3" /><polyline clip-path="url(#border_clip)" fill="none" points="2420.5,2480.5 2424.5960372733134,2482.97614085322 2429.3736181900044,2483.265131257606 2433.738256538151,2481.300766994225 2436.6900662717862,2477.533060242662 2437.5528233540986,2472.8251472139114 2436.12888053488,2468.2555540463577 2432.744445953642,2464.87111946512 2428.174852786088,2463.4471766459014 2423.466939757338,2464.3099337282138 2419.6992330057747,2467.261743461849 2417.734868742394,2471.6263818099956 2418.02385914678,2476.4039627266866 2420.5,2480.5" stroke="#0000ff" stroke-linecap="round" stroke-width="3" /><polyline clip-path="url(#border_clip)" fill="none" points="2425.5,2475.5 2425.5,2475.5" stroke="#0000ff" stroke-linecap="round" stroke-width="7" /><polyline clip-path="url(#border_clip)" fill="none" points="2415.5,2475.5 2415.5,2475.5" stroke="#0000ff" stroke-linecap="round" stroke-width="7" /><polyline clip-path="url(#border_clip)" fill="none" points="2425.5,2485.5 2425.5,2495.5 2435.5,2495.5" stroke="#0000ff" stroke-linecap="round" stroke-width="3" /><polyline clip-path="url(#border_clip)" fill="none" points="2380.5,2510.5 2408.784271247462,2538.7842712474617 2437.068542494924,2510.4999999999995" stroke="#0000ff" stroke-linecap="round" stroke-width="3" /><polyline clip-path="url(#border_clip)" fill="none" points="2440.5,2510.5 2480.5,2510.4999999999995 2480.5,2470.4999999999995" stroke="#0000ff" stroke-linecap="round" stroke-width="3" /><polyline clip-path="url(#border_clip)" fill="none" points="2000.5,4000.5 2000.4999999999923,3000.4999999999973 3000.499999999995,3000.499999999989 3000.5000000000027,4000.4999999999923 2000.5,4000.5" stroke="#0000ff" stroke-linecap="round" stroke-width="5" /><polyline clip-path="url(#border_clip)" fill="none" points="2400.5,2500.5 2398.770909152852,2492.365267138484 2393.882612127177,2485.6371034904523 2386.6803398874986,2481.478869674097 2378.409430734647,2480.609562092635 2370.5,2483.1794919243116 2364.319660112501,2488.744294954151 2360.9370479853237,2496.341766183645 2360.9370479853237,2504.6582338163557 2364.319660112501,2512.25570504585 2370.5,2517.820508075689 2378.409430734647,2520.3904379073656 2386.680339887499,2519.5211303259034 2393.8826121271773,2515.362896509548 2398.7709091528523,2508.634732861516 2400.5,2500.5" stroke="#0000ff" stroke-linecap="round" stroke-width="3" /><polyline clip-path="url(#border_clip)" fill="none" points="2420.5,2480.5 2419.354560256532,2475.8527682795625 2416.1806474673112,2472.2701613410636 2411.7053668025533,2470.5729112590193 2406.9539511295743,2471.1498375731458 2403.014892518289,2473.8687734175924 2400.7905818257395,2478.1068433571245 2400.7905818257395,2482.893156642876 2403.014892518289,2487.131226582408 2406.9539511295748,2489.8501624268542 2411.7053668025533,2490.4270887409807 2416.1806474673117,2488.729838658937 2419.3545602565323,2485.1472317204375 2420.5,2480.5" stroke="#0000ff" stroke-linecap="round" stroke-width="3" /><polyline clip-path="url(#border_clip)" fill="none" points="2425.5,2475.5 2425.5,2475.5" stroke="#0000ff" stroke-linecap="round" stroke-width="7" /><polyline clip-path="url(#border_clip)" fill="none" points="2415.5,2475.5 2415.5,2475.5" stroke="#0000ff" stroke-linecap="round" stroke-width="7" /><polyline clip-path="url(#border_clip)" fill="none" points="2425.5,2485.5 2432.5710678118653,2478.4289321881342 2425.5,2471.357864376269" stroke="#0000ff" stroke-linecap="round" stroke-width="3" /><polyline clip-path="url(#border_clip)" fill="none" points="2380.5,2510.5 2380.4999999999995,2470.5 2340.4999999999995,2470.5" stroke="#0000ff" stroke-linecap="round" stroke-width="3" /><polyline clip-path="url(#border_clip)" fill="none" points="2440.5,2510.5 2412.215728752538,2482.2157287525383 2383.931457505076,2510.5000000000005" stroke="#0000ff" stroke-linecap="round" stroke-width="3" /><polyline clip-path="url(#border_clip)" fill="none" points="3000.5,4000.5 2293.393218813456,4707.606781186555 1586.2864376269008,4000.500000000011 2293.393218813445,3293.393218813456 3000.5,4000.5" stroke="#0000ff" stroke-linecap="round" stroke-width="5" /><polyline clip-path="url(#border_clip)" fill="none" points="2400.5,2500.5 2395.970527093787,2507.474776632825 2394.6695449286394,2515.68885474859 2396.822005139964,2523.721945618522 2402.0557278027345,2530.1850548528705 2409.4657547216807,2533.9606521495125 2417.770824924536,2534.3959024356336 2425.5349163240317,2531.415546982639 2431.4155469826396,2525.534916324031 2434.395902435634,2517.770824924535 2433.9606521495125,2509.4657547216802 2430.1850548528705,2502.055727802734 2423.721945618522,2496.8220051399635 2415.6888547485896,2494.6695449286394 2407.474776632825,2495.970527093787 2400.5,2500.5" stroke="#0000ff" stroke-linecap="round" stroke-width="3" /><polyline clip-path="url(#border_clip)" fill="none" points="2420.5,2480.5 2418.02385914678,2484.5960372733134 2417.734868742394,2489.3736181900044 2419.699233005775,2493.738256538151 2423.466939757338,2496.6900662717862 2428.1748527860886,2497.5528233540986 2432.7444459536423,2496.12888053488 2436.12888053488,2492.744445953642 2437.5528233540986,2488.174852786088 2436.6900662717862,2483.466939757338 2433.738256538151,2479.6992330057747 2429.3736181900044,2477.734868742394 2424.5960372733134,2478.02385914678 2420.5,2480.5" stroke="#0000ff" stroke-linecap="round" stroke-width="3" /><polyline clip-path="url(#border_clip)" fill="none" points="2425.5,2475.5 2425.5,2475.5" stroke="#0000ff" stroke-linecap="round" stroke-width="7" /><polyline clip-path="url(#border_clip)" fill="none" points="2415.5,2475.5 2415.5,2475.5" stroke="#0000ff" stroke-linecap="round" stroke-width="7" /><polyline clip-path="url(#border_clip)" fill="none" points="2425.5,2485.5 2415.5,2485.5 2415.5,2495.5" stroke="#0000ff" stroke-linecap="round" stroke-width="3" /><polyline clip-path="url(#border_clip)" fill="none" points="2380.5,2510.5 2352.2157287525383,2538.784271247462 2380.5000000000005,2567.068542494924" stroke="#0000ff" stroke-linecap="round" stroke-width="3" /><polyline clip-path="url(#border_clip)" fill="none" points="2440.5,2510.5 2440.5000000000005,2550.5 2480.5000000000005,2550.5" stroke="#0000ff" stroke-linecap="round" stroke-width="3" /><polyline clip-path="url(#border_clip)" fill="none" points="4000.5,4000.5 5000.500000000004,4000.499999999992 5000.500000000011,5000.4999999999945 4000.500000000008,5000.500000000004 4000.5,4000.5" stroke="#0000ff" stroke-linecap="round" stroke-width="5" /><polyline clip-path="url(#border_clip)" fill="none" points="2400.5,2500.5 2408.634732861516,2498.770909152852 2415.3628965095477,2493.882612127177 2419.521130325903,2486.6803398874986 2420.390437907365,2478.409430734647 2417.8205080756884,2470.4999999999995 2412.255705045849,2464.319660112501 2404.658233816355,2460.9370479853237 2396.3417661836443,2460.9370479853237 2388.74429495415,2464.319660112501 2383.1794919243107,2470.5 2380.6095620926344,2478.4094307346472 2381.4788696740966,2486.680339887499 2385.637103490452,2493.8826121271773 2392.365267138484,2498.7709091528523 2400.5,2500.5" stroke="#0000ff" stroke-linecap="round" stroke-width="3" /><polyline clip-path="url(#border_clip)" fill="none" points="2420.5,2480.5 2425.1472317204375,2479.354560256532 2428.7298386589364,2476.1806474673117 2430.4270887409807,2471.7053668025533 2429.8501624268542,2466.9539511295743 2427.1312265824076,2463.014892518289 2422.8931566428755,2460.7905818257395 2418.106843357124,2460.7905818257395 2413.868773417592,2463.014892518289 2411.1498375731458,2466.9539511295748 2410.5729112590193,2471.7053668025533 2412.270161341063,2476.1806474673117 2415.8527682795625,2479.3545602565323 2420.5,2480.5" stroke="#0000ff" stroke-linecap="round" stroke-width="3" /><polyline clip-path="url(#border_clip)" fill="none" points="2425.5,2475.5 2425.5,2475.5" stroke="#0000ff" stroke-linecap="round" stroke-width="7" /><polyline clip-path="url(#border_clip)" fill="none" points="2415.5,2475.5 2415.5,2475.5" stroke="#0000ff" stroke-linecap="round" stroke-width="7" /><polyline clip-path="url(#border_clip)" fill="none" points="2425.5,2485.5 2432.5710678118658,2492.5710678118653 2439.642135623731,2485.5" stroke="#0000ff" stroke-linecap="round" stroke-width="3" /><polyline clip-path="url(#border_clip)" fill="none" points="2380.5,2510.5 2420.5,2510.4999999999995 2420.5,2470.4999999999995" stroke="#0000ff" stroke-linecap="round" stroke-width="3" /><polyline clip-path="url(#border_clip)" fill="none" points="2440.5,2510.5 2468.7842712474617,2482.215728752538 2440.4999999999995,2453.931457505076" stroke="#0000ff" stroke-linecap="round" stroke-width="3" /></svg>