<?xml version="1.0" encoding="utf-8" ?>
<svg baseProfile="full" height="1000px" version="1.1" width="1000px" xmlns="http://www.w3.org/2000/svg" xmlns:ev="http://www.w3.org/2001/xml-events" xmlns:xlink="http://www.w3.org/1999/xlink"><defs><clipPath id="border_clip"><rect height="1000" width="1000" x="0" y="0" /></clipPath></defs><text clip-path="url(#border_clip)" fill="black" style="font-family: Arial; font-size: 13.2; font-style: normal;" text-anchor="start" x="499.5" y="496.9">0,0</text><polyline clip-path="url(#border_clip)" fill="none" points="0.5,1000.5 0.5,0.5" stroke="black" stroke-linecap="round" stroke-width="1" /><polyline clip-path="url(#border_clip)" fill="none" points="100.5,1000.5 100.5,0.5" stroke="black" stroke-linecap="round" stroke-width="1" /><polyline clip-path="url(#border_clip)" fill="none" points="200.5,1000.5 200.5,0.5" stroke="black" stroke-linecap="round" stroke-width="1" /><polyline clip-path="url(#border_clip)" fill="none" points="300.5,1000.5 300.5,0.5" stroke="black" stroke-linecap="round" stroke-width="1" /><polyline clip-path="url(#border_clip)" fill="none" points="400.5,1000.5 400.5,0.5" stroke="black" stroke-linecap="round" stroke-width="1" /><polyline clip-path="url(#border_clip)" fill="none" points="500.5,1000.5 500.5,0.5" stroke="black" stroke-linecap="round" stroke-width="1" /><polyline clip-path="url(#border_clip)" fill="none" points="600.5,1000.5 600.5,0.5" stroke="black" stroke-linecap="round" stroke-width="1" /><polyline clip-path="url(#border_clip)" fill="none" points="700.5,1000.5 700.5,0.5" stroke="black" stroke-linecap="round" stroke-width="1" /><polyline clip-path="url(#border_clip)" fill="none" points="800.5,1000.5 800.5,0.5" stroke="black" stroke-linecap="round" stroke-width="1" /><polyline clip-path="url(#border_clip)" fill="none" points="900.5,1000.5 900.5,0.5" stroke="black" stroke-linecap="round" stroke-width="1" /><polyline clip-path="url(#border_clip)" fill="none" points="0.5,1000.5 1000.5,1000.5" stroke="black" stroke-linecap="round" stroke-width="1" /><polyline clip-path="url(#border_clip)" fill="none" points="0.5,900.5 1000.5,900.5" stroke="black" stroke-linecap="round" stroke-width="1" /><polyline clip-path="url(#border_clip)" fill="none" points="0.5,800.5 1000.5,800.5" stroke="black" stroke-linecap="round" stroke-width="1" /><polyline clip-path="url(#border_clip)" fill="none" points="0.5,700.5 1000.5,700.5" stroke="black" stroke-linecap="round" stroke-width="1" /><polyline clip-path="url(#border_clip)" fill="none" points="0.5,600.5 1000.5,600.5" stroke="black" stroke-linecap="round" stroke-width="1" /><polyline clip-path="url(#border_clip)" fill="none" points="0.5,500.5 1000.5,500.5" stroke="black" stroke-linecap="round" stroke-width="1" /><polyline clip-path="url(#border_clip)" fill="none" points="0.5,400.5 1000.5,400.5" stroke="black" stroke-linecap="round" stroke-width="1" /><polyline clip-path="url(#border_clip)" fill="none" points="0.5,300.5 1000.5,300.5" stroke="black" stroke-linecap="round" stroke-width="1" /><polyline clip-path="url(#border_clip)" fill="none" points="0.5,200.5 1000.5,200.5" stroke="black" stroke-linecap="round" stroke-width="1" /><polyline clip-path="url(#border_clip)" fill="none" points="0.5,100.5 1000.5,100.5" stroke="black" stroke-linecap="round" stroke-width="1" /><polyline clip-path="url(#border_clip)" fill="none" points="0.5,500.5 1000.5,500.5" stroke="black" stroke-linecap="round" stroke-width="5" /><polyline clip-path="url(#border_clip)" fill="none" points="500.5,1000.5 500.5,0.5" stroke="black" stroke-linecap="round" stroke-width="5" /><polyline clip-path="url(#border_clip)" fill="none" points="400.5,500.5 408.634732861516,498.770909152852 415.3628965095479,493.88261212717714 419.5211303259031,486.680339887499 420.3904379073655,478.40943073464695 417.8205080756888,470.5 412.2557050458495,464.3196601125011 404.65823381635516,460.9370479853239 396.34176618364484,460.9370479853239 388.7442949541505,464.3196601125011 383.17949192431126,470.5 380.6095620926345,478.40943073464695 381.4788696740969,486.680339887499 385.63710349045215,493.88261212717714 392.365267138484,498.770909152852 400.5,500.5" stroke="#0000ff" stroke-linecap="round" stroke-width="3" /><polyline clip-path="url(#border_clip)" fill="none" points="420.5,480.5 425.1472317204377,479.3545602565321 428.72983865893656,476.1806474673116 430.42708874098054,471.7053668025532 429.8501624268541,466.95395112957465 427.131226582408,463.014892518289 422.89315664287557,460.7905818257395 418.10684335712443,460.7905818257395 413.868773417592,463.014892518289 411.1498375731459,466.95395112957465 410.57291125901946,471.7053668025532 412.27016134106344,476.1806474673116 415.8527682795623,479.3545602565321 420.5,480.5" stroke="#0000ff" stroke-linecap="round" stroke-width="3" /><polyline clip-path="url(#border_clip)" fill="none" points="425.5,475.5 425.5,475.5" stroke="#0000ff" stroke-linecap="round" stroke-width="7" /><polyline clip-path="url(#border_clip)" fill="none" points="415.5,475.5 415.5,475.5" stroke="#0000ff" stroke-linecap="round" stroke-width="7" /><polyline clip-path="url(#border_clip)" fill="none" points="425.5,485.5 432.5710678118655,492.5710678118655 439.64213562373095,485.5" stroke="#0000ff" stroke-linecap="round" stroke-width="3" /><polyline clip-path="url(#border_clip)" fill="none" points="380.5,510.5 420.5,510.5 420.5,470.5" stroke="#0000ff" stroke-linecap="round" stroke-width="3" /><polyline clip-path="url(#border_clip)" fill="none" points="440.5,510.5 468.7842712474619,482.2157287525381 440.5,453.9314575050762" stroke="#0000ff" stroke-linecap="round" stroke-width="3" /></svg>