<?xml version="1.0" encoding="utf-8" ?>
<svg baseProfile="full" height="500px" version="1.1" width="500px" xmlns="http://www.w3.org/2000/svg" xmlns:ev="http://www.w3.org/2001/xml-events" xmlns:xlink="http://www.w3.org/1999/xlink"><defs><clipPath id="border_clip"><rect height="500" width="500" x="0" y="0" /></clipPath></defs><polyline clip-path="url(#border_clip)" fill="none" points="150.5,250.5 158.634732861516,248.77090915285203 165.36289650954788,243.88261212717717 169.52113032590307,236.68033988749895 170.39043790736548,228.40943073464695 167.8205080756888,220.5 162.25570504584948,214.31966011250105 154.6582338163552,210.9370479853239 146.34176618364484,210.9370479853239 138.74429495415055,214.31966011250105 133.17949192431124,220.5 130.60956209263455,228.40943073464695 131.47886967409693,236.68033988749895 135.63710349045215,243.88261212717717 142.365267138484,248.77090915285203 150.5,250.5" stroke="#0000ff" stroke-linecap="round" stroke-width="3" /><polyline clip-path="url(#border_clip)" fill="none" points="170.5,230.5 175.14723172043767,229.3545602565321 178.72983865893656,226.18064746731156 180.42708874098054,221.70536680255324 179.85016242685415,216.95395112957465 177.13122658240798,213.014892518289 172.89315664287557,210.79058182573948 168.10684335712443,210.79058182573948 163.86877341759205,213.014892518289 161.14983757314587,216.95395112957465 160.57291125901946,221.70536680255324 162.27016134106344,226.18064746731156 165.85276827956233,229.3545602565321 170.5,230.5" stroke="#0000ff" stroke-linecap="round" stroke-width="3" /><polyline clip-path="url(#border_clip)" fill="none" points="175.5,225.5 175.5,225.5" stroke="#0000ff" stroke-linecap="round" stroke-width="7" /><polyline clip-path="url(#border_clip)" fill="none" points="165.5,225.5 165.5,225.5" stroke="#0000ff" stroke-linecap="round" stroke-width="7" /><polyline clip-path="url(#border_clip)" fill="none" points="175.5,235.5 182.57106781186548,242.57106781186548 189.64213562373095,235.5" stroke="#0000ff" stroke-linecap="round" stroke-width="3" /><polyline clip-path="url(#border_clip)" fill="none" points="130.5,260.5 170.5,260.5 170.5,220.49999999999997" stroke="#0000ff" stroke-linecap="round" stroke-width="3" /><polyline clip-path="url(#border_clip)" fill="none" points="190.5,260.5 218.7842712474619,232.2157287525381 190.5,203.9314575050762" stroke="#0000ff" stroke-linecap="round" stroke-width="3" /></svg>