<?xml version="1.0" encoding="utf-8" ?>
<svg baseProfile="full" height="1000px" version="1.1" width="1000px" xmlns="http://www.w3.org/2000/svg" xmlns:ev="http://www.w3.org/2001/xml-events" xmlns:xlink="http://www.w3.org/1999/xlink"><defs><clipPath id="border_clip"><rect height="1000" width="1000" x="0" y="0" /></clipPath></defs><polyline clip-path="url(#border_clip)" fill="none" points="500.5,500.5 505.1472317204377,499.3545602565321 508.72983865893656,496.1806474673116 510.42708874098054,491.7053668025532 509.8501624268541,486.95395112957465 507.131226582408,483.014892518289 502.89315664287557,480.7905818257395 498.10684335712443,480.7905818257395 493.868773417592,483.014892518289 491.1498375731459,486.95395112957465 490.57291125901946,491.7053668025532 492.27016134106344,496.1806474673116 495.8527682795623,499.3545602565321 500.5,500.5 508.634732861516,498.770909152852 515.3628965095479,493.8826121271772 519.5211303259031,486.680339887499 520.3904379073655,478.40943073464695 517.8205080756887,470.5 512.2557050458495,464.319660112501 504.65823381635516,460.9370479853239 496.34176618364484,460.9370479853239 488.7442949541505,464.319660112501 483.1794919243112,470.5 480.6095620926345,478.40943073464695 481.4788696740969,486.6803398874989 485.6371034904521,493.88261212717714 492.365267138484,498.770909152852 500.5,500.5 511.3372499856146,498.47416688213065 520.7108693093967,492.6702675166198 527.3548987406518,483.8721506732961 530.3720252888511,473.26805078389907 529.3547692951846,462.2901102978375 524.4405168184072,452.4209609086223 516.2929648863206,444.99348592811157 506.0124855344971,441.0108070094829 494.9875144655029,441.0108070094829 484.70703511367935,444.99348592811157 476.55948318159284,452.4209609086223 471.64523070481545,462.2901102978375 470.62797471114897,473.268050783899 473.6451012593481,483.8721506732961" stroke="black" stroke-linecap="round" stroke-width="1" /><polyline clip-path="url(#border_clip)" fill="none" points="473.6451012593481,483.8721506732961 480.28913069060326,492.67026751661973 489.66275001438544,498.47416688213065 500.5,500.5 514.1808057330268,498.0877048314363 526.2115043874616,491.1417777247591 535.1410161513776,480.5 539.8923101204883,467.44592710667723 539.8923101204883,453.55407289332277 535.1410161513776,440.5 526.2115043874616,429.8582222752409 514.1808057330268,422.9122951685637 500.50000000000006,420.5 486.8191942669733,422.9122951685637 474.78849561253844,429.85822227524085 465.8589838486225,440.49999999999994 461.10768987951167,453.55407289332277 461.10768987951167,467.4459271066772 465.8589838486224,480.5 474.7884956125384,491.1417777247591 486.8191942669732,498.0877048314363 500.5,500.50000000000006 515.9508497187473,498.05282581475774 529.8892626146237,490.9508497187474 540.9508497187475,479.8892626146237 548.0528258147577,465.95084971874746 550.5000000000001,450.50000000000006 548.0528258147577,435.04915028125265 540.9508497187475,421.1107373853764 529.8892626146238,410.04915028125265 515.9508497187475,402.9471741852423 500.5000000000001,400.5 485.0491502812527,402.94717418524226 471.1107373853764,410.04915028125254 460.0491502812527,421.1107373853763 452.9471741852424,435.04915028125254 450.5,450.49999999999994 452.9471741852423,465.9508497187473 460.0491502812526,479.8892626146236 471.1107373853763,490.95084971874735 485.0491502812526,498.0528258147577 500.49999999999994,500.5 517.4039534104858,498.0695784168699" stroke="black" stroke-linecap="round" stroke-width="1" /><polyline clip-path="url(#border_clip)" fill="none" points="517.4039534104858,498.0695784168699 532.9384490473358,490.97521196987094 545.8449744612554,479.7916440367172 555.0779197212711,465.42490078011326 559.889286512856,449.0388902963972 559.889286512856,431.96110970360303 555.0779197212712,415.5750992198869 545.8449744612556,401.208355963283 532.938449047336,390.02478803012923 517.4039534104859,382.9304215831302 500.50000000000017,380.50000000000006 483.5960465895144,382.93042158313017 468.06155095266433,390.0247880301291 455.15502553874467,401.2083559632829 445.922080278729,415.57509921988674 441.11071348714415,431.9611097036028 441.11071348714415,449.03889029639697 445.92208027872897,465.42490078011303 455.15502553874455,479.791644036717 468.0615509526641,490.97521196987077 483.5960465895142,498.0695784168698 500.49999999999994,500.49999999999994 519.3857739809916,497.9042101143459 536.8708765024803,490.3093583182542 551.6585174994686,478.27872002530586 562.6519652881661,462.7045526411807 569.0358861377625,444.7419209136845 570.3368138433377,425.72303106447316 566.4582645483175,407.0584271480311 557.687892510731,390.1323774519594 544.6761561028238,376.20020965069074 528.388076289237,366.2952088946184 510.0316654367374,361.1519837774569 490.96833456326294,361.15198377745685 472.6119237107633,366.29520889461827 456.32384389717646,376.20020965069057 443.31210748926924,390.1323774519592 434.5417354516827,407.05842714803083 430.66318615666233,425.7230310644729 431.96411386223747,444.7419209136842 438.34803471183375,462.7045526411805 449.3414825005313,478.2787200253057 464.1291234975196,490.3093583182541" stroke="black" stroke-linecap="round" stroke-width="1" /><polyline clip-path="url(#border_clip)" fill="none" points="464.1291234975196,490.3093583182541 481.61422601900824,497.90421011434586 500.4999999999999,500.5 520.3951909731883,497.9866528902905 539.0402939281371,490.60453440350915 555.263768474295,478.817490193713 568.0462340401612,463.36614359831987 576.5845213036123,445.2213595499959 580.3421382742617,425.5232415623452 579.0829800582952,405.5094948331422 572.8861641972817,386.4376566747943 562.1410594220633,369.5060808201049 547.522820183398,355.7786404500042 529.9499642147745,346.11788112893987 510.5266586851446,341.13082389484174 490.47334131485593,341.1308238948417 471.050035785226,346.11788112893976 453.47717981660236,355.7786404500041 438.85894057793706,369.50608082010467 428.1138358027186,386.43765667479397 421.91701994170506,405.50949483314184 420.65786172573837,425.5232415623449 424.41547869638777,445.22135954999555 432.95376595983885,463.3661435983195 445.7362315257049,478.81749019371273 461.95970607186274,490.6045344035089 480.60480902681155,497.9866528902903 500.4999999999999,500.4999999999999 521.2554283668195,498.07403835218406 540.8919262180415,490.9269376291071 558.3508848717885,479.443999880708 572.6910873479538,464.2442732532508 583.1394496192246,446.1471789435242 589.1326977710987,426.12833599002386 590.3477342444141,405.2669653980573 586.719056108394,384.68770905600206 578.4422863405996,365.50000000000017 565.9636277415746,348.7382525918141 549.9558080263728,335.30609697283586 531.2818128993105,325.92766412926835 510.94836227127104,321.1085478032252 490.0516377287296,321.1085478032252 469.71818710069016,325.92766412926824" stroke="black" stroke-linecap="round" stroke-width="1" /><polyline clip-path="url(#border_clip)" fill="none" points="469.71818710069016,325.92766412926824 451.0441919736278,335.3060969728357 435.03637225842596,348.7382525918139 422.55771365940086,365.4999999999999 414.2809438916063,384.6877090560017 410.65226575558614,405.266965398057 411.8673022289015,426.1283359900235 417.8605503807755,446.14717894352384 428.30891265204616,464.24427325325047 442.6491151282115,479.44399988070774 460.1080737819584,490.9269376291069 479.7445716331803,498.0740383521839 500.4999999999999,500.49999999999983 522.7520933956313,497.9927912181822 543.8883739117557,490.5968867902418 562.8489801858732,478.68314824680294 578.6831482468028,462.8489801858734 590.5968867902418,443.88837391175593 597.9927912181822,422.7520933956316 600.5,400.5000000000002 597.9927912181823,378.2479066043688 590.596886790242,357.1116260882444 578.6831482468031,338.1510198141269 562.8489801858735,322.3168517531973 543.888373911756,310.4031132097583 522.7520933956317,303.0072087818178 500.50000000000034,300.5000000000001 478.24790660436895,303.00720878181767 457.1116260882446,310.4031132097581 438.15101981412704,322.31685175319694 422.3168517531974,338.15101981412647 410.40311320975843,357.11162608824395 403.00720878181795,378.24790660436827 400.5000000000002,400.49999999999966 403.00720878181784,422.7520933956311 410.4031132097582,443.8883739117555 422.31685175319706,462.848980185873 438.1510198141266,478.68314824680266 457.11162608824407,490.5968867902416 478.2479066043684,497.9927912181821 500.49999999999983,500.49999999999983" stroke="black" stroke-linecap="round" stroke-width="1" /></svg>