<?xml version="1.0" encoding="utf-8" ?>
<svg baseProfile="full" height="5000px" version="1.1" width="5000px" xmlns="http://www.w3.org/2000/svg" xmlns:ev="http://www.w3.org/2001/xml-events" xmlns:xlink="http://www.w3.org/1999/xlink"><defs><clipPath id="border_clip"><rect height="5000" width="5000" x="0" y="0" /></clipPath></defs><polyline clip-path="url(#border_clip)" fill="none" points="24.971741852424202,-654.0084971874712 11.42619963309835,-603.4558454088774 3.239052315864683,-551.7642316338247 0.5000000000013642,-499.4999999999982 3.239052315864683,-447.23576836617167 11.42619963309835,-395.54415459111897 24.971741852424202,-344.99150281252514 43.72727117870045,-296.131678462099 67.4872981077815,-249.4999999999991 95.99150281252696,-205.6073738537625 128.92758726130342,-164.93469682057003 165.9346968205714,-127.92758726130205 206.60737385376387,-94.9915028125256 250.50000000000045,-66.48729810778013 297.13167846210035,-42.727271178699084 345.9915028125265,-23.971741852422838 396.54415459112033,-10.426199633096985 448.23576836617303,-2.2390523158633187 500.49999999999955,0.5" stroke="black" stroke-linecap="round" stroke-width="5" /><polyline clip-path="url(#border_clip)" fill="none" points="1024.9717418524247,-654.008497187469 1011.4261996330988,-603.4558454088751 1003.2390523158651,-551.7642316338224 1000.5000000000018,-499.4999999999959 1003.2390523158651,-447.2357683661694 1011.426199633099,-395.5441545911167 1024.971741852425,-344.99150281252287 1043.7272711787014,-296.1316784620967 1067.4872981077824,-249.49999999999727 1095.9915028125279,-205.60737385376115 1128.9275872613043,-164.93469682056912 1165.934696820572,-127.9275872613016 1206.6073738537643,-94.99150281252514 1250.5000000000007,-66.48729810777968 1297.1316784621004,-42.72727117869863 1345.9915028125265,-23.971741852422383 1396.5441545911203,-10.42619963309653 1448.235768366173,-2.239052315862864 1500.4999999999995,0.5000000000004547" stroke="black" stroke-linecap="round" stroke-width="5" /><polyline clip-path="url(#border_clip)" fill="none" points="2024.971741852425,-654.0084971874653 2011.4261996330993,-603.4558454088715 2003.2390523158656,-551.7642316338188 2000.5000000000025,-499.4999999999927 2003.239052315866,-447.23576836616667 2011.4261996330997,-395.5441545911144 2024.9717418524258,-344.99150281252105 2043.7272711787023,-296.13167846209535 2067.4872981077833,-249.4999999999959 2095.991502812529,-205.60737385375978 2128.9275872613052,-164.93469682056775 2165.9346968205728,-127.92758726130023 2206.6073738537652,-94.99150281252423 2250.5000000000014,-66.48729810777877 2297.131678462101,-42.727271178698174 2345.991502812527,-23.97174185242193 2396.5441545911203,-10.426199633096076 2448.2357683661726,-2.239052315862409 2500.499999999999,0.5000000000009095" stroke="black" stroke-linecap="round" stroke-width="5" /><polyline clip-path="url(#border_clip)" fill="none" points="3024.9717418524256,-654.0084971874603 3011.4261996330997,-603.4558454088669 3003.2390523158665,-551.7642316338147 3000.500000000003,-499.49999999998863 3003.2390523158665,-447.2357683661626 3011.4261996331006,-395.5441545911103 3024.9717418524265,-344.99150281251696 3043.7272711787027,-296.13167846209126 3067.4872981077838,-249.49999999999181 3095.991502812529,-205.6073738537557 3128.9275872613052,-164.93469682056366 3165.9346968205728,-127.92758726129614 3206.6073738537652,-94.99150281252014 3250.5000000000014,-66.48729810777513 3297.131678462101,-42.72727117869454 3345.9915028125265,-23.971741852418745 3396.54415459112,-10.426199633092892 3448.235768366172,-2.239052315859226 3500.499999999998,0.5000000000040927" stroke="black" stroke-linecap="round" stroke-width="5" /><polyline clip-path="url(#border_clip)" fill="none" points="4024.971741852428,-654.0084971874589 4011.426199633102,-603.4558454088656 4003.2390523158683,-551.7642316338133 4000.5000000000055,-499.49999999998727 4003.239052315869,-447.2357683661612 4011.4261996331024,-395.54415459110896 4024.9717418524287,-344.9915028125156 4043.727271178705,-296.1316784620899 4067.487298107786,-249.4999999999909 4095.991502812531,-205.60737385375523 4128.927587261307,-164.9346968205632 4165.934696820575,-127.92758726129568 4206.607373853767,-94.99150281251968 4250.500000000003,-66.48729810777468 4297.131678462102,-42.72727117869408 4345.991502812528,-23.97174185241829 4396.544154591121,-10.426199633092438 4448.235768366173,-2.239052315858771 4500.499999999999,0.5000000000045475" stroke="black" stroke-linecap="round" stroke-width="5" /><polyline clip-path="url(#border_clip)" fill="none" points="24.97174185242784,345.99150281254424 11.426199633101987,396.5441545911376 3.239052315868321,448.23576836618986 0.5000000000050022,500.5000000000157 3.239052315868321,552.7642316338415 11.426199633101987,604.4558454088935 24.97174185242784,655.0084971874867 43.727271178704086,703.8683215379122 67.48729810778514,750.5000000000111 95.9915028125306,794.3926261462468 128.9275872613066,835.0653031794386 165.93469682057412,872.0724127387059 206.60737385376615,905.0084971874819 250.50000000000227,933.5127018922269 297.13167846210126,957.2727288213075 345.99150281252696,976.0282581475833 396.54415459112033,989.5738003669089 448.2357683661726,997.7609476841424 500.4999999999984,1000.5000000000055" stroke="black" stroke-linecap="round" stroke-width="5" /><polyline clip-path="url(#border_clip)" fill="none" points="1024.9717418524283,345.9915028125474 1011.4261996331027,396.54415459114034 1003.2390523158692,448.23576836619213 1000.5000000000061,500.50000000001796 1003.2390523158697,552.7642316338438 1011.4261996331036,604.4558454088958 1024.9717418524294,655.0084971874887 1043.7272711787057,703.8683215379142 1067.4872981077865,750.5000000000132 1095.9915028125317,794.3926261462489 1128.9275872613077,835.0653031794404 1165.9346968205753,872.0724127387075 1206.607373853767,905.0084971874833 1250.500000000003,933.5127018922283 1297.131678462102,957.2727288213089 1345.9915028125274,976.0282581475847 1396.5441545911206,989.5738003669103 1448.2357683661726,997.7609476841437 1500.4999999999982,1000.5000000000068" stroke="black" stroke-linecap="round" stroke-width="5" /><polyline clip-path="url(#border_clip)" fill="none" points="2024.9717418524297,345.9915028125506 2011.4261996331043,396.5441545911435 2003.2390523158706,448.2357683661953 2000.5000000000075,500.5000000000209 2003.239052315871,552.7642316338465 2011.4261996331047,604.4558454088983 2024.9717418524308,655.0084971874912 2043.7272711787068,703.8683215379165 2067.4872981077874,750.5000000000152 2095.991502812533,794.3926261462507 2128.927587261309,835.0653031794423 2165.934696820576,872.0724127387093 2206.607373853768,905.0084971874851 2250.5000000000036,933.5127018922299 2297.131678462102,957.2727288213102 2345.991502812528,976.028258147586 2396.544154591121,989.5738003669117 2448.235768366172,997.7609476841451 2500.4999999999977,1000.5000000000082" stroke="black" stroke-linecap="round" stroke-width="5" /><polyline clip-path="url(#border_clip)" fill="none" points="3024.9717418524315,345.9915028125547 3011.426199633106,396.5441545911476 3003.2390523158724,448.2357683661994 3000.5000000000095,500.5000000000248 3003.239052315873,552.7642316338502 3011.4261996331065,604.4558454089017 3024.9717418524324,655.0084971874944 3043.7272711787086,703.8683215379194 3067.4872981077892,750.500000000018 3095.9915028125342,794.3926261462534 3128.9275872613102,835.0653031794448 3165.9346968205773,872.0724127387116 3206.6073738537693,905.0084971874871 3250.5000000000045,933.5127018922319 3297.1316784621035,957.2727288213123 3345.991502812529,976.0282581475878 3396.5441545911217,989.5738003669132 3448.235768366173,997.7609476841467 3500.4999999999986,1000.5000000000098" stroke="black" stroke-linecap="round" stroke-width="5" /><polyline clip-path="url(#border_clip)" fill="none" points="4024.971741852431,345.99150281255925 4011.4261996331056,396.5441545911517 4003.239052315872,448.23576836620305 4000.500000000009,500.5000000000282 4003.239052315873,552.7642316338533 4011.4261996331065,604.4558454089047 4024.9717418524324,655.0084971874971 4043.727271178708,703.8683215379219 4067.487298107789,750.5000000000205 4095.9915028125342,794.3926261462557 4128.92758726131,835.0653031794468 4165.934696820577,872.0724127387136 4206.607373853769,905.0084971874892 4250.500000000004,933.5127018922337 4297.131678462103,957.2727288213139 4345.991502812528,976.0282581475894 4396.54415459112,989.5738003669148 4448.235768366172,997.7609476841483 4500.499999999997,1000.5000000000114" stroke="black" stroke-linecap="round" stroke-width="5" /><polyline clip-path="url(#border_clip)" fill="none" points="24.971741852431933,1345.9915028125633 11.426199633106535,1396.5441545911558 3.239052315873323,1448.2357683662071 0.5000000000104592,1500.5000000000323 3.2390523158742326,1552.7642316338574 11.426199633107899,1604.4558454089088 24.97174185243375,1655.0084971875012 43.72727117871,1703.868321537926 67.4872981077906,1750.500000000024 95.9915028125356,1794.3926261462593 128.9275872613116,1835.0653031794504 165.93469682057867,1872.072412738717 206.60737385377024,1905.0084971874921 250.50000000000546,1933.5127018922367 297.131678462104,1957.2727288213168 345.9915028125288,1976.0282581475922 396.54415459112124,1989.5738003669176 448.2357683661726,1997.7609476841508 500.4999999999977,2000.5000000000136" stroke="black" stroke-linecap="round" stroke-width="5" /><polyline clip-path="url(#border_clip)" fill="none" points="1024.9717418524322,1345.9915028125658 1011.426199633107,1396.5441545911583 1003.2390523158738,1448.2357683662096 1000.5000000000109,1500.5000000000346 1003.2390523158745,1552.7642316338597 1011.4261996331084,1604.4558454089108 1024.9717418524342,1655.008497187503 1043.7272711787102,1703.8683215379278 1067.4872981077908,1750.500000000026 1095.9915028125358,1794.3926261462607 1128.9275872613116,1835.0653031794518 1165.9346968205787,1872.0724127387184 1206.60737385377,1905.0084971874935 1250.5000000000052,1933.5127018922378 1297.1316784621038,1957.2727288213177 1345.9915028125286,1976.028258147593 1396.544154591121,1989.5738003669185 1448.2357683661724,1997.7609476841517 1500.4999999999973,2000.5000000000146" stroke="black" stroke-linecap="round" stroke-width="5" /><polyline clip-path="url(#border_clip)" fill="none" points="2024.9717418524328,1345.9915028125693 2011.4261996331077,1396.5441545911615 2003.2390523158745,1448.2357683662126 2000.5000000000116,1500.5000000000375 2003.2390523158751,1552.7642316338624 2011.4261996331093,1604.4558454089133 2024.9717418524351,1655.0084971875053 2043.7272711787111,1703.86832153793 2067.4872981077915,1750.500000000028 2095.9915028125365,1794.3926261462627 2128.9275872613125,1835.0653031794536 2165.934696820579,1872.0724127387198 2206.6073738537707,1905.0084971874949 2250.5000000000055,1933.5127018922392 2297.131678462104,1957.272728821319 2345.991502812529,1976.0282581475944 2396.5441545911212,1989.5738003669196 2448.235768366172,1997.7609476841528 2500.499999999997,2000.5000000000157" stroke="black" stroke-linecap="round" stroke-width="5" /><polyline clip-path="url(#border_clip)" fill="none" points="3024.9717418524333,1345.9915028125722 3011.4261996331084,1396.5441545911644 3003.239052315875,1448.2357683662153 3000.5000000000127,1500.50000000004 3003.239052315876,1552.7642316338647 3011.42619963311,1604.4558454089156 3024.971741852436,1655.0084971875076 3043.727271178712,1703.868321537932 3067.4872981077924,1750.5000000000298 3095.9915028125374,1794.3926261462643 3128.9275872613134,1835.065303179455 3165.93469682058,1872.0724127387214 3206.607373853771,1905.0084971874962 3250.5000000000064,1933.5127018922403 3297.1316784621044,1957.2727288213202 3345.9915028125292,1976.0282581475954 3396.5441545911212,1989.5738003669205 3448.235768366172,1997.7609476841535 3500.499999999997,2000.5000000000164" stroke="black" stroke-linecap="round" stroke-width="5" /><polyline clip-path="url(#border_clip)" fill="none" points="4024.9717418524347,1345.991502812577 4011.4261996331097,1396.544154591169 4003.2390523158765,1448.2357683662199 4000.5000000000136,1500.5000000000446 4003.2390523158774,1552.7642316338688 4011.4261996331115,1604.4558454089197 4024.9717418524374,1655.0084971875112 4043.7272711787136,1703.8683215379356 4067.4872981077942,1750.5000000000332 4095.991502812539,1794.3926261462677 4128.927587261314,1835.0653031794582 4165.934696820581,1872.0724127387243 4206.6073738537725,1905.0084971874994 4250.500000000007,1933.5127018922433 4297.131678462105,1957.272728821323 4345.99150281253,1976.028258147598 4396.544154591122,1989.573800366923 4448.235768366173,1997.7609476841562 4500.499999999997,2000.5000000000189" stroke="black" stroke-linecap="round" stroke-width="5" /><polyline clip-path="url(#border_clip)" fill="none" points="24.971741852434207,2345.9915028125806 11.426199633109263,2396.544154591172 3.2390523158760516,2448.235768366223 0.5000000000131877,2500.5000000000473 3.239052315876961,2552.764231633872 11.426199633111082,2604.4558454089224 24.971741852436935,2655.008497187514 43.727271178712726,2703.868321537938 67.48729810779332,2750.5000000000355 95.99150281253787,2794.39262614627 128.92758726131342,2835.0653031794604 165.93469682058003,2872.072412738726 206.60737385377115,2905.008497187501 250.5000000000059,2933.512701892245 297.131678462104,2957.2727288213246 345.9915028125283,2976.0282581475994 396.54415459112033,2989.5738003669244 448.2357683661712,2997.760947684157 500.4999999999957,3000.50000000002" stroke="black" stroke-linecap="round" stroke-width="5" /><polyline clip-path="url(#border_clip)" fill="none" points="1024.9717418524347,2345.9915028125843 1011.4261996331097,2396.544154591176 1003.2390523158767,2448.2357683662267 1000.5000000000141,2500.500000000051 1003.2390523158779,2552.764231633875 1011.4261996331118,2604.455845408925 1024.9717418524376,2655.0084971875167 1043.7272711787136,2703.8683215379406 1067.487298107794,2750.500000000038 1095.9915028125388,2794.392626146272 1128.927587261314,2835.0653031794627 1165.9346968205807,2872.0724127387284 1206.6073738537716,2905.008497187503 1250.5000000000064,2933.5127018922467 1297.1316784621042,2957.2727288213264 1345.9915028125283,2976.0282581476013 1396.54415459112,2989.573800366926 1448.2357683661705,2997.760947684159 1500.4999999999948,3000.500000000022" stroke="black" stroke-linecap="round" stroke-width="5" /><polyline clip-path="url(#border_clip)" fill="none" points="2024.9717418524356,2345.9915028125874 2011.4261996331106,2396.544154591179 2003.2390523158776,2448.2357683662294 2000.500000000015,2500.5000000000537 2003.2390523158788,2552.7642316338774 2011.4261996331127,2604.455845408928 2024.9717418524385,2655.0084971875194 2043.7272711787145,2703.868321537943 2067.4872981077947,2750.50000000004 2095.9915028125397,2794.3926261462743 2128.927587261315,2835.0653031794645 2165.9346968205814,2872.0724127387302 2206.607373853772,2905.0084971875044 2250.500000000007,2933.512701892248 2297.1316784621044,2957.2727288213277 2345.9915028125283,2976.0282581476026 2396.54415459112,2989.5738003669276 2448.2357683661703,2997.7609476841603 2500.4999999999945,3000.5000000000227" stroke="black" stroke-linecap="round" stroke-width="5" /><polyline clip-path="url(#border_clip)" fill="none" points="3024.971741852437,2345.991502812591 3011.4261996331124,2396.5441545911826 3003.2390523158797,2448.235768366233 3000.500000000017,2500.500000000057 3003.2390523158806,2552.7642316338806 3011.4261996331147,2604.455845408931 3024.9717418524406,2655.008497187522 3043.7272711787164,2703.8683215379456 3067.4872981077965,2750.5000000000427 3095.991502812541,2794.3926261462766 3128.927587261316,2835.065303179467 3165.9346968205828,2872.0724127387325 3206.6073738537734,2905.0084971875067 3250.5000000000077,2933.5127018922503 3297.1316784621054,2957.27272882133 3345.9915028125297,2976.0282581476044 3396.544154591121,2989.5738003669294 3448.235768366171,2997.760947684162 3500.499999999995,3000.500000000025" stroke="black" stroke-linecap="round" stroke-width="5" /><polyline clip-path="url(#border_clip)" fill="none" points="4024.9717418524383,2345.991502812594 4011.4261996331134,2396.544154591185 4003.239052315881,2448.2357683662353 4000.500000000018,2500.500000000059 4003.239052315882,2552.764231633883 4011.426199633116,2604.455845408933 4024.9717418524415,2655.008497187524 4043.7272711787173,2703.868321537947 4067.487298107798,2750.500000000044 4095.9915028125424,2794.392626146278 4128.927587261318,2835.0653031794677 4165.934696820584,2872.0724127387334 4206.607373853774,2905.0084971875076 4250.500000000009,2933.5127018922512 4297.131678462107,2957.2727288213305 4345.991502812531,2976.0282581476054 4396.544154591122,2989.57380036693 4448.235768366171,2997.7609476841626 4500.499999999995,3000.5000000000255" stroke="black" stroke-linecap="round" stroke-width="5" /><polyline clip-path="url(#border_clip)" fill="none" points="24.97174185243921,3345.991502812597 11.42619963311472,3396.544154591188 3.2390523158819633,3448.2357683662385 0.5000000000195541,3500.500000000062 3.2390523158833275,3552.7642316338856 11.426199633117449,3604.4558454089356 24.9717418524433,3655.0084971875262 43.72727117871909,3703.8683215379497 67.48729810779923,3750.5000000000464 95.99150281254379,3794.3926261462802 128.92758726131888,3835.06530317947 165.93469682058503,3872.0724127387352 206.6073738537757,3905.0084971875094 250.50000000001,3933.512701892253 297.1316784621072,3957.272728821332 345.99150281253105,3976.0282581476067 396.54415459112215,3989.573800366931 448.2357683661721,3997.7609476841644 500.4999999999957,4000.500000000027" stroke="black" stroke-linecap="round" stroke-width="5" /><polyline clip-path="url(#border_clip)" fill="none" points="1024.9717418524397,3345.9915028126 1011.426199633115,3396.5441545911913 1003.2390523158822,3448.2357683662412 1000.5000000000196,3500.5000000000646 1003.2390523158833,3552.7642316338884 1011.4261996331172,3604.4558454089383 1024.971741852443,3655.008497187529 1043.7272711787189,3703.8683215379524 1067.487298107799,3750.500000000049 1095.9915028125433,3794.3926261462825 1128.9275872613184,3835.0653031794723 1165.9346968205846,3872.0724127387375 1206.607373853775,3905.0084971875117 1250.500000000009,3933.512701892255 1297.1316784621063,3957.2727288213346 1345.99150281253,3976.028258147609 1396.544154591121,3989.573800366934 1448.2357683661708,3997.7609476841662 1500.4999999999943,4000.500000000029" stroke="black" stroke-linecap="round" stroke-width="5" /><polyline clip-path="url(#border_clip)" fill="none" points="2024.971741852441,3345.9915028126043 2011.4261996331165,3396.5441545911954 2003.2390523158838,3448.235768366245 2000.5000000000214,3500.500000000068 2003.2390523158851,3552.7642316338915 2011.426199633119,3604.455845408941 2024.9717418524447,3655.0084971875317 2043.7272711787205,3703.8683215379547 2067.4872981078006,3750.500000000051 2095.9915028125447,3794.392626146285 2128.92758726132,3835.065303179474 2165.934696820586,3872.0724127387393 2206.607373853776,3905.008497187513 2250.50000000001,3933.5127018922567 2297.131678462107,3957.2727288213355 2345.9915028125306,3976.02825814761 2396.5441545911212,3989.5738003669344 2448.235768366171,3997.760947684167 2500.4999999999945,4000.50000000003" stroke="black" stroke-linecap="round" stroke-width="5" /><polyline clip-path="url(#border_clip)" fill="none" points="3024.9717418524415,3345.9915028126084 3011.426199633117,3396.544154591199 3003.2390523158847,3448.2357683662485 3000.500000000022,3500.500000000072 3003.2390523158856,3552.764231633895 3011.4261996331197,3604.4558454089447 3024.971741852445,3655.008497187535 3043.727271178721,3703.868321537958 3067.487298107801,3750.500000000054 3095.991502812545,3794.3926261462875 3128.9275872613202,3835.0653031794764 3165.934696820586,3872.0724127387416 3206.607373853776,3905.0084971875153 3250.50000000001,3933.5127018922585 3297.131678462107,3957.2727288213373 3345.9915028125306,3976.028258147612 3396.5441545911212,3989.5738003669367 3448.2357683661708,3997.760947684169 3500.4999999999936,4000.500000000032" stroke="black" stroke-linecap="round" stroke-width="5" /><polyline clip-path="url(#border_clip)" fill="none" points="4024.971741852442,3345.9915028126125 4011.4261996331174,3396.544154591203 4003.2390523158847,3448.235768366252 4000.5000000000227,3500.5000000000755 4003.2390523158865,3552.7642316338984 4011.42619963312,3604.4558454089474 4024.971741852446,3655.0084971875376 4043.7272711787214,3703.8683215379606 4067.4872981078015,3750.5000000000564 4095.991502812545,3794.39262614629 4128.92758726132,3835.065303179479 4165.934696820586,3872.072412738744 4206.607373853776,3905.0084971875176 4250.50000000001,3933.5127018922603 4297.131678462107,3957.272728821339 4345.991502812531,3976.028258147614 4396.544154591121,3989.5738003669385 4448.23576836617,3997.760947684171 4500.499999999993,4000.500000000033" stroke="black" stroke-linecap="round" stroke-width="5" /><polyline clip-path="url(#border_clip)" fill="none" points="0.5,0.5 1000.5,0.5 1000.5,1000.5 0.5,1000.5000000000002 0.5,0.5" stroke="black" stroke-linecap="round" stroke-width="5" /><polyline clip-path="url(#border_clip)" fill="none" points="500.5,0.5 552.7642316338267,-2.2390523158633187 604.4558454088797,-10.426199633096985 655.0084971874737,-23.971741852422838 703.8683215379001,-42.727271178699084 750.5,-66.48729810778013 794.3926261462366,-94.9915028125256 835.0653031794291,-127.92758726130205 872.072412738697,-164.93469682057003 905.0084971874735,-205.6073738537625 933.512701892219,-249.4999999999991 957.2727288213,-296.131678462099 976.0282581475763,-344.99150281252514 989.5738003669023,-395.54415459111897 997.7609476841362,-447.23576836617167 1000.4999999999995,-499.4999999999982 997.7609476841362,-551.7642316338247 989.5738003669023,-603.4558454088774 976.0282581475763,-654.0084971874712 957.2727288213,-702.8683215378974 933.512701892219,-749.4999999999973 905.0084971874733,-793.3926261462339 872.0724127386966,-834.0653031794263 835.0653031794286,-871.0724127386943 794.3926261462361,-904.0084971874708 750.4999999999995,-932.5127018922162 703.8683215378996,-956.2727288212973 655.0084971874733,-975.0282581475735 604.4558454088792,-988.5738003668994 552.7642316338263,-996.760947684133 500.49999999999955,-999.4999999999964 448.23576836617303,-996.760947684133 396.54415459112033,-988.5738003668994 345.9915028125265,-975.0282581475735 297.13167846210035,-956.2727288212973 250.50000000000045,-932.5127018922162 206.60737385376387,-904.0084971874708 165.9346968205714,-871.0724127386943 128.92758726130342,-834.0653031794263 95.99150281252696,-793.3926261462339 67.4872981077815,-749.4999999999973 43.72727117870045,-702.8683215378974 24.971741852424202,-654.0084971874712" stroke="black" stroke-linecap="round" stroke-width="5" /><polyline clip-path="url(#border_clip)" fill="none" points="1000.5,0.5 2000.4999999999964,0.4999999999990905 2000.4999999999973,1000.4999999999955 1000.5000000000009,1000.4999999999964 1000.4999999999998,0.5" stroke="black" stroke-linecap="round" stroke-width="5" /><polyline clip-path="url(#border_clip)" fill="none" points="1500.4999999999995,0.500000000001819 1552.764231633826,-2.2390523158614997 1604.4558454088788,-10.426199633095166 1655.0084971874726,-23.97174185242102 1703.8683215378987,-42.727271178697265 1750.4999999999982,-66.48729810777832 1794.3926261462348,-94.99150281252378 1835.065303179427,-127.92758726130023 1872.0724127386948,-164.9346968205682 1905.0084971874712,-205.6073738537607 1933.5127018922167,-249.49999999999727 1957.2727288212977,-296.13167846209717 1976.028258147574,-344.9915028125233 1989.5738003668998,-395.54415459111715 1997.7609476841337,-447.23576836616985 2000.4999999999968,-499.49999999999636 1997.7609476841335,-551.7642316338229 1989.5738003668996,-603.4558454088756 1976.0282581475735,-654.0084971874694 1957.2727288212973,-702.8683215378956 1933.5127018922162,-749.499999999995 1905.0084971874708,-793.3926261462311 1872.0724127386943,-834.0653031794236 1835.0653031794263,-871.0724127386916 1794.3926261462339,-904.008497187468 1750.4999999999977,-932.5127018922135 1703.8683215378978,-956.2727288212945 1655.0084971874717,-975.0282581475708 1604.4558454088778,-988.5738003668966 1552.7642316338251,-996.7609476841303 1500.4999999999986,-999.4999999999936 1448.2357683661724,-996.7609476841303 1396.5441545911196,-988.5738003668966 1345.9915028125258,-975.0282581475708 1297.1316784620997,-956.2727288212945 1250.5,-932.5127018922135 1206.6073738537636,-904.008497187468 1165.9346968205714,-871.0724127386916 1128.9275872613036,-834.0653031794236 1095.9915028125272,-793.3926261462311 1067.4872981077817,-749.4999999999945 1043.727271178701,-702.8683215378951 1024.9717418524247,-654.008497187469" stroke="black" stroke-linecap="round" stroke-width="5" /><polyline clip-path="url(#border_clip)" fill="none" points="2000.5,0.5 3000.499999999993,0.499999999998181 3000.4999999999945,1000.4999999999914 2000.5000000000018,1000.4999999999932 2000.5,0.5" stroke="black" stroke-linecap="round" stroke-width="5" /><polyline clip-path="url(#border_clip)" fill="none" points="2500.499999999999,0.500000000003638 2552.7642316338256,-2.2390523158596807 2604.455845408878,-10.426199633093347 2655.0084971874717,-23.9717418524192 2703.868321537898,-42.727271178695446 2750.4999999999973,-66.4872981077765 2794.3926261462334,-94.99150281252196 2835.0653031794254,-127.92758726129841 2872.0724127386934,-164.9346968205664 2905.0084971874694,-205.60737385375887 2933.512701892215,-249.499999999995 2957.272728821296,-296.13167846209444 2976.0282581475717,-344.9915028125206 2989.5738003668976,-395.5441545911144 2997.760947684131,-447.2357683661671 3000.4999999999945,-499.49999999999363 2997.760947684131,-551.7642316338201 2989.573800366897,-603.4558454088728 2976.0282581475713,-654.0084971874667 2957.272728821295,-702.8683215378928 2933.512701892214,-749.4999999999923 2905.0084971874685,-793.3926261462284 2872.072412738692,-834.0653031794204 2835.065303179424,-871.072412738688 2794.392626146232,-904.0084971874644 2750.4999999999955,-932.5127018922099 2703.868321537896,-956.2727288212909 2655.00849718747,-975.0282581475672 2604.455845408876,-988.573800366893 2552.764231633824,-996.7609476841267 2500.4999999999973,-999.49999999999 2448.235768366171,-996.7609476841267 2396.5441545911185,-988.5738003668926 2345.991502812525,-975.0282581475667 2297.131678462099,-956.2727288212905 2250.4999999999995,-932.5127018922094 2206.6073738537634,-904.008497187464 2165.9346968205714,-871.0724127386875 2128.9275872613034,-834.0653031794195 2095.9915028125274,-793.392626146227 2067.487298107782,-749.4999999999909 2043.7272711787014,-702.8683215378915 2024.971741852425,-654.0084971874653" stroke="black" stroke-linecap="round" stroke-width="5" /><polyline clip-path="url(#border_clip)" fill="none" points="3000.5,0.5 4000.4999999999905,0.49999999999772626 4000.4999999999927,1000.4999999999882 3000.5000000000027,1000.4999999999907 3000.5,0.5000000000004547" stroke="black" stroke-linecap="round" stroke-width="5" /><polyline clip-path="url(#border_clip)" fill="none" points="3500.4999999999986,0.5000000000050022 3552.764231633825,-2.2390523158583164 3604.4558454088774,-10.426199633092438 3655.008497187471,-23.97174185241829 3703.868321537897,-42.72727117869454 3750.4999999999964,-66.48729810777559 3794.3926261462325,-94.99150281252105 3835.0653031794245,-127.9275872612975 3872.072412738692,-164.93469682056502 3905.0084971874685,-205.60737385375705 3933.5127018922135,-249.49999999999318 3957.2727288212945,-296.1316784620926 3976.0282581475703,-344.9915028125188 3989.573800366896,-395.54415459111215 3997.76094768413,-447.2357683661644 4000.4999999999927,-499.49999999999045 3997.7609476841294,-551.7642316338165 3989.5738003668957,-603.4558454088688 3976.0282581475694,-654.0084971874621 3957.272728821293,-702.8683215378878 3933.512701892212,-749.4999999999873 3905.0084971874667,-793.3926261462234 3872.07241273869,-834.0653031794154 3835.0653031794227,-871.0724127386829 3794.39262614623,-904.0084971874589 3750.499999999994,-932.512701892204 3703.8683215378946,-956.2727288212845 3655.0084971874685,-975.0282581475603 3604.455845408875,-988.5738003668862 3552.7642316338224,-996.7609476841199 3500.4999999999964,-999.4999999999832 3448.2357683661703,-996.7609476841199 3396.544154591118,-988.5738003668862 3345.9915028125242,-975.0282581475603 3297.1316784620985,-956.2727288212841 3250.499999999999,-932.512701892203 3206.6073738537634,-904.0084971874576 3165.9346968205714,-871.0724127386811 3128.927587261304,-834.0653031794136 3095.991502812528,-793.3926261462216 3067.4872981077824,-749.4999999999854 3043.727271178702,-702.868321537886 3024.9717418524256,-654.0084971874603" stroke="black" stroke-linecap="round" stroke-width="5" /><polyline clip-path="url(#border_clip)" fill="none" points="4000.5,0.5 5000.499999999987,0.4999999999972715 5000.499999999991,1000.499999999985 4000.5000000000027,1000.4999999999877 4000.5,0.5" stroke="black" stroke-linecap="round" stroke-width="5" /><polyline clip-path="url(#border_clip)" fill="none" points="4500.499999999998,0.5000000000059117 4552.764231633824,-2.239052315857407 4604.4558454088765,-10.426199633091528 4655.00849718747,-23.97174185241738 4703.868321537896,-42.72727117869363 4750.499999999995,-66.48729810777468 4794.392626146231,-94.99150281252014 4835.065303179424,-127.9275872612966 4872.072412738691,-164.9346968205641 4905.008497187468,-205.60737385375614 4933.512701892212,-249.49999999999227 4957.272728821293,-296.1316784620917 4976.0282581475685,-344.9915028125174 4989.573800366894,-395.5441545911108 4997.760947684128,-447.23576836616303 5000.499999999991,-499.4999999999891 4997.760947684128,-551.7642316338151 4989.573800366894,-603.4558454088674 4976.0282581475685,-654.0084971874608 4957.272728821292,-702.8683215378865 4933.512701892211,-749.4999999999859 4905.008497187466,-793.392626146222 4872.072412738689,-834.0653031794141 4835.065303179422,-871.0724127386816 4794.392626146229,-904.0084971874576 4750.499999999994,-932.5127018922026 4703.868321537894,-956.2727288212832 4655.0084971874685,-975.028258147559 4604.455845408875,-988.5738003668848 4552.764231633822,-996.7609476841185 4500.499999999996,-999.4999999999818 4448.23576836617,-996.7609476841185 4396.544154591118,-988.5738003668848 4345.991502812525,-975.028258147559 4297.131678462099,-956.2727288212827 4250.5,-932.5127018922017 4206.607373853764,-904.0084971874562 4165.934696820573,-871.0724127386798 4128.927587261305,-834.0653031794122 4095.9915028125292,-793.3926261462202 4067.487298107784,-749.4999999999841 4043.7272711787036,-702.8683215378846 4024.971741852428,-654.0084971874589" stroke="black" stroke-linecap="round" stroke-width="5" /><polyline clip-path="url(#border_clip)" fill="none" points="0.5,1000.5 1000.4999999999852,1000.499999999997 1000.4999999999882,2000.4999999999823 0.5000000000027285,2000.4999999999854 0.49999999999954525,1000.5" stroke="black" stroke-linecap="round" stroke-width="5" /><polyline clip-path="url(#border_clip)" fill="none" points="500.4999999999984,1000.5000000000073 552.7642316338245,997.7609476841437 604.4558454088767,989.5738003669098 655.0084971874699,976.0282581475838 703.8683215378956,957.2727288213075 750.4999999999948,933.5127018922267 794.3926261462307,905.0084971874815 835.0653031794225,872.0724127387052 872.0724127386898,835.0653031794377 905.0084971874658,794.3926261462457 933.5127018922108,750.5000000000098 957.2727288212914,703.8683215379106 976.0282581475672,655.0084971874849 989.5738003668928,604.4558454088915 997.7609476841264,552.7642316338392 1000.4999999999895,500.5000000000134 997.760947684126,448.2357683661876 989.5738003668921,396.54415459113534 976.028258147566,345.99150281254197 957.2727288212898,297.13167846211627 933.512701892209,250.50000000001728 905.0084971874637,206.6073738537816 872.0724127386875,165.93469682059003 835.06530317942,128.92758726132251 794.3926261462279,95.99150281254651 750.499999999992,67.48729810780151 703.8683215378928,43.72727117872091 655.0084971874671,24.97174185244512 604.4558454088738,11.426199633119268 552.7642316338217,3.2390523158856013 500.4999999999959,0.5000000000222826 448.23576836616985,3.2390523158856013 396.5441545911176,11.426199633119268 345.99150281252423,24.97174185244512 297.13167846209853,43.72727117872137 250.49999999999955,67.48729810780242 206.60737385376387,95.99150281254788 165.9346968205723,128.92758726132388 128.92758726130523,165.9346968205914 95.99150281252923,206.60737385378343 67.48729810778423,250.50000000001955 43.72727117870363,297.13167846211854 24.97174185242784,345.99150281254424" stroke="black" stroke-linecap="round" stroke-width="5" /><polyline clip-path="url(#border_clip)" fill="none" points="1000.5,1000.5 2000.4999999999827,1000.4999999999968 2000.499999999986,2000.4999999999795 1000.5000000000032,2000.4999999999827 1000.4999999999998,1000.5" stroke="black" stroke-linecap="round" stroke-width="5" /><polyline clip-path="url(#border_clip)" fill="none" points="1500.4999999999982,1000.5000000000086 1552.7642316338242,997.7609476841451 1604.455845408876,989.5738003669112 1655.0084971874694,976.0282581475851 1703.8683215378946,957.2727288213089 1750.4999999999936,933.512701892228 1794.3926261462293,905.0084971874828 1835.065303179421,872.0724127387066 1872.0724127386884,835.0653031794391 1905.0084971874644,794.392626146247 1933.5127018922094,750.5000000000111 1957.27272882129,703.8683215379119 1976.0282581475658,655.0084971874862 1989.5738003668912,604.4558454088931 1997.7609476841249,552.7642316338411 2000.499999999988,500.50000000001523 1997.7609476841244,448.2357683661894 1989.5738003668907,396.5441545911376 1976.0282581475647,345.9915028125447 1957.2727288212886,297.13167846211945 1933.5127018922076,250.50000000002046 1905.0084971874626,206.6073738537848 1872.0724127386864,165.93469682059322 1835.0653031794188,128.92758726132615 1794.392626146227,95.99150281255015 1750.499999999991,67.48729810780515 1703.868321537892,43.72727117872455 1655.0084971874662,24.97174185244876 1604.4558454088733,11.42619963312336 1552.764231633821,3.239052315889694 1500.4999999999955,0.5000000000263753 1448.2357683661696,3.239052315889694 1396.5441545911176,11.42619963312336 1345.9915028125245,24.971741852449213 1297.131678462099,43.72727117872546 1250.5,67.48729810780651 1206.6073738537643,95.99150281255152 1165.9346968205728,128.92758726132752 1128.9275872613055,165.93469682059504 1095.9915028125297,206.60737385378707 1067.4872981077847,250.50000000002274 1043.727271178704,297.1316784621217 1024.9717418524283,345.9915028125474" stroke="black" stroke-linecap="round" stroke-width="5" /><polyline clip-path="url(#border_clip)" fill="none" points="2000.5,1000.5 3000.49999999998,1000.4999999999966 3000.4999999999836,2000.4999999999764 2000.5000000000036,2000.49999999998 2000.5,1000.5000000000002" stroke="black" stroke-linecap="round" stroke-width="5" /><polyline clip-path="url(#border_clip)" fill="none" points="2500.499999999998,1000.50000000001 2552.764231633824,997.7609476841465 2604.4558454088756,989.5738003669126 2655.0084971874685,976.0282581475867 2703.868321537894,957.2727288213105 2750.4999999999927,933.5127018922296 2794.3926261462284,905.0084971874844 2835.06530317942,872.0724127387084 2872.072412738687,835.0653031794411 2905.008497187463,794.3926261462493 2933.5127018922076,750.5000000000136 2957.272728821288,703.8683215379147 2976.028258147564,655.0084971874892 2989.5738003668894,604.455845408896 2997.760947684123,552.7642316338442 3000.4999999999864,500.50000000001864 2997.7609476841226,448.23576836619304 2989.573800366889,396.54415459114125 2976.0282581475626,345.99150281254833 2957.272728821287,297.1316784621231 2933.5127018922058,250.5000000000241 2905.0084971874608,206.60737385378843 2872.0724127386848,165.93469682059686 2835.0653031794172,128.9275872613298 2794.3926261462257,95.99150281255424 2750.4999999999895,67.48729810780924 2703.8683215378906,43.72727117872864 2655.0084971874653,24.97174185245285 2604.4558454088724,11.426199633127453 2552.7642316338206,3.2390523158937867 2500.499999999995,0.5000000000309228 2448.2357683661694,3.2390523158942415 2396.5441545911176,11.426199633127908 2345.9915028125247,24.97174185245376 2297.1316784620994,43.72727117873001 2250.5000000000005,67.4872981078106 2206.6073738537652,95.99150281255561 2165.9346968205737,128.9275872613316 2128.9275872613066,165.93469682059913 2095.9915028125306,206.6073738537907 2067.487298107786,250.50000000002638 2043.7272711787055,297.13167846212536 2024.9717418524297,345.9915028125506" stroke="black" stroke-linecap="round" stroke-width="5" /><polyline clip-path="url(#border_clip)" fill="none" points="3000.5,1000.5 4000.499999999977,1000.4999999999964 4000.4999999999804,2000.4999999999732 3000.5000000000036,2000.4999999999768 3000.5,1000.5" stroke="black" stroke-linecap="round" stroke-width="5" /><polyline clip-path="url(#border_clip)" fill="none" points="3500.499999999998,1000.5000000000116 3552.764231633824,997.760947684148 3604.4558454088756,989.5738003669142 3655.0084971874685,976.0282581475883 3703.8683215378937,957.2727288213123 3750.4999999999927,933.5127018922315 3794.392626146228,905.0084971874865 3835.0653031794195,872.0724127387105 3872.0724127386866,835.0653031794432 3905.008497187462,794.3926261462514 3933.512701892207,750.5000000000157 3957.2727288212873,703.8683215379167 3976.028258147563,655.0084971874915 3989.573800366889,604.4558454088985 3997.7609476841226,552.7642316338467 4000.4999999999854,500.50000000002115 3997.7609476841217,448.23576836619577 3989.573800366888,396.544154591144 3976.028258147562,345.99150281255106 3957.2727288212864,297.1316784621258 3933.5127018922053,250.50000000002728 3905.0084971874603,206.60737385379207 3872.0724127386843,165.9346968206005 3835.0653031794172,128.92758726133343 3794.392626146225,95.99150281255788 3750.4999999999895,67.48729810781333 3703.8683215378906,43.72727117873319 3655.0084971874658,24.9717418524574 3604.455845408873,11.426199633132 3552.7642316338206,3.239052315898334 3500.4999999999955,0.5000000000354703 3448.23576836617,3.239052315898789 3396.544154591118,11.426199633132455 3345.991502812525,24.971741852458308 3297.1316784621004,43.727271178734554 3250.500000000002,67.48729810781515 3206.607373853766,95.99150281256016 3165.9346968205746,128.92758726133616 3128.927587261308,165.93469682060322 3095.9915028125324,206.6073738537948 3067.4872981077874,250.50000000003047 3043.7272711787073,297.13167846212946 3024.9717418524315,345.9915028125547" stroke="black" stroke-linecap="round" stroke-width="5" /><polyline clip-path="url(#border_clip)" fill="none" points="4000.5,1000.5 5000.4999999999745,1000.4999999999957 5000.499999999978,2000.4999999999698 4000.500000000004,2000.499999999974 4000.5,1000.5" stroke="black" stroke-linecap="round" stroke-width="5" /><polyline clip-path="url(#border_clip)" fill="none" points="4500.499999999998,1000.500000000013 4552.764231633823,997.7609476841494 4604.455845408875,989.5738003669155 4655.008497187468,976.0282581475897 4703.868321537892,957.2727288213136 4750.499999999991,933.5127018922328 4794.392626146226,905.0084971874878 4835.065303179417,872.0724127387118 4872.072412738684,835.0653031794445 4905.00849718746,794.392626146253 4933.512701892205,750.5000000000175 4957.2727288212845,703.8683215379187 4976.02825814756,655.0084971874935 4989.573800366886,604.4558454089008 4997.760947684119,552.7642316338492 5000.499999999982,500.5000000000239 4997.760947684119,448.2357683661985 4989.573800366885,396.54415459114716 4976.0282581475585,345.9915028125547 4957.272728821283,297.1316784621299 4933.512701892202,250.50000000003138 4905.008497187457,206.60737385379616 4872.072412738681,165.93469682060504 4835.065303179414,128.92758726133798 4794.392626146222,95.99150281256243 4750.499999999987,67.48729810781788 4703.868321537888,43.72727117873774 4655.008497187463,24.971741852461946 4604.45584540887,11.426199633136548 4552.764231633819,3.2390523159033364 4500.499999999994,0.5000000000404725 4448.2357683661685,3.239052315903791 4396.544154591116,11.426199633137458 4345.991502812523,24.97174185246331 4297.1316784620985,43.72727117873956 4250.5,67.48729810782015 4206.607373853765,95.99150281256516 4165.934696820574,128.92758726134116 4128.927587261307,165.93469682060822 4095.9915028125315,206.6073738537998 4067.487298107787,250.50000000003547 4043.7272711787064,297.131678462134 4024.971741852431,345.99150281255925" stroke="black" stroke-linecap="round" stroke-width="5" /><polyline clip-path="url(#border_clip)" fill="none" points="0.5,2000.5 1000.4999999999709,2000.4999999999952 1000.4999999999757,3000.499999999966 0.5000000000050022,3000.499999999971 0.5,2000.5" stroke="black" stroke-linecap="round" stroke-width="5" /><polyline clip-path="url(#border_clip)" fill="none" points="500.4999999999975,2000.5000000000146 552.7642316338226,1997.7609476841512 604.455845408874,1989.573800366917 655.0084971874664,1976.0282581475913 703.8683215378912,1957.2727288213155 750.4999999999895,1933.5127018922346 794.3926261462248,1905.0084971874896 835.0653031794159,1872.0724127387139 872.0724127386827,1835.0653031794468 905.008497187458,1794.3926261462552 933.5127018922026,1750.50000000002 957.2727288212827,1703.8683215379212 976.0282581475583,1655.0084971874962 989.5738003668837,1604.4558454089038 997.7609476841171,1552.7642316338522 1000.4999999999802,1500.500000000027 997.7609476841167,1448.235768366202 989.5738003668828,1396.5441545911506 976.0282581475569,1345.991502812558 957.2727288212809,1297.1316784621333 933.5127018922003,1250.500000000035 905.0084971874553,1206.6073738537998 872.0724127386795,1165.9346968206087 835.0653031794125,1128.927587261342 794.3926261462209,1095.9915028125668 750.4999999999854,1067.4872981078222 703.8683215378869,1043.727271178742 655.0084971874619,1024.9717418524665 604.4558454088692,1011.4261996331411 552.7642316338179,1003.2390523159079 500.4999999999927,1000.500000000045 448.2357683661676,1003.2390523159086 396.54415459111624,1011.4261996331425 345.9915028125238,1024.9717418524683 297.131678462099,1043.7272711787443 250.50000000000045,1067.487298107825 206.60737385376524,1095.99150281257 165.93469682057412,1128.9275872613457 128.9275872613075,1165.9346968206128 95.99150281253196,1206.6073738538043 67.48729810778741,1250.5000000000398 43.72727117870727,1297.1316784621383 24.971741852431933,1345.9915028125633" stroke="black" stroke-linecap="round" stroke-width="5" /><polyline clip-path="url(#border_clip)" fill="none" points="1000.5,2000.5 2000.4999999999684,2000.499999999994 2000.4999999999743,3000.4999999999627 1000.5000000000059,3000.4999999999686 1000.5,2000.5" stroke="black" stroke-linecap="round" stroke-width="5" /><polyline clip-path="url(#border_clip)" fill="none" points="1500.499999999997,2000.500000000016 1552.764231633822,1997.7609476841521 1604.4558454088733,1989.5738003669185 1655.0084971874658,1976.0282581475924 1703.8683215378903,1957.2727288213164 1750.4999999999886,1933.5127018922358 1794.3926261462236,1905.0084971874908 1835.0653031794145,1872.072412738715 1872.0724127386811,1835.065303179448 1905.0084971874567,1794.3926261462566 1933.512701892201,1750.5000000000211 1957.272728821281,1703.8683215379226 1976.0282581475565,1655.0084971874976 1989.5738003668816,1604.4558454089051 1997.760947684115,1552.7642316338538 2000.499999999978,1500.5000000000289 1997.7609476841144,1448.2357683662037 1989.5738003668805,1396.5441545911526 1976.0282581475544,1345.9915028125604 1957.2727288212786,1297.1316784621356 1933.5127018921978,1250.5000000000373 1905.0084971874528,1206.6073738538023 1872.072412738677,1165.9346968206112 1835.06530317941,1128.9275872613446 1794.3926261462184,1095.9915028125693 1750.4999999999832,1067.487298107825 1703.8683215378846,1043.7272711787448 1655.0084971874599,1024.9717418524694 1604.4558454088674,1011.4261996331443 1552.764231633816,1003.2390523159111 1500.499999999991,1000.5000000000482 1448.235768366166,1003.2390523159117 1396.5441545911149,1011.4261996331456 1345.9915028125226,1024.9717418524715 1297.131678462098,1043.7272711787475 1250.4999999999998,1067.487298107828 1206.6073738537648,1095.9915028125731 1165.934696820574,1128.927587261349 1128.9275872613073,1165.934696820616 1095.991502812532,1206.6073738538073 1067.4872981077876,1250.5000000000425 1043.7272711787075,1297.131678462141 1024.9717418524322,1345.9915028125658" stroke="black" stroke-linecap="round" stroke-width="5" /><polyline clip-path="url(#border_clip)" fill="none" points="2000.5,2000.5 3000.4999999999663,2000.4999999999934 3000.4999999999727,3000.4999999999595 2000.5000000000066,3000.4999999999663 2000.5,2000.5" stroke="black" stroke-linecap="round" stroke-width="5" /><polyline clip-path="url(#border_clip)" fill="none" points="2500.499999999997,2000.5000000000168 2552.7642316338215,1997.7609476841533 2604.455845408873,1989.5738003669194 2655.008497187465,1976.0282581475935 2703.8683215378896,1957.2727288213173 2750.4999999999877,1933.5127018922367 2794.3926261462225,1905.008497187492 2835.0653031794136,1872.0724127387161 2872.07241273868,1835.065303179449 2905.0084971874553,1794.392626146258 2933.5127018921994,1750.5000000000227 2957.2727288212795,1703.8683215379242 2976.028258147555,1655.0084971874994 2989.5738003668803,1604.455845408907 2997.7609476841135,1552.7642316338558 3000.4999999999764,1500.500000000031 2997.7609476841126,1448.235768366206 2989.5738003668785,1396.544154591155 2976.0282581475526,1345.9915028125627 2957.272728821277,1297.131678462138 2933.512701892196,1250.50000000004 2905.008497187451,1206.6073738538053 2872.072412738675,1165.9346968206144 2835.0653031794086,1128.927587261348 2794.392626146217,1095.991502812573 2750.499999999982,1067.4872981078286 2703.8683215378833,1043.7272711787487 2655.0084971874585,1024.9717418524733 2604.4558454088665,1011.4261996331481 2552.764231633815,1003.2390523159149 2500.4999999999905,1000.5000000000521 2448.2357683661653,1003.2390523159156 2396.5441545911144,1011.4261996331495 2345.991502812522,1024.9717418524754 2297.1316784620976,1043.7272711787514 2250.4999999999995,1067.487298107832 2206.607373853765,1095.991502812577 2165.9346968205737,1128.9275872613528 2128.9275872613075,1165.9346968206196 2095.9915028125324,1206.607373853811 2067.487298107788,1250.5000000000462 2043.7272711787082,1297.1316784621445 2024.9717418524328,1345.9915028125693" stroke="black" stroke-linecap="round" stroke-width="5" /><polyline clip-path="url(#border_clip)" fill="none" points="3000.5,2000.5 4000.4999999999627,2000.4999999999925 4000.4999999999704,3000.4999999999554 3000.5000000000073,3000.499999999963 3000.5,2000.5" stroke="black" stroke-linecap="round" stroke-width="5" /><polyline clip-path="url(#border_clip)" fill="none" points="3500.4999999999964,2000.5000000000186 3552.764231633821,1997.7609476841549 3604.455845408872,1989.573800366921 3655.008497187464,1976.028258147595 3703.8683215378883,1957.272728821319 3750.4999999999864,1933.5127018922385 3794.392626146221,1905.0084971874935 3835.065303179412,1872.072412738718 3872.0724127386784,1835.065303179451 3905.008497187453,1794.3926261462598 3933.5127018921976,1750.5000000000246 3957.2727288212773,1703.8683215379262 3976.0282581475526,1655.0084971875017 3989.5738003668775,1604.4558454089092 3997.7609476841108,1552.7642316338583 4000.4999999999736,1500.5000000000337 3997.7609476841103,1448.2357683662087 3989.5738003668766,1396.5441545911578 3976.0282581475503,1345.9915028125658 3957.2727288212745,1297.1316784621415 3933.512701892194,1250.5000000000437 3905.0084971874494,1206.607373853809 3872.0724127386734,1165.9346968206182 3835.0653031794063,1128.9275872613518 3794.392626146215,1095.9915028125768 3750.49999999998,1067.4872981078327 3703.8683215378815,1043.7272711787527 3655.008497187457,1024.9717418524774 3604.4558454088647,1011.4261996331522 3552.764231633814,1003.239052315919 3500.499999999989,1000.5000000000562 3448.2357683661644,1003.2390523159197 3396.5441545911135,1011.4261996331536 3345.9915028125215,1024.9717418524795 3297.131678462097,1043.7272711787555 3250.499999999999,1067.487298107836 3206.6073738537643,1095.9915028125808 3165.9346968205737,1128.9275872613564 3128.9275872613075,1165.9346968206232 3095.9915028125324,1206.6073738538144 3067.487298107789,1250.5000000000493 3043.7272711787086,1297.1316784621476 3024.9717418524333,1345.9915028125722" stroke="black" stroke-linecap="round" stroke-width="5" /><polyline clip-path="url(#border_clip)" fill="none" points="4000.5,2000.5 5000.49999999996,2000.4999999999918 5000.499999999968,3000.499999999952 4000.500000000008,3000.49999999996 4000.5,2000.5" stroke="black" stroke-linecap="round" stroke-width="5" /><polyline clip-path="url(#border_clip)" fill="none" points="4500.499999999996,2000.50000000002 4552.764231633821,1997.7609476841565 4604.455845408871,1989.5738003669226 4655.008497187464,1976.0282581475965 4703.868321537888,1957.2727288213205 4750.499999999985,1933.5127018922399 4794.39262614622,1905.008497187495 4835.065303179411,1872.0724127387193 4872.072412738677,1835.0653031794527 4905.008497187452,1794.3926261462614 4933.512701892196,1750.5000000000264 4957.272728821275,1703.8683215379283 4976.028258147551,1655.0084971875035 4989.573800366876,1604.4558454089115 4997.76094768411,1552.7642316338606 5000.499999999973,1500.500000000036 4997.760947684108,1448.2357683662115 4989.573800366874,1396.5441545911608 4976.0282581475485,1345.991502812569 4957.272728821273,1297.1316784621447 4933.512701892192,1250.5000000000468 4905.008497187448,1206.6073738538123 4872.072412738671,1165.9346968206216 4835.0653031794045,1128.9275872613555 4794.392626146214,1095.9915028125806 4750.499999999978,1067.4872981078365 4703.868321537881,1043.7272711787568 4655.008497187457,1024.9717418524817 4604.455845408864,1011.4261996331568 4552.764231633813,1003.2390523159238 4500.499999999989,1000.5000000000609 4448.235768366164,1003.2390523159247 4396.5441545911135,1011.4261996331586 4345.9915028125215,1024.9717418524845 4297.131678462098,1043.7272711787605 4250.5,1067.487298107841 4206.607373853765,1095.9915028125858 4165.934696820575,1128.9275872613614 4128.927587261309,1165.9346968206282 4095.9915028125333,1206.6073738538194 4067.4872981077897,1250.5000000000543 4043.72727117871,1297.1316784621524 4024.9717418524347,1345.991502812577" stroke="black" stroke-linecap="round" stroke-width="5" /><polyline clip-path="url(#border_clip)" fill="none" points="0.5,3000.5 1000.4999999999573,3000.499999999991 1000.4999999999663,4000.499999999948 0.500000000009095,4000.4999999999573 0.5,3000.5" stroke="black" stroke-linecap="round" stroke-width="5" /><polyline clip-path="url(#border_clip)" fill="none" points="500.49999999999545,3000.5000000000214 552.7642316338199,2997.7609476841576 604.4558454088706,2989.573800366924 655.0084971874624,2976.0282581475976 703.8683215378865,2957.272728821322 750.4999999999841,2933.5127018922412 794.3926261462184,2905.0084971874967 835.0653031794088,2872.072412738721 872.072412738675,2835.065303179454 905.0084971874498,2794.392626146263 933.5127018921937,2750.500000000028 957.2727288212734,2703.86832153793 976.0282581475485,2655.008497187506 989.5738003668735,2604.455845408914 997.7609476841064,2552.764231633863 1000.4999999999691,2500.500000000038 997.7609476841053,2448.235768366214 989.5738003668714,2396.5441545911635 976.0282581475456,2345.9915028125715 957.2727288212695,2297.1316784621476 933.5127018921889,2250.50000000005 905.0084971874442,2206.6073738538153 872.0724127386686,2165.934696820625 835.0653031794018,2128.927587261359 794.3926261462107,2095.9915028125843 750.4999999999757,2067.48729810784 703.8683215378776,2043.7272711787607 655.0084971874533,2024.9717418524856 604.4558454088613,2011.4261996331606 552.7642316338106,2003.2390523159277 500.49999999998613,2000.500000000065 448.23576836616166,2003.2390523159288 396.54415459111124,2011.4261996331627 345.9915028125197,2024.9717418524885 297.1316784620958,2043.7272711787646 250.49999999999818,2067.487298107845 206.60737385376387,2095.9915028125897 165.93469682057366,2128.9275872613653 128.9275872613075,2165.934696820632 95.99150281253287,2206.607373853823 67.48729810778877,2250.500000000058 43.72727117870909,2297.1316784621563 24.971741852434207,2345.9915028125806" stroke="black" stroke-linecap="round" stroke-width="5" /><polyline clip-path="url(#border_clip)" fill="none" points="1000.5,3000.5 2000.4999999999543,3000.4999999999905 2000.499999999964,4000.4999999999445 1000.5000000000095,4000.4999999999545 1000.4999999999998,3000.5" stroke="black" stroke-linecap="round" stroke-width="5" /><polyline clip-path="url(#border_clip)" fill="none" points="1500.499999999995,3000.5000000000227 1552.7642316338195,2997.760947684159 1604.45584540887,2989.5738003669253 1655.0084971874614,2976.0282581475994 1703.8683215378855,2957.272728821323 1750.499999999983,2933.5127018922426 1794.3926261462173,2905.008497187498 1835.0653031794077,2872.0724127387225 1872.0724127386734,2835.065303179456 1905.008497187448,2794.392626146265 1933.5127018921921,2750.50000000003 1957.2727288212716,2703.868321537932 1976.0282581475467,2655.0084971875076 1989.5738003668714,2604.455845408916 1997.7609476841044,2552.764231633865 2000.499999999967,2500.500000000041 1997.7609476841035,2448.2357683662167 1989.5738003668694,2396.5441545911663 1976.0282581475435,2345.9915028125747 1957.2727288212675,2297.131678462151 1933.5127018921871,2250.500000000053 1905.0084971874421,2206.607373853819 1872.0724127386668,2165.9346968206287 1835.0653031794002,2128.927587261363 1794.3926261462093,2095.9915028125884 1750.4999999999745,2067.4872981078443 1703.8683215378765,2043.7272711787648 1655.0084971874521,2024.97174185249 1604.4558454088603,2011.426199633165 1552.7642316338097,2003.239052315932 1500.4999999999854,2000.5000000000693 1448.2357683661612,2003.2390523159331 1396.5441545911108,2011.426199633167 1345.9915028125192,2024.971741852493 1297.1316784620954,2043.7272711787691 1250.499999999998,2067.4872981078497 1206.6073738537636,2095.9915028125943 1165.9346968205734,2128.92758726137 1128.9275872613075,2165.9346968206364 1095.9915028125329,2206.607373853827 1067.487298107789,2250.500000000062 1043.7272711787095,2297.13167846216 1024.9717418524347,2345.9915028125843" stroke="black" stroke-linecap="round" stroke-width="5" /><polyline clip-path="url(#border_clip)" fill="none" points="2000.5,3000.5 3000.499999999951,3000.49999999999 3000.4999999999613,4000.499999999941 2000.5000000000102,4000.499999999951 2000.5,3000.5" stroke="black" stroke-linecap="round" stroke-width="5" /><polyline clip-path="url(#border_clip)" fill="none" points="2500.499999999995,3000.5000000000246 2552.764231633819,2997.760947684161 2604.455845408869,2989.5738003669267 2655.0084971874608,2976.028258147601 2703.8683215378846,2957.272728821325 2750.499999999982,2933.5127018922444 2794.392626146216,2905.0084971875 2835.0653031794063,2872.0724127387243 2872.072412738672,2835.0653031794577 2905.0084971874467,2794.392626146267 2933.5127018921903,2750.5000000000323 2957.27272882127,2703.868321537934 2976.028258147545,2655.0084971875103 2989.5738003668694,2604.4558454089183 2997.7609476841026,2552.764231633868 3000.499999999965,2500.5000000000437 2997.760947684101,2448.2357683662194 2989.5738003668675,2396.5441545911694 2976.0282581475412,2345.991502812578 2957.2727288212654,2297.131678462154 2933.512701892185,2250.500000000057 2905.0084971874403,2206.6073738538225 2872.072412738665,2165.934696820633 2835.0653031793986,2128.9275872613666 2794.3926261462075,2095.9915028125924 2750.499999999973,2067.4872981078483 2703.868321537875,2043.7272711787691 2655.008497187451,2024.9717418524942 2604.455845408859,2011.4261996331693 2552.764231633809,2003.2390523159363 2500.4999999999845,2000.5000000000737 2448.2357683661608,2003.2390523159374 2396.5441545911103,2011.4261996331713 2345.9915028125192,2024.9717418524972 2297.1316784620954,2043.7272711787732 2250.499999999998,2067.4872981078533 2206.607373853764,2095.9915028125984 2165.9346968205737,2128.9275872613734 2128.927587261308,2165.93469682064 2095.9915028125333,2206.6073738538307 2067.4872981077897,2250.5000000000655 2043.7272711787105,2297.1316784621636 2024.9717418524356,2345.9915028125874" stroke="black" stroke-linecap="round" stroke-width="5" /><polyline clip-path="url(#border_clip)" fill="none" points="3000.5,3000.5 4000.499999999948,3000.49999999999 4000.499999999958,4000.499999999938 3000.50000000001,4000.499999999948 3000.5,3000.5" stroke="black" stroke-linecap="round" stroke-width="5" /><polyline clip-path="url(#border_clip)" fill="none" points="3500.4999999999945,3000.500000000026 3552.764231633819,2997.760947684162 3604.455845408869,2989.5738003669285 3655.0084971874603,2976.028258147602 3703.868321537884,2957.2727288213264 3750.499999999981,2933.5127018922462 3794.392626146215,2905.0084971875017 3835.0653031794054,2872.072412738726 3872.072412738671,2835.0653031794595 3905.0084971874453,2794.392626146269 3933.512701892189,2750.5000000000346 3957.272728821268,2703.8683215379365 3976.028258147543,2655.0084971875126 3989.573800366868,2604.455845408921 3997.7609476841008,2552.7642316338706 4000.4999999999636,2500.500000000047 3997.7609476841,2448.2357683662226 3989.5738003668657,2396.5441545911726 3976.0282581475403,2345.9915028125815 3957.2727288212645,2297.1316784621577 3933.512701892184,2250.5000000000605 3905.0084971874394,2206.6073738538266 3872.072412738664,2165.9346968206364 3835.0653031793977,2128.9275872613707 3794.392626146207,2095.9915028125965 3750.4999999999727,2067.487298107853 3703.868321537875,2043.7272711787734 3655.0084971874508,2024.9717418524986 3604.455845408859,2011.4261996331738 3552.764231633809,2003.2390523159409 3500.499999999985,2000.5000000000782 3448.235768366161,2003.239052315942 3396.544154591111,2011.4261996331759 3345.9915028125197,2024.9717418525017 3297.1316784620963,2043.7272711787778 3250.499999999999,2067.487298107858 3206.6073738537652,2095.9915028126024 3165.934696820575,2128.927587261378 3128.9275872613093,2165.934696820644 3095.991502812535,2206.607373853835 3067.4872981077915,2250.5000000000696 3043.727271178712,2297.131678462167 3024.971741852437,2345.991502812591" stroke="black" stroke-linecap="round" stroke-width="5" /><polyline clip-path="url(#border_clip)" fill="none" points="4000.5,3000.5 5000.499999999945,3000.4999999999895 5000.499999999956,4000.4999999999354 4000.5000000000105,4000.499999999946 4000.5,3000.5" stroke="black" stroke-linecap="round" stroke-width="5" /><polyline clip-path="url(#border_clip)" fill="none" points="4500.4999999999945,3000.5000000000273 4552.764231633819,2997.7609476841635 4604.455845408869,2989.5738003669294 4655.00849718746,2976.0282581476035 4703.868321537883,2957.2727288213277 4750.49999999998,2933.5127018922476 4794.392626146215,2905.008497187503 4835.0653031794045,2872.0724127387275 4872.07241273867,2835.0653031794614 4905.008497187444,2794.3926261462707 4933.5127018921885,2750.500000000036 4957.272728821267,2703.8683215379383 4976.028258147542,2655.0084971875144 4989.573800366867,2604.4558454089233 4997.7609476841,2552.764231633873 5000.499999999962,2500.500000000049 4997.760947684099,2448.2357683662253 4989.573800366865,2396.5441545911754 4976.0282581475385,2345.9915028125843 4957.272728821263,2297.1316784621604 4933.512701892183,2250.5000000000637 4905.0084971874385,2206.60737385383 4872.072412738663,2165.9346968206396 4835.065303179397,2128.927587261374 4794.392626146206,2095.9915028125997 4750.499999999972,2067.487298107856 4703.868321537874,2043.7272711787768 4655.00849718745,2024.971741852502 4604.455845408858,2011.4261996331772 4552.764231633809,2003.2390523159443 4500.499999999985,2000.5000000000816 4448.235768366161,2003.2390523159454 4396.544154591111,2011.4261996331793 4345.99150281252,2024.9717418525051 4297.131678462097,2043.727271178781 4250.5,2067.487298107861 4206.607373853766,2095.9915028126056 4165.9346968205755,2128.9275872613807 4128.927587261311,2165.9346968206473 4095.991502812536,2206.607373853838 4067.4872981077924,2250.5000000000723 4043.727271178713,2297.13167846217 4024.9717418524383,2345.991502812594" stroke="black" stroke-linecap="round" stroke-width="5" /><polyline clip-path="url(#border_clip)" fill="none" points="0.5,4000.5 1000.4999999999427,4000.4999999999895 1000.4999999999532,5000.499999999933 0.5000000000104592,5000.499999999943 0.5,4000.5" stroke="black" stroke-linecap="round" stroke-width="5" /><polyline clip-path="url(#border_clip)" fill="none" points="500.49999999999477,4000.5000000000286 552.7642316338186,3997.760947684165 604.4558454088685,3989.573800366931 655.0084971874596,3976.028258147605 703.868321537883,3957.272728821329 750.49999999998,3933.512701892249 794.3926261462138,3905.0084971875044 835.0653031794036,3872.0724127387293 872.0724127386691,3835.0653031794627 905.0084971874433,3794.3926261462725 933.5127018921867,3750.500000000038 957.2727288212659,3703.8683215379406 976.0282581475406,3655.0084971875167 989.5738003668653,3604.4558454089256 997.760947684098,3552.7642316338756 1000.4999999999607,3500.500000000052 997.7609476840969,3448.235768366228 989.573800366863,3396.544154591178 976.0282581475371,3345.9915028125874 957.2727288212614,3297.131678462164 933.5127018921812,3250.500000000067 905.0084971874369,3206.6073738538335 872.0724127386618,3165.9346968206432 835.0653031793956,3128.927587261378 794.3926261462052,3095.9915028126034 750.4999999999709,3067.48729810786 703.8683215378735,3043.727271178781 655.0084971874498,3024.971741852506 604.4558454088585,3011.4261996331816 552.7642316338085,3003.2390523159484 500.49999999998477,3000.500000000086 448.2357683661612,3003.2390523159497 396.54415459111124,3011.4261996331834 345.99150281252014,3024.9717418525092 297.1316784620967,3043.727271178785 250.5,3067.487298107865 206.60737385376615,3095.9915028126097 165.9346968205764,3128.927587261385 128.92758726131115,3165.934696820651 95.99150281253696,3206.6073738538416 67.48729810779332,3250.500000000076 43.72727117871409,3297.131678462173 24.97174185243921,3345.991502812597" stroke="black" stroke-linecap="round" stroke-width="5" /><polyline clip-path="url(#border_clip)" fill="none" points="1000.5,4000.5 2000.4999999999402,4000.499999999989 2000.4999999999511,5000.499999999929 1000.5000000000109,5000.49999999994 1000.4999999999998,4000.5" stroke="black" stroke-linecap="round" stroke-width="5" /><polyline clip-path="url(#border_clip)" fill="none" points="1500.4999999999945,4000.50000000003 1552.7642316338179,3997.7609476841662 1604.4558454088678,3989.573800366932 1655.0084971874585,3976.0282581476067 1703.868321537882,3957.272728821331 1750.4999999999786,3933.5127018922503 1794.3926261462125,3905.0084971875062 1835.0653031794022,3872.072412738731 1872.0724127386675,3835.065303179465 1905.0084971874417,3794.392626146275 1933.512701892185,3750.50000000004 1957.2727288212643,3703.868321537943 1976.028258147539,3655.0084971875194 1989.5738003668637,3604.4558454089283 1997.7609476840964,3552.764231633878 2000.499999999959,3500.5000000000546 1997.7609476840953,3448.235768366231 1989.5738003668612,3396.5441545911813 1976.0282581475353,3345.99150281259 1957.2727288212595,3297.131678462167 1933.5127018921794,3250.50000000007 1905.008497187435,3206.6073738538366 1872.07241273866,3165.934696820647 1835.0653031793938,3128.9275872613816 1794.3926261462034,3095.9915028126075 1750.499999999969,3067.487298107864 1703.868321537872,3043.7272711787846 1655.0084971874483,3024.97174185251 1604.4558454088572,3011.4261996331857 1552.7642316338074,3003.239052315953 1500.4999999999836,3000.50000000009 1448.2357683661603,3003.239052315954 1396.5441545911106,3011.426199633188 1345.9915028125197,3024.9717418525133 1297.1316784620965,3043.727271178789 1250.4999999999998,3067.4872981078693 1206.6073738537661,3095.991502812614 1165.9346968205764,3128.927587261389 1128.9275872613111,3165.9346968206546 1095.991502812537,3206.6073738538453 1067.4872981077935,3250.5000000000796 1043.7272711787143,3297.1316784621768 1024.9717418524397,3345.9915028126" stroke="black" stroke-linecap="round" stroke-width="5" /><polyline clip-path="url(#border_clip)" fill="none" points="2000.5,4000.5 3000.4999999999372,4000.4999999999886 3000.4999999999486,5000.499999999925 2000.5000000000114,5000.499999999937 2000.4999999999998,4000.5" stroke="black" stroke-linecap="round" stroke-width="5" /><polyline clip-path="url(#border_clip)" fill="none" points="2500.499999999994,4000.5000000000314 2552.764231633818,3997.7609476841676 2604.4558454088674,3989.573800366934 2655.008497187458,3976.0282581476076 2703.868321537881,3957.272728821332 2750.4999999999777,3933.512701892252 2794.392626146211,3905.0084971875076 2835.065303179401,3872.0724127387325 2872.072412738666,3835.0653031794664 2905.0084971874403,3794.3926261462757 2933.5127018921835,3750.500000000042 2957.2727288212627,3703.8683215379447 2976.028258147537,3655.0084971875212 2989.5738003668616,3604.45584540893 2997.7609476840944,3552.7642316338806 3000.4999999999573,3500.500000000057 2997.7609476840935,3448.2357683662335 2989.5738003668594,3396.544154591184 2976.0282581475335,3345.9915028125934 2957.2727288212577,3297.1316784621704 2933.5127018921776,3250.5000000000737 2905.0084971874335,3206.6073738538403 2872.0724127386584,3165.934696820651 2835.0653031793922,3128.9275872613853 2794.392626146202,3095.9915028126115 2750.4999999999677,3067.487298107868 2703.8683215378705,3043.727271178789 2655.008497187447,3024.9717418525147 2604.4558454088565,3011.4261996331898 2552.7642316338065,3003.2390523159575 2500.499999999983,3000.5000000000946 2448.23576836616,3003.2390523159584 2396.5441545911103,3011.4261996331925 2345.9915028125197,3024.9717418525183 2297.1316784620967,3043.7272711787937 2250.5,3067.4872981078743 2206.6073738537666,3095.9915028126184 2165.9346968205773,3128.9275872613935 2128.927587261312,3165.934696820659 2095.991502812538,3206.60737385385 2067.4872981077947,3250.5000000000837 2043.7272711787155,3297.131678462181 2024.971741852441,3345.9915028126043" stroke="black" stroke-linecap="round" stroke-width="5" /><polyline clip-path="url(#border_clip)" fill="none" points="3000.5,4000.5 4000.4999999999336,4000.499999999988 4000.4999999999454,5000.499999999922 3000.500000000012,5000.4999999999345 3000.5,4000.5000000000005" stroke="black" stroke-linecap="round" stroke-width="5" /><polyline clip-path="url(#border_clip)" fill="none" points="3500.499999999994,4000.500000000033 3552.764231633817,3997.7609476841694 3604.4558454088665,3989.5738003669358 3655.0084971874567,3976.0282581476094 3703.8683215378796,3957.2727288213337 3750.4999999999764,3933.512701892254 3794.3926261462098,3905.0084971875094 3835.065303179399,3872.072412738735 3872.0724127386643,3835.0653031794686 3905.0084971874385,3794.3926261462784 3933.512701892181,3750.5000000000446 3957.2727288212604,3703.868321537947 3976.028258147535,3655.008497187524 3989.5738003668594,3604.455845408933 3997.760947684092,3552.7642316338834 4000.4999999999545,3500.50000000006 3997.7609476840908,3448.2357683662367 3989.5738003668566,3396.544154591187 3976.0282581475312,3345.991502812597 3957.2727288212554,3297.131678462174 3933.512701892175,3250.5000000000773 3905.0084971874307,3206.6073738538444 3872.0724127386557,3165.9346968206546 3835.06530317939,3128.92758726139 3794.3926261461997,3095.991502812616 3750.499999999966,3067.487298107873 3703.8683215378687,3043.7272711787937 3655.0084971874458,3024.9717418525192 3604.4558454088547,3011.4261996331948 3552.764231633805,3003.239052315962 3500.499999999982,3000.5000000000996 3448.2357683661585,3003.2390523159634 3396.5441545911094,3011.4261996331975 3345.991502812519,3024.9717418525233 3297.1316784620963,3043.7272711787987 3250.4999999999995,3067.487298107879 3206.607373853766,3095.9915028126234 3165.934696820577,3128.927587261398 3128.927587261312,3165.9346968206637 3095.991502812538,3206.6073738538544 3067.487298107795,3250.500000000088 3043.727271178716,3297.131678462185 3024.9717418524415,3345.9915028126084" stroke="black" stroke-linecap="round" stroke-width="5" /><polyline clip-path="url(#border_clip)" fill="none" points="4000.5,4000.5 5000.499999999931,4000.4999999999877 5000.499999999944,5000.499999999918 4000.5000000000123,5000.499999999931 4000.5,4000.5" stroke="black" stroke-linecap="round" stroke-width="5" /><polyline clip-path="url(#border_clip)" fill="none" points="4500.499999999994,4000.5000000000346 4552.764231633817,3997.760947684171 4604.455845408866,3989.5738003669367 4655.008497187457,3976.0282581476113 4703.868321537879,3957.2727288213355 4750.499999999975,3933.512701892256 4794.392626146209,3905.0084971875112 4835.065303179398,3872.0724127387366 4872.072412738663,3835.065303179471 4905.008497187437,3794.3926261462802 4933.512701892179,3750.5000000000464 4957.272728821259,3703.8683215379497 4976.028258147533,3655.0084971875267 4989.5738003668575,3604.4558454089356 4997.76094768409,3552.764231633886 5000.499999999953,3500.500000000063 4997.760947684089,3448.2357683662403 4989.573800366855,3396.544154591191 4976.028258147529,3345.9915028126006 4957.272728821254,3297.1316784621777 4933.512701892173,3250.5000000000814 4905.008497187429,3206.6073738538485 4872.072412738655,3165.934696820659 4835.065303179388,3128.9275872613944 4794.392626146198,3095.9915028126206 4750.4999999999645,3067.4872981078775 4703.868321537868,3043.727271178798 4655.008497187444,3024.9717418525242 4604.455845408854,3011.4261996331998 4552.764231633804,3003.239052315967 4500.499999999981,3000.5000000001046 4448.235768366158,3003.2390523159684 4396.544154591109,3011.426199633202 4345.991502812518,3024.971741852528 4297.131678462096,3043.7272711788037 4250.499999999999,3067.4872981078834 4206.607373853766,3095.991502812628 4165.934696820577,3128.9275872614026 4128.927587261312,3165.9346968206683 4095.991502812538,3206.6073738538585 4067.487298107795,3250.5000000000923 4043.7272711787164,3297.131678462189 4024.971741852442,3345.9915028126125" stroke="black" stroke-linecap="round" stroke-width="5" /></svg>