<?xml version="1.0" encoding="utf-8" ?>
<svg baseProfile="full" height="1000px" version="1.1" width="1000px" xmlns="http://www.w3.org/2000/svg" xmlns:ev="http://www.w3.org/2001/xml-events" xmlns:xlink="http://www.w3.org/1999/xlink"><defs><clipPath id="border_clip"><rect height="1000" width="1000" x="0" y="0" /></clipPath></defs><polyline clip-path="url(#border_clip)" fill="none" points="500.5,500.5 600.5,500.5 519.5983005625053,559.2785252292473 550.5,464.17287359973193 581.4016994374947,559.2785252292473 500.5,500.5 550.5,587.1025403784438 459.1454542357399,546.4288760708639 556.9602143091205,525.6377069890879 490.04715367323473,599.9521895368274 500.49999999999994,500.50000000000006 450.5000000000001,587.102540378444 440.04715367323456,487.65035084161667 506.96021430912054,561.9648333893559 409.1454542357399,541.1736643075802 500.4999999999999,500.5 400.49999999999994,500.5000000000002 481.4016994374945,441.7214747707527 450.50000000000006,536.8271264002682 419.598300562505,441.72147477075293 500.49999999999994,500.49999999999994 450.49999999999966,413.8974596215563 541.8545457642598,454.571123929136 444.0397856908794,475.36229301091225 510.9528463267649,401.0478104631726 500.49999999999994,500.49999999999994 550.4999999999995,413.89745962155587 560.9528463267653,513.3496491583832 494.0397856908792,439.03516661064407 591.8545457642599,459.8263356924195 500.5,500.5" stroke="black" stroke-linecap="round" stroke-width="1" /></svg>