<?xml version="1.0" encoding="utf-8" ?>
<svg baseProfile="full" height="1000px" version="1.1" width="1000px" xmlns="http://www.w3.org/2000/svg" xmlns:ev="http://www.w3.org/2001/xml-events" xmlns:xlink="http://www.w3.org/1999/xlink"><defs><clipPath id="border_clip"><rect height="1000" width="1000" x="0" y="0" /></clipPath></defs><polyline clip-path="url(#border_clip)" fill="none" points="500.5,500.5 522.7520933956314,497.99279121818233 543.8883739117558,490.5968867902419 562.8489801858734,478.683148246803 578.6831482468031,462.84898018587336 590.5968867902419,443.8883739117558 597.9927912181824,422.75209339563145 600.5,400.5 597.9927912181824,378.24790660436855 590.5968867902419,357.1116260882442 578.6831482468031,338.1510198141266 562.8489801858734,322.31685175319694 543.8883739117558,310.403113209758 522.7520933956314,303.00720878181755 500.5,300.4999999999999 478.2479066043685,303.00720878181755 457.1116260882441,310.403113209758 438.1510198141266,322.31685175319694 422.31685175319694,338.1510198141266 410.403113209758,357.1116260882441 403.0072087818175,378.2479066043685 400.4999999999999,400.5 403.0072087818175,422.75209339563145 410.4031132097579,443.8883739117558 422.31685175319683,462.8489801858734 438.15101981412647,478.68314824680306 457.111626088244,490.596886790242 478.2479066043684,497.9927912181825 500.4999999999999,500.5000000000001 600.5,500.5000000000002 519.5983005625051,559.2785252292475 550.4999999999999,464.1728735997321 581.4016994374947,559.2785252292475 500.4999999999999,500.50000000000017 600.5,500.50000000000017 550.4999999999999,587.1025403784441 500.49999999999983,500.5000000000002" stroke="black" stroke-linecap="round" stroke-width="1" /><polygon clip-path="url(#border_clip)" fill="#ff0000" fill-rule="evenodd" points="500.49999999999983,500.5000000000002 600.4999999999999,500.5000000000001 650.5,587.102540378444 600.5,673.705080756888 500.5,673.705080756888 450.49999999999983,587.1025403784442 500.4999999999998,500.5000000000002" stroke-width="0" /><polyline clip-path="url(#border_clip)" fill="none" points="500.49999999999983,500.5000000000002 600.4999999999999,500.5000000000001 650.5,587.102540378444 600.5,673.705080756888 500.5,673.705080756888 450.49999999999983,587.1025403784442 500.4999999999998,500.5000000000002" stroke="black" stroke-linecap="round" stroke-width="1" /></svg>