<?xml version="1.0" encoding="utf-8" ?>
<svg baseProfile="full" height="1000px" version="1.1" width="1000px" xmlns="http://www.w3.org/2000/svg" xmlns:ev="http://www.w3.org/2001/xml-events" xmlns:xlink="http://www.w3.org/1999/xlink"><defs><clipPath id="border_clip"><rect height="1000" width="1000" x="0" y="0" /></clipPath></defs><polyline clip-path="url(#border_clip)" fill="none" points="500.5,500.5 600.5,500.5 600.5,400.5 500.5,400.5 500.5,500.5 550.5,450.5 650.5,450.5 650.5,350.5 550.5,350.5 550.5,450.5 650.5,450.5 600.5,500.5 600.5,400.5 650.5,350.5 550.5,350.5 500.5,400.5 400.5,400.49999999999994 400.49999999999994,500.49999999999994 500.49999999999994,500.5 500.5,400.5 550.5,450.5 450.5,450.49999999999994 450.49999999999994,550.4999999999999 550.4999999999999,550.5 550.5,450.5 650.5,450.5 600.5,500.5 600.5,400.5 650.5,350.5 550.5,350.5 500.5,400.5" stroke="black" stroke-linecap="round" stroke-width="1" /></svg>