<?xml version="1.0" encoding="utf-8" ?>
<svg baseProfile="full" height="5000px" version="1.1" width="5000px" xmlns="http://www.w3.org/2000/svg" xmlns:ev="http://www.w3.org/2001/xml-events" xmlns:xlink="http://www.w3.org/1999/xlink"><defs><clipPath id="border_clip"><rect height="5000" width="5000" x="0" y="0" /></clipPath></defs><polyline clip-path="url(#border_clip)" fill="none" points="0.5,0.5 1000.5,0.5 1000.5,1000.5 0.5,1000.5000000000002 0.5,0.5" stroke="black" stroke-linecap="round" stroke-width="5" /><polyline clip-path="url(#border_clip)" fill="none" points="500.5,500.5 450.5,500.5 450.5,450.5 550.5,450.5 550.5,550.5 450.5,550.5 450.5,450.5 425.5,407.1987298107779 468.8012701892219,382.1987298107779 518.8012701892219,468.80127018922167 432.1987298107779,518.8012701892217 382.1987298107779,432.1987298107779 468.80127018922167,382.1987298107779 493.80127018922167,338.89745962155575 537.1025403784436,363.89745962155575 487.10254037844356,450.49999999999955 400.49999999999955,400.49999999999955 450.49999999999955,313.89745962155575 537.1025403784433,363.89745962155575 587.1025403784433,363.89745962155575 587.1025403784433,413.89745962155575 487.10254037844334,413.89745962155575 487.1025403784431,313.89745962155575 587.1025403784431,313.89745962155575 587.1025403784433,413.89745962155575 612.1025403784433,457.19872981077765 568.8012701892214,482.19872981077765 518.8012701892212,395.59618943233363 605.403810567665,345.59618943233363 655.4038105676652,432.1987298107774 568.8012701892214,482.19872981077765 543.8012701892214,525.4999999999995 500.49999999999955,500.49999999999955 550.4999999999993,413.89745962155575 637.1025403784433,463.8974596215555 587.1025403784436,550.4999999999995 500.49999999999955,500.4999999999998" stroke="black" stroke-linecap="round" stroke-width="5" /><polyline clip-path="url(#border_clip)" fill="none" points="1000.5,0.5 2000.5,0.499999999998181 2000.5000000000018,1000.4999999999982 1000.500000000002,1000.5000000000002 1000.5,0.5000000000004547" stroke="black" stroke-linecap="round" stroke-width="5" /><polyline clip-path="url(#border_clip)" fill="none" points="1500.5,500.5 1450.5,500.5 1450.5,450.5 1550.5,450.5 1550.5000000000002,550.5 1450.5000000000002,550.5000000000002 1450.5,450.50000000000045 1425.5,407.1987298107788 1468.801270189222,382.1987298107788 1518.8012701892221,468.8012701892226 1432.1987298107783,518.8012701892228 1382.198729810778,432.19872981077924 1468.801270189222,382.19872981077924 1493.8012701892217,338.8974596215571 1537.1025403784438,363.8974596215571 1487.102540378444,450.5000000000009 1400.5,400.50000000000136 1450.4999999999998,313.8974596215576 1537.1025403784438,363.8974596215571 1587.1025403784438,363.8974596215571 1587.1025403784438,413.8974596215571 1487.1025403784438,413.8974596215576 1487.1025403784436,313.8974596215576 1587.1025403784436,313.8974596215571 1587.1025403784438,413.8974596215571 1612.102540378444,457.198729810779 1568.8012701892221,482.19872981077924 1518.801270189222,395.59618943233545 1605.4038105676655,345.596189432335 1655.403810567666,432.1987298107788 1568.8012701892221,482.198729810779 1543.8012701892221,525.5000000000009 1500.5000000000002,500.50000000000114 1550.5,413.8974596215571 1637.1025403784438,463.8974596215569 1587.1025403784442,550.5000000000009 1500.5000000000002,500.50000000000114" stroke="black" stroke-linecap="round" stroke-width="5" /><polyline clip-path="url(#border_clip)" fill="none" points="2000.5,0.5 3000.4999999999995,0.499999999996362 3000.500000000003,1000.4999999999959 2000.5000000000039,1000.4999999999998 2000.4999999999998,0.5" stroke="black" stroke-linecap="round" stroke-width="5" /><polyline clip-path="url(#border_clip)" fill="none" points="2500.5,500.5 2450.5,500.5000000000002 2450.5,450.50000000000045 2550.5,450.5 2550.5,550.5 2450.5,550.5000000000005 2450.5,450.50000000000045 2425.4999999999995,407.1987298107788 2468.801270189221,382.1987298107788 2518.8012701892217,468.80127018922235 2432.1987298107783,518.8012701892228 2382.198729810778,432.19872981077924 2468.801270189221,382.1987298107788 2493.801270189221,338.89745962155666 2537.1025403784433,363.89745962155666 2487.102540378444,450.5000000000009 2400.4999999999995,400.50000000000136 2450.499999999999,313.8974596215571 2537.1025403784433,363.89745962155666 2587.1025403784433,363.8974596215562 2587.1025403784433,413.8974596215562 2487.1025403784433,413.89745962155666 2487.102540378443,313.89745962155666 2587.102540378443,313.8974596215562 2587.1025403784433,413.8974596215562 2612.102540378444,457.1987298107779 2568.801270189222,482.1987298107781 2518.8012701892217,395.59618943233454 2605.403810567665,345.5961894323341 2655.4038105676655,432.1987298107779 2568.801270189222,482.19872981077833 2543.801270189222,525.5000000000005 2500.5,500.5000000000007 2550.4999999999995,413.89745962155666 2637.102540378444,463.8974596215562 2587.1025403784442,550.5000000000002 2500.5,500.5000000000007" stroke="black" stroke-linecap="round" stroke-width="5" /><polyline clip-path="url(#border_clip)" fill="none" points="3000.5,0.5 4000.4999999999995,0.49999999999454303 4000.5000000000055,1000.4999999999941 3000.5000000000055,1000.4999999999998 3000.5,0.5" stroke="black" stroke-linecap="round" stroke-width="5" /><polyline clip-path="url(#border_clip)" fill="none" points="3500.5,500.5 3450.5,500.5000000000002 3450.4999999999995,450.50000000000045 3550.4999999999995,450.5 3550.5,550.5 3450.5,550.5000000000007 3450.4999999999995,450.5000000000009 3425.4999999999995,407.19872981077924 3468.801270189221,382.1987298107788 3518.8012701892217,468.80127018922235 3432.1987298107783,518.8012701892228 3382.198729810778,432.19872981077924 3468.801270189221,382.1987298107788 3493.8012701892208,338.89745962155666 3537.102540378443,363.8974596215562 3487.1025403784433,450.50000000000045 3400.499999999999,400.5000000000009 3450.4999999999986,313.89745962155666 3537.102540378443,363.8974596215562 3587.102540378443,363.89745962155575 3587.1025403784433,413.89745962155575 3487.1025403784433,413.8974596215562 3487.1025403784424,313.8974596215562 3587.1025403784424,313.8974596215553 3587.1025403784433,413.8974596215553 3612.1025403784433,457.19872981077697 3568.801270189222,482.1987298107772 3518.801270189221,395.59618943233363 3605.4038105676646,345.5961894323332 3655.4038105676655,432.1987298107765 3568.801270189222,482.1987298107772 3543.801270189222,525.4999999999993 3500.5,500.49999999999955 3550.499999999999,413.8974596215553 3637.1025403784433,463.8974596215546 3587.1025403784442,550.4999999999989 3500.5,500.49999999999955" stroke="black" stroke-linecap="round" stroke-width="5" /><polyline clip-path="url(#border_clip)" fill="none" points="4000.5,0.5 5000.5,0.4999999999922693 5000.500000000007,1000.4999999999918 4000.5000000000077,1000.4999999999995 4000.5,0.5" stroke="black" stroke-linecap="round" stroke-width="5" /><polyline clip-path="url(#border_clip)" fill="none" points="4500.5,500.5 4450.5,500.50000000000045 4450.5,450.50000000000045 4550.5,450.49999999999955 4550.5,550.4999999999995 4450.5,550.5000000000005 4450.5,450.50000000000045 4425.499999999999,407.1987298107788 4468.80127018922,382.19872981077833 4518.801270189221,468.80127018922167 4432.198729810778,518.8012701892224 4382.198729810778,432.1987298107788 4468.80127018922,382.1987298107779 4493.80127018922,338.89745962155575 4537.102540378442,363.8974596215553 4487.102540378443,450.49999999999955 4400.499999999999,400.50000000000045 4450.499999999998,313.8974596215562 4537.102540378442,363.8974596215553 4587.102540378442,363.89745962155484 4587.102540378442,413.89745962155484 4487.102540378442,413.89745962155575 4487.102540378442,313.89745962155575 4587.102540378442,313.89745962155484 4587.102540378442,413.89745962155484 4612.102540378443,457.1987298107765 4568.801270189222,482.19872981077697 4518.801270189221,395.59618943233363 4605.403810567665,345.5961894323327 4655.4038105676655,432.19872981077606 4568.801270189222,482.19872981077674 4543.801270189222,525.4999999999989 4500.5,500.4999999999993 4550.5,413.89745962155484 4637.102540378444,463.89745962155393 4587.102540378444,550.4999999999982 4500.5,500.4999999999991" stroke="black" stroke-linecap="round" stroke-width="5" /><polyline clip-path="url(#border_clip)" fill="none" points="0.5,1000.5 1000.4999999999995,1000.4999999999905 1000.5000000000091,2000.49999999999 0.5000000000095497,2000.4999999999995 0.5,1000.5" stroke="black" stroke-linecap="round" stroke-width="5" /><polyline clip-path="url(#border_clip)" fill="none" points="500.5,1500.5 450.5,1500.5000000000005 450.49999999999955,1450.5000000000005 550.4999999999995,1450.4999999999995 550.5000000000005,1550.4999999999995 450.50000000000045,1550.5000000000005 450.49999999999955,1450.5000000000007 425.4999999999991,1407.198729810779 468.80127018922076,1382.1987298107786 518.8012701892217,1468.801270189222 432.19872981077833,1518.8012701892226 382.1987298107774,1432.1987298107795 468.80127018922076,1382.1987298107786 493.8012701892203,1338.8974596215564 537.1025403784424,1363.897459621556 487.10254037844334,1450.5000000000002 400.4999999999991,1400.5000000000011 450.4999999999982,1313.897459621557 537.1025403784424,1363.897459621556 587.1025403784424,1363.8974596215555 587.1025403784429,1413.8974596215555 487.1025403784429,1413.8974596215567 487.10254037844174,1313.8974596215567 587.1025403784417,1313.8974596215555 587.1025403784429,1413.8974596215555 612.1025403784433,1457.1987298107772 568.8012701892217,1482.1987298107776 518.8012701892208,1395.5961894323343 605.4038105676641,1345.5961894323334 655.403810567665,1432.1987298107767 568.8012701892217,1482.1987298107776 543.8012701892221,1525.5 500.5,1500.5000000000005 550.4999999999991,1413.897459621556 637.1025403784436,1463.897459621555 587.1025403784445,1550.4999999999995 500.5,1500.5000000000005" stroke="black" stroke-linecap="round" stroke-width="5" /><polyline clip-path="url(#border_clip)" fill="none" points="1000.5,1000.5 2000.4999999999995,1000.4999999999886 2000.5000000000107,2000.4999999999882 1000.5000000000114,2000.4999999999995 1000.5,1000.5" stroke="black" stroke-linecap="round" stroke-width="5" /><polyline clip-path="url(#border_clip)" fill="none" points="1500.5,1500.5 1450.5,1500.5000000000005 1450.4999999999993,1450.5000000000007 1550.4999999999993,1450.4999999999995 1550.5000000000005,1550.4999999999995 1450.5000000000005,1550.5000000000007 1450.4999999999993,1450.5000000000007 1425.4999999999989,1407.198729810779 1468.8012701892205,1382.1987298107786 1518.8012701892217,1468.8012701892217 1432.1987298107783,1518.8012701892226 1382.1987298107774,1432.1987298107795 1468.8012701892208,1382.1987298107786 1493.8012701892203,1338.8974596215564 1537.1025403784424,1363.897459621556 1487.1025403784433,1450.5000000000005 1400.499999999999,1400.5000000000016 1450.499999999998,1313.8974596215571 1537.1025403784424,1363.897459621556 1587.1025403784424,1363.8974596215553 1587.1025403784429,1413.8974596215553 1487.102540378443,1413.8974596215564 1487.102540378442,1313.8974596215564 1587.1025403784417,1313.8974596215553 1587.1025403784429,1413.8974596215553 1612.1025403784436,1457.198729810777 1568.8012701892221,1482.1987298107774 1518.801270189221,1395.5961894323343 1605.403810567664,1345.5961894323332 1655.4038105676652,1432.1987298107763 1568.8012701892221,1482.1987298107774 1543.8012701892226,1525.4999999999995 1500.5000000000005,1500.5 1550.499999999999,1413.8974596215558 1637.1025403784438,1463.8974596215546 1587.1025403784447,1550.499999999999 1500.5000000000005,1500.5000000000002" stroke="black" stroke-linecap="round" stroke-width="5" /><polyline clip-path="url(#border_clip)" fill="none" points="2000.5,1000.5 3000.4999999999995,1000.499999999987 3000.5000000000127,2000.4999999999864 2000.5000000000132,2000.4999999999995 2000.5,1000.5000000000002" stroke="black" stroke-linecap="round" stroke-width="5" /><polyline clip-path="url(#border_clip)" fill="none" points="2500.5,1500.5 2450.5,1500.5000000000007 2450.4999999999995,1450.5000000000007 2550.499999999999,1450.4999999999993 2550.5000000000005,1550.4999999999993 2450.500000000001,1550.5000000000007 2450.4999999999995,1450.5000000000007 2425.4999999999986,1407.198729810779 2468.8012701892203,1382.1987298107783 2518.8012701892217,1468.8012701892214 2432.1987298107783,1518.8012701892226 2382.1987298107774,1432.1987298107795 2468.8012701892203,1382.1987298107783 2493.80127018922,1338.897459621556 2537.102540378442,1363.8974596215553 2487.1025403784433,1450.4999999999998 2400.4999999999986,1400.500000000001 2450.4999999999973,1313.8974596215564 2537.102540378442,1363.8974596215553 2587.102540378442,1363.8974596215546 2587.1025403784424,1413.8974596215546 2487.102540378443,1413.897459621556 2487.1025403784415,1313.897459621556 2587.102540378441,1313.8974596215546 2587.1025403784424,1413.8974596215546 2612.1025403784433,1457.198729810776 2568.8012701892217,1482.1987298107765 2518.8012701892203,1395.5961894323336 2605.4038105676636,1345.5961894323325 2655.4038105676646,1432.1987298107756 2568.8012701892217,1482.198729810777 2543.801270189222,1525.499999999999 2500.5,1500.4999999999998 2550.4999999999986,1413.8974596215553 2637.1025403784433,1463.897459621554 2587.1025403784447,1550.4999999999984 2500.5,1500.4999999999998" stroke="black" stroke-linecap="round" stroke-width="5" /><polyline clip-path="url(#border_clip)" fill="none" points="3000.5,1000.5 4000.499999999999,1000.4999999999852 4000.500000000014,2000.4999999999845 3000.5000000000146,2000.4999999999995 3000.5,1000.5000000000002" stroke="black" stroke-linecap="round" stroke-width="5" /><polyline clip-path="url(#border_clip)" fill="none" points="3500.5,1500.5 3450.5,1500.500000000001 3450.499999999999,1450.500000000001 3550.499999999999,1450.4999999999993 3550.500000000001,1550.499999999999 3450.500000000001,1550.5000000000007 3450.499999999999,1450.5000000000007 3425.4999999999986,1407.1987298107792 3468.8012701892203,1382.1987298107786 3518.801270189221,1468.8012701892217 3432.1987298107783,1518.801270189223 3382.198729810777,1432.19872981078 3468.8012701892203,1382.1987298107786 3493.8012701892194,1338.8974596215562 3537.1025403784415,1363.8974596215555 3487.1025403784433,1450.5 3400.4999999999986,1400.5000000000014 3450.4999999999973,1313.8974596215567 3537.1025403784415,1363.8974596215553 3587.1025403784415,1363.8974596215546 3587.1025403784424,1413.8974596215546 3487.102540378443,1413.8974596215562 3487.102540378441,1313.8974596215562 3587.102540378441,1313.8974596215546 3587.1025403784424,1413.8974596215546 3612.1025403784433,1457.198729810776 3568.801270189222,1482.1987298107767 3518.8012701892203,1395.5961894323336 3605.4038105676636,1345.5961894323323 3655.403810567665,1432.1987298107751 3568.801270189222,1482.1987298107765 3543.801270189223,1525.4999999999989 3500.5000000000005,1500.4999999999995 3550.499999999999,1413.8974596215548 3637.102540378444,1463.8974596215535 3587.102540378445,1550.4999999999982 3500.5000000000005,1500.4999999999995" stroke="black" stroke-linecap="round" stroke-width="5" /><polyline clip-path="url(#border_clip)" fill="none" points="4000.5,1000.5 5000.499999999999,1000.4999999999834 5000.500000000016,2000.4999999999827 4000.5000000000164,2000.4999999999995 4000.5,1000.5000000000002" stroke="black" stroke-linecap="round" stroke-width="5" /><polyline clip-path="url(#border_clip)" fill="none" points="4500.5,1500.5 4450.5,1500.500000000001 4450.499999999999,1450.500000000001 4550.499999999999,1450.4999999999993 4550.500000000001,1550.499999999999 4450.500000000001,1550.500000000001 4450.499999999999,1450.500000000001 4425.499999999998,1407.1987298107795 4468.80127018922,1382.1987298107788 4518.801270189221,1468.8012701892217 4432.198729810778,1518.801270189223 4382.198729810777,1432.1987298107802 4468.80127018922,1382.1987298107788 4493.801270189219,1338.8974596215564 4537.1025403784415,1363.8974596215558 4487.102540378443,1450.5000000000005 4400.499999999998,1400.500000000002 4450.499999999996,1313.8974596215573 4537.1025403784415,1363.8974596215558 4587.1025403784415,1363.8974596215548 4587.102540378442,1413.8974596215548 4487.102540378442,1413.8974596215567 4487.102540378441,1313.8974596215567 4587.102540378441,1313.8974596215548 4587.102540378442,1413.8974596215548 4612.102540378443,1457.1987298107763 4568.801270189222,1482.198729810777 4518.80127018922,1395.596189432334 4605.403810567663,1345.5961894323325 4655.403810567665,1432.1987298107754 4568.801270189222,1482.198729810777 4543.801270189222,1525.4999999999993 4500.5,1500.5 4550.499999999998,1413.8974596215553 4637.102540378443,1463.8974596215537 4587.102540378445,1550.4999999999984 4500.5,1500.5" stroke="black" stroke-linecap="round" stroke-width="5" /><polyline clip-path="url(#border_clip)" fill="none" points="0.5,2000.5 1000.4999999999991,2000.4999999999814 1000.5000000000177,3000.499999999981 0.5000000000186446,3000.499999999999 0.5,2000.5" stroke="black" stroke-linecap="round" stroke-width="5" /><polyline clip-path="url(#border_clip)" fill="none" points="500.5,2500.5 450.5,2500.500000000001 450.4999999999991,2450.500000000001 550.4999999999991,2450.499999999999 550.5000000000009,2550.499999999999 450.5000000000009,2550.500000000001 450.4999999999991,2450.500000000001 425.4999999999982,2407.1987298107797 468.8012701892196,2382.198729810779 518.8012701892212,2468.8012701892217 432.19872981077833,2518.801270189223 382.1987298107765,2432.1987298107806 468.8012701892194,2382.198729810779 493.8012701892185,2338.897459621556 537.1025403784408,2363.8974596215558 487.1025403784424,2450.5000000000005 400.4999999999977,2400.500000000002 450.4999999999959,2313.897459621557 537.1025403784406,2363.8974596215558 587.1025403784406,2363.8974596215544 587.1025403784415,2413.8974596215544 487.1025403784415,2413.8974596215567 487.10254037843947,2313.8974596215567 587.1025403784395,2313.8974596215544 587.1025403784415,2413.8974596215544 612.1025403784424,2457.198729810776 568.801270189221,2482.198729810777 518.8012701892194,2395.596189432334 605.4038105676623,2345.5961894323323 655.4038105676639,2432.198729810775 568.801270189221,2482.198729810777 543.8012701892219,2525.499999999999 500.49999999999955,2500.5 550.4999999999977,2413.8974596215553 637.1025403784424,2463.8974596215535 587.1025403784442,2550.499999999998 500.49999999999955,2500.5" stroke="black" stroke-linecap="round" stroke-width="5" /><polyline clip-path="url(#border_clip)" fill="none" points="1000.5,2000.5 2000.499999999999,2000.4999999999795 2000.5000000000196,3000.499999999979 1000.5000000000205,3000.4999999999995 1000.5,2000.5000000000002" stroke="black" stroke-linecap="round" stroke-width="5" /><polyline clip-path="url(#border_clip)" fill="none" points="1500.5,2500.5 1450.5,2500.500000000001 1450.4999999999989,2450.500000000001 1550.4999999999986,2450.499999999999 1550.500000000001,2550.499999999999 1450.500000000001,2550.500000000001 1450.4999999999989,2450.500000000001 1425.499999999998,2407.1987298107797 1468.8012701892194,2382.198729810779 1518.8012701892212,2468.8012701892217 1432.1987298107786,2518.8012701892235 1382.1987298107767,2432.1987298107806 1468.8012701892194,2382.198729810779 1493.8012701892185,2338.897459621556 1537.102540378441,2363.8974596215553 1487.1025403784429,2450.5000000000005 1400.499999999998,2400.5000000000023 1450.4999999999961,2313.897459621557 1537.102540378441,2363.8974596215553 1587.102540378441,2363.8974596215544 1587.102540378442,2413.8974596215544 1487.102540378442,2413.8974596215567 1487.10254037844,2313.8974596215567 1587.1025403784397,2313.8974596215544 1587.102540378442,2413.8974596215544 1612.1025403784429,2457.1987298107756 1568.8012701892217,2482.1987298107765 1518.8012701892198,2395.5961894323336 1605.4038105676625,2345.596189432332 1655.4038105676643,2432.1987298107747 1568.8012701892217,2482.1987298107765 1543.8012701892226,2525.499999999999 1500.5000000000002,2500.5 1550.4999999999982,2413.8974596215553 1637.1025403784433,2463.897459621553 1587.1025403784452,2550.499999999998 1500.5000000000002,2500.5" stroke="black" stroke-linecap="round" stroke-width="5" /><polyline clip-path="url(#border_clip)" fill="none" points="2000.5,2000.5 3000.499999999999,2000.4999999999777 3000.500000000022,3000.499999999977 2000.5000000000225,3000.499999999999 2000.5,2000.5" stroke="black" stroke-linecap="round" stroke-width="5" /><polyline clip-path="url(#border_clip)" fill="none" points="2500.5,2500.5 2450.5,2500.500000000001 2450.499999999999,2450.5000000000014 2550.4999999999986,2450.499999999999 2550.500000000001,2550.4999999999986 2450.5000000000014,2550.500000000001 2450.499999999999,2450.5000000000014 2425.4999999999977,2407.1987298107797 2468.8012701892194,2382.198729810779 2518.801270189221,2468.8012701892217 2432.1987298107783,2518.8012701892235 2382.1987298107765,2432.1987298107806 2468.8012701892194,2382.198729810779 2493.801270189218,2338.897459621556 2537.1025403784406,2363.8974596215553 2487.102540378443,2450.5000000000005 2400.4999999999977,2400.5000000000023 2450.499999999996,2313.8974596215576 2537.1025403784406,2363.8974596215553 2587.1025403784406,2363.8974596215544 2587.102540378442,2413.897459621554 2487.102540378442,2413.8974596215567 2487.1025403784397,2313.8974596215567 2587.1025403784397,2313.8974596215544 2587.102540378442,2413.897459621554 2612.102540378443,2457.1987298107756 2568.8012701892217,2482.1987298107765 2518.8012701892194,2395.5961894323336 2605.4038105676623,2345.596189432332 2655.403810567664,2432.1987298107742 2568.8012701892217,2482.1987298107765 2543.8012701892226,2525.499999999999 2500.5,2500.5 2550.499999999998,2413.897459621555 2637.102540378443,2463.897459621553 2587.102540378445,2550.4999999999977 2500.5,2500.5" stroke="black" stroke-linecap="round" stroke-width="5" /><polyline clip-path="url(#border_clip)" fill="none" points="3000.5,2000.5 4000.499999999999,2000.4999999999757 4000.5000000000236,3000.499999999975 3000.5000000000246,3000.499999999999 3000.5,2000.5" stroke="black" stroke-linecap="round" stroke-width="5" /><polyline clip-path="url(#border_clip)" fill="none" points="3500.5,2500.5 3450.5,2500.5000000000014 3450.4999999999986,2450.5000000000014 3550.4999999999986,2450.4999999999986 3550.500000000001,2550.4999999999986 3450.5000000000014,2550.5000000000014 3450.4999999999986,2450.5000000000014 3425.4999999999977,2407.19872981078 3468.801270189219,2382.198729810779 3518.801270189221,2468.8012701892217 3432.198729810779,2518.8012701892235 3382.1987298107765,2432.198729810781 3468.801270189219,2382.198729810779 3493.801270189218,2338.8974596215567 3537.1025403784406,2363.8974596215553 3487.1025403784424,2450.5000000000005 3400.4999999999973,2400.5000000000027 3450.4999999999955,2313.8974596215576 3537.10254037844,2363.8974596215553 3587.10254037844,2363.897459621554 3587.1025403784415,2413.897459621554 3487.1025403784415,2413.8974596215567 3487.1025403784392,2313.8974596215567 3587.102540378439,2313.897459621554 3587.1025403784415,2413.897459621554 3612.1025403784424,2457.198729810775 3568.801270189221,2482.1987298107765 3518.8012701892194,2395.596189432334 3605.403810567662,2345.596189432332 3655.403810567664,2432.1987298107742 3568.8012701892217,2482.1987298107765 3543.801270189223,2525.499999999999 3500.5,2500.5 3550.499999999998,2413.897459621555 3637.1025403784433,2463.8974596215526 3587.102540378445,2550.4999999999977 3500.5000000000005,2500.5" stroke="black" stroke-linecap="round" stroke-width="5" /><polyline clip-path="url(#border_clip)" fill="none" points="4000.5,2000.5 5000.499999999999,2000.499999999974 5000.5000000000255,3000.4999999999727 4000.5000000000264,3000.499999999999 4000.5,2000.5" stroke="black" stroke-linecap="round" stroke-width="5" /><polyline clip-path="url(#border_clip)" fill="none" points="4500.5,2500.5 4450.5,2500.5000000000014 4450.499999999998,2450.5000000000014 4550.499999999998,2450.4999999999986 4550.500000000002,2550.4999999999986 4450.500000000002,2550.5000000000014 4450.499999999998,2450.5000000000014 4425.499999999997,2407.19872981078 4468.8012701892185,2382.1987298107792 4518.801270189221,2468.8012701892217 4432.198729810779,2518.801270189224 4382.198729810776,2432.1987298107815 4468.8012701892185,2382.1987298107792 4493.801270189218,2338.8974596215567 4537.102540378441,2363.8974596215553 4487.102540378442,2450.5000000000005 4400.499999999997,2400.5000000000027 4450.4999999999945,2313.8974596215576 4537.102540378441,2363.8974596215553 4587.102540378441,2363.897459621554 4587.1025403784415,2413.897459621554 4487.1025403784415,2413.8974596215567 4487.102540378439,2313.8974596215567 4587.102540378439,2313.897459621554 4587.1025403784415,2413.897459621554 4612.102540378442,2457.198729810775 4568.801270189222,2482.198729810776 4518.801270189219,2395.5961894323336 4605.403810567662,2345.5961894323314 4655.403810567665,2432.198729810774 4568.801270189222,2482.198729810776 4543.801270189223,2525.4999999999986 4500.5,2500.5 4550.499999999998,2413.897459621555 4637.102540378442,2463.8974596215526 4587.102540378445,2550.4999999999977 4500.5,2500.5" stroke="black" stroke-linecap="round" stroke-width="5" /><polyline clip-path="url(#border_clip)" fill="none" points="0.5,3000.5 1000.4999999999989,3000.499999999972 1000.5000000000268,4000.499999999971 0.5000000000281943,4000.499999999999 0.5,3000.5" stroke="black" stroke-linecap="round" stroke-width="5" /><polyline clip-path="url(#border_clip)" fill="none" points="500.5,3500.5 450.5,3500.5000000000014 450.49999999999864,3450.5000000000014 550.4999999999986,3450.4999999999986 550.5000000000014,3550.499999999998 450.50000000000136,3550.500000000001 450.49999999999864,3450.5000000000014 425.49999999999727,3407.19872981078 468.8012701892185,3382.198729810779 518.801270189221,3468.801270189221 432.1987298107788,3518.8012701892235 382.1987298107765,3432.198729810781 468.80127018921894,3382.198729810779 493.8012701892176,3338.897459621556 537.1025403784402,3363.897459621555 487.10254037844265,3450.5 400.49999999999727,3400.5000000000027 450.49999999999454,3313.8974596215576 537.1025403784397,3363.897459621555 587.1025403784397,3363.8974596215535 587.1025403784411,3413.8974596215535 487.10254037844106,3413.8974596215567 487.1025403784381,3313.8974596215567 587.1025403784379,3313.8974596215535 587.1025403784408,3413.8974596215535 612.102540378442,3457.1987298107747 568.8012701892208,3482.198729810776 518.8012701892183,3395.5961894323336 605.4038105676605,3345.596189432331 655.403810567663,3432.1987298107733 568.8012701892208,3482.198729810776 543.8012701892221,3525.499999999998 500.49999999999955,3500.5 550.4999999999968,3413.8974596215544 637.102540378442,3463.897459621552 587.1025403784447,3550.4999999999973 500.49999999999955,3500.4999999999995" stroke="black" stroke-linecap="round" stroke-width="5" /><polyline clip-path="url(#border_clip)" fill="none" points="1000.5,3000.5 2000.4999999999986,3000.49999999997 2000.5000000000286,4000.499999999969 1000.5000000000298,4000.499999999999 1000.4999999999998,3000.5000000000005" stroke="black" stroke-linecap="round" stroke-width="5" /><polyline clip-path="url(#border_clip)" fill="none" points="1500.5,3500.5 1450.5,3500.5000000000014 1450.4999999999984,3450.500000000002 1550.4999999999982,3450.4999999999986 1550.5000000000014,3550.499999999998 1450.5000000000014,3550.5000000000014 1450.4999999999984,3450.5000000000014 1425.499999999997,3407.1987298107806 1468.8012701892183,3382.1987298107792 1518.8012701892208,3468.801270189221 1432.1987298107786,3518.801270189224 1382.198729810776,3432.1987298107815 1468.8012701892183,3382.1987298107792 1493.801270189217,3338.8974596215567 1537.1025403784397,3363.897459621555 1487.1025403784424,3450.5000000000005 1400.499999999997,3400.500000000003 1450.4999999999943,3313.8974596215576 1537.1025403784397,3363.897459621555 1587.1025403784395,3363.8974596215535 1587.102540378441,3413.8974596215535 1487.102540378441,3413.8974596215567 1487.102540378438,3313.8974596215567 1587.1025403784379,3313.8974596215535 1587.102540378441,3413.8974596215535 1612.1025403784424,3457.1987298107742 1568.8012701892212,3482.198729810776 1518.8012701892187,3395.5961894323336 1605.403810567661,3345.596189432331 1655.4038105676636,3432.1987298107733 1568.8012701892212,3482.198729810776 1543.8012701892226,3525.499999999998 1500.5,3500.5 1550.4999999999973,3413.8974596215544 1637.1025403784427,3463.8974596215517 1587.1025403784456,3550.4999999999973 1500.5000000000002,3500.5" stroke="black" stroke-linecap="round" stroke-width="5" /><polyline clip-path="url(#border_clip)" fill="none" points="2000.5,3000.5 3000.4999999999986,3000.499999999968 3000.5000000000305,4000.499999999967 2000.5000000000318,4000.4999999999986 2000.5,3000.5" stroke="black" stroke-linecap="round" stroke-width="5" /><polyline clip-path="url(#border_clip)" fill="none" points="2500.5,3500.5 2450.5,3500.500000000002 2450.4999999999986,3450.500000000002 2550.499999999998,3450.4999999999986 2550.5000000000014,3550.499999999998 2450.500000000002,3550.500000000002 2450.4999999999986,3450.500000000002 2425.4999999999973,3407.1987298107806 2468.801270189218,3382.1987298107792 2518.8012701892208,3468.801270189221 2432.198729810779,3518.801270189224 2382.198729810776,3432.198729810782 2468.801270189218,3382.1987298107792 2493.8012701892167,3338.8974596215567 2537.1025403784392,3363.897459621555 2487.1025403784424,3450.5000000000005 2400.499999999997,3400.500000000003 2450.499999999994,3313.897459621558 2537.1025403784392,3363.897459621555 2587.1025403784392,3363.8974596215535 2587.102540378441,3413.8974596215535 2487.102540378441,3413.8974596215567 2487.102540378438,3313.8974596215567 2587.102540378438,3313.8974596215535 2587.102540378441,3413.8974596215535 2612.1025403784424,3457.1987298107742 2568.801270189221,3482.198729810776 2518.8012701892185,3395.5961894323336 2605.4038105676605,3345.596189432331 2655.4038105676636,3432.198729810773 2568.801270189221,3482.198729810776 2543.8012701892226,3525.4999999999986 2500.5,3500.5 2550.4999999999973,3413.897459621555 2637.1025403784424,3463.8974596215517 2587.1025403784456,3550.4999999999973 2500.5,3500.5" stroke="black" stroke-linecap="round" stroke-width="5" /><polyline clip-path="url(#border_clip)" fill="none" points="3000.5,3000.5 4000.4999999999986,3000.4999999999663 4000.500000000032,4000.4999999999654 3000.5000000000337,4000.499999999999 3000.5,3000.5" stroke="black" stroke-linecap="round" stroke-width="5" /><polyline clip-path="url(#border_clip)" fill="none" points="3500.5,3500.5 3450.5,3500.500000000002 3450.499999999998,3450.500000000002 3550.499999999998,3450.499999999998 3550.500000000002,3550.499999999998 3450.500000000002,3550.500000000002 3450.499999999998,3450.500000000002 3425.499999999997,3407.1987298107806 3468.8012701892176,3382.1987298107792 3518.8012701892208,3468.801270189221 3432.198729810779,3518.801270189224 3382.1987298107756,3432.198729810782 3468.8012701892176,3382.1987298107792 3493.801270189216,3338.8974596215567 3537.102540378439,3363.897459621555 3487.102540378442,3450.5000000000005 3400.4999999999964,3400.5000000000036 3450.4999999999936,3313.897459621558 3537.102540378439,3363.897459621555 3587.102540378439,3363.8974596215535 3587.1025403784406,3413.897459621553 3487.102540378441,3413.8974596215567 3487.1025403784374,3313.8974596215567 3587.1025403784374,3313.8974596215535 3587.1025403784406,3413.897459621553 3612.1025403784424,3457.1987298107742 3568.801270189221,3482.1987298107756 3518.8012701892185,3395.5961894323336 3605.4038105676605,3345.596189432331 3655.4038105676636,3432.198729810773 3568.801270189221,3482.1987298107756 3543.801270189223,3525.499999999998 3500.5,3500.5 3550.4999999999973,3413.8974596215544 3637.1025403784424,3463.897459621551 3587.1025403784456,3550.499999999997 3500.5,3500.5" stroke="black" stroke-linecap="round" stroke-width="5" /><polyline clip-path="url(#border_clip)" fill="none" points="4000.5,3000.5 5000.499999999998,3000.4999999999645 5000.500000000035,4000.499999999963 4000.5000000000355,4000.4999999999986 4000.5,3000.5" stroke="black" stroke-linecap="round" stroke-width="5" /><polyline clip-path="url(#border_clip)" fill="none" points="4500.5,3500.5 4450.5,3500.500000000002 4450.499999999998,3450.500000000002 4550.499999999998,3450.499999999998 4550.500000000002,3550.499999999998 4450.500000000002,3550.500000000002 4450.499999999998,3450.500000000002 4425.499999999996,3407.198729810781 4468.801270189218,3382.1987298107797 4518.80127018922,3468.801270189221 4432.198729810779,3518.8012701892244 4382.198729810776,3432.1987298107824 4468.801270189218,3382.1987298107797 4493.801270189217,3338.8974596215567 4537.102540378439,3363.897459621555 4487.102540378442,3450.500000000001 4400.499999999996,3400.5000000000036 4450.499999999994,3313.8974596215585 4537.102540378439,3363.897459621555 4587.102540378439,3363.897459621553 4587.102540378441,3413.897459621553 4487.102540378441,3413.8974596215567 4487.102540378437,3313.8974596215567 4587.102540378437,3313.897459621553 4587.102540378441,3413.897459621553 4612.102540378442,3457.1987298107742 4568.801270189221,3482.1987298107756 4518.8012701892185,3395.5961894323336 4605.40381056766,3345.596189432331 4655.403810567663,3432.1987298107724 4568.801270189221,3482.1987298107756 4543.801270189223,3525.499999999998 4500.5,3500.5 4550.499999999996,3413.8974596215544 4637.102540378442,3463.897459621551 4587.102540378446,3550.4999999999964 4500.5,3500.5" stroke="black" stroke-linecap="round" stroke-width="5" /><polyline clip-path="url(#border_clip)" fill="none" points="0.5,4000.5 1000.4999999999986,4000.4999999999627 1000.5000000000359,5000.499999999962 0.5000000000372893,5000.499999999998 0.5,4000.5" stroke="black" stroke-linecap="round" stroke-width="5" /><polyline clip-path="url(#border_clip)" fill="none" points="500.5,4500.5 450.5,4500.500000000002 450.4999999999982,4450.500000000002 550.499999999998,4450.499999999998 550.5000000000016,4550.499999999998 450.5000000000018,4550.500000000002 450.4999999999982,4450.500000000002 425.49999999999636,4407.1987298107815 468.80127018921735,4382.19872981078 518.8012701892205,4468.801270189221 432.1987298107788,4518.801270189224 382.1987298107756,4432.198729810782 468.80127018921735,4382.19872981078 493.80127018921576,4338.897459621557 537.1025403784386,4363.897459621555 487.102540378442,4450.500000000001 400.49999999999636,4400.500000000004 450.4999999999932,4313.8974596215585 537.1025403784388,4363.897459621555 587.1025403784388,4363.897459621553 587.1025403784406,4413.897459621553 487.10254037844084,4413.897459621558 487.10254037843697,4313.897459621558 587.1025403784367,4313.897459621554 587.1025403784406,4413.897459621553 612.1025403784422,4457.198729810774 568.8012701892212,4482.198729810776 518.801270189218,4395.596189432334 605.4038105676598,4345.596189432331 655.403810567663,4432.198729810772 568.8012701892212,4482.198729810776 543.801270189223,4525.499999999998 500.5000000000002,4500.5 550.4999999999968,4413.897459621555 637.1025403784424,4463.897459621551 587.1025403784458,4550.499999999997 500.5000000000002,4500.500000000001" stroke="black" stroke-linecap="round" stroke-width="5" /><polyline clip-path="url(#border_clip)" fill="none" points="1000.5,4000.5 2000.4999999999982,4000.499999999961 2000.5000000000373,5000.499999999959 1000.5000000000391,5000.499999999998 1000.5,4000.5" stroke="black" stroke-linecap="round" stroke-width="5" /><polyline clip-path="url(#border_clip)" fill="none" points="1500.5,4500.5 1450.5,4500.500000000002 1450.499999999998,4450.500000000002 1550.4999999999977,4450.499999999998 1550.5000000000018,4550.499999999998 1450.5000000000018,4550.500000000002 1450.499999999998,4450.500000000003 1425.4999999999964,4407.1987298107815 1468.8012701892171,4382.19872981078 1518.8012701892205,4468.801270189222 1432.1987298107788,4518.801270189225 1382.1987298107754,4432.198729810783 1468.8012701892171,4382.19872981078 1493.8012701892153,4338.897459621558 1537.102540378438,4363.897459621556 1487.1025403784415,4450.500000000001 1400.499999999996,4400.500000000005 1450.4999999999923,4313.897459621559 1537.1025403784379,4363.897459621556 1587.1025403784379,4363.897459621553 1587.10254037844,4413.897459621553 1487.1025403784402,4413.897459621558 1487.102540378436,4313.897459621558 1587.102540378436,4313.897459621554 1587.1025403784402,4413.897459621553 1612.1025403784417,4457.198729810774 1568.8012701892208,4482.198729810776 1518.8012701892176,4395.596189432334 1605.403810567659,4345.596189432331 1655.4038105676625,4432.198729810772 1568.8012701892208,4482.198729810776 1543.8012701892226,4525.499999999998 1500.4999999999995,4500.5 1550.499999999996,4413.897459621555 1637.1025403784417,4463.897459621551 1587.1025403784454,4550.499999999996 1500.4999999999995,4500.5" stroke="black" stroke-linecap="round" stroke-width="5" /><polyline clip-path="url(#border_clip)" fill="none" points="2000.5,4000.5 3000.499999999998,4000.499999999959 3000.500000000039,5000.499999999957 2000.500000000041,5000.499999999998 2000.5,4000.5" stroke="black" stroke-linecap="round" stroke-width="5" /><polyline clip-path="url(#border_clip)" fill="none" points="2500.5,4500.5 2450.5,4500.500000000002 2450.499999999998,4450.500000000002 2550.4999999999977,4450.499999999998 2550.500000000002,4550.499999999998 2450.5000000000023,4550.500000000002 2450.499999999998,4450.500000000002 2425.4999999999964,4407.1987298107815 2468.801270189217,4382.19872981078 2518.8012701892208,4468.801270189221 2432.198729810779,4518.801270189224 2382.1987298107756,4432.198729810783 2468.801270189217,4382.19872981078 2493.8012701892153,4338.897459621557 2537.102540378438,4363.897459621555 2487.102540378442,4450.500000000001 2400.499999999996,4400.500000000005 2450.4999999999923,4313.8974596215585 2537.102540378438,4363.897459621555 2587.102540378438,4363.897459621553 2587.10254037844,4413.897459621553 2487.10254037844,4413.897459621558 2487.102540378436,4313.897459621558 2587.102540378436,4313.897459621553 2587.10254037844,4413.897459621553 2612.102540378442,4457.198729810773 2568.801270189221,4482.198729810775 2518.8012701892176,4395.596189432334 2605.403810567659,4345.59618943233 2655.4038105676627,4432.1987298107715 2568.801270189221,4482.198729810775 2543.801270189223,4525.499999999998 2500.5,4500.5 2550.4999999999964,4413.897459621554 2637.102540378442,4463.89745962155 2587.102540378446,4550.499999999996 2500.5,4500.5" stroke="black" stroke-linecap="round" stroke-width="5" /><polyline clip-path="url(#border_clip)" fill="none" points="3000.5,4000.5 4000.499999999998,4000.4999999999573 4000.500000000041,5000.4999999999545 3000.5000000000427,5000.499999999998 3000.5,4000.5" stroke="black" stroke-linecap="round" stroke-width="5" /><polyline clip-path="url(#border_clip)" fill="none" points="3500.5,4500.5 3450.5,4500.500000000002 3450.499999999998,4450.500000000002 3550.4999999999977,4450.499999999998 3550.500000000002,4550.499999999998 3450.5000000000023,4550.500000000002 3450.499999999998,4450.500000000003 3425.4999999999964,4407.1987298107815 3468.8012701892167,4382.19872981078 3518.8012701892203,4468.801270189221 3432.198729810779,4518.801270189225 3382.198729810775,4432.198729810783 3468.8012701892167,4382.19872981078 3493.801270189215,4338.897459621557 3537.102540378438,4363.897459621555 3487.1025403784415,4450.500000000001 3400.499999999996,4400.500000000005 3450.499999999992,4313.8974596215585 3537.102540378438,4363.897459621555 3587.102540378438,4363.897459621552 3587.10254037844,4413.897459621552 3487.1025403784406,4413.897459621557 3487.102540378436,4313.897459621558 3587.102540378436,4313.897459621553 3587.10254037844,4413.897459621552 3612.102540378442,4457.198729810773 3568.801270189221,4482.198729810775 3518.8012701892176,4395.596189432334 3605.403810567659,4345.59618943233 3655.4038105676627,4432.1987298107715 3568.801270189221,4482.198729810775 3543.801270189223,4525.499999999998 3500.5000000000005,4500.5 3550.4999999999964,4413.897459621554 3637.1025403784424,4463.89745962155 3587.102540378446,4550.499999999996 3500.5,4500.5" stroke="black" stroke-linecap="round" stroke-width="5" /><polyline clip-path="url(#border_clip)" fill="none" points="4000.5,4000.5 5000.499999999998,4000.499999999955 5000.500000000043,5000.499999999953 4000.500000000045,5000.499999999998 4000.5,4000.5" stroke="black" stroke-linecap="round" stroke-width="5" /><polyline clip-path="url(#border_clip)" fill="none" points="4500.5,4500.5 4450.5,4500.500000000002 4450.499999999998,4450.500000000002 4550.499999999998,4450.499999999998 4550.500000000002,4550.499999999998 4450.500000000003,4550.500000000002 4450.499999999998,4450.500000000003 4425.499999999996,4407.1987298107815 4468.801270189217,4382.19872981078 4518.80127018922,4468.801270189221 4432.19872981078,4518.801270189225 4382.198729810775,4432.198729810783 4468.801270189217,4382.19872981078 4493.801270189215,4338.897459621557 4537.102540378438,4363.897459621555 4487.1025403784415,4450.500000000001 4400.499999999995,4400.5000000000055 4450.499999999992,4313.897459621559 4537.102540378438,4363.897459621555 4587.102540378437,4363.897459621552 4587.10254037844,4413.897459621552 4487.10254037844,4413.897459621558 4487.102540378435,4313.897459621558 4587.102540378435,4313.897459621553 4587.10254037844,4413.897459621552 4612.1025403784415,4457.198729810773 4568.80127018922,4482.198729810775 4518.801270189217,4395.596189432334 4605.403810567658,4345.59618943233 4655.403810567663,4432.1987298107715 4568.80127018922,4482.198729810775 4543.801270189223,4525.499999999998 4500.5,4500.5 4550.499999999995,4413.897459621554 4637.1025403784415,4463.89745962155 4587.102540378446,4550.499999999996 4500.5,4500.5" stroke="black" stroke-linecap="round" stroke-width="5" /></svg>