<?xml version="1.0" encoding="utf-8" ?>
<svg baseProfile="full" height="1000px" version="1.1" width="1000px" xmlns="http://www.w3.org/2000/svg" xmlns:ev="http://www.w3.org/2001/xml-events" xmlns:xlink="http://www.w3.org/1999/xlink"><defs><clipPath id="border_clip"><rect height="1000" width="1000" x="0" y="0" /></clipPath></defs><polyline clip-path="url(#border_clip)" fill="none" points="500.5,500.5 504.32683432365087,499.73879532511285 507.5710678118655,497.5710678118655 509.9555680764376,494.00241097482944 510.79289321881345,489.79289321881345 509.8794476089489,485.2006920304324 507.27817459305203,481.30761184457486 503.0606710583731,478.4895660773533 498.0857864376269,477.5 492.7282183845156,478.565686544842 488.18629150101526,481.60050506338837 484.9347002311442,486.4668552957102 483.79289321881345,492.20710678118655 485.01082069863287,498.33004169902796 488.4791847198287,503.5208152801713 493.99438164979347,507.2059520526919 500.5,508.5 507.3883017825716,507.12983158520314 513.2279220613578,503.22792206135784 517.3466043365279,497.0638784337502 518.7928932188134,489.79289321881345 517.2704838690391,482.13922457151165 512.9350288425444,475.6507575950825 506.12213851729376,471.098529817263 498.0857864376269,469.5 489.66675092559495,471.1746502847517 482.5294372515229,475.94365081389594 477.5436639710539,483.4053878367895 475.79289321881345,492.20710678118655 477.6197844385426,501.3915091579487 482.82233047033634,509.17766952966366 490.93291419087274,514.5969883127822 500.5,516.5 510.44976924149233,514.5208678452934 518.8847763108503,508.8847763108502 524.7376405966181,500.12534589267085 526.7928932188134,489.79289321881345 524.6615201291295,479.077757112591 518.5918830920367,469.9939033455901 509.1836059762145,463.7074935571727 498.0857864376269,461.5 490.3212150845513,462.52222521132796 483.0857864376269,465.51923788646684" stroke="black" stroke-linecap="round" stroke-width="1" /><polyline clip-path="url(#border_clip)" fill="none" points="483.0857864376269,465.51923788646684 476.8725830020305,470.2867965644036 471.94610570149587,476.70710678118655 468.8491926038524,484.1837163830084 467.79289321881345,492.20710678118655 468.8832667775633,500.4893162244672 472.08008029771145,508.20710678118655 477.1654762208439,514.834523779156 484.0,520.0788383248864 491.9589715116168,523.3755522675392 500.5,524.5 509.29984753348566,523.3414780938283 517.5,519.944863728671 524.5416305603426,514.5416305603426 530.1037823512687,507.29289321881345 533.6002971389308,498.8515597974017 534.7928932188134,489.7928932188135 533.5662229652198,480.47540759512276 529.9698077550532,471.7928932188135 524.2487373415291,464.3370490960978 516.5857864376269,458.45706005997584 507.6620911064202,454.76074442730453 498.08578643762695,453.50000000000006 488.2506627237312,454.79481860101544 479.08578643762695,458.59103465619137 471.21572875253815,464.6299423149112 465.0179024712204,472.70710678118655 461.12178599353985,482.11316402218824 459.7928932188135,492.2071067811865 461.15586016725075,502.55986858528735 465.1518770674359,512.2071067811864 471.50862197135154,520.4913780286483 480.0,527.0070415551619 489.8884191507966,531.1029588778517 500.49999999999994,532.4999999999999 511.37039989430576,531.0688847041408 521.4999999999999,526.8730669589464 530.1984848098349,520.198484809835 537.0319855815442,511.29289321881345 541.3277037492433,500.92211215822186 542.7928932188133,489.7928932188135 541.2936295755323,478.40485523430266 536.8980109853287,467.79289321881356" stroke="black" stroke-linecap="round" stroke-width="1" /><polyline clip-path="url(#border_clip)" fill="none" points="536.8980109853287,467.79289321881356 529.9055915910214,458.6801948466055 520.5857864376269,451.5288568297004 509.73264346724034,447.03333781699206 498.08578643762695,445.5000000000001 486.180110362911,447.06741199070296 475.085786437627,451.6628314259159 465.55887450304584,458.9730880654189 458.089699240945,468.70710678118655 453.3943793832274,480.042611661368 451.79289321881356,492.2071067811865 453.4284535569383,504.63042094610745 458.2236738371605,516.2071067811864 465.85176772185923,526.1482322781407 476.0,533.9352447854374 487.81786678997645,538.8303654881643 500.49999999999994,540.4999999999999 513.4409522551259,538.7962913144534 525.4999999999999,533.8012701892219 535.8553390593272,525.8553390593273 543.9601888118196,515.2928932188134 549.0551103595558,502.992664519042 550.7928932188133,489.7928932188135 549.0210361858449,476.33430287348244 543.8262142156042,463.79289321881356 535.5624458405139,453.02334059711313 524.5857864376269,444.6006535994249 511.8031958280605,439.30593120667953 498.08578643762695,437.50000000000017 484.10955800209086,439.34000538039044 471.085786437627,444.7346281956404 459.9020202535535,453.3162338159265 451.1614960106695,464.70710678118655 445.66697277291485,477.97205930054787 443.7928932188136,492.2071067811865 445.70104694662575,506.7009733069276 451.295470606885,520.2071067811864 460.19491347236686,531.8050865276331 472.0,540.8634480157128 485.7473144291563,546.5577720984768 500.49999999999994,548.4999999999999 515.5115046159461,546.5236979247659 529.4999999999999,540.7294734194974" stroke="black" stroke-linecap="round" stroke-width="1" /><polyline clip-path="url(#border_clip)" fill="none" points="529.4999999999999,540.7294734194974 541.5121933088196,531.5121933088197 550.8883920420951,519.2928932188134 556.7825169698683,505.0632168798622 558.7928932188133,489.7928932188135 556.7484427961574,474.26375051266234 550.7544174458797,459.79289321881356 541.2193000900063,447.36648634762076 528.5857864376269,437.67245036914943 513.8737481888807,431.578524596367 498.085786437627,429.50000000000017 482.0390056412707,431.6125987700779 467.08578643762706,437.8064249653649 454.2451660040611,447.6593795664341 444.233292780394,460.70710678118655 437.9395661626023,475.9015069397277 435.7928932188136,492.20710678118644 437.9736403363132,508.77152566774777 444.3672673766095,524.2071067811864 454.5380592228745,537.4619407771254 468.0,547.7916512459883 483.67676206833613,554.2851787087892 500.49999999999994,556.4999999999998 517.5820569767662,554.2511045350783 533.4999999999999,547.6576766497728 547.169047558312,537.1690475583121 557.8165952723706,523.2928932188134 564.5099235801808,507.13376924068234 566.7928932188132,489.7928932188135 564.4758494064699,472.1931981518421 557.6826206761551,455.79289321881356 546.8761543394986,441.7096320981284 532.5857864376269,430.7442471388739 515.9443005497009,423.8511179860545 498.08578643762695,421.50000000000017 479.96845328045055,423.8851921597653 463.08578643762706,430.87822173508937 448.58831175456874,442.0025253169417 437.3050895501185,456.70710678118655 430.2121595522898,473.83095457890755 427.7928932188136,492.20710678118644 430.2462337260007,510.8420780285679 437.439064146334,528.2071067811863" stroke="black" stroke-linecap="round" stroke-width="1" /><polyline clip-path="url(#border_clip)" fill="none" points="437.439064146334,528.2071067811863 448.88120497338207,543.1187950266177 464.0,554.7198544762638 481.6062097075159,562.0125853191017 500.4999999999999,564.4999999999998 519.6526093375863,561.9785111453908 537.4999999999998,554.5858798800483 552.8259018078043,542.8259018078044 564.7447985026461,527.2928932188134 572.2373301904934,509.2043216015025 574.7928932188132,489.7928932188135 572.2032560167825,470.12264579102197 564.6108239064306,451.7928932188136 552.5330085889909,436.052777848636 536.5857864376269,423.81604390859843 518.014852910521,416.12371137574195 498.08578643762695,413.5000000000002 482.868741320369,414.9987481285482 468.23647871315,419.4373964641198 454.75130826209806,426.6453702404016 442.93145750507637,436.34567106744936 433.1067938469125,448.31705837263803 425.806410150422,461.9751156243444 421.3108560669584,476.79497134191234 419.7928932188136,492.20710678118644 421.33007078655515,507.8143325424767 425.8825306179106,522.8217813703935 433.2753242346099,536.6527254227545 443.22435072388964,548.7756492761101 455.4988111254122,558.8490385965059 469.5026419784276,566.334242133414 484.6976839166935,570.9436077126614 500.49999999999983,572.4999999999998 516.4974064053223,570.9243929930648 531.8800414539371,566.2581216659254 546.0567591076071,558.6805082088086 558.4827560572966,548.4827560572969 568.8048710399244,535.9052225594405 576.47489441725,521.555618105116 581.1980714922813,505.9853899461522 582.7928932188132,489.7928932188136 581.1788567726846,473.40530616945887 576.3987739497613,457.64748490014614" stroke="black" stroke-linecap="round" stroke-width="1" /><polyline clip-path="url(#border_clip)" fill="none" points="576.3987739497613,457.64748490014614 568.6363406522271,443.12499364516714 558.1898628384834,430.3959235991437 545.309256244293,419.8250829542839 530.6138781886596,411.97023973654086 514.6684638089979,407.13325116572565 498.085786437627,405.5000000000002 481.30801874424003,407.1524658853224 465.1750112542294,412.0463602040295 450.3067463979413,419.9936133419812 437.27460325558405,430.68881681795693 426.45503694849225,443.8724965084811 418.4153738903317,458.91364816542364 413.4645738237326,475.23424876578326 411.7928932188136,492.2071067811864 413.4837885433293,509.3750551186056 418.4914943578203,525.8832488293142 426.62356733618947,541.0972872869113 437.5674964743972,554.4325035256024 451.0542492612553,565.5007954949263 466.44117451950683,573.7252783935043 483.13696134056437,578.7898899558872 500.4999999999998,580.4999999999998 518.0581289814513,578.7706752362906 534.9415089128578,573.6491579260157 550.5013209717639,565.332265107229 564.139610306789,554.1396103067893 575.4566279383448,540.3497844235974 583.8659306773403,524.6170855640368 589.0443537355072,507.5461125222813 590.7928932188132,489.7928932188137 589.0251390159106,471.8445835933299 583.7898102098518,454.58601744122547 575.2880975506475,438.6804317810103 563.8467170879759,424.73906934965134 549.75381810845,413.1733260558635 533.6753456475803,404.5792034764506 516.229186385127,399.28696892249974 498.0857864376271,397.5000000000001 479.7472961681111,399.3061836420964 462.1135437953087,404.6553239439391 445.86218453378456,413.3418564435607 431.6177490060917,425.03196256846445" stroke="black" stroke-linecap="round" stroke-width="1" /><polyline clip-path="url(#border_clip)" fill="none" points="431.6177490060917,425.03196256846445 419.8032800500719,439.4279346443242 411.02433763024146,455.8521807065028 405.6182915805067,473.6735261896541 403.79289321881356,492.20710678118627 405.6375063001034,510.93577769473455 411.1004580977299,528.9447162882349 419.971810437769,545.541849151068 431.9106422249048,560.0893577750948 446.6096873970984,572.1525523933466 463.37970706058604,581.1163146535946 481.5762387644353,586.6361721991132 500.49999999999966,588.4999999999999 519.6188515575802,586.6169574795165 538.0029763717785,581.0401941861061 554.9458828359207,571.9840220056494 569.7964645562813,559.7964645562818 582.1083848367651,544.7943462877543 591.2569669374305,527.6785530229575 596.890635978733,509.1068350984104 598.7928932188133,489.79289321881373 596.8714212591365,470.28386101720093 591.1808464699421,451.5245499823048 581.939854449068,434.2358699168535 569.5035713374683,419.082215100159 554.198379972607,406.52156915744314 536.7368131065012,397.1881672163602 517.7899089612562,391.4406866792738 498.08578643762723,389.50000000000006 478.18657359198215,391.45990139887044 459.0520763363881,397.26428768384864 441.4176226696278,406.69009954514024 425.9608947565994,419.3751083189719 413.15152315165153,434.9833727801672 403.6333013701511,452.79071324758195 397.77200933728085,472.11280361352493 395.79289321881356,492.2071067811861 397.79122405687747,512.4965002708634 403.7094218376396,532.0061837471554 413.3200535393486,549.9864110152247 426.2537879754123,565.7462120245871 442.1651255329415,578.8043092917669 460.31823960166525,588.5073509136848" stroke="black" stroke-linecap="round" stroke-width="1" /><polyline clip-path="url(#border_clip)" fill="none" points="460.31823960166525,588.5073509136848 480.01551618830615,594.482454442339 500.4999999999996,596.4999999999998 521.1795741337091,594.4632397227423 541.0644438306991,588.4312304461964 559.3904447000774,578.6357789040699 575.4533188057736,565.4533188057742 588.7601417351855,549.2389081519111 598.6480031975209,530.7400204818783 604.7369182219588,510.66755767453947 606.7928932188133,489.7928932188138 604.7177035023623,468.7231384410719 598.5718827300325,448.4630825233841 588.5916113474884,429.79130805269676 575.1604255869607,413.4253608506666 558.6429418367638,399.8698122590228 539.798280565422,389.79713095626994 519.3506315373852,383.59440443604797 498.0857864376273,381.50000000000006 495.04282813878785,379.0577677650832 491.2968994339141,377.965929115948 487.0304224691429,378.43318433672664 483.26752255713797,380.4975819206484 480.3368438752377,384.14913187925566 479.02663749627544,388.6442463251042 479.57884821174116,393.6864463743793 482.0185908109214,398.1335099067487 486.2787324292966,401.5526350356323 491.52303261611985,403.0812091444217 497.3409557498988,402.4440429342689 502.47218290263277,399.6289553198302 506.3797544784997,394.76022204168714 508.1266963171161,388.7667361138891 507.40457461227635,382.17308989560627 504.2141419825791,376.35769912250777 498.73681704466816,371.9616810996575 491.9941453758954,369.99637153121404 484.6247760731087,370.80344873074085 478.1252216796457,374.36922637569654 473.240757209812,380.4551429733754 471.0570799115415,387.94700038312294 471.9491126057554,396.09209277041344 475.8902352659696,403.27581078424106" stroke="black" stroke-linecap="round" stroke-width="1" /><polyline clip-path="url(#border_clip)" fill="none" points="475.8902352659696,403.27581078424106 482.5847435234163,408.6487217010581 490.82578667413856,411.0507667291556 499.74660214593297,410.07377854025475 507.61448378012506,405.7573108647821 513.4758411439254,398.45421094756745 516.0962539018501,389.4639820558704 515.0343102182621,379.76744349957215 510.34249752753095,371.2153982450155 502.43080595054846,364.86559443423175 492.6913913178767,362.02681394648005 482.2191296770746,363.17371312475507 472.9829208021534,368.2408708307447 466.14467054438626,376.7611540674951 463.0875223268076,387.2497544411416 464.3193769997696,398.4977391664476 469.76187972101775,408.4181116617333 475.5359199240557,413.7090446998069 482.48260871481693,417.3252619947144 490.12854073215726,419.02032431388955 498.2134622650095,418.66732901642393 505.9315348712963,416.23383007118167 512.7567846576173,411.88566640973386 518.4004465648959,405.7266901931601 522.2577450127973,398.316888816348 524.065811486584,390.1612279978517 523.6900422989594,381.5546986241703 521.0995434217659,373.33868584973595 516.4708530724828,366.0730973675232 509.92694084237314,360.0767065910398 502.05402687951033,355.97832699014464 493.388637259858,354.0572563617461 484.26050004534744,354.45579943952987 475.5465471027655,357.2032982486744 467.8406199246611,362.1125152857929 461.4915002789728,369.0413635294384 457.15203952508375,377.37739007835194 455.1179647420736,386.5525084991603 455.53928171001644,396.2022535545001 458.44378045111205,405.4141466652295 463.63352417606586,413.56041253922564 470.94730843324726,420.2622610541188 479.7464475682116,424.84280296100167" stroke="black" stroke-linecap="round" stroke-width="1" /><polyline clip-path="url(#border_clip)" fill="none" points="479.7464475682116,424.84280296100167 489.43129479017597,426.98988189862354 499.6026476863449,426.54579104052164 509.3124809652219,423.4842923674749 517.8990855351096,418.01402195468575 524.9536629192078,410.3153016839685 529.7752859790845,401.0530499629534 532.035369071318,390.85847393983306 531.568504323057,380.1655132028349 528.3500057180592,369.9577397558104 522.5992086174347,360.93079649003096 514.5155523331816,353.5234902367279 504.79018802611574,348.4607860238574 494.08588320183935,346.0876987770122 482.87131462401203,346.5773374154322 472.16560100884,349.9528359523812 462.69831904716887,355.98415974084105 454.93828392466094,364.45275203862997 449.63449855879657,374.6412289317465 447.14840715733965,385.85526255717895 447.6608196859188,397.59143897583544 451.1933181548188,408.79509275915507 457.50516863111403,418.70271341671787 466.3586969424388,426.8154774084307 477.01028642160617,432.3603439272889 488.7340488481946,434.95943948335747 500.99183310768024,434.4242530646193 512.6934270591474,430.73475466376806 523.0413864126019,424.1423774996376 531.5068792735196,414.9039131747769 537.2928269453716,403.78921110955883 540.0049266560519,391.55571988181435 539.4469663471547,378.7763277814995 535.6004680143524,366.57679366188484 528.7275641623866,355.78849561253867 519.10416382399,346.970273882416 507.52634917272115,340.94324505757015 494.7831291438207,338.11814119227824 481.4821292026767,338.6988753913346 468.7846549149144,342.70237365608796 457.5560181696766,349.85580419588916 448.385067570349,359.86414054782153 442.1169575925093,371.9050677851411" stroke="black" stroke-linecap="round" stroke-width="1" /><polyline clip-path="url(#border_clip)" fill="none" points="442.1169575925093,371.9050677851411 439.1788495726057,385.15801661519765 439.7823576618211,398.9806243971708 443.9428558585256,412.17603885308057 451.37681308616214,423.8450142942101 461.7700854516304,433.36869376274257 474.2741252750007,439.87788489357615 488.03680290621327,442.9289970680914 502.3810185290156,442.3027150887169 516.0743731530729,437.98521696006134 528.1836872900941,430.27073304458946 538.0600956278315,419.49252466558534 544.8103679116589,406.52537225616425 547.9744842407858,392.25296582379576 547.3254283712523,377.3871423601642 542.8509303106456,363.1958475679594 534.8559197073383,350.6461947350465 523.6927753147984,340.41705752810424 510.26251031932657,333.42570409128297 495.480375085802,330.1485836075443 480.0929437813413,330.82041336723694 465.403708820989,335.4519113597948 452.4137172921844,343.72744865093733 441.8318512160372,355.27552905701316 434.5994166262221,369.16890663853576 431.2092919878718,384.4607706732163 431.90389563772345,400.36980981850616 436.6923935622324,415.5569849470061 445.24845754121026,428.98731517170233 457.18147396082196,439.9219101170545 471.5379641283953,447.3954258598634 487.33955696423186,450.8985546528254 503.7702039503509,450.1811771128147 519.4553192469983,445.2356792563546 533.3259881675863,436.3990885895414 544.6133119821434,424.0811361563939 552.3279088779461,409.26153340276977 555.9440418255198,392.95021176577717 555.20389039535,375.99795693882896 550.1013926069388,359.81490147403395 540.9842752522902,345.5038938575543 528.2813868056069,333.86384117379237 512.998671465932,325.9081631249958" stroke="black" stroke-linecap="round" stroke-width="1" /><polyline clip-path="url(#border_clip)" fill="none" points="512.998671465932,325.9081631249958 496.1776210277834,322.17902602281043 478.703758360006,322.9419513431393 462.0227627270635,328.20144906350157 447.27141641469217,337.59909310598545 435.2786348617253,350.68691756620467 427.0818756599349,366.4327454919303 423.23973440313785,383.7635247312349 424.0254336136258,401.7589952398415 429.44193126593916,418.9379310409315 439.12010199625837,434.1296160491945 452.5928624700135,446.4751264713663 468.8018029817898,454.9129668261506 486.64231102225045,458.86811223755933 505.15938937168625,458.0596391369123 522.8362653409238,452.48614155264784 538.4682890450786,442.5274441344933 551.1665283364551,428.6697476472023 559.8454498442333,411.99769454937524 563.9135994102537,393.6474577077586 563.0823524194476,374.60877151749366 557.351854903232,356.4339553801085 547.1126307972422,340.36159298006214 532.8699982964154,327.3106248194806 515.7348326125375,318.39062215870865 496.87486696976487,314.20946843807656 477.3145729386707,315.06348931904165 458.64181663313803,320.95098676720835 442.1291155372,331.47073756103356 428.7254185074135,346.09830607539624 419.56433469364777,363.6965843453248 415.27017681840397,383.0662787892535 416.14697158952816,403.14818066117675 422.19146896964594,422.318877134857 432.99174645130654,439.27191692668674 443.9211821842301,449.9654730523815 456.72682118225396,458.32132835903815 470.91654992016913,464.0183720132394 485.9450650802691,466.8376698222932 501.43085187063923,466.6687393926087 516.5861269181717,463.48192778215554 530.8284815019657,457.39970237393885 543.6105899225707,448.6557996794452" stroke="black" stroke-linecap="round" stroke-width="1" /><polyline clip-path="url(#border_clip)" fill="none" points="543.6105899225707,448.6557996794452 554.5783397950781,437.4461220046518 563.1484478019055,424.31213328872985 568.9915694985222,409.7585653524066 571.8831569949876,394.3447036497399 571.7099498455643,378.4668716241705 568.4424594601629,362.9279187273335 562.2062536618648,348.32499820470923 553.240986342194,335.21929210256985 541.7510667255308,323.9773484832497 528.2887282917109,315.19298777625175 513.3713211569795,309.2037880372196 497.5721129117462,306.2399108533425 481.30223565097754,306.4173947225047 465.3796049048359,309.7655638828543 450.4161184433814,316.1557500712338 436.98681465970776,325.3423820160816 425.4706772935749,337.1125435746147 416.4720638864062,350.9032317263327 410.3367861049587,366.1844780594721 407.3006192336699,382.3690328472721 407.482379822571,399.03095534323995 410.9112277578687,415.3372639386862 417.4553943363297,430.661316338971 426.86339090635454,444.4142178041789 438.9137944067574,456.2045489171245 453.0328322763735,465.4174150244638 468.67791780792095,471.6987708483268 485.24781913828764,474.8072274070272 502.30178686945476,474.6211900983873 518.9917733142056,471.1116633881414 534.6763916533206,464.413516419599 548.7528908000629,454.78415522439707 560.8174156598211,442.45350978212434 570.2445344673312,428.00612219461027 576.6719683336095,411.9971974646547 579.8527145797216,395.0419495917214 579.6624005513428,377.59593662535497 576.0721950661488,360.5222723312995 569.2200677075249,344.47708805335424 559.369341887146,330.0769912250777 546.7584545030033,317.7382726185068 531.9827171975912,308.096901110826" stroke="black" stroke-linecap="round" stroke-width="1" /><polyline clip-path="url(#border_clip)" fill="none" points="531.9827171975912,308.096901110826 515.6099532692276,301.5233892021323 498.26935885372757,298.2703532686086 480.43130065216195,298.4649440167262 462.97395850880184,302.13582827686844 446.5682082920264,309.1419360255737 431.84451378221553,319.2140264711297 419.23160142883194,332.1051557971421 409.37597722098053,347.2092428204523 402.6563872698713,363.94584594722403 399.331061648936,381.6717869052907 399.52992911679246,399.90189034205554 403.28149215188284,417.74291033472025 410.44158029066955,434.50922649032594 420.73503536140265,449.55651868167115 433.9064066292849,462.4436247818674 449.3388433704931,472.5135016898895 466.439285695673,479.37916968341415 484.5505731963063,482.7767849917611 503.1727218682704,482.5736408041658 521.3974197102398,478.74139899412717 538.5243018046757,471.42733046525905 553.8951916775551,460.9125107693489 567.0564915245641,447.46089755959684 577.340621132757,431.7001111004905 584.3523671686969,414.23582957690263 587.8222721644555,395.7391955337026 587.6148512571214,376.72500162653927 583.7019306721346,358.11662593526535 576.2338817531851,340.6291779019992 565.4976974320978,324.9346903475854 551.7658422804759,311.4991967537637 535.6767061034716,301.00081444540024 517.8485853814756,293.8429903670448 498.966604795709,290.3007956838746 479.5603656533463,290.51249331094755 460.5683121127678,294.50609267088254 442.7202981406714,302.12812197991354 426.7022129047233,313.08567092617784 412.99252556408896,327.09776801966956 402.2798905555548,343.51525391457193 394.97598843478397,361.707213834976 391.36150406420205,380.9745409633093" stroke="black" stroke-linecap="round" stroke-width="1" /><polyline clip-path="url(#border_clip)" fill="none" points="391.36150406420205,380.9745409633093 391.5774784110139,400.7728253408712 395.65175654589706,420.14855673075436 403.4277662450095,438.35713664168094 414.60667981645076,454.6988195591634 428.89901885181234,468.6827006466104 445.64485446461276,479.6095883553152 464.2006535834249,487.0595685185015 483.85332725432494,490.746342576495 504.04365686708604,490.52609150994437 523.8030661062738,486.371134600113 542.3722119560307,478.4411445109191 559.0374925550474,467.0408663143008 573.295567389307,452.46828533706935 584.4367077981826,435.3941000063709 592.0327660037842,416.47446168915064 595.7918297491894,396.436441475684 595.5673019628999,375.8540666277236 591.3316662781203,355.71097953923123 583.247695798845,336.78126775064413 571.6260529770497,319.79238947009316 556.7732300579485,305.26012088902075 539.370695009352,293.90472777997456 520.0872174937235,286.16259153195745 499.66385073769027,282.33123809914065 478.68943065453067,282.560042605169 458.16266571673367,286.8763570648967 438.87238798931634,295.1143079342535 421.559912027231,306.95731538122595 406.75344969934594,322.090380242197 395.18380389012907,339.82126500869157 387.29558959969654,359.468581722728 383.3919464794681,380.277295021328 383.6250277052353,401.64376033968676 388.0220209399112,422.5542031267884 396.4139521993494,442.20504679303593 408.47832427149893,459.84112043665556 408.56344173042163,463.7419983527059 410.13488135873104,467.31336657683534 413.2352581540948,470.28133168091557 417.23542389157365,471.83691106010815 421.916477390834,471.7347701094009 426.20211925978936,469.84904255542966" stroke="black" stroke-linecap="round" stroke-width="1" /><polyline clip-path="url(#border_clip)" fill="none" points="426.20211925978936,469.84904255542966 429.70971438279327,466.18496088818154 431.5481263763845,461.45749228934295 431.4289619338927,455.9962632068725 429.2289464542596,450.99634769309125 425.0011599151271,446.94912255116367 419.5463884549288,444.8278779431738 413.30498378924824,444.96406587745014 407.59079463064114,447.4783692827451 403.0039394697898,452.2698606937619 400.5998622474013,458.4519350153201 400.75307367346215,465.4735152642106 403.58166500441905,471.90197806764365 408.9368612873202,477.02846324741864 415.8462384702381,479.7153730842058 423.64799430233876,479.5451381663604 430.7907307505976,476.40225890974165 436.4568459492963,470.48335775495616 439.42658840048216,462.8466777106785 439.2393299908522,454.26474629536773 435.78216280857157,446.407736202283 429.29955678190174,440.20199098466065 420.93557387626424,436.94941591907616 411.5734668777435,437.15369782049066 403.0021831398328,440.9251529284332 396.2568079032868,447.9714638269873 392.7214002233037,457.06274959398456 392.94270561650274,467.2050321757154 397.0284486501071,476.4905895584519 404.6384644205456,483.77559481392166 414.4570530489026,487.59383510830344 425.3795112138435,487.3555062233198 435.3793422414059,482.9554752640536 443.2039775157993,474.7817546217308 447.30505042457975,464.23586313201395 447.6466587769659,456.41174551957636 445.9515964577909,448.765813502236 442.33537916288344,441.8191247114747 436.86808169020753,435.85261650166876 430.0428319038865,431.5044528402209 422.3247592975997,429.0709538949785 413.97903384433295,428.70657165243324 405.82337302583664,430.51463812622" stroke="black" stroke-linecap="round" stroke-width="1" /><polyline clip-path="url(#border_clip)" fill="none" points="405.82337302583664,430.51463812622 398.41357164902456,434.37193657412126 392.0621274256828,440.19196291600207 387.4334370763995,447.4575513982147 384.84293819920606,455.67356417264904 384.4557820665017,464.54089746674504 386.37685269490004,473.20628708639737 390.47523229579514,481.07920104926023 396.6479875068809,487.8155812861379 404.35391468498517,492.72479832325644 413.06786762756707,495.4722971324011 422.4568087624922,495.8822271552645 431.6319271833006,493.84815237225445 439.96795373221414,489.50869161836556 447.0892699826277,482.9832075380749 452.2790137075816,474.8369416640789 455.18351244867733,465.62504855334953 455.61621636169986,455.7144995775952 453.46913742407816,446.0296523556308 448.8885955171954,437.23051322066647 442.0103825676999,429.7242609567171 433.4237779978122,424.2539905439278 423.7139447189353,421.19249187088093 413.28178790235177,420.73701406769936 403.0872118792314,422.9970971599327 393.8249601582163,427.8187202198093 385.933771880731,435.0496620385097 380.1829747801064,444.07660530428905 376.9644761751084,454.2843787513135 376.48622448176775,465.2381434087262 378.8593117286128,475.94244823300266 383.92201594148315,485.6678125400685 391.5056866293885,493.9439368310896 400.97296859105955,499.9752606195496 411.67868220623154,503.35075915649867 423.1540547044734,503.85178473999844 434.36808832990585,501.36569333854175 444.55656522302246,496.06190797267755 453.21762552757946,488.1255084155673 459.5294760038748,478.2178877580046 463.061974472775,467.01423397468506 463.58577394643385,455.017253635614 460.98667839036546,443.29349120902555" stroke="black" stroke-linecap="round" stroke-width="1" /><polyline clip-path="url(#border_clip)" fill="none" points="460.98667839036546,443.29349120902555 455.4418118715074,432.6419017298582 447.1526834451923,423.59590541176533 436.8047240917379,417.0035282476347 425.1031301402709,413.31402984678334 412.58454196037064,412.7674564829654 400.35105073262616,415.4795561936454 389.23634866740804,421.2655038654973 379.8054163357793,429.9073611610173 372.9325124838133,440.6956592103634 369.0860141510108,452.895193329978 368.5166668970338,465.93538935070734 371.3417707623255,478.67860937960785 377.36879958717117,490.25642403087676 386.3633857518961,500.07229237604133 397.5920224971338,507.2257229158427 410.28949678489596,511.22922118059626 423.8513006464545,511.82134232473237 437.10424947651103,508.883234304829 449.14517671383066,502.6151243269895 459.3459810725311,493.26780929305966 466.7799383001678,481.5988338519303 470.94043649687256,468.4034193960206 471.5553315311677,454.3200076936329 468.5042193566527,440.5573300624203 461.99502822581934,428.05329023904994 452.2949843226846,417.4675498668136 440.1856701856636,409.75306595134157 426.49231556160635,405.4355678226857 411.88729601838946,404.79789889823144 397.6148895860209,407.96201522735817 384.6477371765998,414.7122875111853 373.67706079082757,424.765060283525 365.68205018752013,437.3147131164377 361.2075521269132,451.5060079086424 360.5471093122999,466.63263529268846 363.82422979603825,481.4147705262131 370.81558323285924,494.84503552168496 381.22108487440374,506.20064792099305 394.21107640320815,514.4761852121358 408.9003113635604,519.1076832046939 424.54854658843567,519.7908999094662 439.84041062311627,516.4007752711162" stroke="black" stroke-linecap="round" stroke-width="1" /><polyline clip-path="url(#border_clip)" fill="none" points="439.84041062311627,516.4007752711162 453.7337882046389,509.16834068130146 465.47433661748283,498.41011017055206 474.03040059646094,484.97977994585597 478.81889852097015,469.79260481735616 479.52488911590166,453.62276175165175 476.02176032293994,437.8211689158151 468.5482445801313,423.4646787482417 457.43728520017703,411.3391943218619 443.56661627958925,402.50260365504846 427.88150098294193,397.5571057985881 411.19005007640834,396.8283413134975 394.8787284394157,400.4444742610709 380.0591256857915,408.1590711568733 367.54870524587585,419.62275940603257 358.4315878912271,433.93376702251203 353.3290901028156,450.1168224873069 352.57755172756595,467.32988123466964 356.30668882975095,484.1509316728183 364.26236687854725,499.4336470124932 376.07878399691134,512.3290034659448 390.8301303092824,521.7266475084289 407.51112594222485,526.9861452287914 425.2457925304168,527.7604574942002 442.57657176972145,523.9183162374036 458.32239969544713,515.7215570356134 471.60269216243455,503.5524110480444 481.28086289275404,488.36072603978164 486.69736054506774,471.18179023869175 487.4944467006356,452.9255158096706 483.5393012892272,435.08500776920994 475.10146093444325,418.8760672574335 462.5795860776694,405.21083877691024 446.9475623735149,395.25214135875535 429.2706864042775,389.6786437744905 410.4928041344272,388.8587837287636 392.14256729281044,392.9269332947836 375.47051419498325,401.6058548025614 361.42034970092413,414.48045852854017 351.1811255949339,430.5528209285863 345.45062807871795,448.7276370659713 344.607994142832,468.02712717665077 348.78914786346365,486.8870928194235" stroke="black" stroke-linecap="round" stroke-width="1" /><polyline clip-path="url(#border_clip)" fill="none" points="348.78914786346365,486.8870928194235 357.70915052423527,504.0222585033015 370.93648311941894,518.4573590108964 387.4491842153567,528.977109804722 406.1219405208892,534.8646072528891 425.94303847239786,535.7300150789342 445.31273291632664,531.4358572036908 462.91101118625534,522.2747733899255 477.7310477073862,508.69471192553686 488.53132518904715,491.74167213370737 494.5758225691653,472.57097566002733 495.7422559464462,457.32485676931105 493.91190638956834,442.1441279148348 489.1551132055306,427.61217599302535 481.6546772887553,414.2874557666252 471.5711971967244,402.5332412356371 459.3883348493244,392.97207001913966 445.57427081433786,385.9713725650164 430.6598718256131,381.8001817503929 415.02282680949384,380.6038398249766 399.45284849721054,382.48112142177445 384.5482824235598,387.3598836618131 370.881902704175,395.05263844824935 358.8301131217695,405.39139651729363 349.02688693776577,417.88268575956454 341.8489566367027,432.0464729346773 337.5721660546203,447.33845164463565 336.34591558106865,463.3664227861579 338.27012921778646,479.32565055624826 343.27086051382605,494.6028307817403 351.15593416992317,508.61086999410963 361.74997021598097,520.9602346279327 374.54968635312275,531.0055157794426 389.06319666836174,538.3606789274455 404.73275509955363,542.7430692769867 421.15165236647886,543.9992282986738 437.50012959437635,542.028082622036 453.1499239717096,536.9053822699955 467.4996226770636,528.8279897442374 480.146562362304,517.9786757211662 490.4338984813202,504.8705326891535 497.966294476263,490.0072992337883 502.45428459326297,473.96016108136286" stroke="black" stroke-linecap="round" stroke-width="1" /><polyline clip-path="url(#border_clip)" fill="none" points="502.45428459326297,473.96016108136286 503.74035216308545,457.1503376890347 501.72227444652776,440.4126110033301 496.4776050384862,424.39020247415556 488.2078936430673,409.69884427581695 477.1033016429826,396.75432953915913 463.6867317160991,386.22493845263665 448.47377512060757,378.5153096107541 432.0490572469486,373.92171972629524 414.8483077292175,372.6057436083373 397.7213315857058,374.67075336481497 381.32630890469,380.0373918288575 366.29329121336673,388.49942209393737 353.05120142529154,399.85929207103544 342.2797553712628,413.5842888927899 334.39289368244033,429.1469686284076 329.69370403052267,445.9492662233001 328.34781936442937,463.54094186643425 330.45976116082693,481.05716746775295 335.9483686808705,497.8248043006101 344.60271781561124,513.1994814849179 356.2178657697227,526.7391463244106 370.2512894863481,537.7526473459455 386.16369236209204,545.8167418817078 403.3435696782181,550.6215313010842 421.3261714467552,551.997324515313 439.23164650588103,549.8384506789955 456.3718974905794,544.227874102951 472.08823416787186,535.3812060985493 485.92547405878196,523.5107801674244 497.18103004782324,509.1689295559282 505.42235743052527,492.906803540058 510.3327466173606,475.3493465026984 511.73844837972473,456.9758186087583 509.53264250348724,438.6810940918254 503.80009687144184,421.16822895528577 494.76110999737926,405.1102327850087 482.63540608924086,390.97541784268117 467.98512858287376,379.47780688613364 451.37327942687733,371.0592466564917 433.43824266828415,366.0432577021976 414.67378864894107,364.60764739169804 395.9898146742011,366.8603853078555" stroke="black" stroke-linecap="round" stroke-width="1" /><polyline clip-path="url(#border_clip)" fill="none" points="395.9898146742011,366.8603853078555 378.1043353858202,372.7148999959019 361.70467972255847,381.9462057396254 347.2722897288136,394.3271876247772 335.5326238047598,409.2858920260152 326.93683072817805,426.2474643221379 321.81524200642514,444.56008080196455 320.3497231477902,463.7154609467106 322.6493931038675,482.7886843792577 328.6258768479149,501.04677781947987 338.0495014612993,517.7880929757262 350.6857613234646,532.5180580208885 365.95289261957345,544.4997789124485 383.2641880558224,553.2728048359701 401.9543842568826,558.4999933251819 421.5006905270316,559.9954207319522 440.9631634173858,557.6488187359549 459.5938710094492,551.5503659359066 476.6768456586801,541.9344224528613 491.7043857552599,529.0428846136826 503.9281616143262,513.4673264227029 512.8784203847875,495.8063078463277 518.2112086414581,476.7385319240339 519.736544596364,456.8012995284819 517.3430105604467,436.94957718032066 511.1225887043974,417.946255436416 501.3143263516912,400.5216212942004 488.16751053549905,385.1965061462032 472.2835254496484,372.7306753196307 454.272783733147,363.60318370222944 434.82742808961973,358.16479567810006 414.4992695686647,356.60955117505887 394.25829776269643,359.0500172508961 374.8823618669504,365.39240816294637 357.1160682317502,375.39298938531346 341.4933780323356,388.79508317851906 328.7854922382568,404.9874951592406 319.4807677739157,423.34796001586824 313.9367799823275,443.1708953806291 312.3516269311509,463.889980026987 314.83902504690803,484.52020129076243 321.3033850149593,504.26875133834966 331.4962851069873,522.3767044665344" stroke="black" stroke-linecap="round" stroke-width="1" /><polyline clip-path="url(#border_clip)" fill="none" points="331.4962851069873,522.3767044665344 345.15365687720634,538.2969697173666 361.65449575279877,551.2469104789516 380.3646837495526,560.7288677902325 400.565198835547,566.3784553492795 421.675209607308,567.9935169485915 442.69468032889046,565.4591867929145 462.81584452831896,558.8728577688622 481.2654571494884,548.4876388071733 497.4832974517378,534.5749890599409 510.6752931808292,517.7657232894776 520.3344833390499,498.70581215259745 526.0896706655558,478.1277173453695 529.0232040684682,475.5550775976124 530.7489289284465,472.0556537585504 531.0296383143788,467.7728561480021 529.6500242808958,463.7086442624227 526.5628565835872,460.18840417892784 522.3635479767128,458.11753434695385 517.3020598915194,457.78578689085214 512.4989003903801,459.4162398395139 508.3919536263027,463.01793548637386 505.97593882233303,467.91712886106063 505.5931532960618,473.75730742089917 507.4744451599023,479.2994145375984 511.59066875631373,483.9930679822582 517.1897468988128,486.7542277582236 523.8086159332966,487.18805135466425 530.0896706655557,485.055920575645 535.370030790798,480.4251690296822 538.476335538759,474.1262061193707 538.9611972053692,466.72864661024187 536.5782275111712,459.7086442624228 531.432948015657,453.8415774565981 524.4341003375331,450.3901277366414 516.2578503537591,449.8542279998617 508.4989003903802,452.48803660923835 502.04512690397297,458.1478440543041 498.24853221202056,465.84657650024036 497.6615944050714,474.8015169586595 500.54624192962683,483.2994145375983 506.72057732424395,490.33989470458795 515.1191945379926,494.48163436853605" stroke="black" stroke-linecap="round" stroke-width="1" /><polyline clip-path="url(#border_clip)" fill="none" points="515.1191945379926,494.48163436853605 524.8528254710569,495.1196102456547 534.0896706655556,491.98412380592055 541.7168575131277,485.295260461752 546.2037421490714,476.1967584801909 546.8927560963597,465.6844370724815 543.5064307414467,455.7086442624229 536.3030394477267,447.4947507342683 526.5046526983533,442.66272112632885 515.2136408159988,441.9226691088712 504.4989003903803,445.5598333789629 498.2856969547838,450.3273920568995 493.5181382768471,456.5405954924958 490.5211256017081,463.77602413942014 489.4648262166691,471.79941453759824 490.5211256017079,479.82280493577633 493.6180386993513,487.2994145375982 498.7034346224837,493.9268315355677 505.33085162045313,499.0122274587003 513.0486421771724,502.2090409788485 521.5896706655556,503.33348871130937 530.1306991539386,502.20904097884875 538.0896706655554,498.9123270361961 545.1313012258981,493.5090938678679 550.5345343942265,486.46746330752535 553.931148759384,478.2673108410112 555.1237448392667,469.208644262423 553.9311487593842,460.1499776838348 550.4346339717223,451.70864426242304 544.7135635581983,444.2528001397073 537.2577194354827,438.53172972618313 528.5752050591735,434.93531451601643 518.9989003903804,433.6745700887118 509.42259572158713,434.93531451601615 500.4989003903804,438.63163014868735 492.62884270529156,444.6705378074071 486.58993504657167,452.54059549249575 482.7937189913956,461.7054717785999 481.46482621666917,471.79941453759807 482.7937189913954,481.8933572965964 486.6898354690758,491.299414537598 493.0465803729913,499.58368578505997 501.3308516204531,505.94043068897565" stroke="black" stroke-linecap="round" stroke-width="1" /><polyline clip-path="url(#border_clip)" fill="none" points="501.3308516204531,505.94043068897565 510.9780898163521,509.93644758916093 521.5896706655553,511.3334887113093 532.2012515147587,509.9364475891612 542.0896706655553,505.84053026647155 550.7881554753903,499.1659481173603 557.4627376245019,490.46746330752546 561.6585553696964,480.33786320183145 563.1237448392666,469.20864426242315 561.6585553696967,458.0794253230148 557.3628372019978,447.7086442624232 550.3704178076907,438.5959458902151 541.2577194354828,431.6035264959078 530.6457574199939,427.20790790570396 518.9989003903805,425.6745700887119 507.35204336076714,427.2079079057037 496.4989003903806,431.7034269184118 486.97198845579936,439.01368355791465 479.6617318162963,448.54059549249564 475.0663123810832,459.63491941777954 473.4648262166693,471.79941453759795 475.06631238108287,483.96390965741637 479.7616322388003,495.29941453759784 487.38972612349886,505.24054003455217 497.330851620453,512.868633919251 508.90753745553184,517.6638541994733 521.5896706655552,519.3334887113092 534.2718038755787,517.6638541994737 546.0896706655552,512.768733496747 556.4450097248825,504.8228023668527 564.3909408547772,494.4674633075255 569.3859619800089,482.4084155626517 571.1237448392666,469.20864426242326 569.3859619800093,456.00887296219474 564.2910404322733,443.7086442624233 556.0272720571832,432.93909164072284 545.257719435483,424.6753232656324 532.7163097808142,419.4805012953915 518.9989003903806,417.67457008871196 505.28149099994715,419.48050129539115 492.49890039038075,424.7752236881363 481.31513420630716,433.35682930842216 472.73352858602095,444.5405954924955" stroke="black" stroke-linecap="round" stroke-width="1" /><polyline clip-path="url(#border_clip)" fill="none" points="472.73352858602095,444.5405954924955 467.3389057707708,457.56436705695927 465.4648262166694,471.7994145375978 467.3389057707704,486.03446201823635 472.83342900852483,499.29941453759767 481.7328718740065,510.89739428404437 493.33085162045296,519.7968371495264 506.8369850947116,525.3912608097858 521.5896706655551,527.3334887113091 536.3423562363987,525.3912608097862 550.089670665555,519.6969367270226 562.1018639743749,510.4796566163451 571.3191440850526,498.4674633075256 577.1133685903213,484.47896792347194 579.1237448392665,469.2086442624234 577.1133685903218,453.93832060137476 571.2192436625488,439.7086442624235 561.6841263066756,427.2822373912306 549.257719435483,417.747120035357 534.7868621416344,411.7530946850791 518.9989003903809,409.674570088712 503.21093863912716,411.7530946850786 488.4989003903809,417.8470204578607 475.6582799568149,427.69997505892974 465.8053253557456,440.5405954924954 459.6114991604584,455.49381469613894 457.46482621666945,471.7994145375976 459.6114991604579,488.10501437905634 465.9052257782493,503.2994145375975 476.07601762451407,516.5542485335366 489.33085162045285,526.7250403798017 504.7664327338913,533.1186674200982 521.589670665555,535.333488711309 538.4129085972188,533.1186674200987 554.0896706655549,526.6251399572981 567.758718223867,516.1365108658375 578.2473473153279,502.46746330752563 584.8407752006337,486.5495202842922 587.1237448392664,469.2086442624235 584.8407752006342,451.8677682405547 578.1474468928243,435.7086442624236 567.340980556168,421.6253831417383 553.2577194354831,410.8189168050816" stroke="black" stroke-linecap="round" stroke-width="1" /><polyline clip-path="url(#border_clip)" fill="none" points="553.2577194354831,410.8189168050816 536.8574145024547,404.0256880747666 518.9989003903809,401.6745700887121 501.1403862783071,404.0256880747661 484.49890039038104,410.91881722758524 470.00142570732265,422.0431208094373 458.8771221254702,436.5405954924954 451.8840925501459,453.4232623353187 449.4648262166695,471.7994145375975 451.8840925501454,490.1755667398764 458.9770225479738,507.2994145375974 470.41916337502164,522.2111027830289 485.3308516204528,533.6532436100772 502.6958803730711,540.8460740304107 521.5896706655549,543.333488711309 540.4834609580388,540.8460740304113 558.0896706655548,533.5533431875735 573.4155724733594,521.79336511533 585.1755505456034,506.4674633075257 592.5681818109463,488.6200726451125 595.1237448392664,469.2086442624236 592.5681818109467,449.79721587973467 585.0756501230999,431.7086442624237 572.9978348056604,415.96852889224607 557.2577194354832,403.8907135748062 538.927966863275,396.29828146445413 518.9989003903811,393.67457008871213 499.0698339174871,396.29828146445357 480.4989003903812,403.99061399730977 468.0699268125758,412.89709050913547 457.6173398476647,424.05720402981524 449.54282655083125,437.04207765541315 444.15668593983344,451.35270997449845 441.63397128082,466.63256732841614 442.14068216813837,482.1109837229814 445.6573459865558,497.19313229654705 452.04881931769825,511.2994145375973 461.1836670221349,524.0470797456028 472.6299372997552,534.7676817608962 485.94775640293255,543.0492338602126 500.6253280122508,548.5734806407231 516.2920171979132,551.1600614936357 532.1622922353789,550.6405224825877" stroke="black" stroke-linecap="round" stroke-width="1" /><polyline clip-path="url(#border_clip)" fill="none" points="532.1622922353789,550.6405224825877 547.6262673551107,547.0348292004129 562.0896706655546,540.4815464178491 575.1560275037602,531.1183275208016 586.144644569436,519.3859004862408 594.6332354712354,505.735135905484 600.2955884212587,490.6906250059328 602.9460354680702,474.6371039885256 602.4136683332928,458.37497030815956 598.7189455873605,442.5291686422615 592.0038533533755,427.70864426242395 582.4122632637169,414.3235957940181 570.3936794722157,403.06696367796 556.4099694138795,394.3713339736778 540.9985192240953,388.5708748541417 524.5581663749434,385.856561613431 507.90417405167693,386.4017568719381 491.6765458396127,390.18550908162774 476.49890039038144,397.0624107670342 462.79516029177546,406.88237204930357 451.27051312533507,419.18711259774534 442.36784461856996,433.50376813366097 436.4292793295211,449.2821576136781 433.6510998949113,466.1093422945748 434.209123277148,483.15519326074156 438.08190495059506,499.7646480189721 445.1206160874228,515.299414537597 455.16894856230306,529.3218462664031 467.7598458676854,541.1145084832258 482.40944688118043,550.2242157924738 498.55477565143053,556.3008872510355 515.7687921640719,559.1429328795443 533.2065017731392,558.572081373578 550.1977830775359,554.6102702363736 566.0896706655544,547.4097496481246 580.4307940245607,537.1330459806334 592.4914712917657,524.2559919183105 601.8082174034967,509.2734454272361 608.0229950315711,492.76117736675303 610.928906853979,475.16032902236685 610.3452272242831,457.33076077039925 606.2943866233213,439.95765291983633 598.9320565836509,423.70864426242406" stroke="black" stroke-linecap="round" stroke-width="1" /><polyline clip-path="url(#border_clip)" fill="none" points="598.9320565836509,423.70864426242406 588.4269817235488,409.0488292732177 575.2637709042855,396.7201369556303 559.9482789356316,387.19635204141645 543.0690715849156,380.8434682438293 525.0813914087846,377.8736902275223 506.8599645139167,378.4701979809477 489.10503011718754,382.61006804566694 472.4989003903816,390.13420753675865 457.5203937709751,400.86765358947173 444.9236864030053,414.31702116567556 435.19286268630856,429.96545861190884 428.70187271920867,447.2116052528578 425.6682285090026,465.5861172607335 426.27756438615756,484.19940279850186 430.5064639146342,502.33616374139723 438.19241285714725,519.2994145375968 449.1542301024712,534.5966127872035 462.88975443561554,547.4613352055555 478.87113735942836,557.3991977247352 496.4842232906102,564.028293861348 515.2455671302307,567.1258042654531 534.2507113108994,566.5036402645685 552.769298799961,562.1857112723344 570.0896706655543,554.3379528784001 585.7055605453611,543.1477644404652 598.8382980140955,529.1260833503803 608.9831993357581,512.8117549489881 615.7504016418835,494.83172972757325 618.9117782398878,475.6835540562081 618.2767861152736,456.28655123263894 613.8698276592821,437.38613719741113 605.8602598139264,419.7086442624242 594.4417001833806,403.77406275241725 580.1338623363553,390.3733102333005 563.4865884573836,380.021370109155 545.1396239457358,373.1160616335168 525.6046164426259,369.89081884161345 505.81575497615637,370.53863908995726 486.5335143947624,375.0346270097061 468.4989003903817,383.2060043064831 452.24562725017466,394.85293512963983 438.57685968067557,409.4469297336057" stroke="black" stroke-linecap="round" stroke-width="1" /><polyline clip-path="url(#border_clip)" fill="none" points="438.57685968067557,409.4469297336057 428.01788075404716,426.4271490901568 420.9744661088962,445.1410528920375 417.6853571230938,465.06289222689225 418.34600549516716,485.2436123362621 422.9310228786734,504.9076794638223 431.2642096268718,523.2994145375967 443.1395116426394,539.871379308004 458.0196630035457,553.8081619278853 475.33282783767623,564.5741796569966 494.41367092978993,571.7557004716604 514.7223420963894,575.1086756513619 535.2949208486597,574.4351991555588 555.3408145223862,569.7611523082952 574.0896706655542,561.2661561086755 590.9803270661615,549.162482900297 605.1851247364252,533.9961747824501 616.1581812680195,516.3500644707402 623.4778082521959,496.9022820883936 626.8946496257965,476.20677909004934 626.2083450062639,455.2423416948787 621.4452686952429,434.814621474986 612.7884630442019,415.70864426242434 600.4564186432125,398.4992962316168 585.003953768425,384.02648351097076 567.0248979791357,372.84638817689364 547.2101763065561,365.38865502320436 526.1278414764671,361.90794745570474 504.7715454383961,362.60708019896686 483.9619986723372,367.4591859737453 464.49890039038183,376.27780107620765 460.64250508347186,375.6842450682481 456.8525163397182,376.6116494137001 453.3912665139545,379.1495427873309 451.16469839022085,382.8188134945208 450.4524311806694,387.4464878628128 451.5653163952118,391.9944743553171 454.56464492768464,396.08504233121965 458.90105576345445,398.71644102290486 464.3000091931284,399.54741943404827 469.6059934343835,398.2490533504154 474.3258795604249,394.78828965910066 477.3621088200617,389.7847386947509" stroke="black" stroke-linecap="round" stroke-width="1" /><polyline clip-path="url(#border_clip)" fill="none" points="477.3621088200617,389.7847386947509 478.31179843279693,383.6145062036949 476.82795148007375,377.55052421368913 472.90575262991706,372.20131993750886 467.2350615369873,368.7602601099205 460.29354998454926,367.6918592955933 453.47157024579275,369.3611871174069 447.4930478194737,373.7448211264056 443.6471574239337,380.0826523479153 442.46004540801465,387.7954429617353 444.31485409891866,395.37542044924254 449.1599232667593,401.9832610257005 456.164894616849,406.233981989192 464.648964292051,407.539805206703 472.98693952830894,405.4995156467086 480.22409825490575,400.193011320026 484.87964978634886,392.52089984135637 486.30418420545175,383.2655511047723 484.0784137763669,374.1695781197636 478.31047429084236,366.30310124302804 469.9712226835927,361.24271914363334 459.9445948856267,359.69947352293855 450.0906241518673,362.11072482111376 441.5948291249928,368.3400994654803 436.1296164576466,377.3464912013099 434.46765963535984,388.1443980606579 437.0643918026255,398.75636654316804 443.755201605834,407.88147972018135 453.42873347024357,413.75152295547923 461.0746654875838,415.44658527465447 468.8987831000214,415.1049769222684 476.36788562223444,412.7499779430018 483.19313540855546,408.40181428155415 488.66043288123154,402.4353060717484 492.397190752636,395.25706098796184 494.20525722642293,387.1014001694656 493.8408749838778,378.75567471619877 491.32887607266014,370.7886320258382 486.7001857233771,363.5230435436255 480.3487415000355,357.7030172017445 472.7073838301982,353.72517817734615 464.0419942105459,351.8041075489476 455.17466091644997,352.1912636816518" stroke="black" stroke-linecap="round" stroke-width="1" /><polyline clip-path="url(#border_clip)" fill="none" points="455.17466091644997,352.1912636816518 446.70967805794186,354.86026252482054 439.00375087983747,359.76947956193897 432.8309956687516,366.5058597988164 428.6120754913594,374.6103300547045 426.5780007083492,383.78544847551274 426.9879307312124,393.17438961043786 429.81392950633233,402.1373126370935 435.003673231286,410.28357851108956 442.1249894816993,416.8090625913804 450.6925723236381,421.26906392176636 460.3774195456024,423.4161428593883 470.2879685213567,422.98343894636605 479.7488317161599,420.000440239295 488.33543628604764,414.530169826506 495.21364923554336,407.0239175625568 499.9147317189232,397.99322213456725 502.1748148111568,387.79864611144694 501.71933700797547,377.36648929486347 498.5793383689533,367.40768593191274 492.828541268329,358.3807426661333 484.9373529908439,351.14980084743274 475.44354497680365,346.207637211059 464.7392401525273,343.8345499642137 453.78547549511467,344.31280165755413 443.3287319640164,347.6098002285274 433.8614500023453,353.6411240169871 426.2777793144398,361.91724830800797 421.0945345250723,371.874168908099 418.6084431236153,383.08820253353133 419.10946870711473,394.56357503177315 422.5634672100391,405.51825873101893 428.87531768633414,415.42587938858173 437.53637799089086,423.36227894569214 447.9564111770327,428.7866048880535 459.68017360362103,431.38570044412216 471.67715394269203,430.86190097046364 483.12977781008533,427.2509025355882 493.4777371635398,420.6585253714578 501.7668655898552,411.6125290533652 507.43227268521036,400.72938328117266 510.1443723958907,388.4958920534283 509.5977990320731,375.9773038735282" stroke="black" stroke-linecap="round" stroke-width="1" /><polyline clip-path="url(#border_clip)" fill="none" points="509.5977990320731,375.9773038735282 505.8298006652465,364.0267398379873 498.9568968132808,353.2384417886411 489.5259644816524,344.5965844931209 478.17970612340906,338.69009624477184 465.4364860945087,335.8649923794798 452.39629007377937,336.4343396334565 439.94778587009097,340.35933793223415 428.7191491248531,347.5127684720352 419.72456296012797,357.3286368171995 413.5769935587851,369.13800776149355 410.63888553888137,382.3909565915499 411.23100668301714,395.95276045310845 415.3130049137459,408.8992048249444 422.74696214138226,420.5681802660739 432.9477665000824,429.91549530000395 445.2202500304272,436.3041458543406 458.9829276616396,439.35525802885604 473.0663393640273,438.7403629945612 486.5107239040108,434.50136483188135 498.620038041032,426.78688091640964 508.32008194416693,416.2011405441736 514.9498136514975,403.46554442777807 518.1139299806246,389.19313799540964 517.4762610561706,374.5881184521928 513.0802629615397,360.6457937440618 505.08525235823265,348.0961409111489 494.1145759724608,338.043368138809 480.9158672700145,331.17255527848465 466.1337320364901,327.89543479474594 451.00710465244407,328.55587760935884 436.5668397761655,333.108875635941 423.57684824736094,341.3844129270833 413.17134660581615,352.74002532639105 406.05945259249796,366.4018466148881 402.66932795414755,381.6937106495685 403.35254465891956,397.3419458744437 408.0625426174528,412.2801509188698 416.6186065964305,425.710481143566 428.35915500927405,436.4687116543157 442.4840888838218,443.8216868206278 458.28568171965827,447.3248156135899 474.4555247853626,446.6188250186588" stroke="black" stroke-linecap="round" stroke-width="1" /><polyline clip-path="url(#border_clip)" fill="none" points="474.4555247853626,446.6188250186588 489.8916699979363,441.7518271281745 503.76233891852416,432.9152364613615 514.8732982984787,420.78975203498203 522.4673546177847,406.2017055743835 526.0834875653585,389.890383937391 525.3547230802683,373.19893303085746 520.3307252578329,357.2648476501363 511.21360790318454,342.9538400336567 498.7031874632693,331.49015178449724 483.65202841661994,323.65501431219747 466.8309779784715,319.925877210012 449.6179192311088,320.6774155852612 433.1858936822401,325.85841333964777 418.4345473698688,335.2560573821314 406.6181302515044,348.1514138355826 398.5419116262108,363.6656854682826 394.6997703694136,380.9964647075871 395.4740826348219,398.731131295779 400.81208032115956,415.6610970127952 410.4902510514786,430.8527820210582 423.7705435184656,443.0219280086275 439.74792773721634,451.33922778691493 457.58843577767686,455.29437319832374 475.8447102066979,454.4972870427564 493.2726160918617,449.0022894244677 508.90463979601634,439.0435920063133 521.4265146527906,425.3783635257904 529.9848955840719,408.93786672098895 534.0530451500923,390.5876298793724 533.2331851043659,371.80974760952216 527.5811875541261,353.88390155621084 517.3419634481363,337.8115391561645 503.29179895407765,324.9369354301854 486.3881895632254,316.1374733459103 467.52822392045283,311.95631962527807 448.2287338097734,312.79895356116356 429.8049475883146,318.6079510433545 413.2922464923766,329.12770183717953 400.0649138971926,343.5628023447741 391.02437065992365,360.92952432167715 386.73021278467974,380.2992187656057 387.59562061072427,400.12031671711424" stroke="black" stroke-linecap="round" stroke-width="1" /><polyline clip-path="url(#border_clip)" fill="none" points="387.59562061072427,400.12031671711424 393.56161802486633,419.0420431067206 404.3618955065267,435.9950828985503 419.1819320276571,449.5751443629392 437.01176659061093,458.856768753202 451.8237136471994,462.65294214838667 467.09164998450893,463.4865056152865 482.2288373714541,461.32542577733625 496.65356218578717,456.2527517207608 509.9801817289949,448.36356028199685 521.5116291162718,438.02606294650315 530.8047572914348,425.63752393954746 537.502436550359,411.6740278675943 541.3959477249074,396.4822872967343 542.2508846140354,380.82286541231423 540.0343924725479,365.2975450154474 534.8316498504192,350.5029554622853 526.742732046117,336.8389531458318 516.1435259173197,325.01557038166186 503.4413530114537,315.48717313877313 489.1243507098309,308.61993237962304 473.5528166246994,304.629083425711 457.5019091931688,303.7527731143548 441.5884557863803,306.02467755937937 426.42400149438913,311.35748874706127 412.42261640468985,319.6461329169019 400.3072982636268,330.50704783900284 390.54363195301244,343.5228546437791 383.5068296936364,358.1933631750717 379.4186429603606,374.1446907744746 378.5209592267762,390.58708375311573 380.848275975338,406.8886701698259 386.3111557285731,422.4229892006461 394.79952626395203,436.7617570635912 405.9221499793566,449.1690105815473 419.25159068304316,459.16794595988733 434.2756054440054,466.37430971948925 450.60672655767985,470.55983423212876 467.4406050834315,471.4788913879414 484.13032451006336,469.0961623358424 500.03450827971255,463.5032140170541 514.7106589159034,454.8151171161369 527.4098478107526,443.4307846074286" stroke="black" stroke-linecap="round" stroke-width="1" /><polyline clip-path="url(#border_clip)" fill="none" points="527.4098478107526,443.4307846074286 537.6440522568183,429.7877100048318 545.0199775166461,414.4101890141999 549.3028398086494,397.69927438625393 550.2432703866903,380.47391031339185 547.8051290310541,363.3960578768383 542.0821121467126,347.12200936836 533.194288880257,332.1084759589234 521.5482475782451,319.1173516871811 507.59153907673806,308.64787817338976 491.8605118564364,301.10239141333597 474.76980371421894,296.722191341969 457.15295409424635,295.7603873417 439.68696864777115,298.25394100087334 423.0430554004638,304.10702645076805 407.69213921778146,313.19457608276196 394.40907956914606,325.1023261780775 383.70433698762906,339.3726685784948 375.9892887273493,355.45720202846616 371.51175087661863,372.92770368495513 370.52857345412144,390.9360388520382 373.07753941683194,408.79015730843514 379.0606934322799,425.80393529457155 388.3479694298121,441.4922342504997 400.51742831843126,455.0672292760282 415.1014046177589,466.0072409252708 431.5394442973999,473.8918506857765 449.38973946816037,478.46672631587086 467.78956018235397,479.4712771605963 486.03181164867254,476.86689889434854 503.415454373638,470.7536763133474 519.4411361028119,461.26667395027687 533.3080665052335,448.8355062683541 544.4833472222017,433.9378960701162 552.5375184829334,417.14635016080547 557.2097318923915,398.91626147577347 558.235656159345,380.1249552144694 555.5758655895602,361.4945707382292 549.3325744430058,343.7410632744347 539.645845714397,327.377998772015 526.9529692391706,313.21913299270034 511.7417251420224,301.80858320800644 494.59667300304193,293.5848504470489" stroke="black" stroke-linecap="round" stroke-width="1" /><polyline clip-path="url(#border_clip)" fill="none" points="494.59667300304193,293.5848504470489 475.9867908037385,288.81529925822707 456.8039989953239,287.7680015690452 437.78548150916197,290.4832044423673 419.66210930653847,296.8565641544749 402.96166203087296,306.7430192486221 388.51086087466524,319.6976045171521 376.86504202224563,335.22248251321054 368.4717477610622,352.72104088186063 363.6048587928767,371.71071659543566 362.5361876814667,391.2849939509607 365.3068028583259,410.69164444704427 371.81023113598667,429.1848813884969 381.89641259567225,446.2227114374081 395.1127066575059,460.96544797050893 410.9512185524746,472.8465358906542 428.8032831507944,481.40939165206356 448.17275237864084,486.3736183996128 468.1385152812764,487.46366293325104 487.9332987872817,484.63763545285457 506.79640046756333,478.0041386096406 524.1716132897203,467.71823078441673 539.2062851997142,454.24022792927946 551.3226421875851,438.0880821354005 560.0550594492204,419.882511307411 565.1166239761334,400.133248565293 566.2280419319998,379.77600011554694 563.3466021480662,359.59308359962 556.583036739299,340.3601171805093 546.0974025485368,322.6475215851066 532.3576909000959,307.3209142982196 515.8919112073066,294.969288242623 497.33283414964745,286.06730948076176 477.203777893258,280.9084071744851 456.45504389640143,279.7756157963904 435.88399437055284,282.7124678838612 416.2811632126131,289.60610185818166 398.23118484396457,300.2914624144821 382.6126421801845,314.2928828562267 370.0257470568623,331.0722964479262 360.95420679477513,349.9848797352551 355.69796670913473,370.493729505916 354.5438019088119,391.6339490498831" stroke="black" stroke-linecap="round" stroke-width="1" /><polyline clip-path="url(#border_clip)" fill="none" points="354.5438019088119,391.6339490498831 357.5360662998199,412.5931315856534 364.5597688396935,432.5658274824222 375.4448557615323,450.95318862431645 389.70798499658054,466.86366666498964 406.80103248719024,479.68583085603746 426.06712200418883,488.9269326183506 428.0912748439466,492.2626332612505 431.23786559464077,494.56980905546044 435.40685321276976,495.5899538354578 439.6488880503708,494.93704222670243 443.65172882185067,492.5080588189931 446.4203397749026,488.7321499181601 447.62596542399035,483.8051645512804 446.8543426136431,478.7918506522974 444.02052863798224,474.12186975223756 439.61530158701044,470.89182364034366 433.93031847138,469.50071712216544 428.14572551101503,470.39105113410454 422.80860448237513,473.629695677717 419.11712321163924,478.6642408788276 417.54053582437064,485.10722174320875 418.5495810379016,491.66309376495576 422.1930561494656,497.6673549221756 427.8569195007151,501.8202713517535 435.0578981138469,503.58233960811253 442.38504919697596,502.4545831929897 449.05645048277574,498.40627751347415 453.6708020711956,492.1130960120858 455.6183511966451,484.15411965020326 454.37188357993034,476.05568950569227 449.9187473324633,468.7171480913124 442.9962476809361,463.64136134405055 434.27927357030285,461.5083313495106 425.4095643644098,462.8735101678173 417.40388282145,467.73147698323595 411.8666609153462,475.28329478490195 409.5481500517158,484.7582666442859 411.03204007161435,494.39925491156094 416.29483745498453,503.07207658310074 424.47597340678936,509.0707336480466 434.70894301492405,511.57472538076735 445.1212103435811,509.9721241592769" stroke="black" stroke-linecap="round" stroke-width="1" /><polyline clip-path="url(#border_clip)" fill="none" points="445.1212103435811,509.9721241592769 454.4611721437009,504.3044962079552 460.9212643674887,495.4940421060115 463.61073696929986,484.50307474912614 461.8894245462176,473.31952835908703 458.2732072513102,466.37283956832573 452.9822742132368,460.59879936528773 446.3771937748618,456.3908990477575 438.65912116857504,453.95740010251507 430.5741996357229,453.6044048050493 422.6734032178046,455.35596920153006 415.2636018409925,459.2132676494312 409.10462562441865,464.85692955670953 404.6161986190531,471.9023486909762 402.0256997418595,480.1183614654105 401.64993055423463,488.7248908390918 403.5144991053271,497.13541605816613 407.6128787062221,505.00833002102894 413.60926948270526,511.5522422511387 421.09502731286364,516.3211959443396 429.8089802554454,519.0686947534842 438.9371174699559,519.4672378312682 447.8573714901862,517.4896651255641 456.1933980390998,513.1502043716754 463.12224628274544,506.80108472598727 468.1717266637817,498.8749881999372 471.0762254048775,489.6630950892079 471.4975423728206,480.0133500338682 469.4069655125048,470.5833672124819 464.8264236056222,461.7842280775176 458.1245750907292,454.4704438203361 449.75813986878745,449.14043675146445 440.0483065899106,446.07893807841754 429.8769536937418,445.63484722031535 419.9372420711994,447.8384282352428 410.6749903501844,452.6600512951193 402.97627007946704,459.7146286792171 397.36573632276003,468.5214025970505 394.147237717762,478.7291760440749 393.68037296950075,489.4221367810729 395.99695813903986,499.87157720477126 401.0596623519101,509.59694151183714 408.46696860521286,517.6805977960903" stroke="black" stroke-linecap="round" stroke-width="1" /><polyline clip-path="url(#border_clip)" fill="none" points="408.46696860521286,517.6805977960903 417.71408121893796,523.5716582406327 428.41979483410984,526.9471567775819 439.634363411937,527.4367954160022 450.5935326367914,525.0072060918515 460.782009529908,519.7034207259874 469.25060182769704,511.94338560347967 475.4221889600748,502.25593429386294 478.95468742897503,491.05228051054354 479.46709995755447,479.31610409188715 476.92450647879207,467.8472060658768 471.37963995993414,457.19561658670943 463.2668759682216,448.34208827538447 453.1390859627132,441.88997445517145 441.43749201124626,438.20047605432 429.1797077517607,437.66528963558153 417.2010809245943,440.32088726895563 406.08637885937617,446.10683494080735 396.8479145345154,454.5723278017248 390.115274026467,465.1404565031248 386.26877569366445,477.3399906227393 385.7108153847669,490.119382723054 388.4794171727526,502.60773835137644 394.5064459975981,514.1855530026453 403.32466772772045,523.808953341042 414.3331351250122,530.8221205369257 427.0306094127742,534.8256188016794 440.33160935391805,535.4063530007361 453.3296937833965,532.5247470581387 465.37062102071616,526.2566370802994 475.3789573726487,517.0856864809721 482.67265125636777,505.6368803877887 486.8331494530726,492.4414659318792 487.43665754228834,478.61885814990615 484.4420474450793,465.11104491927165 477.9328563142461,452.6070050959013 468.409176845714,442.21373273043287 456.52003205663897,434.63951215887846 442.8266774325819,430.3220140302225 428.4824618097797,429.69573205084765 414.46491977798917,432.8033463026684 401.4977673685681,439.55361858649536 390.7195589895638,449.4300269242324" stroke="black" stroke-linecap="round" stroke-width="1" /><polyline clip-path="url(#border_clip)" fill="none" points="390.7195589895638,449.4300269242324 382.864811730174,461.7595104091991 378.3903136695669,475.9508052014037 377.74125780003294,490.81662866503507 380.9618762064654,505.34389949798157 387.95322964328614,518.7741644934534 398.18236685022805,529.9373088859936 410.95218903108645,538.0725828332188 425.6414239914386,542.7040808257769 441.0288552958991,543.37591058547 456.06585493000165,540.0422880244259 469.9592325115243,532.8098534346113 481.50731291760036,522.2279873584646 489.9231135526609,509.0178264817145 494.71161147717015,493.8306513532148 495.4062151270223,477.92161220792514 491.9595884113666,462.3748837726666 484.48607266855817,448.01839360509314 473.55147772320646,436.08537718548126 459.9009781505647,427.3890498625854 444.21586285391754,422.44355200612495 427.7852158677987,421.7261744661137 411.7287586313841,425.2858053363811 396.90915587775993,433.0004022321833 384.5912034446121,444.2877260467399 375.61434943388093,458.3785643152733 370.5118516454694,474.56161978006804 369.77170021529906,491.5138746070161 373.4443352401781,508.0800606445867 381.40001328897415,523.3627759842616 393.04006597273565,536.0656644309453 407.5712429371607,545.3230451295118 424.2522385701029,550.5825428498745 441.7261012378802,551.345468170204 458.8020160766068,547.5598289907132 474.54784400233245,539.3630697889233 487.63566846255196,527.370288235957 497.1735758489539,512.3987725756402 502.59007350126774,495.21983677455046 503.3757727117562,477.22436626594407 499.47712937765385,459.63872262606145 491.03928902287015,443.429782114285 478.6937786006989,429.95702164052966" stroke="black" stroke-linecap="round" stroke-width="1" /><polyline clip-path="url(#border_clip)" fill="none" points="478.6937786006989,429.95702164052966 463.2819242444905,420.13858756629236 445.6050482752532,414.5650899820274 427.0879699258176,413.75661688137984 408.99259748477897,417.7682643700938 392.3205443869518,426.44718587787133 378.4628478996606,439.14542516924746 368.3638871375879,454.9976182213475 362.6333896213718,473.17243435873235 361.8021426305652,492.2111205489971 365.9267942738908,510.81622179119177 374.84679693466217,527.9513874750697 387.8977650952432,542.1940199758968 404.19029684323493,552.5735074258048 422.8630531487673,558.461004873972 442.4233471798612,559.3150257549378 461.53817722321185,555.0773699570004 479.1364554931406,545.9162861432353 493.76402400750356,532.5125891134494 504.4240381452469,515.779718669566 510.46853552536527,496.6090221958861 511.3453302964901,476.527120323963 506.99467034394115,456.9025614794563 500.3817718351305,443.1158185223378 491.2062781938307,430.8840964648369 479.8207984950008,420.67745352599457 466.66287033841627,412.8881252699993 452.053213154669,407.7504169306467 436.72195926276305,405.5616309409273 421.25828015189825,406.40588111894056 406.2564363381739,410.2507234038065 392.1161871513857,417.0331834128431 379.5708311949745,426.44394612186846 369.10247946282857,438.12136119759145 361.1134248412949,451.61667212742174 355.8456479363891,466.5961940499981 353.60144964313247,482.31558095182567 354.46707324337393,498.17074560980103 358.40925330760354,513.5523829377969 365.36127481686606,528.0461383542548 375.00730659361705,540.9051282095762 386.97665704623313,551.6351887350258 400.80935074930915,559.8239697220978" stroke="black" stroke-linecap="round" stroke-width="1" /><polyline clip-path="url(#border_clip)" fill="none" points="400.80935074930915,559.8239697220978 416.1587374107146,565.2218151925568 432.26625732246384,567.5214257893507 448.51290752754966,566.634428766881 464.27433836981703,562.5949109232877 479.12160001594464,555.4733279137994 492.2942237701764,545.5920270693226 503.2859930889297,533.3307412398135 511.67450044154,519.1606647634917 517.2024144775522,503.44141336325725 519.5574373778833,486.94576044158634 518.6490669331854,470.30762468939 514.5122113102284,454.1664003328512 507.2210668005141,438.96563245705386 497.1044968883118,425.4793748039118 484.5512756819096,414.2258966918549 470.04381643234206,405.63766297370626 453.95470029327856,399.97968037214076 437.07091436168594,397.5692451682725 420.0412930623791,398.4989890351985 403.52027519156877,402.7331824375193 387.96600108610176,410.19388844745947 374.1661095340494,420.5457274273874 362.6509226286889,433.3908840106827 353.8629625450019,448.235726033496 348.07491137788315,464.6947069113886 345.6090638704777,481.96662585290284 346.56018115963195,499.38773269932017 350.89171234131635,516.288544084402 358.52197985148246,532.1963244195388 369.10908789913606,546.3098498705014 382.2461798593244,558.0867455691656 397.4284046553835,567.0744320183909 414.25725027210507,572.9925517510628 431.917302223541,575.5138115620055 449.72989461706885,574.5413208506232 467.0104995164222,570.112451889575 483.27178608122864,562.312622879183 497.69894543110155,551.4902457638037 509.73754992306937,538.0612184267223 518.9249627378331,522.5416108574175 524.9731510360582,505.34290050186684 527.5498231505381,487.29471554050923" stroke="black" stroke-linecap="round" stroke-width="1" /><polyline clip-path="url(#border_clip)" fill="none" points="527.5498231505381,487.29471554050923 526.5559590169275,469.09063759987094 522.0297522765158,451.43023918624607 514.0603617658978,434.8154463917699 503.0027155827929,420.07465314298673 489.28175286881844,407.77433985771523 473.4247625262678,398.38720067741326 455.85618743188815,392.20894381363485 437.4198694606089,389.57685939561776 418.82430597286003,390.59209695145654 400.78411404496364,395.21564147123206 383.8158150208178,403.35459348207587 368.76138787312436,414.64750873290643 356.19936579454924,428.660406823774 346.6125002487089,444.85477993957034 340.30417481937724,462.793219772779 337.61667809782296,481.61767075398 338.6532890758899,500.6047197888393 343.37417137502916,519.0247052310071 351.6826848860989,536.3465104848228 363.21086920465507,551.7145715314265 377.51570267241567,564.5383024033052 394.0474585614578,574.324894314684 412.35576313349554,580.7632883095689 431.5683471246182,583.5061973346603 450.94688170658804,582.4482129343652 469.7466606630274,577.6299928558623 487.4219721465127,569.1519178445666 503.1036670920267,557.3884644582848 516.1891067572091,542.7916956136311 526.1754250341261,525.9225569513433 532.7438875945643,507.2443876404764 535.5422089231929,487.6436706394321 534.4628511006696,467.8736505103518 529.547293242803,448.69407803964094 520.8996567312814,430.66526032648596 508.900934277274,414.66993148206166 494.01223005572723,401.3227830235756 476.80570862019357,391.1367383811202 457.7576745704977,384.4382072551289 437.76882455953177,381.584473622963 417.60731888334095,382.68520486771456 398.0479528983586,387.6981005049448" stroke="black" stroke-linecap="round" stroke-width="1" /><polyline clip-path="url(#border_clip)" fill="none" points="398.0479528983586,387.6981005049448 379.66562895553386,396.5152985166923 363.35666621219934,408.7492900384254 349.74780896040954,423.9299296368652 339.3620379524159,441.4738338456446 332.5334382608713,460.89173263416956 329.6242923251682,481.2687156550571 330.74639699214794,501.8217068783585 335.8566304087419,521.7608663776124 344.84338992071537,540.4966965501068 357.312650510174,557.1192931923516 372.78522548550694,570.989859237445 390.66651246753213,581.575356610977 410.4542759948861,588.5340248680749 431.21939202569536,591.4985831073151 452.1638687961072,590.3551050181072 472.4828218096326,585.1475338221495 491.57215821179665,575.9912128099502 508.50838875295176,563.2866831527659 522.6406635913488,547.5221728005399 533.4258873304192,529.3035030452689 540.5146241530703,509.145874779086 543.5345946958477,487.99262573835506 542.3697431844116,466.65666342083273 537.0648342090902,445.9579168930358 538.3190287849841,442.2631788152364 538.0638384341368,438.36972644201074 536.1655410881607,434.5203602190425 532.9386543449572,431.69045649650957 528.5049686515979,430.18542300543703 523.832825803727,430.4916514264538 519.2835748129464,432.7350937444255 515.939143140862,436.5486871682115 514.1832707346108,441.72132047713063 514.540537225797,447.1721537996466 517.1291245157644,452.4212895582396 521.5294246201328,456.28024917987545 527.4410055446118,458.2869605013055 533.6705293417729,457.8786559399498 539.6195498681783,454.94492367798676 543.9930374393656,449.95791689303593 546.2505876759744,443.307388352997 545.7912450444492,436.29917408119076" stroke="black" stroke-linecap="round" stroke-width="1" /><polyline clip-path="url(#border_clip)" fill="none" points="545.7912450444492,436.29917408119076 542.5123678104906,429.65026878697296 536.9386543449573,424.76225326623427 529.5491781893585,422.2538641144467 521.7622734429071,422.76424481614134 514.4134833808769,426.3882670220956 509.0109399105867,432.54868716821136 506.2517118436204,440.67711093937004 506.8131306154845,449.2427061604666 510.78229779343445,457.29138099030916 517.5294246201327,463.20845241015076 526.3967960068512,466.2185193922959 535.7410817025929,465.60606255026227 544.4896413002479,461.2917504003167 550.921240669641,453.9579168930361 554.1821465669648,444.3515978907576 553.5186516547617,434.2286217203708 548.8591945328205,424.7801773549034 540.9386543449574,417.8340500359589 530.5933877271191,414.3223052234563 519.6917210820872,415.0368382058288 509.54339194880737,420.04144029976567 502.0827366803114,428.54868716821125 499.0857240051724,435.78411581513546 498.06349879384425,443.54868716821096 499.08572400517204,451.3132585212865 502.1826371028153,458.78986812310836 507.10911440334974,465.2101783398914 513.5294246201325,470.1366556404261 521.2472151768517,473.3334691605744 529.5294246201322,474.4238427193244 537.8116340634128,473.3334691605748 545.7706055750297,470.0367552179223 552.6051293541857,464.7924406721921 557.8494438999162,457.9579168930362 561.2460582650738,449.7577644265221 562.4045801712457,440.9579168930365 561.2460582650742,432.1580693595509 557.7495434774124,423.71673593813915 552.1873916864865,416.46799859660996 544.9386543449575,410.9058468056836 536.2561399686485,407.3094315955168 526.9386543449579,406.08276134192306" stroke="black" stroke-linecap="round" stroke-width="1" /><polyline clip-path="url(#border_clip)" fill="none" points="526.9386543449579,406.08276134192306 517.6211687212672,407.30943159551634 508.6974733900605,411.0057472281874 501.0345224861582,416.8857362643091 495.1545334500361,424.54868716821113 491.35831739486,433.71356345431514 490.06349879384436,443.5486871682108 491.3583173948595,453.3838108821065 495.25443387253983,462.78986812310814 501.4522601538573,470.86703258938354 509.52942462013243,477.0648588707014 519.1766628160314,481.0608757708868 529.5294246201321,482.42384271932434 539.8821864242328,481.0608757708873 549.7706055750294,476.96495844819776 558.2619836036779,470.44929492168455 564.7776471301916,461.9579168930363 568.9734648753863,451.82831678734243 570.4045801712456,440.9579168930367 568.9734648753868,430.08751699873096 564.677746707688,419.7167359381393 557.844245935979,410.81114434711776 548.9386543449577,403.9776435754083 538.3266923294689,399.5820249852044 526.9386543449581,398.0827613419231 515.5506163604473,399.5820249852038 504.69747339006074,404.07754399791185 495.377668236666,411.22888201481663 488.22633021976077,420.548687168211 483.6309107845476,431.6430110934948 482.0634987938445,443.54868716821056 483.63091078454704,455.45436324292643 488.3262306422643,466.7898681231079 495.7954059043648,476.52388683887574 505.5294246201323,483.9930621009768 517.106110455211,488.7882823811992 529.5294246201319,490.4238427193242 541.9527387850527,488.7882823811998 553.7706055750292,483.8931616784733 563.9188378531701,476.106149171177 571.7058503604669,465.95791689303644 576.7008714856986,453.89886914816276 578.4045801712455,440.9579168930369" stroke="black" stroke-linecap="round" stroke-width="1" /><polyline clip-path="url(#border_clip)" fill="none" points="578.4045801712455,440.9579168930369 576.7008714856993,428.016964637911 571.6059499379635,415.71673593813955 563.5011001854714,405.15429009762556 552.9386543449579,397.04944034513295 540.3972446902892,391.85461837489197 526.9386543449583,390.08276134192323 513.4800639996273,391.85461837489134 500.69747339006096,397.1493407676363 489.72081398717387,405.5720277653242 481.29812698948547,416.5486871682109 475.9035041742352,429.5724587326745 474.0634987938446,443.5486871682104 475.9035041742345,457.5249156037464 481.3980274119888,470.78986812310774 490.1385516548724,482.18074108836794 501.5294246201322,490.92126533125213 515.0355580943907,496.51568899151164 529.5294246201316,498.4238427193241 544.0232911458727,496.5156889915123 557.770605575029,490.8213649087489 569.5756921026623,481.76300342066946 578.6340535907423,469.9579168930366 584.428278096011,455.9694215089831 586.4045801712455,440.9579168930371 584.4282780960118,425.94641227709104 578.5341531682391,411.7167359381398 569.1579544349639,399.4974358481334 556.938654344958,390.12123711485765 542.4677970511095,384.12721176457956 526.9386543449585,382.08276134192334 511.4095116388074,384.1272117645788 496.6974733900612,390.2211375373608 484.06395973768167,399.9151735158317 474.3699237592101,412.54868716821073 468.1760975639228,427.50190637185415 466.0634987938447,443.54868716821017 468.17609756392204,459.59546796456635 474.46982418171325,474.7898681231075 484.48169740538,487.8375953378601 497.52942462013203,497.84946856152743 512.9650057335704,504.243095601824 529.5294246201315,506.423842719324" stroke="black" stroke-linecap="round" stroke-width="1" /><polyline clip-path="url(#border_clip)" fill="none" points="529.5294246201315,506.423842719324 546.0938435066927,504.24309560182485 561.7706055750288,497.74956813902435 575.2325463521545,487.4198576701619 585.5622568210176,473.9579168930367 592.1556847063234,458.0399738698034 594.4045801712454,440.9579168930373 592.1556847063243,423.8758599162711 585.4623563985145,407.71673593814 574.8148086844564,393.8405815986412 560.9386543449581,383.1930338845823 544.5383494119299,376.39980515426714 526.9386543449586,374.0827613419234 509.33895927798744,376.39980515426635 492.6974733900614,383.29293430708526 478.40710548818953,394.2583192663393 467.4417205289348,408.5486871682106 460.4486909536104,425.4313540110338 458.06349879384476,443.54868716821 460.4486909536095,461.6660203253863 467.5416209514377,478.7898681231073 478.8248431558875,493.4944495873523 493.5294246201319,504.7776717918028 510.8944533727501,511.97050221213647 529.5294246201313,514.4238427193239 548.1643958675127,511.9705022121374 565.7706055750286,504.6777713692999 580.8894006016467,493.0767119196544 592.490460051293,477.95791689303684 599.8830913166358,460.1105262306238 602.4045801712452,440.9579168930375 599.8830913166369,421.8053075554511 592.3905596287901,403.71673593814023 580.4716629339488,388.1837273491491 564.9386543449582,376.264830654307 546.6089017727502,368.6723985439548 526.9386543449589,366.0827613419235 507.2684069171675,368.6723985439538 488.69747339006165,376.3647310768098 472.75025123869733,388.6014650168469 460.5135172986595,404.5486871682105 454.2029486932272,418.4764088745636 450.7307996066879,433.36764417504594" stroke="black" stroke-linecap="round" stroke-width="1" /><polyline clip-path="url(#border_clip)" fill="none" points="450.7307996066879,433.36764417504594 450.23050278123367,448.6501312481609 452.72128434329704,463.7365726862063 458.1764780390506,478.2306746504082 466.354510737125,491.38202101479607 476.9411052272268,502.6852129139465 489.5294246201318,511.70587502207815 503.8142673958786,518.1782530789318 519.0873292425271,521.7394316292284 534.7616749585425,522.2525565784123 550.2349482283325,519.6979088224499 565.0959894827674,514.1046089571836 578.5802813247348,505.71953745662626 590.1696299808257,494.8649279161422 599.4186632815683,481.957916893037 606.0528507898433,467.3159530478966 609.7030588038974,451.6610646550819 610.2290118768108,435.5948602961661 607.6104979269494,419.73475519463125 601.8790918921702,404.5067746499634 593.28698158913,390.68953733041667 582.1643569982637,378.8140319173852 568.9386543449584,369.3366274240317 553.9395694304243,362.5406304643354 537.9028544914433,358.80139298652387 521.4447914896273,358.2626117898808 505.19785455634764,360.94499193364135 489.60293472144684,366.8145041379332 475.45275192432064,375.61365324345627 463.29108975434866,387.00429288470497 453.58531406838426,400.5486871682104 446.6275076572666,415.90489315213813 442.79924071569764,432.32343463728535 442.247631395325,449.17335628200186 444.9938777329846,465.8071250470262 451.0014961067892,481.76898417216 460.00768401479513,496.2521124468656 471.66633870642613,508.6999313737781 485.52942462013175,518.6340782523534 501.24275167345314,525.7536941148925 518.0431197047666,529.6709905202189 535.2848999923834,530.235427964321 552.3055005891525,527.4253154327624" stroke="black" stroke-linecap="round" stroke-width="1" /><polyline clip-path="url(#border_clip)" fill="none" points="552.3055005891525,527.4253154327624 568.6342990045192,521.2795908894451 583.4503727568043,512.0663641789562 596.1843484406573,500.1396944369429 606.3468665118436,485.9579168930372 613.628291825804,469.8874687703221 617.6346176948878,452.70527419284247 618.2118832627195,435.0716352623252 615.3379045372619,417.6642028338113 609.0540738244318,400.9684651282116 599.63380831146,385.8194458983471 587.4391235190644,372.7993134575536 572.9386543449585,362.4084241937564 556.5110851528498,354.9651894283747 538.9470640292041,350.86983409553346 520.9215664557863,350.279740403972 503.1273021955277,353.2175853233288 486.06462519969506,359.63952220567165 470.5826604922511,369.2668265211263 457.27637129451705,381.72952636390426 446.6571108381089,396.5486871682102 439.05206662130587,413.33337742971264 434.86768182470723,431.2792250995247 434.26476000941625,449.69658131584276 437.26647112267204,467.87767740784614 443.82651417452763,485.30729369391173 453.6608572924652,501.1222038789351 466.3915721856255,514.7146498336097 481.5294246201316,525.5622814826288 498.6712359510277,533.3291351508532 516.998910167006,537.6025494112092 535.8081250262244,538.2182993502298 554.3760529499725,535.152722043075 572.1726085262711,528.4545728217066 588.320464188874,518.4131909012862 602.199066900489,505.41446095774353 613.2750697421191,489.9579168930373 621.2037328617647,472.45898449274756 625.5661765858782,453.74948373060306 626.1947546486284,434.5484102284842 623.0653111475744,415.5936504729913 616.2290557566934,397.43015560645983 605.9806350337901,380.9493544662775" stroke="black" stroke-linecap="round" stroke-width="1" /><polyline clip-path="url(#border_clip)" fill="none" points="605.9806350337901,380.9493544662775 592.7138900398651,366.7845949977219 576.9386543449588,355.480220963481 559.0826008752753,347.38974839241394 539.9912735669647,342.938275204543 520.3983414219454,342.2968690180632 501.0567498347078,345.49017871301623 482.5263156779433,352.4645402734101 465.7125690601815,362.9199997987963 451.26165283468544,376.4547598431036 439.72890760783355,392.54868716821005 431.4766255853452,410.76186170728715 426.93612293371683,430.23501556176404 426.2818886235075,450.2198063496837 429.5390645123595,469.94822976866607 436.6515322422661,488.8456032156636 447.31403057013523,505.99229531100474 461.1168056648248,520.7293682934413 477.5294246201314,532.4904847129042 496.0997202286022,540.9045761868139 515.9547006292453,545.5341083021996 536.3313500600653,546.2011707361386 556.4466053107925,542.8801286533875 575.7109180480229,535.6295547539681 593.1905556209435,524.7600176236161 608.2137853603207,510.6892274785442 620.2032729723944,493.95791689303746 628.7791738977254,475.030500215173 633.4977354768686,454.7936932683637 634.1776260345372,434.0251851946433 630.792717757887,413.5230981121714 623.4040376889549,393.89184608470805 612.32746175612,376.079263034208 597.9886565606657,360.76987653789035 580.9386543449589,348.5520177332057 561.6541165977007,339.81430735645324 541.0354831047252,335.00671631355266 519.8751163881045,334.3139976321545 498.98619747388784,337.7627721027037 478.9880061561915,345.28955834114856 460.84247762811196,356.57317307646633 445.2469343748538,371.1799933223029 432.80070437755825,388.5486871682099" stroke="black" stroke-linecap="round" stroke-width="1" /></svg>