<?xml version="1.0" encoding="utf-8" ?>
<svg baseProfile="full" height="1000px" version="1.1" width="1000px" xmlns="http://www.w3.org/2000/svg" xmlns:ev="http://www.w3.org/2001/xml-events" xmlns:xlink="http://www.w3.org/1999/xlink"><defs><clipPath id="border_clip"><rect height="1000" width="1000" x="0" y="0" /></clipPath></defs><polyline clip-path="url(#border_clip)" fill="none" points="500.5,500.5 505.1472317204377,499.3545602565321 508.72983865893656,496.1806474673116 510.42708874098054,491.7053668025532 509.8501624268541,486.95395112957465 507.131226582408,483.014892518289 502.89315664287557,480.7905818257395 498.10684335712443,480.7905818257395 493.868773417592,483.014892518289 491.1498375731459,486.95395112957465 490.57291125901946,491.7053668025532 492.27016134106344,496.1806474673116 495.8527682795623,499.3545602565321 500.5,500.5 508.634732861516,498.770909152852 515.3628965095479,493.8826121271772 519.5211303259031,486.680339887499 520.3904379073655,478.40943073464695 517.8205080756887,470.5 512.2557050458495,464.319660112501 504.65823381635516,460.9370479853239 496.34176618364484,460.9370479853239 488.7442949541505,464.319660112501 483.1794919243112,470.5 480.6095620926345,478.40943073464695 481.4788696740969,486.6803398874989 485.6371034904521,493.88261212717714 492.365267138484,498.770909152852 500.5,500.5 511.3372499856146,498.47416688213065 520.7108693093967,492.6702675166198 527.3548987406518,483.8721506732961 530.3720252888511,473.26805078389907 529.3547692951846,462.2901102978375 524.4405168184072,452.4209609086223 516.2929648863206,444.99348592811157 506.0124855344971,441.0108070094829 494.9875144655029,441.0108070094829 484.70703511367935,444.99348592811157 476.55948318159284,452.4209609086223 471.64523070481545,462.2901102978375 470.62797471114897,473.268050783899 473.6451012593481,483.8721506732961" stroke="black" stroke-linecap="round" stroke-width="1" /><polyline clip-path="url(#border_clip)" fill="none" points="473.6451012593481,483.8721506732961 480.28913069060326,492.67026751661973 489.66275001438544,498.47416688213065 500.5,500.5 514.1808057330268,498.0877048314363 526.2115043874616,491.1417777247591 535.1410161513776,480.5 539.8923101204883,467.44592710667723 539.8923101204883,453.55407289332277 535.1410161513776,440.5 526.2115043874616,429.8582222752409 514.1808057330268,422.9122951685637 500.50000000000006,420.5 486.8191942669733,422.9122951685637 474.78849561253844,429.85822227524085 465.8589838486225,440.49999999999994 461.10768987951167,453.55407289332277 461.10768987951167,467.4459271066772 465.8589838486224,480.5 474.7884956125384,491.1417777247591 486.8191942669732,498.0877048314363 500.5,500.50000000000006 515.9508497187473,498.05282581475774 529.8892626146237,490.9508497187474 540.9508497187475,479.8892626146237 548.0528258147577,465.95084971874746 550.5000000000001,450.50000000000006 548.0528258147577,435.04915028125265 540.9508497187475,421.1107373853764 529.8892626146238,410.04915028125265 515.9508497187475,402.9471741852423 500.5000000000001,400.5 485.0491502812527,402.94717418524226 471.1107373853764,410.04915028125254 460.0491502812527,421.1107373853763 452.9471741852424,435.04915028125254 450.5,450.49999999999994 452.9471741852423,465.9508497187473 460.0491502812526,479.8892626146236 471.1107373853763,490.95084971874735 485.0491502812526,498.0528258147577 500.49999999999994,500.5 517.4039534104858,498.0695784168699" stroke="black" stroke-linecap="round" stroke-width="1" /><polyline clip-path="url(#border_clip)" fill="none" points="517.4039534104858,498.0695784168699 532.9384490473358,490.97521196987094 545.8449744612554,479.7916440367172 555.0779197212711,465.42490078011326 559.889286512856,449.0388902963972 559.889286512856,431.96110970360303 555.0779197212712,415.5750992198869 545.8449744612556,401.208355963283 532.938449047336,390.02478803012923 517.4039534104859,382.9304215831302 500.50000000000017,380.50000000000006 483.5960465895144,382.93042158313017 468.06155095266433,390.0247880301291 455.15502553874467,401.2083559632829 445.922080278729,415.57509921988674 441.11071348714415,431.9611097036028 441.11071348714415,449.03889029639697 445.92208027872897,465.42490078011303 455.15502553874455,479.791644036717 468.0615509526641,490.97521196987077 483.5960465895142,498.0695784168698 500.49999999999994,500.49999999999994 519.3857739809916,497.9042101143459 536.8708765024803,490.3093583182542 551.6585174994686,478.27872002530586 562.6519652881661,462.7045526411807 569.0358861377625,444.7419209136845 570.3368138433377,425.72303106447316 566.4582645483175,407.0584271480311 557.687892510731,390.1323774519594 544.6761561028238,376.20020965069074 528.388076289237,366.2952088946184 510.0316654367374,361.1519837774569 490.96833456326294,361.15198377745685 472.6119237107633,366.29520889461827 456.32384389717646,376.20020965069057 443.31210748926924,390.1323774519592 434.5417354516827,407.05842714803083 430.66318615666233,425.7230310644729 431.96411386223747,444.7419209136842 438.34803471183375,462.7045526411805 449.3414825005313,478.2787200253057 464.1291234975196,490.3093583182541" stroke="black" stroke-linecap="round" stroke-width="1" /><polyline clip-path="url(#border_clip)" fill="none" points="464.1291234975196,490.3093583182541 481.61422601900824,497.90421011434586 500.4999999999999,500.5 520.3951909731883,497.9866528902905 539.0402939281371,490.60453440350915 555.263768474295,478.817490193713 568.0462340401612,463.36614359831987 576.5845213036123,445.2213595499959 580.3421382742617,425.5232415623452 579.0829800582952,405.5094948331422 572.8861641972817,386.4376566747943 562.1410594220633,369.5060808201049 547.522820183398,355.7786404500042 529.9499642147745,346.11788112893987 510.5266586851446,341.13082389484174 490.47334131485593,341.1308238948417 471.050035785226,346.11788112893976 453.47717981660236,355.7786404500041 438.85894057793706,369.50608082010467 428.1138358027186,386.43765667479397 421.91701994170506,405.50949483314184 420.65786172573837,425.5232415623449 424.41547869638777,445.22135954999555 432.95376595983885,463.3661435983195 445.7362315257049,478.81749019371273 461.95970607186274,490.6045344035089 480.60480902681155,497.9866528902903 500.4999999999999,500.4999999999999 521.2554283668195,498.07403835218406 540.8919262180415,490.9269376291071 558.3508848717885,479.443999880708 572.6910873479538,464.2442732532508 583.1394496192246,446.1471789435242 589.1326977710987,426.12833599002386 590.3477342444141,405.2669653980573 586.719056108394,384.68770905600206 578.4422863405996,365.50000000000017 565.9636277415746,348.7382525918141 549.9558080263728,335.30609697283586 531.2818128993105,325.92766412926835 510.94836227127104,321.1085478032252 490.0516377287296,321.1085478032252 469.71818710069016,325.92766412926824" stroke="black" stroke-linecap="round" stroke-width="1" /><polyline clip-path="url(#border_clip)" fill="none" points="469.71818710069016,325.92766412926824 451.0441919736278,335.3060969728357 435.03637225842596,348.7382525918139 422.55771365940086,365.4999999999999 414.2809438916063,384.6877090560017 410.65226575558614,405.266965398057 411.8673022289015,426.1283359900235 417.8605503807755,446.14717894352384 428.30891265204616,464.24427325325047 442.6491151282115,479.44399988070774 460.1080737819584,490.9269376291069 479.7445716331803,498.0740383521839 500.4999999999999,500.49999999999983 522.7520933956313,497.9927912181822 543.8883739117557,490.5968867902418 562.8489801858732,478.68314824680294 578.6831482468028,462.8489801858734 590.5968867902418,443.88837391175593 597.9927912181822,422.7520933956316 600.5,400.5000000000002 597.9927912181823,378.2479066043688 590.596886790242,357.1116260882444 578.6831482468031,338.1510198141269 562.8489801858735,322.3168517531973 543.888373911756,310.4031132097583 522.7520933956317,303.0072087818178 500.50000000000034,300.5000000000001 478.24790660436895,303.00720878181767 457.1116260882446,310.4031132097581 438.15101981412704,322.31685175319694 422.3168517531974,338.15101981412647 410.40311320975843,357.11162608824395 403.00720878181795,378.24790660436827 400.5000000000002,400.49999999999966 403.00720878181784,422.7520933956311 410.4031132097582,443.8883739117555 422.31685175319706,462.848980185873 438.1510198141266,478.68314824680266 457.11162608824407,490.5968867902416 478.2479066043684,497.9927912181821 500.49999999999983,500.49999999999983 503.81559577656617,503.95190085543777 508.3555883506769,505.4675730813419" stroke="black" stroke-linecap="round" stroke-width="1" /><polyline clip-path="url(#border_clip)" fill="none" points="508.3555883506769,505.4675730813419 513.0799201364449,504.6997944365881 516.9063036561207,501.82445375595364 518.9581605582669,497.5002569377603 518.7654351541579,492.7178253608353 516.3722785112824,488.5727564649039 512.3269339758589,486.0146355805284 507.5561412292666,485.6294973736207 503.15283139546443,487.50557236596484 500.1257496917404,491.21307438596926 499.1683640561285,495.90265940109396 500.4999999999998,500.49999999999983 506.0648030298391,506.68033988749875 513.6622742593333,510.06295201467594 521.9787418920437,510.062952014676 529.576213121538,506.68033988749886 535.1410161513774,500.4999999999999 537.710945983054,492.590569265353 536.8416384015917,484.31966011250097 532.6834045852365,477.11738787282275 525.9552409372046,472.2290908471479 517.8205080756886,470.4999999999999 509.6857752141726,472.22909084714786 502.95761156614077,477.1173878728227 498.79937774978555,484.31966011250086 497.93007016832314,492.5905692653529 500.4999999999998,500.49999999999983 507.67304793670974,508.87241723576994 517.3861818901416,514.0882600128145 528.3275892975512,515.4430998621112 539.0195724601364,512.7539581545856 548.0181198054661,506.38401837888773 554.1079276518815,497.19357619878036 556.4665337049339,486.4238517566851 554.7753951476712,475.5293560156102 549.2629096131742,465.9814509938727 540.6735688186134,459.0696341714264 530.1674108334745,455.7273847098419 519.1633505102817,456.40609191894964 509.1475471712855,461.0140926293132 501.47269055689947,468.92905081118465 497.175312580745,479.0820075038049 496.83579795109523,490.10174964636036" stroke="black" stroke-linecap="round" stroke-width="1" /><polyline clip-path="url(#border_clip)" fill="none" points="496.83579795109523,490.10174964636036 500.4999999999998,500.4999999999998 509.42951176391574,511.1417777247589 521.4602104183505,518.0877048314362 535.1410161513772,520.4999999999999 548.821821884404,518.0877048314362 560.8525205388388,511.1417777247591 569.7820323027548,500.5 574.5333262718656,487.4459271066773 574.5333262718657,473.5540728933229 569.7820323027549,460.50000000000006 560.852520538839,449.8582222752409 548.8218218844042,442.9122951685637 535.1410161513775,440.49999999999994 521.4602104183507,442.91229516856356 509.4295117639159,449.85822227524073 500.4999999999999,460.4999999999998 495.7487060308891,473.55407289332254 495.748706030889,487.44592710667695 500.4999999999998,500.4999999999998 510.3447398712787,512.6572412738695 523.4644380354316,521.1772728821298 538.5748470258388,525.2260947684135 554.1968547301095,524.4073800366903 568.8012701892216,518.8012701892219 580.9585114630913,508.95653031794296 589.4785430713516,495.8368321537901 593.5273649576353,480.72642316338283 592.708650225912,465.1044154591122 587.1025403784438,450.50000000000017 577.2578005071648,438.34275872613046 564.138102343012,429.82272711787004 549.0276933526046,425.77390523158635 533.405685648334,426.5926199633097 518.801270189222,432.198729810778 506.64402891535224,442.0434696820569 498.1239973070919,455.1631678462098 494.0751754208082,470.27357683661705 494.8938901525315,485.8955845408877 500.4999999999998,500.4999999999997 511.0567835381393,513.9240422863039 524.9679329234214,523.8301269192951 541.1064495654413,529.4157218357623" stroke="black" stroke-linecap="round" stroke-width="1" /><polyline clip-path="url(#border_clip)" fill="none" points="541.1064495654413,529.4157218357623 558.1648868253168,530.228315354385 574.7612715666855,526.2020759809643 589.5510634003022,517.6631856845673 601.336081350086,505.30341457427204 609.161573349946,490.1240777990455 612.3935645780465,473.35491494942477 610.7702183264786,456.35446386943465 604.4230484541325,440.5000000000003 593.866264915993,427.075957713696 579.9551155307109,417.1698730807048 563.816598888691,411.58427816423773 546.7581616288155,410.771684645615 530.1617768874468,414.79792401903563 515.3719850538301,423.33681431543266 503.58696710404627,435.6965854257279 495.7614751041863,450.87592220095445 492.5294838760858,467.6450850505752 494.1528301276537,484.6455361305653 500.4999999999998,500.49999999999966 512.1909069743587,515.5576650948426 527.5107928284962,526.9027821681814 545.3234517124255,533.6939357871433 564.3078002042176,535.4274571552709 583.0558560238519,531.9747789230223 600.1771616378345,523.5919704399319 614.4019081335377,510.9007462623931 624.6751111372605,494.8423564291667 630.2348541789931,476.60777825193793 630.6687965514626,457.54938697646713 625.9447547340569,439.0806562973173 616.4130892973197,422.5713274801402 602.7807202622259,409.2458219181518 586.05869807617,400.09243139875326 567.4872186265301,395.790021022793 548.4436435852209,396.6576808856381 530.3403477944975,402.6310606245412 514.5199698860899,413.26714199066186 502.15583491605196,427.7770954859095 494.16493421295723,445.08478423816194 491.13991632601613,463.9065761500723 493.305132993367,482.8465450195026 500.49999999999966,500.49999999999966" stroke="black" stroke-linecap="round" stroke-width="1" /><polyline clip-path="url(#border_clip)" fill="none" points="500.49999999999966,500.49999999999966 512.6242179321304,516.473067241069 528.3398715529041,528.9291408128403 546.6594885471968,537.0855598025653 566.4319800044185,540.4298264079086 586.4149675681753,538.7518080587045 605.3528466375487,532.1569408191532 622.055680621963,521.0596044521408 635.4739690334509,506.1570854147549 644.764591462106,488.3857637857456 649.3437839322166,468.8622770614127 648.9238189397939,448.81335771500756 643.531084429835,429.49875308383224 633.5044257446907,412.13207081101046 619.4738547250199,397.8045234139332 602.3209637488192,387.41636338859223 583.1235320400434,381.6203170343598 563.08780483617,380.7805712600398 543.4727005636686,384.9498903810015 525.5107083632878,393.8663007431919 510.3304462645637,406.96955149129116 498.885745964258,423.43631719041076 491.89572007290224,442.2319303911472 489.7995776247673,462.17539359066814 492.7290269589422,482.01358564922083 500.49999999999966,500.4999999999996 512.9786585990247,517.2617474081857 528.9864783142264,530.693903027164 547.6604734412887,540.0723358707315 567.9939240693282,544.8914521967747 588.8906486118696,544.8914521967748 609.2240992399089,540.0723358707319 627.8980943669713,530.6939030271645 643.9059140821732,517.2617474081864 656.3845726811984,500.5000000000004 664.661342448993,481.3122909439986 668.2900205850133,460.73303460194336 667.0749841116979,439.8716640099768 661.081735959824,419.85282105647644 650.6333736885533,401.7557267467498 636.2931712123881,386.55600011929243 618.8342125586412,375.0730623708933 599.1977147074193,367.92596164781617" stroke="black" stroke-linecap="round" stroke-width="1" /><polyline clip-path="url(#border_clip)" fill="none" points="599.1977147074193,367.92596164781617 578.4422863405997,365.5000000000002 557.6868579737802,367.92596164781594 538.0503601225582,375.0730623708929 520.5914014688112,386.55600011929187 506.25119899264575,401.755726746749 495.80283672137494,419.85282105647553 489.8095885695008,439.87166400997586 488.5945520961853,460.73303460194234 492.2232302322053,481.3122909439976 500.4999999999997,500.4999999999995 513.7973531954608,518.5172737770914 530.7705345720811,533.1238774315991 550.5684379418037,543.5873748644201 572.1983137608257,549.3830826225126 594.5755497370856,550.2203797181179 616.5780578195336,546.057280578614 637.1025403784431,537.102540378444 655.1198141555351,523.8051871829829 669.7264178100427,506.8320058063626 680.1899152428637,487.03410243664 685.9856230009563,465.404226617618 686.8229200965616,443.02699064135817 682.6598209570577,421.0244825589102 673.7050807568876,400.5000000000006 660.4077275614266,382.4827262229087 643.4345461848062,367.87612256840106 623.6366428150836,357.41262513558 602.0067669960616,351.61691737748754 579.6295310198018,350.7796202818822 557.6270229373538,354.9427194213861 537.1025403784442,363.8974596215561 519.0852666013523,377.19481281701724 504.4786629468447,394.1679941936375 494.01516551402364,413.96589756336016 488.2194577559311,435.5957733823821 487.38216066032584,457.97300935864195 491.54525979982964,479.9755174410899 500.4999999999997,500.4999999999995 499.1683640561284,505.0973405989053 500.1257496917402,509.78692561403 503.15283139546426,513.4944276340345 507.5561412292664,515.3705026263787" stroke="black" stroke-linecap="round" stroke-width="1" /><polyline clip-path="url(#border_clip)" fill="none" points="507.5561412292664,515.3705026263787 512.3269339758588,514.985364419471 516.3722785112822,512.4272435350955 518.7654351541578,508.2821746391641 518.9581605582667,503.49974306223913 516.9063036561206,499.1755462440458 513.0799201364449,496.30020556341134 508.35558835067684,495.53242691865745 503.8155957765661,497.04809914456155 500.4999999999997,500.4999999999995 497.93007016832297,508.4094307346464 498.7993777497853,516.6803398874983 502.9576115661405,523.8826121271766 509.68577521417234,528.7709091528515 517.8205080756883,530.4999999999995 525.9552409372043,528.7709091528516 532.6834045852362,523.8826121271768 536.8416384015915,516.6803398874986 537.7109459830539,508.4094307346466 535.1410161513772,500.49999999999966 529.576213121538,494.3196601125007 521.9787418920437,490.9370479853235 513.6622742593333,490.9370479853235 506.0648030298391,494.31966011250057 500.4999999999997,500.4999999999995 496.83579795109506,510.8982503536389 497.1753125807448,521.9179924961943 501.4726905568991,532.0709491888147 509.14754717128517,539.9859073706862 519.1633505102814,544.5939080810498 530.167410833474,545.2726152901577 540.6735688186129,541.9303658285731 549.2629096131739,535.0185490061269 554.775395147671,525.4706439843895 556.4665337049337,514.5761482433146 554.1079276518814,503.80642380121935 548.0181198054661,494.6159816211119 539.0195724601364,488.24604184541397 528.3275892975512,485.55690013788836 517.3861818901416,486.9117399871849 507.67304793670974,492.12758276422943 500.4999999999997,500.4999999999995 495.7487060308889,513.5540728933222" stroke="black" stroke-linecap="round" stroke-width="1" /><polyline clip-path="url(#border_clip)" fill="none" points="495.7487060308889,513.5540728933222 495.74870603088885,527.4459271066767 500.49999999999955,540.4999999999994 509.4295117639154,551.1417777247585 521.4602104183502,558.0877048314358 535.1410161513769,560.4999999999995 548.8218218844036,558.087704831436 560.8525205388385,551.1417777247588 569.7820323027545,540.4999999999998 574.5333262718653,527.445927106677 574.5333262718653,513.5540728933227 569.7820323027547,500.49999999999983 560.8525205388388,489.8582222752407 548.821821884404,482.9122951685634 535.1410161513774,480.49999999999966 521.4602104183506,482.9122951685633 509.42951176391574,489.8582222752404 500.4999999999997,500.49999999999943 494.8938901525313,515.1044154591115 494.07517542080785,530.726423163382 498.1239973070914,545.8368321537894 506.6440289153516,558.9565303179422 518.8012701892212,568.8012701892213 533.4056856483332,574.4073800366898 549.0276933526038,575.2260947684133 564.1381023430112,571.1772728821297 577.2578005071641,562.6572412738694 587.1025403784431,550.4999999999999 592.7086502259116,535.8955845408879 593.527364957635,520.2735768366173 589.4785430713515,505.16316784620994 580.9585114630913,492.04346968205704 568.8012701892217,482.198729810778 554.1968547301096,476.5926199633095 538.5748470258391,475.77390523158607 523.4644380354317,479.8227271178696 510.3447398712788,488.34275872612983 500.4999999999998,500.49999999999943 494.1528301276535,516.3544638694337 492.5294838760854,533.3549149494239 495.7614751041857,550.1240777990446 503.5869671040455,565.3034145742712 515.3719850538292,577.6631856845667" stroke="black" stroke-linecap="round" stroke-width="1" /><polyline clip-path="url(#border_clip)" fill="none" points="515.3719850538292,577.6631856845667 530.1617768874459,586.2020759809639 546.7581616288145,590.2283153543846 563.81659888869,589.415721835762 579.95511553071,583.8301269192951 593.8662649159921,573.924042286304 604.4230484541318,560.4999999999999 610.770218326478,544.6455361305657 612.3935645780462,527.6450850505755 609.1615733499459,510.8759222009548 601.336081350086,495.6965854257282 589.5510634003023,483.3368143154328 574.7612715666858,474.7979240190356 558.1648868253171,470.7716846456148 541.1064495654416,471.5842781642374 524.9679329234216,477.16987308070424 511.0567835381394,487.07595771369535 500.4999999999998,500.49999999999943 493.30513299336695,518.1534549804963 491.13991632601585,537.0934238499267 494.1649342129567,555.9152157618371 502.1558349160512,573.2229045140896 514.5199698860891,587.7328580093373 530.3403477944964,598.3689393754581 548.4436435852199,604.3423191143614 567.487218626529,605.2099789772068 586.0586980761689,600.9075686012467 602.780720262225,591.7541780818483 616.4130892973188,578.4286725198601 625.9447547340562,561.919343702683 630.6687965514622,543.4506130235334 630.2348541789929,524.3922217480625 624.6751111372604,506.15764357083367 614.4019081335377,490.09925373760717 600.1771616378347,477.40802956006826 583.0558560238522,469.0252210769776 564.307800204218,465.5725428447289 545.3234517124258,467.3060642128562 527.5107928284964,474.09721783181806 512.1909069743587,485.44233490515654 500.49999999999966,500.49999999999943 492.72902695894203,518.9864143507781 489.7995776247669,538.8246064093307" stroke="black" stroke-linecap="round" stroke-width="1" /><polyline clip-path="url(#border_clip)" fill="none" points="489.7995776247669,538.8246064093307 491.8957200729016,558.7680696088518 498.8857459642571,577.5636828095883 510.3304462645627,594.030448508708 525.5107083632865,607.1336992568074 543.4727005636673,616.050109618998 563.0878048361687,620.21942873996 583.1235320400422,619.3796829656401 602.3209637488179,613.5836366114079 619.4738547250188,603.1954765860671 633.5044257446898,588.86792918899 643.5310844298342,571.5012469161684 648.9238189397933,552.1866422849931 649.3437839322162,532.137722938588 644.7645914621057,512.614236214255 635.4739690334509,494.8429145852457 622.0556806219631,479.9403955478597 605.352846637549,468.8430591808471 586.4149675681756,462.24819194129554 566.431980004419,460.57017359209124 546.6594885471972,463.9144401974344 528.3398715529045,472.07085918715916 512.6242179321306,484.52693275893034 500.4999999999997,500.49999999999943 492.2232302322051,519.6877090560013 488.5945520961849,540.2669653980565 489.80958856950014,561.128335990023 495.8028367213741,581.1471789435234 506.2511989926447,599.24427325325 520.59140146881,614.4439998807073 538.0503601225569,625.9269376291065 557.6868579737787,633.0740383521836 578.4422863405982,635.4999999999995 599.1977147074178,633.0740383521838 618.8342125586398,625.9269376291069 636.2931712123868,614.4439998807079 650.6333736885522,599.2442732532509 661.081735959823,581.1471789435243 667.0749841116972,561.128335990024 668.2900205850127,540.2669653980576 664.6613424489927,519.6877090560023 656.3845726811984,500.5000000000004 643.9059140821735,483.73825259181433" stroke="black" stroke-linecap="round" stroke-width="1" /><polyline clip-path="url(#border_clip)" fill="none" points="643.9059140821735,483.73825259181433 627.8980943669717,470.30609697283603 609.2240992399095,460.92766412926846 588.8906486118701,456.10854780322524 567.9939240693287,456.1085478032251 547.6604734412892,460.9276641292681 528.9864783142269,470.30609697283546 512.978658599025,483.7382525918136 500.4999999999999,500.4999999999995 491.5452597998296,521.024482558909 487.38216066032555,543.0269906413569 488.21945775593053,565.4042266176167 494.01516551402284,587.0341024366387 504.47866294684366,606.8320058063614 519.085266601351,623.8051871829819 537.1025403784429,637.1025403784431 557.6270229373523,646.0572805786135 579.6295310198002,650.2203797181176 602.00676699606,649.3830826225125 623.636642815082,643.5873748644202 643.4345461848047,633.1238774315995 660.4077275614252,618.517273777092 673.7050807568866,600.5000000000002 682.6598209570568,579.9755174410907 686.8229200965609,557.9730093586428 685.9856230009559,535.595773382383 680.1899152428637,513.965897563361 669.7264178100428,494.16799419363826 655.1198141555354,477.1948128170178 637.1025403784436,463.8974596215565 616.5780578195341,454.9427194213862 594.5755497370862,450.7796202818821 572.1983137608264,451.61691737748714 550.5684379418044,457.4126251355794 530.7705345720817,467.8761225684002 513.7973531954611,482.4827262229076 500.4999999999999,500.4999999999994 495.8527682795622,501.64543974346725 492.27016134106333,504.8193525326878 490.5729112590193,509.2946331974461 491.1498375731457,514.0460488704247 493.86877341759185,517.9851074817103 498.1068433571242,520.2094181742599" stroke="black" stroke-linecap="round" stroke-width="1" /><polyline clip-path="url(#border_clip)" fill="none" points="498.1068433571242,520.2094181742599 502.89315664287534,520.2094181742599 507.1312265824077,517.9851074817104 509.8501624268539,514.0460488704248 510.42708874098037,509.2946331974462 508.7298386589364,504.81935253268784 505.14723172043756,501.6454397434673 500.4999999999999,500.4999999999994 492.3652671384839,502.22909084714735 485.637103490452,507.1173878728221 481.47886967409676,514.3196601125003 480.60956209263435,522.5905692653523 483.179491924311,530.4999999999992 488.74429495415023,536.6803398874982 496.34176618364444,540.0629520146754 504.6582338163548,540.0629520146755 512.2557050458491,536.6803398874983 517.8205080756884,530.4999999999994 520.3904379073651,522.5905692653525 519.5211303259028,514.3196601125005 515.3628965095477,507.1173878728223 508.63473286151583,502.2290908471474 500.4999999999999,500.4999999999994 489.66275001438527,502.5258331178687 480.28913069060314,508.3297324833795 473.64510125934794,517.1278493267031 470.62797471114874,527.7319492161001 471.64523070481516,538.7098897021616 476.55948318159244,548.5790390913769 484.7070351136789,556.0065140718876 494.98751446550244,559.9891929905164 506.01248553449665,559.9891929905164 516.2929648863202,556.0065140718879 524.4405168184068,548.5790390913771 529.3547692951842,538.709889702162 530.3720252888508,527.7319492161005 527.3548987406516,517.1278493267034 520.7108693093965,508.32973248337976 511.33724998561445,502.5258331178688 500.4999999999999,500.49999999999943 486.81919426697317,502.912295168563 474.7884956125383,509.8582222752401 465.8589838486223,520.4999999999992" stroke="black" stroke-linecap="round" stroke-width="1" /><polyline clip-path="url(#border_clip)" fill="none" points="465.8589838486223,520.4999999999992 461.10768987951144,533.5540728933219 461.1076898795113,547.4459271066763 465.858983848622,560.4999999999991 474.78849561253793,571.1417777247582 486.81919426697266,578.0877048314355 500.4999999999994,580.4999999999992 514.1808057330261,578.0877048314356 526.211504387461,571.1417777247585 535.141016151377,560.4999999999995 539.8923101204879,547.4459271066768 539.892310120488,533.5540728933224 535.1410161513772,520.4999999999995 526.2115043874613,509.8582222752404 514.1808057330267,502.9122951685631 500.4999999999999,500.4999999999994 485.04915028125254,502.9471741852416 471.11073738537624,510.0491502812518 460.0491502812525,521.1107373853754 452.9471741852421,535.0491502812516 450.49999999999966,550.499999999999 452.94717418524186,565.9508497187463 460.0491502812521,579.8892626146226 471.11073738537567,590.9508497187464 485.0491502812519,598.0528258147567 500.4999999999992,600.4999999999992 515.9508497187466,598.0528258147569 529.8892626146229,590.9508497187468 540.9508497187467,579.8892626146231 548.052825814757,565.950849718747 550.4999999999994,550.4999999999997 548.0528258147573,535.0491502812523 540.950849718747,521.110737385376 529.8892626146235,510.04915028125225 515.9508497187472,502.94717418524186 500.49999999999994,500.49999999999943 483.5960465895142,502.93042158312943 468.0615509526641,510.0247880301283 455.1550255387444,521.208355963282 445.9220802787287,535.5750992198857 441.11071348714376,551.9611097036018 441.11071348714364,569.038890296396 445.92208027872834,585.424900780112" stroke="black" stroke-linecap="round" stroke-width="1" /><polyline clip-path="url(#border_clip)" fill="none" points="445.92208027872834,585.424900780112 455.1550255387438,599.7916440367159 468.06155095266337,610.9752119698697 483.5960465895133,618.0695784168688 500.49999999999903,620.4999999999991 517.4039534104847,618.069578416869 532.9384490473349,610.9752119698702 545.8449744612545,599.7916440367165 555.0779197212703,585.4249007801127 559.8892865128552,569.0388902963967 559.8892865128553,551.9611097036026 555.0779197212706,535.5750992198865 545.8449744612551,521.2083559632827 532.9384490473357,510.0247880301288 517.4039534104857,502.9304215831297 500.49999999999994,500.49999999999943 481.6142260190083,503.09578988565335 464.12912349751963,510.6906416817449 449.34148250053124,522.7212799746932 438.3480347118336,538.2954473588183 431.9641138622371,556.2580790863144 430.6631861566618,575.2769689355257 434.54173545168203,593.9415728519677 443.3121074892683,610.8676225480394 456.3238438971755,624.7997903493082 472.61192371076214,634.7047911053805 490.9683345632617,639.8480162225421 510.0316654367362,639.8480162225422 528.3880762892359,634.704791105381 544.6761561028227,624.7997903493088 557.68789251073,610.8676225480402 566.4582645483166,593.9415728519687 570.336813843337,575.2769689355267 569.035886137762,556.2580790863153 562.6519652881658,538.295447358819 551.6585174994684,522.7212799746939 536.8708765024802,510.6906416817454 519.3857739809916,503.0957898856535 500.49999999999994,500.4999999999993 480.60480902681155,503.01334710970866 461.9597060718627,510.39546559648994 445.73623152570474,522.1825098062859 432.95376595983856,537.633856401679" stroke="black" stroke-linecap="round" stroke-width="1" /><polyline clip-path="url(#border_clip)" fill="none" points="432.95376595983856,537.633856401679 424.41547869638737,555.7786404500029 420.65786172573775,575.4767584376535 421.9170199417042,595.4905051668566 428.11383580271763,614.5623433252044 438.85894057793587,631.4939191798939 453.47717981660105,645.2213595499945 471.05003578522457,654.882118871059 490.4733413148544,659.8691761051572 510.52665868514305,659.8691761051573 529.949964214773,654.8821188710594 547.5228201833966,645.2213595499952 562.141059422062,631.4939191798948 572.8861641972806,614.5623433252055 579.0829800582942,595.4905051668577 580.342138274261,575.4767584376548 576.5845213036116,555.778640450004 568.0462340401607,537.6338564016801 555.2637684742948,522.1825098062868 539.040293928137,510.3954655964905 520.3951909731883,503.013347109709 500.49999999999994,500.4999999999993 479.7445716331803,502.92596164781503 460.10807378195835,510.07306237089193 442.64911512821135,521.5560001192908 428.3089126520459,536.755726746748 417.86055038077507,554.8528210564745 411.8673022289008,574.8716640099748 410.6522657555853,595.7330346019413 414.28094389160526,616.3122909439966 422.5577136593996,635.4999999999984 435.03637225842454,652.2617474081845 451.04419197362625,665.6939030271628 469.7181871006885,675.0723358707305 490.0516377287279,679.8914521967738 510.9483622712693,679.8914521967739 531.2818128993086,675.072335870731 549.9558080263711,665.6939030271636 565.963627741573,652.2617474081856 578.4422863405981,635.4999999999997 586.7190561083928,616.3122909439979 590.3477342444131,595.7330346019428 589.1326977710978,574.8716640099763" stroke="black" stroke-linecap="round" stroke-width="1" /><polyline clip-path="url(#border_clip)" fill="none" points="589.1326977710978,574.8716640099763 583.1394496192239,554.8528210564758 572.6910873479534,536.7557267467491 558.3508848717881,521.5560001192919 540.8919262180414,510.07306237089267 521.2554283668195,502.9259616478155 500.49999999999994,500.4999999999995 478.24790660436855,503.0072087818169 457.1116260882442,510.4031132097572 438.1510198141266,522.3168517531959 422.3168517531969,538.1510198141254 410.40311320975786,557.1116260882428 403.0072087818172,578.247906604367 400.49999999999943,600.4999999999984 403.00720878181687,622.7520933956298 410.4031132097571,643.8883739117541 422.31685175319586,662.8489801858717 438.15101981412533,678.6831482468015 457.1116260882427,690.5968867902404 478.24790660436696,697.9927912181811 500.4999999999983,700.4999999999989 522.7520933956297,697.9927912181814 543.8883739117541,690.5968867902411 562.8489801858716,678.6831482468024 578.6831482468014,662.848980185873 590.5968867902404,643.8883739117556 597.9927912181811,622.7520933956314 600.4999999999989,600.5 597.9927912181814,578.2479066043686 590.5968867902411,557.1116260882443 578.6831482468024,538.1510198141266 562.848980185873,522.3168517531969 543.8883739117556,510.40311320975786 522.7520933956313,503.00720878181727 500.5,500.49999999999943 497.18440422343366,497.04809914456143 492.64441164932293,495.5324269186573 487.9200798635549,496.3002055634111 484.0936963438791,499.1755462440455 482.0418394417329,503.4997430622388 482.2345648458419,508.28217463916377 484.6277214887174,512.4272435350953 488.6730660241408,514.9853644194708" stroke="black" stroke-linecap="round" stroke-width="1" /><polyline clip-path="url(#border_clip)" fill="none" points="488.6730660241408,514.9853644194708 493.4438587707331,515.3705026263784 497.8471686045353,513.4944276340344 500.8742503082593,509.78692561402994 501.8316359438712,505.09734059890525 500.5,500.49999999999943 494.93519697016075,494.31966011250046 487.3377257406665,490.9370479853232 479.02125810795616,490.93704798532315 471.42378687846184,494.31966011250023 465.85898384862253,500.49999999999915 463.2890540169458,508.40943073464604 464.1583615984081,516.680339887498 468.3165954147632,523.8826121271762 475.04475906279504,528.7709091528511 483.179491924311,530.4999999999992 491.314224785827,528.7709091528513 498.0423884338589,523.8826121271765 502.2006222502141,516.6803398874983 503.0699298316766,508.4094307346464 500.49999999999994,500.49999999999943 493.3269520632901,492.12758276422926 483.6138181098583,486.9117399871846 472.6724107024487,485.5569001378879 461.9804275398635,488.2460418454134 452.98188019453374,494.61598162111125 446.89207234811835,503.8064238012186 444.53346629506586,514.5761482433138 446.2246048523284,525.4706439843887 451.73709038682546,535.0185490061262 460.3264311813863,541.9303658285726 470.8325891665251,545.2726152901571 481.8366494897178,544.5939080810494 491.85245282871404,539.9859073706859 499.52730944310014,532.0709491888146 503.82468741925464,521.9179924961943 504.1642020489045,510.8982503536389 500.5,500.49999999999943 491.57048823608415,489.8582222752403 479.5397895816494,482.912295168563 465.8589838486227,480.4999999999992 452.178178115596,482.91229516856276 440.14747946116114,489.8582222752398" stroke="black" stroke-linecap="round" stroke-width="1" /><polyline clip-path="url(#border_clip)" fill="none" points="440.14747946116114,489.8582222752398 431.21796769724506,500.4999999999988 426.4666737281342,513.5540728933215 426.4666737281341,527.4459271066759 431.2179676972447,540.4999999999987 440.1474794611606,551.1417777247578 452.1781781155953,558.0877048314352 465.85898384862196,560.499999999999 479.53978958164873,558.0877048314354 491.5704882360836,551.1417777247584 500.4999999999996,540.4999999999993 505.2512939691105,527.4459271066767 505.25129396911063,513.5540728933222 500.5,500.49999999999943 490.6552601287211,488.34275872612966 477.53556196456833,479.82272711786925 462.42515297416105,475.7739052315855 446.8031452698905,476.5926199633087 432.1987298107784,482.1987298107769 420.0414885369086,492.0434696820558 411.5214569286482,505.1631678462086 407.47263504236446,520.2735768366158 408.2913497740877,535.8955845408865 413.89745962155587,550.4999999999985 423.74219949283474,562.6572412738683 436.8618976569875,571.1772728821287 451.97230664739476,575.2260947684125 467.5943143516654,574.4073800366892 482.1987298107774,568.801270189221 494.3559710846472,558.9565303179422 502.8760026929076,545.8368321537894 506.9248245791914,530.7264231633822 506.10610984746813,515.1044154591116 500.49999999999994,500.4999999999995 489.9432164618605,487.07595771369523 476.0320670765786,477.16987308070395 459.8935504345587,471.5842781642368 442.83511317468316,470.77168464561396 426.23872843331446,474.7979240190345 411.4489365996978,483.33681431543147 399.6639186499139,495.69658542572665 391.8384266500538,510.87592220095314 388.6064354219533,527.6450850505738" stroke="black" stroke-linecap="round" stroke-width="1" /><polyline clip-path="url(#border_clip)" fill="none" points="388.6064354219533,527.6450850505738 390.2297816735211,544.6455361305639 396.5769515458671,560.4999999999983 407.1337350840065,573.9240422863026 421.0448844692885,583.8301269192939 437.18340111130834,589.415721835761 454.24183837118386,590.2283153543838 470.83822311255255,586.2020759809633 485.62801494616923,577.6631856845663 497.4130328959531,565.3034145742712 505.2385248958132,550.1240777990447 508.47051612391374,533.354914949424 506.84716987234594,516.3544638694339 500.49999999999994,500.49999999999955 488.8090930256412,485.4423349051565 473.48920717150366,474.0972178318177 455.67654828757446,467.30606421285563 436.69219979578236,465.57254284472805 417.9441439761481,469.02522107697644 400.82283836216544,477.40802956006684 386.59809186646214,490.0992537376055 376.32488886273933,506.1576435708318 370.7651458210065,524.3922217480606 370.33120344853705,543.4506130235313 375.0552452659427,561.9193437026811 384.58691070267975,578.4286725198583 398.2192797377734,591.7541780818467 414.94130192382937,600.9075686012454 433.5127813734692,605.2099789772058 452.5563564147783,604.3423191143607 470.65965220550186,598.3689393754577 486.4800301139093,587.7328580093372 498.8441650839474,573.2229045140896 506.8350657870422,555.9152157618372 509.8600836739834,537.0934238499269 507.6948670066326,518.1534549804966 500.50000000000006,500.4999999999995 488.3757820678694,484.5269327589302 472.6601284470957,472.07085918715876 454.3405114528032,463.91444019743375 434.5680199955815,460.57017359209027 414.5850324318248,462.24819194129424 395.6471533624513,468.84305918084544" stroke="black" stroke-linecap="round" stroke-width="1" /><polyline clip-path="url(#border_clip)" fill="none" points="395.6471533624513,468.84305918084544 378.944319378037,479.9403955478578 365.526030966549,494.8429145852436 356.2354085378938,512.6142362142527 351.65621606778313,532.1377229385856 352.0761810602057,552.1866422849907 357.46891557016454,571.5012469161661 367.4955742553086,588.8679291889879 381.52614527497934,603.1954765860652 398.67903625118,613.5836366114063 417.87646795995573,619.3796829656387 437.9121951638291,620.2194287399589 457.5272994363305,616.0501096189972 475.48929163671136,607.133699256807 490.6695537354355,594.0304485087078 502.1142540357412,577.5636828095883 509.104279927097,558.7680696088519 511.20042237523205,538.824606409331 508.2709730410573,518.9864143507783 500.4999999999999,500.49999999999955 488.021341400975,483.7382525918134 472.01352168577336,470.30609697283506 453.33952655871116,460.92766412926744 433.0060759306718,456.10854780322416 412.10935138813045,456.108547803224 391.77590076009096,460.9276641292669 373.1019056330286,470.30609697283415 357.09408591782665,483.73825259181217 344.6154273188015,500.499999999998 336.3386575510068,519.6877090559998 332.7099794149865,540.2669653980549 333.9250158883017,561.1283359900215 339.9182640401756,581.1471789435218 350.36662631144605,599.2442732532485 364.70682878761124,614.4439998807059 382.165787441358,625.926937629105 401.8022852925798,633.0740383521822 422.5577136593994,635.4999999999983 443.3131420262189,633.0740383521827 462.94963987744086,625.9269376291059 480.40859853118786,614.443999880707 494.7488010073534,599.2442732532498 505.1971632786242,581.1471789435234" stroke="black" stroke-linecap="round" stroke-width="1" /><polyline clip-path="url(#border_clip)" fill="none" points="505.1971632786242,581.1471789435234 511.19041143049844,561.1283359900232 512.4054479038141,540.2669653980568 508.7767697677941,519.6877090560015 500.49999999999983,500.4999999999996 487.20264680453886,482.4827262229076 470.2294654279186,467.8761225684 450.4315620581961,457.4126251355789 428.8016862391742,451.6169173774863 406.42445026291443,450.77962028188085 384.4219421804665,454.9427194213846 363.8974596215569,463.89745962155456 345.8801858444649,477.19481281701553 331.27358218995727,494.16799419363576 320.81008475713617,513.9658975633582 315.0143769990435,535.5957733823802 314.1770799034382,557.97300935864 318.3401790429419,579.9755174410878 327.29491924311185,600.4999999999975 340.5922724385729,618.5172737770895 357.56545381519305,633.1238774315971 377.36335718491557,643.5873748644183 398.99323300393746,649.3830826225109 421.37046898019724,650.2203797181162 443.3729770626452,646.0572805786126 463.8974596215548,637.1025403784425 481.9147333986468,623.8051871829816 496.5213370531544,606.8320058063614 506.9848344859755,587.0341024366388 512.7805422440682,565.4042266176169 513.6178393396735,543.0269906413572 509.45474020016985,521.0244825589092 500.4999999999999,500.49999999999966 501.8316359438713,495.90265940109384 500.87425030825943,491.21307438596915 497.84716860453545,487.50557236596467 493.4438587707333,485.6294973736205 488.673066024141,486.01463558052814 484.62772148871755,488.57275646490353 482.23456484584193,492.717825360835 482.0418394417329,497.5002569377599 484.093696343879,501.82445375595324 487.92007986355475,504.69979443658775" stroke="black" stroke-linecap="round" stroke-width="1" /><polyline clip-path="url(#border_clip)" fill="none" points="487.92007986355475,504.69979443658775 492.64441164932276,505.46757308134164 497.1844042234335,503.95190085543754 500.4999999999999,500.49999999999966 503.0699298316767,492.59056926535277 502.20062225021434,484.31966011250074 498.0423884338593,477.1173878728225 491.31422478582743,472.22909084714763 483.1794919243115,470.49999999999955 475.0447590627955,472.22909084714746 468.3165954147636,477.11738787282223 464.15836159840836,484.3196601125004 463.2890540169459,492.59056926535237 465.85898384862253,500.49999999999926 471.4237868784617,506.68033988749823 479.02125810795593,510.0629520146755 487.33772574066626,510.06295201467555 494.9351969701606,506.6803398874985 500.4999999999999,500.4999999999996 504.1642020489046,490.10174964636025 503.824687419255,479.08200750380485 499.52730944310065,468.9290508111846 491.8524528287147,461.01409262931304 481.8366494897186,456.40609191894936 470.8325891665259,455.72738470984143 460.326431181387,459.06963417142583 451.7370903868261,465.98145099387204 446.22460485232887,475.5293560156094 444.53346629506615,486.42385175668426 446.8920723481184,497.1935761987795 452.98188019453363,506.38401837888694 461.9804275398633,512.7539581545849 472.6724107024484,515.4430998621106 483.61381810985796,514.0882600128141 493.32695206328987,508.87241723576966 500.4999999999999,500.49999999999966 505.2512939691108,487.44592710667695 505.2512939691109,473.5540728933226 500.5000000000003,460.49999999999983 491.5704882360845,449.8582222752406 479.5397895816498,442.91229516856333 465.8589838486231,440.49999999999955 452.17817811559644,442.91229516856305" stroke="black" stroke-linecap="round" stroke-width="1" /><polyline clip-path="url(#border_clip)" fill="none" points="452.17817811559644,442.91229516856305 440.14747946116154,449.8582222752401 431.2179676972455,460.4999999999991 426.46667372813465,473.55407289332175 426.4666737281345,487.44592710667615 431.2179676972451,500.4999999999989 440.1474794611609,511.1417777247581 452.17817811559564,518.0877048314354 465.8589838486223,520.4999999999992 479.539789581649,518.0877048314356 491.57048823608386,511.14177772475864 500.49999999999994,500.49999999999966 506.1061098474684,485.89558454088774 506.924824579192,470.27357683661717 502.8760026929085,455.16316784620983 494.3559710846484,442.04346968205687 482.1987298107788,432.19872981077776 467.59431435166687,426.5926199633093 451.9723066473963,425.77390523158573 436.861897656989,429.8227271178692 423.74219949283605,438.3427587261293 413.89745962155695,450.49999999999886 408.2913497740884,465.1044154591108 407.4726350423649,480.72642316338136 411.5214569286484,495.8368321537887 420.0414885369085,508.9565303179416 432.19872981077805,518.8012701892208 446.80314526988997,524.4073800366892 462.4251529741605,525.2260947684127 477.5355619645678,521.1772728821293 490.6552601287208,512.6572412738692 500.4999999999999,500.4999999999996 506.84716987234617,484.6455361305654 508.47051612391436,467.64508505057535 505.2385248958142,450.8759222009546 497.4130328959544,435.696585425728 485.62801494617077,423.33681431543255 470.83822311255426,414.79792401903535 454.24183837118574,410.77168464561447 437.1834011113102,411.58427816423693 421.0448844692902,417.1698730807037 407.1337350840081,427.0759577136947 396.5769515458684,440.49999999999875" stroke="black" stroke-linecap="round" stroke-width="1" /><polyline clip-path="url(#border_clip)" fill="none" points="396.5769515458684,440.49999999999875 390.2297816735221,456.354463869433 388.6064354219539,473.35491494942306 391.8384266500541,490.1240777990438 399.66391864991385,505.3034145742704 411.4489365996975,517.6631856845657 426.238728433314,526.2020759809631 442.83511317468253,530.2283153543839 459.89355043455805,529.4157218357615 476.032067076578,523.8301269192947 489.9432164618602,513.9240422863037 500.49999999999983,500.49999999999966 507.69486700663276,482.8465450195028 509.860083673984,463.9065761500725 506.83506578704316,445.08478423816223 498.8441650839488,427.77709548590974 486.480030113911,413.26714199066197 470.6596522055038,402.6310606245411 452.55635641478045,396.65768088563766 433.5127813734714,395.79002102279225 414.94130192383153,400.0924313987522 398.2192797377754,409.24582191815045 384.5869107026815,422.5713274801386 375.0552452659441,439.08065629731556 370.3312034485381,457.5493869764652 370.7651458210072,476.60777825193594 376.3248888627396,494.8423564291648 386.598091866462,510.9007462623913 400.82283836216504,523.5919704399303 417.9441439761475,531.974778923021 436.6921997957817,535.4274571552697 455.6765482875738,533.6939357871427 473.48920717150315,526.9027821681809 488.8090930256409,515.5576650948425 500.49999999999994,500.4999999999997 508.2709730410577,482.0135856492211 511.2004223752329,462.17539359066853 509.10427992709833,442.23193039114756 502.11425403574293,423.4363171904111 490.66955373543755,406.9695514912913 475.48929163671374,393.8663007431919 457.527299436333,384.9498903810012 437.9121951638317,380.7805712600391" stroke="black" stroke-linecap="round" stroke-width="1" /><polyline clip-path="url(#border_clip)" fill="none" points="437.9121951638317,380.7805712600391 417.8764679599584,381.62031703435883 398.67903625118254,387.4163633885909 381.5261452749817,397.8045234139315 367.4955742553107,412.13207081100853 357.46891557016625,429.4987530838301 352.076181060207,448.8133577150052 351.656216067784,468.86227706141034 356.2354085378943,488.3857637857433 365.52603096654906,506.1570854147526 378.9443193780367,521.0596044521387 395.64715336245075,532.1569408191514 414.58503243182406,538.751808058703 434.56801999558064,540.4298264079074 454.34051145280233,537.0855598025644 472.660128447095,528.9291408128397 488.37578206786895,516.4730672410686 500.4999999999999,500.49999999999966 508.77676976779463,481.312290943998 512.405447903815,460.7330346019428 511.1904114304998,439.87166400997637 505.197163278626,419.852821056476 494.74880100735555,401.7557267467493 480.40859853119036,386.556000119292 462.94963987744364,375.0730623708927 443.31314202622184,367.9259616478155 422.55771365940234,365.49999999999943 401.80228529258284,367.92596164781503 382.16578744136086,375.07306237089176 364.70682878761386,386.5560001192906 350.3666263114484,401.75572674674765 339.9182640401775,419.85282105647406 333.9250158883032,439.87166400997427 332.7099794149876,460.7330346019407 336.3386575510075,481.31229094399595 344.6154273188017,500.4999999999978 357.09408591782653,517.2617474081839 373.10190563302814,530.6939030271623 391.7759007600903,540.0723358707298 412.1093513881296,544.8914521967732 433.00607593067093,544.8914521967735 453.3395265587103,540.0723358707306 472.0135216857727,530.6939030271634" stroke="black" stroke-linecap="round" stroke-width="1" /><polyline clip-path="url(#border_clip)" fill="none" points="472.0135216857727,530.6939030271634 488.02134140097456,517.2617474081853 500.4999999999998,500.4999999999996 509.4547402001702,479.97551744109023 513.6178393396743,457.97300935864246 512.7805422440695,435.5957733823827 506.98483448597733,413.96589756336067 496.5213370531567,394.1679941936379 481.9147333986494,377.19481281701746 463.89745962155774,363.8974596215561 443.3729770626484,354.94271942138573 421.37046898020054,350.77962028188153 398.99323300394076,351.6169173774864 377.36335718491875,357.41262513557854 357.56545381519607,367.8761225683992 340.59227243857555,382.4827262229065 327.2949192431142,400.4999999999982 318.34017904294376,421.0244825589075 314.1770799034396,443.0269906413553 315.01437699904454,465.4042266176151 320.8100847571367,487.0341024366371 331.2735821899573,506.8320058063598 345.88018584446456,523.8051871829804 363.8974596215562,537.1025403784417 384.42194218046563,546.0572805786121 406.4244502629134,550.2203797181163 428.8016862391732,549.3830826225114 450.4315620581952,543.5873748644192 470.22946542791794,533.1238774315985 487.2026468045384,518.5172737770913 500.4999999999998,500.4999999999996" stroke="black" stroke-linecap="round" stroke-width="1" /></svg>