<?xml version="1.0" encoding="utf-8" ?>
<svg baseProfile="full" height="700px" version="1.1" width="700px" xmlns="http://www.w3.org/2000/svg" xmlns:ev="http://www.w3.org/2001/xml-events" xmlns:xlink="http://www.w3.org/1999/xlink"><defs><clipPath id="border_clip"><rect height="700" width="700" x="0" y="0" /></clipPath></defs><polyline clip-path="url(#border_clip)" fill="none" points="350.5,350.5 450.5,350.5 369.5983005625053,409.2785252292473 400.5,314.17287359973193 431.40169943749476,409.2785252292473 350.5,350.5 400.50000000000006,437.10254037844385 309.1454542357399,396.4288760708639 406.9602143091205,375.63770698908786 340.04715367323473,449.9521895368274 350.49999999999994,350.50000000000006 300.5000000000001,437.10254037844396 290.04715367323456,337.65035084161667 356.96021430912054,411.96483338935593 259.1454542357399,391.1736643075802 350.4999999999999,350.5 250.49999999999994,350.5000000000002 331.4016994374945,291.7214747707527 300.50000000000006,386.8271264002682 269.598300562505,291.72147477075293 350.49999999999994,350.49999999999994 300.49999999999966,263.8974596215563 391.85454576425985,304.571123929136 294.0397856908794,325.36229301091225 360.9528463267649,251.0478104631726 350.49999999999994,350.49999999999994 400.4999999999996,263.89745962155587 410.9528463267654,363.34964915838316 344.0397856908792,289.03516661064407 441.85454576425985,309.8263356924195 350.5,350.5" stroke="black" stroke-linecap="round" stroke-width="1" /></svg>