<?xml version="1.0" encoding="utf-8" ?>
<svg baseProfile="full" height="700px" version="1.1" width="700px" xmlns="http://www.w3.org/2000/svg" xmlns:ev="http://www.w3.org/2001/xml-events" xmlns:xlink="http://www.w3.org/1999/xlink"><defs><clipPath id="border_clip"><rect height="700" width="700" x="0" y="0" /></clipPath></defs><polyline clip-path="url(#border_clip)" fill="none" points="350.5,350.5 490.5,350.5 490.5,490.5 350.5,490.5 350.5,350.5" stroke="black" stroke-linecap="round" stroke-width="1" /><polyline clip-path="url(#border_clip)" fill="none" points="490.5,350.5 630.5,350.49999999999994 630.5,490.5 490.50000000000006,490.5 490.5,350.5" stroke="black" stroke-linecap="round" stroke-width="1" /><polyline clip-path="url(#border_clip)" fill="none" points="630.5,350.5 770.5,350.49999999999994 770.5,490.49999999999994 630.5,490.5 630.5,350.5" stroke="black" stroke-linecap="round" stroke-width="1" /><polyline clip-path="url(#border_clip)" fill="none" points="770.5,350.5 910.5,350.4999999999999 910.5000000000001,490.4999999999999 770.5000000000001,490.5 770.5,350.5" stroke="black" stroke-linecap="round" stroke-width="1" /><polyline clip-path="url(#border_clip)" fill="none" points="910.5,350.5 1050.5,350.4999999999999 1050.5,490.4999999999999 910.5000000000001,490.5 910.5,350.5" stroke="black" stroke-linecap="round" stroke-width="1" /><polyline clip-path="url(#border_clip)" fill="none" points="350.5,210.5 490.5,210.49999999999983 490.50000000000017,350.49999999999983 350.50000000000017,350.5 350.5,210.50000000000003" stroke="black" stroke-linecap="round" stroke-width="1" /><polyline clip-path="url(#border_clip)" fill="none" points="490.5,210.5 630.5,210.4999999999998 630.5000000000002,350.4999999999998 490.5000000000002,350.5 490.5,210.50000000000003" stroke="black" stroke-linecap="round" stroke-width="1" /><polyline clip-path="url(#border_clip)" fill="none" points="630.5,210.5 770.5,210.49999999999977 770.5000000000002,350.4999999999998 630.5000000000002,350.50000000000006 630.5,210.50000000000003" stroke="black" stroke-linecap="round" stroke-width="1" /><polyline clip-path="url(#border_clip)" fill="none" points="770.5,210.5 910.5,210.49999999999972 910.5000000000002,350.4999999999997 770.5000000000002,350.5 770.5,210.5" stroke="black" stroke-linecap="round" stroke-width="1" /><polyline clip-path="url(#border_clip)" fill="none" points="910.5,210.5 1050.5,210.4999999999997 1050.5000000000005,350.49999999999966 910.5000000000003,350.5 910.5,210.5" stroke="black" stroke-linecap="round" stroke-width="1" /><polyline clip-path="url(#border_clip)" fill="none" points="350.5,70.5 490.5,70.49999999999966 490.50000000000034,210.49999999999966 350.50000000000034,210.50000000000003 350.5,70.5" stroke="black" stroke-linecap="round" stroke-width="1" /><polyline clip-path="url(#border_clip)" fill="none" points="490.5,70.5 630.5,70.4999999999996 630.5000000000005,210.4999999999996 490.5000000000004,210.5 490.5,70.5" stroke="black" stroke-linecap="round" stroke-width="1" /><polyline clip-path="url(#border_clip)" fill="none" points="630.5,70.5 770.5,70.4999999999996 770.5000000000005,210.4999999999996 630.5000000000005,210.50000000000003 630.5,70.5" stroke="black" stroke-linecap="round" stroke-width="1" /><polyline clip-path="url(#border_clip)" fill="none" points="770.5,70.5 910.5,70.49999999999955 910.5000000000005,210.49999999999955 770.5000000000005,210.5 770.5,70.5" stroke="black" stroke-linecap="round" stroke-width="1" /><polyline clip-path="url(#border_clip)" fill="none" points="910.5,70.5 1050.5,70.49999999999955 1050.5000000000005,210.49999999999955 910.5000000000005,210.50000000000003 910.5,70.5" stroke="black" stroke-linecap="round" stroke-width="1" /><polyline clip-path="url(#border_clip)" fill="none" points="350.5,-69.5 490.5,-69.50000000000051 490.5000000000005,70.49999999999949 350.5000000000005,70.5 350.49999999999994,-69.5" stroke="black" stroke-linecap="round" stroke-width="1" /><polyline clip-path="url(#border_clip)" fill="none" points="490.5,-69.5 630.5,-69.50000000000057 630.5000000000006,70.49999999999943 490.50000000000057,70.5 490.5,-69.5" stroke="black" stroke-linecap="round" stroke-width="1" /><polyline clip-path="url(#border_clip)" fill="none" points="630.5,-69.5 770.5,-69.50000000000057 770.5000000000006,70.49999999999943 630.5000000000006,70.50000000000006 630.5,-69.49999999999994" stroke="black" stroke-linecap="round" stroke-width="1" /><polyline clip-path="url(#border_clip)" fill="none" points="770.5,-69.5 910.5,-69.50000000000063 910.5000000000007,70.49999999999937 770.5000000000007,70.5 770.5,-69.5" stroke="black" stroke-linecap="round" stroke-width="1" /><polyline clip-path="url(#border_clip)" fill="none" points="910.5,-69.5 1050.5,-69.50000000000063 1050.5000000000007,70.49999999999937 910.5000000000007,70.50000000000006 910.5,-69.49999999999994" stroke="black" stroke-linecap="round" stroke-width="1" /><polyline clip-path="url(#border_clip)" fill="none" points="350.5,-209.5 490.5,-209.50000000000068 490.5000000000007,-69.50000000000068 350.5000000000007,-69.5 350.49999999999994,-209.5" stroke="black" stroke-linecap="round" stroke-width="1" /><polyline clip-path="url(#border_clip)" fill="none" points="490.5,-209.5 630.5,-209.50000000000068 630.5000000000007,-69.50000000000068 490.50000000000074,-69.49999999999994 490.5,-209.5" stroke="black" stroke-linecap="round" stroke-width="1" /><polyline clip-path="url(#border_clip)" fill="none" points="630.5,-209.5 770.5,-209.5000000000008 770.5000000000007,-69.5000000000008 630.5000000000007,-69.5 630.5,-209.5" stroke="black" stroke-linecap="round" stroke-width="1" /><polyline clip-path="url(#border_clip)" fill="none" points="770.5,-209.5 910.5,-209.5000000000008 910.5000000000008,-69.5000000000008 770.5000000000008,-69.5 770.5,-209.5" stroke="black" stroke-linecap="round" stroke-width="1" /><polyline clip-path="url(#border_clip)" fill="none" points="910.5,-209.5 1050.5,-209.5000000000008 1050.500000000001,-69.5000000000008 910.5000000000008,-69.49999999999994 910.5,-209.5" stroke="black" stroke-linecap="round" stroke-width="1" /></svg>