<?xml version="1.0" encoding="utf-8" ?>
<svg baseProfile="full" height="700px" version="1.1" width="700px" xmlns="http://www.w3.org/2000/svg" xmlns:ev="http://www.w3.org/2001/xml-events" xmlns:xlink="http://www.w3.org/1999/xlink"><defs><clipPath id="border_clip"><rect height="700" width="700" x="0" y="0" /></clipPath></defs><polyline clip-path="url(#border_clip)" fill="none" points="350.5,350.5 490.5,350.5 490.5,490.5 350.5,490.5 350.5,350.5" stroke="black" stroke-linecap="round" stroke-width="1" /><polyline clip-path="url(#border_clip)" fill="none" points="351.5,350.5 491.5,350.49999999999994 491.50000000000006,490.5 351.50000000000006,490.5 351.5,350.5" stroke="black" stroke-linecap="round" stroke-width="1" /><polyline clip-path="url(#border_clip)" fill="none" points="352.5,350.5 492.5,350.49999999999994 492.5000000000001,490.49999999999994 352.5000000000001,490.5 352.5,350.5" stroke="black" stroke-linecap="round" stroke-width="1" /><polyline clip-path="url(#border_clip)" fill="none" points="353.5,350.5 493.5,350.4999999999999 493.5000000000001,490.4999999999999 353.5000000000001,490.5 353.5,350.5" stroke="black" stroke-linecap="round" stroke-width="1" /><polyline clip-path="url(#border_clip)" fill="none" points="354.5,350.5 494.5,350.4999999999999 494.5000000000001,490.4999999999999 354.5000000000001,490.5 354.5,350.5" stroke="black" stroke-linecap="round" stroke-width="1" /><polyline clip-path="url(#border_clip)" fill="none" points="350.5,349.5 490.5,349.49999999999983 490.50000000000017,489.49999999999983 350.50000000000017,489.5 350.5,349.5" stroke="black" stroke-linecap="round" stroke-width="1" /><polyline clip-path="url(#border_clip)" fill="none" points="351.5,349.5 491.5,349.4999999999998 491.5000000000002,489.4999999999998 351.5000000000002,489.5 351.5,349.5" stroke="black" stroke-linecap="round" stroke-width="1" /><polyline clip-path="url(#border_clip)" fill="none" points="352.5,349.5 492.5,349.4999999999998 492.5000000000002,489.4999999999998 352.5000000000002,489.5 352.5,349.5" stroke="black" stroke-linecap="round" stroke-width="1" /><polyline clip-path="url(#border_clip)" fill="none" points="353.5,349.5 493.5,349.4999999999997 493.5000000000003,489.4999999999997 353.5000000000003,489.5 353.5,349.5" stroke="black" stroke-linecap="round" stroke-width="1" /><polyline clip-path="url(#border_clip)" fill="none" points="354.5,349.5 494.5,349.4999999999997 494.50000000000034,489.49999999999966 354.50000000000034,489.5 354.5,349.5" stroke="black" stroke-linecap="round" stroke-width="1" /><polyline clip-path="url(#border_clip)" fill="none" points="350.5,348.5 490.5,348.49999999999966 490.50000000000034,488.49999999999966 350.50000000000034,488.5 350.5,348.5" stroke="black" stroke-linecap="round" stroke-width="1" /><polyline clip-path="url(#border_clip)" fill="none" points="351.5,348.5 491.5,348.4999999999996 491.5000000000004,488.49999999999966 351.5000000000004,488.5 351.5,348.5" stroke="black" stroke-linecap="round" stroke-width="1" /><polyline clip-path="url(#border_clip)" fill="none" points="352.5,348.5 492.5,348.4999999999996 492.50000000000045,488.4999999999996 352.50000000000045,488.5 352.5,348.5" stroke="black" stroke-linecap="round" stroke-width="1" /><polyline clip-path="url(#border_clip)" fill="none" points="353.5,348.5 493.5,348.49999999999955 493.50000000000045,488.49999999999955 353.50000000000045,488.5 353.5,348.5" stroke="black" stroke-linecap="round" stroke-width="1" /><polyline clip-path="url(#border_clip)" fill="none" points="354.5,348.5 494.5,348.49999999999955 494.50000000000045,488.49999999999955 354.50000000000045,488.5 354.5,348.5" stroke="black" stroke-linecap="round" stroke-width="1" /><polyline clip-path="url(#border_clip)" fill="none" points="350.5,347.5 490.5,347.4999999999995 490.5000000000005,487.4999999999995 350.5000000000005,487.5 350.49999999999994,347.5" stroke="black" stroke-linecap="round" stroke-width="1" /><polyline clip-path="url(#border_clip)" fill="none" points="351.5,347.5 491.5,347.49999999999943 491.50000000000057,487.49999999999943 351.50000000000057,487.5 351.5,347.5" stroke="black" stroke-linecap="round" stroke-width="1" /><polyline clip-path="url(#border_clip)" fill="none" points="352.5,347.5 492.5,347.49999999999943 492.50000000000057,487.49999999999943 352.50000000000057,487.5 352.5,347.5" stroke="black" stroke-linecap="round" stroke-width="1" /><polyline clip-path="url(#border_clip)" fill="none" points="353.5,347.5 493.5,347.4999999999994 493.5000000000006,487.4999999999994 353.5000000000006,487.5 353.5,347.5" stroke="black" stroke-linecap="round" stroke-width="1" /><polyline clip-path="url(#border_clip)" fill="none" points="354.5,347.5 494.5,347.4999999999994 494.5000000000007,487.4999999999993 354.5000000000007,487.5 354.5,347.5" stroke="black" stroke-linecap="round" stroke-width="1" /><polyline clip-path="url(#border_clip)" fill="none" points="350.5,346.5 490.5,346.4999999999993 490.5000000000007,486.4999999999993 350.5000000000007,486.5 350.49999999999994,346.5" stroke="black" stroke-linecap="round" stroke-width="1" /><polyline clip-path="url(#border_clip)" fill="none" points="351.5,346.5 491.5,346.49999999999926 491.50000000000074,486.4999999999993 351.50000000000074,486.5 351.5,346.5" stroke="black" stroke-linecap="round" stroke-width="1" /><polyline clip-path="url(#border_clip)" fill="none" points="352.5,346.5 492.5,346.49999999999926 492.5000000000008,486.4999999999992 352.5000000000008,486.5 352.5,346.5" stroke="black" stroke-linecap="round" stroke-width="1" /><polyline clip-path="url(#border_clip)" fill="none" points="353.5,346.5 493.5,346.4999999999992 493.5000000000008,486.4999999999992 353.5000000000008,486.5 353.5,346.5" stroke="black" stroke-linecap="round" stroke-width="1" /><polyline clip-path="url(#border_clip)" fill="none" points="354.5,346.5 494.5,346.4999999999992 494.5000000000008,486.4999999999992 354.5000000000008,486.5 354.5,346.5" stroke="black" stroke-linecap="round" stroke-width="1" /></svg>