<?xml version="1.0" encoding="utf-8" ?>
<svg baseProfile="full" height="700px" version="1.1" width="700px" xmlns="http://www.w3.org/2000/svg" xmlns:ev="http://www.w3.org/2001/xml-events" xmlns:xlink="http://www.w3.org/1999/xlink"><defs><clipPath id="border_clip"><rect height="700" width="700" x="0" y="0" /></clipPath></defs><polyline clip-path="url(#border_clip)" fill="none" points="0.5,0.5 140.5,0.5 140.5,140.5 0.5,140.50000000000003 0.5,0.5" stroke="black" stroke-linecap="round" stroke-width="5" /><polyline clip-path="url(#border_clip)" fill="none" points="140.5,0.5 280.5,0.49999999999994316 280.50000000000006,140.49999999999994 140.50000000000006,140.5 140.5,0.5" stroke="black" stroke-linecap="round" stroke-width="5" /><polyline clip-path="url(#border_clip)" fill="none" points="280.5,0.5 420.5,0.49999999999994316 420.50000000000006,140.49999999999994 280.50000000000006,140.50000000000003 280.5,0.5" stroke="black" stroke-linecap="round" stroke-width="5" /><polyline clip-path="url(#border_clip)" fill="none" points="420.5,0.5 560.5,0.4999999999998863 560.5000000000001,140.4999999999999 420.5000000000001,140.5 420.5,0.5" stroke="black" stroke-linecap="round" stroke-width="5" /><polyline clip-path="url(#border_clip)" fill="none" points="560.5,0.5 700.5,0.4999999999998863 700.5000000000002,140.4999999999999 560.5000000000002,140.50000000000003 560.5,0.5" stroke="black" stroke-linecap="round" stroke-width="5" /><polyline clip-path="url(#border_clip)" fill="none" points="0.5,140.5 140.5,140.49999999999983 140.50000000000017,280.49999999999983 0.5000000000001705,280.5 0.5,140.5" stroke="black" stroke-linecap="round" stroke-width="5" /><polyline clip-path="url(#border_clip)" fill="none" points="140.5,140.5 280.5,140.4999999999998 280.5000000000002,280.4999999999998 140.50000000000023,280.5 140.5,140.50000000000003" stroke="black" stroke-linecap="round" stroke-width="5" /><polyline clip-path="url(#border_clip)" fill="none" points="280.5,140.5 420.5,140.49999999999977 420.5000000000002,280.4999999999998 280.5000000000002,280.5 280.5,140.50000000000003" stroke="black" stroke-linecap="round" stroke-width="5" /><polyline clip-path="url(#border_clip)" fill="none" points="420.5,140.5 560.5,140.49999999999972 560.5000000000002,280.4999999999997 420.5000000000003,280.5 420.5,140.5" stroke="black" stroke-linecap="round" stroke-width="5" /><polyline clip-path="url(#border_clip)" fill="none" points="560.5,140.5 700.5,140.4999999999997 700.5000000000003,280.49999999999966 560.5000000000003,280.5 560.5,140.5" stroke="black" stroke-linecap="round" stroke-width="5" /><polyline clip-path="url(#border_clip)" fill="none" points="0.5,280.5 140.5,280.49999999999966 140.50000000000034,420.49999999999966 0.5000000000003411,420.5 0.5,280.5" stroke="black" stroke-linecap="round" stroke-width="5" /><polyline clip-path="url(#border_clip)" fill="none" points="140.5,280.5 280.5,280.4999999999996 280.5000000000004,420.4999999999996 140.5000000000004,420.5 140.5,280.5" stroke="black" stroke-linecap="round" stroke-width="5" /><polyline clip-path="url(#border_clip)" fill="none" points="280.5,280.5 420.5,280.4999999999996 420.50000000000045,420.4999999999996 280.50000000000045,420.5 280.5,280.5" stroke="black" stroke-linecap="round" stroke-width="5" /><polyline clip-path="url(#border_clip)" fill="none" points="420.5,280.5 560.5,280.49999999999955 560.5000000000005,420.49999999999955 420.50000000000045,420.5 420.5,280.5" stroke="black" stroke-linecap="round" stroke-width="5" /><polyline clip-path="url(#border_clip)" fill="none" points="560.5,280.5 700.5,280.49999999999955 700.5000000000005,420.49999999999955 560.5000000000005,420.5 560.5,280.5" stroke="black" stroke-linecap="round" stroke-width="5" /><polyline clip-path="url(#border_clip)" fill="none" points="0.5,420.5 140.5,420.4999999999995 140.5000000000005,560.4999999999995 0.5000000000005116,560.5 0.49999999999994316,420.5" stroke="black" stroke-linecap="round" stroke-width="5" /><polyline clip-path="url(#border_clip)" fill="none" points="140.5,420.5 280.5,420.49999999999943 280.50000000000057,560.4999999999994 140.50000000000057,560.5 140.5,420.5" stroke="black" stroke-linecap="round" stroke-width="5" /><polyline clip-path="url(#border_clip)" fill="none" points="280.5,420.5 420.5,420.49999999999943 420.50000000000057,560.4999999999994 280.50000000000057,560.5 280.5,420.5" stroke="black" stroke-linecap="round" stroke-width="5" /><polyline clip-path="url(#border_clip)" fill="none" points="420.5,420.5 560.5,420.4999999999994 560.5000000000007,560.4999999999993 420.5000000000006,560.5 420.5,420.5" stroke="black" stroke-linecap="round" stroke-width="5" /><polyline clip-path="url(#border_clip)" fill="none" points="560.5,420.5 700.5,420.4999999999993 700.5000000000007,560.4999999999993 560.5000000000007,560.5 560.5,420.5" stroke="black" stroke-linecap="round" stroke-width="5" /><polyline clip-path="url(#border_clip)" fill="none" points="0.5,560.5 140.5,560.4999999999993 140.50000000000068,700.4999999999993 0.5000000000006821,700.5 0.49999999999994316,560.5" stroke="black" stroke-linecap="round" stroke-width="5" /><polyline clip-path="url(#border_clip)" fill="none" points="140.5,560.5 280.5,560.4999999999993 280.50000000000074,700.4999999999993 140.50000000000074,700.5 140.5,560.5" stroke="black" stroke-linecap="round" stroke-width="5" /><polyline clip-path="url(#border_clip)" fill="none" points="280.5,560.5 420.5,560.4999999999992 420.5000000000008,700.4999999999992 280.5000000000008,700.5 280.5,560.5" stroke="black" stroke-linecap="round" stroke-width="5" /><polyline clip-path="url(#border_clip)" fill="none" points="420.5,560.5 560.5,560.4999999999992 560.5000000000008,700.4999999999992 420.5000000000008,700.5 420.5,560.5" stroke="black" stroke-linecap="round" stroke-width="5" /><polyline clip-path="url(#border_clip)" fill="none" points="560.5,560.5 700.5,560.4999999999992 700.5000000000009,700.4999999999992 560.5000000000009,700.5 560.5,560.5" stroke="black" stroke-linecap="round" stroke-width="5" /></svg>