<?xml version="1.0" encoding="utf-8" ?>
<svg baseProfile="full" height="500px" version="1.1" width="500px" xmlns="http://www.w3.org/2000/svg" xmlns:ev="http://www.w3.org/2001/xml-events" xmlns:xlink="http://www.w3.org/1999/xlink"><defs><clipPath id="border_clip"><rect height="500" width="500" x="0" y="0" /></clipPath></defs><polyline clip-path="url(#border_clip)" fill="none" points="250.5,250.5 450.5,250.5" stroke="black" stroke-linecap="round" stroke-width="1" /><polyline clip-path="url(#border_clip)" fill="none" points="450.5,250.5 450.5,250.5" stroke="black" stroke-linecap="round" stroke-width="10" /><polyline clip-path="url(#border_clip)" fill="none" points="250.5,250.5 350.5,250.5 350.5,350.5 250.5,350.5 250.49999999999997,250.5 272.75209339563145,247.99279121818236 293.8883739117558,240.5968867902419 312.8489801858733,228.68314824680297 328.68314824680294,212.84898018587336 340.5968867902419,193.8883739117558 347.99279121818233,172.75209339563142 350.5,150.49999999999997 347.99279121818233,128.24790660436852 340.5968867902419,107.11162608824415 328.68314824680294,88.15101981412661 312.8489801858733,72.31685175319697 293.88837391175576,60.40311320975803 272.7520933956314,53.00720878181758 250.49999999999994,50.49999999999994 228.24790660436847,53.00720878181758 207.1116260882441,60.40311320975803 188.15101981412653,72.31685175319697 172.3168517531969,88.15101981412661 160.40311320975798,107.11162608824418 153.0072087818175,128.24790660436855 150.4999999999999,150.50000000000003 153.0072087818175,172.75209339563148 160.40311320975798,193.88837391175588 172.3168517531969,212.84898018587342 188.15101981412653,228.68314824680306 207.1116260882441,240.596886790242 228.24790660436847,247.99279121818245 250.49999999999994,250.5000000000001" stroke="black" stroke-linecap="round" stroke-width="1" /></svg>