<?xml version="1.0" encoding="utf-8" ?>
<svg baseProfile="full" height="700px" version="1.1" width="700px" xmlns="http://www.w3.org/2000/svg" xmlns:ev="http://www.w3.org/2001/xml-events" xmlns:xlink="http://www.w3.org/1999/xlink"><defs><clipPath id="border_clip"><rect height="700" width="700" x="0" y="0" /></clipPath></defs><polyline clip-path="url(#border_clip)" fill="none" points="350.5,0.5 490.5,0.5 490.5,140.5 350.5,140.50000000000003 350.5,0.5" stroke="black" stroke-linecap="round" stroke-width="1" /><polyline clip-path="url(#border_clip)" fill="none" points="490.5,0.5 630.5,0.49999999999994316 630.5,140.49999999999994 490.50000000000006,140.5 490.5,0.5" stroke="black" stroke-linecap="round" stroke-width="1" /><polyline clip-path="url(#border_clip)" fill="none" points="630.5,0.5 770.5,0.49999999999994316 770.5,140.49999999999994 630.5,140.50000000000003 630.5,0.5" stroke="black" stroke-linecap="round" stroke-width="1" /><polyline clip-path="url(#border_clip)" fill="none" points="770.5,0.5 910.5,0.4999999999998863 910.5000000000001,140.4999999999999 770.5000000000001,140.5 770.5,0.5" stroke="black" stroke-linecap="round" stroke-width="1" /><polyline clip-path="url(#border_clip)" fill="none" points="910.5,0.5 1050.5,0.4999999999998863 1050.5,140.4999999999999 910.5000000000001,140.50000000000003 910.5,0.5" stroke="black" stroke-linecap="round" stroke-width="1" /><polyline clip-path="url(#border_clip)" fill="none" points="350.5,140.5 490.5,140.49999999999983 490.50000000000017,280.49999999999983 350.50000000000017,280.5 350.5,140.5" stroke="black" stroke-linecap="round" stroke-width="1" /><polyline clip-path="url(#border_clip)" fill="none" points="490.5,140.5 630.5,140.4999999999998 630.5000000000002,280.4999999999998 490.5000000000002,280.5 490.5,140.50000000000003" stroke="black" stroke-linecap="round" stroke-width="1" /><polyline clip-path="url(#border_clip)" fill="none" points="630.5,140.5 770.5,140.49999999999977 770.5000000000002,280.4999999999998 630.5000000000002,280.5 630.5,140.50000000000003" stroke="black" stroke-linecap="round" stroke-width="1" /><polyline clip-path="url(#border_clip)" fill="none" points="770.5,140.5 910.5,140.49999999999972 910.5000000000002,280.4999999999997 770.5000000000002,280.5 770.5,140.5" stroke="black" stroke-linecap="round" stroke-width="1" /><polyline clip-path="url(#border_clip)" fill="none" points="910.5,140.5 1050.5,140.4999999999997 1050.5000000000005,280.49999999999966 910.5000000000003,280.5 910.5,140.5" stroke="black" stroke-linecap="round" stroke-width="1" /><polyline clip-path="url(#border_clip)" fill="none" points="350.5,280.5 490.5,280.49999999999966 490.50000000000034,420.49999999999966 350.50000000000034,420.5 350.5,280.5" stroke="black" stroke-linecap="round" stroke-width="1" /><polyline clip-path="url(#border_clip)" fill="none" points="490.5,280.5 630.5,280.4999999999996 630.5000000000005,420.4999999999996 490.5000000000004,420.5 490.5,280.5" stroke="black" stroke-linecap="round" stroke-width="1" /><polyline clip-path="url(#border_clip)" fill="none" points="630.5,280.5 770.5,280.4999999999996 770.5000000000005,420.4999999999996 630.5000000000005,420.5 630.5,280.5" stroke="black" stroke-linecap="round" stroke-width="1" /><polyline clip-path="url(#border_clip)" fill="none" points="770.5,280.5 910.5,280.49999999999955 910.5000000000005,420.49999999999955 770.5000000000005,420.5 770.5,280.5" stroke="black" stroke-linecap="round" stroke-width="1" /><polyline clip-path="url(#border_clip)" fill="none" points="910.5,280.5 1050.5,280.49999999999955 1050.5000000000005,420.49999999999955 910.5000000000005,420.5 910.5,280.5" stroke="black" stroke-linecap="round" stroke-width="1" /><polyline clip-path="url(#border_clip)" fill="none" points="350.5,420.5 490.5,420.4999999999995 490.5000000000005,560.4999999999995 350.5000000000005,560.5 350.49999999999994,420.5" stroke="black" stroke-linecap="round" stroke-width="1" /><polyline clip-path="url(#border_clip)" fill="none" points="490.5,420.5 630.5,420.49999999999943 630.5000000000006,560.4999999999994 490.50000000000057,560.5 490.5,420.5" stroke="black" stroke-linecap="round" stroke-width="1" /><polyline clip-path="url(#border_clip)" fill="none" points="630.5,420.5 770.5,420.49999999999943 770.5000000000006,560.4999999999994 630.5000000000006,560.5 630.5,420.5" stroke="black" stroke-linecap="round" stroke-width="1" /><polyline clip-path="url(#border_clip)" fill="none" points="770.5,420.5 910.5,420.4999999999994 910.5000000000007,560.4999999999993 770.5000000000007,560.5 770.5,420.5" stroke="black" stroke-linecap="round" stroke-width="1" /><polyline clip-path="url(#border_clip)" fill="none" points="910.5,420.5 1050.5,420.4999999999993 1050.5000000000007,560.4999999999993 910.5000000000007,560.5 910.5,420.5" stroke="black" stroke-linecap="round" stroke-width="1" /><polyline clip-path="url(#border_clip)" fill="none" points="350.5,560.5 490.5,560.4999999999993 490.5000000000007,700.4999999999993 350.5000000000007,700.5 350.49999999999994,560.5" stroke="black" stroke-linecap="round" stroke-width="1" /><polyline clip-path="url(#border_clip)" fill="none" points="490.5,560.5 630.5,560.4999999999993 630.5000000000007,700.4999999999993 490.50000000000074,700.5 490.5,560.5" stroke="black" stroke-linecap="round" stroke-width="1" /><polyline clip-path="url(#border_clip)" fill="none" points="630.5,560.5 770.5,560.4999999999992 770.5000000000007,700.4999999999992 630.5000000000007,700.5 630.5,560.5" stroke="black" stroke-linecap="round" stroke-width="1" /><polyline clip-path="url(#border_clip)" fill="none" points="770.5,560.5 910.5,560.4999999999992 910.5000000000008,700.4999999999992 770.5000000000008,700.5 770.5,560.5" stroke="black" stroke-linecap="round" stroke-width="1" /><polyline clip-path="url(#border_clip)" fill="none" points="910.5,560.5 1050.5,560.4999999999992 1050.500000000001,700.4999999999992 910.5000000000008,700.5 910.5,560.5" stroke="black" stroke-linecap="round" stroke-width="1" /></svg>