<?xml version="1.0" encoding="utf-8" ?>
<svg baseProfile="full" height="700px" version="1.1" width="700px" xmlns="http://www.w3.org/2000/svg" xmlns:ev="http://www.w3.org/2001/xml-events" xmlns:xlink="http://www.w3.org/1999/xlink"><defs><clipPath id="border_clip"><rect height="700" width="700" x="0" y="0" /></clipPath></defs><polyline clip-path="url(#border_clip)" fill="none" points="243.70508075688787,-29.49999999999983 230.40772756142664,-47.517273777091816 213.4345461848062,-62.1238774315994 193.6366428150835,-72.58737486442038 172.0067669960614,-78.38308262251286 149.6295310198015,-79.22037971811801 127.62702293735347,-75.0572805786141 107.10254037844388,-66.1025403784439 89.08526660135192,-52.80518718298265 74.47866294684434,-35.83200580636219 64.01516551402335,-16.0341024366395 58.219457755930875,5.595773382382561 57.38216066032567,27.973009358642457 61.54525979982958,49.97551744109046 70.49999999999977,70.50000000000006 61.54525979982952,91.02448255890965 57.38216066032555,113.02699064135768 58.219457755930705,135.40422661761758 64.01516551402312,157.03410243663967 74.47866294684405,176.83200580636242 89.08526660135163,193.80518718298288 107.10254037844359,207.10254037844416 127.62702293735319,216.0572805786144 149.62953101980122,220.22037971811838 172.00676699606112,219.38308262251323 193.6366428150832,213.5873748644208 213.43454618480595,203.12387743159988 230.40772756142644,188.51727377709233 243.7050807568877,170.50000000000037 252.65982095705795,149.97551744109077 256.8229200965619,127.97300935864274 255.98562300095676,105.59577338238282 250.18991524286434,83.96589756336073 239.72641781004342,64.16799419363798 225.1198141555359,47.19481281701752 207.1025403784439,33.89745962155621 186.5780578195343,24.94271942138596 164.57554973708628,20.77962028188199 142.19831376082635,21.61691737748714 120.56843794180423,27.41262513557956 100.77053457208149,37.87612256840049 83.79735319546097,52.48272622290807 70.49999999999966,70.5" stroke="black" stroke-linecap="round" stroke-width="5" /><polyline clip-path="url(#border_clip)" fill="none" points="70.49999999999966,70.5 48.247906604368154,73.00720878181761 27.111626088243725,80.40311320975803 8.15101981412613,92.31685175319694 -7.683148246803569,108.15101981412658 -19.596886790242536,127.11162608824415 -26.992791218183015,148.24790660436855 -29.500000000000682,170.50000000000003 -26.992791218183072,192.75209339563153 -19.59688679024265,213.88837391175596 -7.683148246803739,232.84898018587356 8.151019814125902,248.68314824680323 27.111626088243497,260.59688679024225 48.24790660436793,267.99279121818273 70.49999999999943,270.5000000000004 92.75209339563094,267.9927912181828 113.88837391175537,260.59688679024237 132.84898018587296,248.68314824680343 148.68314824680266,232.84898018587378 160.59688679024165,213.88837391175622 167.99279121818216,192.75209339563182 170.49999999999983,170.50000000000034 167.99279121818222,148.24790660436884 160.5968867902418,127.1116260882444 148.68314824680286,108.15101981412681 132.84898018587322,92.31685175319711 113.88837391175565,80.40311320975815 92.75209339563122,73.00720878181767 70.49999999999972,70.5 57.20264680453846,52.48272622290801 40.229465427918,37.87612256840043 20.431562058195254,27.412625135579447 -1.1983137608268635,21.61691737748697 -23.575549737086817,20.779620281881762 -45.57805781953488,24.942719421385675 -66.10254037844453,33.89745962155587 -84.11981415553652,47.19481281701712 -98.72641781004415,64.16799419363758 -109.18991524286514,83.96589756336033 -114.98562300095762,105.59577338238245 -115.82292009656283,127.97300935864237 -111.65982095705891,149.97551744109043 -102.70508075688872,170.50000000000009" stroke="black" stroke-linecap="round" stroke-width="5" /><polyline clip-path="url(#border_clip)" fill="none" points="-102.70508075688872,170.50000000000009 -89.40772756142746,188.5172737770921 -72.434546184807,203.1238774315997 -52.63664281508426,213.5873748644207 -31.00676699606214,219.38308262251317 -8.629531019802187,220.22037971811838 13.372977062645873,216.05728057861447 33.89745962155553,207.10254037844427 51.91473339864751,193.80518718298305 66.52133705315515,176.8320058063626 76.98483448597614,157.03410243663984 82.78054224406861,135.40422661761772 83.61783933967382,113.0269906413578 79.45474020016991,91.02448255890971 70.49999999999972,70.50000000000006 79.45474020016997,49.97551744109046 83.61783933967394,27.9730093586424 82.78054224406884,5.595773382382447 76.98483448597642,-16.03410243663967 66.52133705315549,-35.832005806362474 51.91473339864791,-52.80518718298299 33.897459621555925,-66.1025403784443 13.372977062646328,-75.05728057861455 -8.629531019801732,-79.22037971811852 -31.006766996061685,-78.38308262251343 -52.6366428150838,-72.58737486442101 -72.4345461848066,-62.12387743160008 -89.40772756142712,-47.5172737770925 -102.70508075688844,-29.50000000000051 -111.65982095705868,-8.975517441090858 -115.82292009656265,13.026990641357202 -114.98562300095756,35.404226617617155 -109.18991524286514,57.03410243663927 -98.72641781004421,76.83200580636208 -84.11981415553663,93.80518718298259 -66.10254037844464,107.1025403784439 -45.57805781953499,116.05728057861418 -23.57554973708693,120.22037971811818 -1.1983137608269772,119.38308262251306 20.43156205819514,113.58737486442064 40.229465427917944,103.12387743159971 57.20264680453846,88.51727377709216 70.49999999999977,70.50000000000017" stroke="black" stroke-linecap="round" stroke-width="5" /><polyline clip-path="url(#border_clip)" fill="none" points="803.7050807568868,-29.5000000000029 790.4077275614252,-47.517273777094715 773.4345461848045,-62.12387743160207 753.6366428150816,-72.58737486442277 732.0067669960595,-78.3830826225149 709.6295310197995,-79.22037971811972 687.6270229373515,-75.05728057861546 667.102540378442,-66.10254037844493 649.0852666013501,-52.80518718298339 634.4786629468427,-35.8320058063627 624.0151655140221,-16.034102436639785 618.2194577559299,5.595773382382447 617.3821606603251,27.9730093586424 621.5452597998294,49.9755174410904 630.4999999999999,70.49999999999994 621.5452597998299,91.02448255890971 617.3821606603262,113.02699064135786 618.2194577559318,135.40422661761778 624.0151655140246,157.03410243663984 634.4786629468458,176.83200580636247 649.0852666013536,193.80518718298276 667.1025403784458,207.1025403784438 687.6270229373556,216.05728057861373 709.6295310198038,220.22037971811736 732.0067669960638,219.38308262251186 753.6366428150858,213.5873748644191 773.4345461848084,203.12387743159783 790.4077275614287,188.51727377709 803.7050807568897,170.4999999999978 812.6598209570598,149.97551744108802 816.8229200965634,127.97300935863987 815.9856230009578,105.59577338237992 810.189915242865,83.96589756335788 799.7264178100438,64.16799419363525 785.119814155536,47.19481281701496 767.1025403784438,33.897459621553935 746.578057819534,24.94271942138397 724.5755497370858,20.77962028188034 702.1983137608258,21.616917377485834 680.5684379418038,27.412625135578594 660.7705345720813,37.876122568399865 643.7973531954609,52.48272622290773 630.4999999999999,70.49999999999994" stroke="black" stroke-linecap="round" stroke-width="5" /><polyline clip-path="url(#border_clip)" fill="none" points="630.4999999999999,70.49999999999994 608.2479066043684,73.0072087818179 587.1116260882441,80.40311320975866 568.1510198141266,92.31685175319791 552.3168517531972,108.15101981412784 540.4031132097584,127.11162608824563 533.0072087818182,148.2479066043702 530.5000000000009,170.50000000000176 533.0072087818189,192.75209339563327 540.4031132097597,213.8883739117576 552.316851753199,232.84898018587506 568.1510198141289,248.6831482468045 587.1116260882467,260.5968867902432 608.2479066043712,267.99279121818336 630.5000000000027,270.5000000000007 652.7520933956343,267.99279121818273 673.8883739117587,260.59688679024197 692.8489801858761,248.68314824680272 708.6831482468056,232.8489801858728 720.5968867902443,213.88837391175502 727.9927912181845,192.75209339563048 730.5000000000018,170.49999999999892 727.9927912181838,148.24790660436742 720.596886790243,127.11162608824307 708.6831482468037,108.15101981412562 692.8489801858739,92.31685175319615 673.8883739117562,80.40311320975746 652.7520933956316,73.00720878181727 630.5,70.49999999999994 617.2026468045385,52.48272622290813 600.2294654279177,37.876122568400774 580.4315620581948,27.412625135580072 558.8016862391726,21.616917377487937 536.4244502629126,20.77962028188307 514.4219421804646,24.942719421387324 493.897459621555,33.89745962155786 475.8801858444632,47.1948128170194 461.27358218995585,64.16799419364008 450.81008475713514,83.965897563363 445.014376999043,105.59577338238523 444.17707990343814,127.97300935864519 448.3401790429424,149.97551744109322 457.294919243113,170.50000000000276" stroke="black" stroke-linecap="round" stroke-width="5" /><polyline clip-path="url(#border_clip)" fill="none" points="457.294919243113,170.50000000000276 470.59227243857447,188.51727377709457 487.5654538151952,203.12387743160193 507.36335718491813,213.58737486442263 528.9932330039403,219.38308262251476 551.3704689802003,220.2203797181196 573.3729770626484,216.05728057861535 593.8974596215579,207.10254037844481 611.9147333986498,193.80518718298327 626.5213370531571,176.8320058063626 636.9848344859778,157.03410243663967 642.7805422440699,135.40422661761744 643.6178393396748,113.02699064135749 639.4547402001706,91.02448255890948 630.5,70.49999999999994 639.4547402001699,49.975517441090176 643.6178393396735,27.97300935864206 642.7805422440681,5.595773382382106 636.9848344859754,-16.034102436639955 626.5213370531541,-35.83200580636259 611.9147333986461,-52.80518718298288 593.8974596215539,-66.1025403784439 573.3729770626442,-75.05728057861387 551.370468980196,-79.2203797181175 528.9932330039361,-78.383082622512 507.36335718491404,-72.58737486441925 487.5654538151914,-62.123877431597975 470.5922724385711,-47.51727377709011 457.29491924311003,-29.499999999997897 448.3401790429401,-8.97551744108813 444.17707990343644,13.026990641360044 445.01437699904193,35.40422661762 450.81008475713463,57.03410243664206 461.2735821899559,76.83200580636469 475.88018584446377,93.80518718298498 493.897459621556,107.10254037844601 514.4219421804657,116.05728057861597 536.424450262914,120.22037971811963 558.8016862391739,119.38308262251417 580.4315620581959,113.5873748644214 600.2294654279185,103.12387743160016 617.2026468045389,88.51727377709233 630.4999999999999,70.50000000000011" stroke="black" stroke-linecap="round" stroke-width="5" /><polyline clip-path="url(#border_clip)" fill="none" points="663.7050807568853,110.49999999999449 650.4077275614235,92.4827262229029 633.4345461848026,77.87612256839577 613.6366428150795,67.41262513557541 592.0067669960572,61.61691737748362 569.6295310197972,60.77962028187915 547.6270229373492,64.94271942138374 527.1025403784398,73.89745962155462 509.08526660134817,87.19481281701644 494.4786629468411,104.16799419363738 484.01516551402074,123.96589756336047 478.2194577559289,145.5957733823828 477.3821606603244,167.97300935864277 481.54525979982907,189.97551744109074 490.4999999999999,210.50000000000014 481.5452597998303,231.02448255891008 477.38216066032703,253.02699064135828 478.2194577559328,275.40422661761824 484.01516551402597,297.0341024366402 494.4786629468475,316.8320058063627 509.08526660135567,333.80518718298276 527.1025403784481,347.1025403784435 547.627022937358,356.05728057861313 569.6295310198062,360.2203797181164 592.0067669960662,359.3830826225106 613.6366428150882,353.5873748644175 633.4345461848106,343.1238774315959 650.4077275614306,328.5172737770878 663.7050807568914,310.49999999999534 672.6598209570611,289.9755174410854 676.8229200965643,267.97300935863717 675.9856230009585,245.59577338237722 670.1899152428655,223.96589756335524 659.7264178100438,204.16799419363275 645.1198141555357,187.1948128170127 627.1025403784432,173.89745962155195 606.5780578195333,164.94271942138232 584.5755497370851,160.77962028187903 562.1983137608252,161.61691737748487 540.5684379418032,167.41262513557797 520.7705345720806,177.87612256839955 503.7973531954606,192.48272622290767 490.49999999999983,210.50000000000009" stroke="black" stroke-linecap="round" stroke-width="5" /><polyline clip-path="url(#border_clip)" fill="none" points="490.49999999999983,210.50000000000009 468.2479066043684,213.0072087818184 447.11162608824407,220.4031132097595 428.1510198141268,232.31685175319907 412.31685175319757,248.15101981412926 400.40311320975917,267.11162608824725 393.0072087818193,288.24790660437196 390.50000000000233,310.5000000000036 393.0072087818206,332.7520933956351 400.4031132097617,353.88837391175934 412.3168517532013,372.8489801858766 428.1510198141315,388.68314824680584 447.11162608824947,400.5968867902443 468.2479066043742,407.99279121818415 490.5000000000058,410.50000000000114 512.7520933956373,407.9927912181828 533.8883739117615,400.5968867902417 552.8489801858789,388.68314824680215 568.6831482468081,372.84898018587194 580.5968867902465,353.88837391175394 587.9927912181863,332.75209339562923 590.5000000000033,310.4999999999976 587.992791218185,288.2479066043661 580.5968867902438,267.1116260882419 568.6831482468043,248.1510198141246 552.8489801858741,232.31685175319535 533.8883739117562,220.40311320975692 512.7520933956314,213.00720878181707 490.49999999999983,210.50000000000009 477.202646804538,192.48272622290844 460.22946542791703,177.8761225684013 440.4315620581939,167.41262513558092 418.80168623917154,161.6169173774891 396.4244502629116,160.7796202818846 374.4219421804636,164.94271942138923 353.89745962155416,173.8974596215601 335.8801858444625,187.19481281702195 321.2735821899554,204.1679941936429 310.81008475713503,223.965897563366 305.01437699904324,245.59577338238836 304.1770799034387,267.97300935864837 308.34017904294336,289.9755174410964 317.29491924311424,310.50000000000574" stroke="black" stroke-linecap="round" stroke-width="5" /><polyline clip-path="url(#border_clip)" fill="none" points="317.29491924311424,310.50000000000574 330.59227243857606,328.5172737770974 347.565453815197,343.1238774316045 367.3633571849201,353.5873748644249 388.99323300394246,359.3830826225167 411.3704689802024,360.2203797181212 433.3729770626504,356.0572805786166 453.89745962155985,347.1025403784457 471.91473339865144,333.8051871829839 486.52133705315856,316.83200580636293 496.9848344859789,297.03410243663984 502.7805422440708,275.4042266176175 503.61783933967524,253.0269906413575 499.45474020017065,231.02448255890954 490.4999999999998,210.5000000000001 499.4547402001694,189.97551744109018 503.6178393396727,167.97300935864195 502.78054224406685,145.595773382382 496.98483448597375,123.96589756336002 486.52133705315214,104.16799419363753 471.91473339864405,87.19481281701746 453.8974596215516,73.89745962155672 433.37297706264167,64.9427194213871 411.37046898019344,60.77962028188381 388.9932330039335,61.61691737748964 367.36335718491154,67.41262513558274 347.565453815189,77.8761225684043 330.59227243856895,92.48272622291245 317.2949192431082,110.50000000000486 308.3401790429386,131.0244825589148 304.17707990343524,153.02699064136303 305.0143769990411,175.40422661762298 310.8100847571342,197.03410243664496 321.2735821899558,216.83200580636745 335.8801858444639,233.80518718298754 353.8974596215563,247.10254037844828 374.42194218046626,256.0572805786179 396.42445026291443,260.22037971812125 418.8016862391744,259.3830826225154 440.4315620581964,253.58737486442232 460.2294654279189,243.12387743160076 477.202646804539,228.5172737770926 490.4999999999998,210.5000000000002" stroke="black" stroke-linecap="round" stroke-width="5" /><polyline clip-path="url(#border_clip)" fill="none" points="523.705080756884,250.4999999999916 510.4077275614218,232.4827262229002 493.43454618480064,217.87612256839336 473.6366428150774,207.41262513557328 452.0067669960549,201.61691737748183 429.62953101979497,200.7796202818777 407.627022937347,204.94271942138266 387.10254037843777,213.89745962155385 369.08526660134635,227.194812817016 354.4786629468395,244.16799419363716 344.01516551401943,263.96589756336044 338.219457755928,285.59577338238284 337.38216066032385,307.97300935864286 341.54525979982884,329.97551744109074 350.5,350.5 341.5452597998307,371.0244825589101 337.38216066032777,393.0269906413584 338.21945775593395,415.40422661761835 344.0151655140274,437.03410243664024 354.4786629468493,456.83200580636253 369.08526660135766,473.8051871829824 387.1025403784503,487.1025403784429 407.6270229373604,496.05728057861216 429.6295310198087,500.2203797181151 452.0067669960686,499.38308262250894 473.63664281509057,493.5873748644155 493.43454618481286,483.1238774315936 510.4077275614327,468.5172737770852 523.7050807568932,450.4999999999926 532.6598209570625,429.9755174410825 536.8229200965654,407.9730093586342 535.9856230009592,385.59577338237426 530.1899152428658,363.96589756335237 519.7264178100439,344.1679941936301 505.11981415553555,327.1948128170102 487.1025403784429,313.89745962154973 466.5780578195328,304.9427194213804 444.57554973708454,300.77962028187744 422.1983137608246,301.6169173774836 400.5684379418027,307.41262513557706 380.77053457208035,317.87612256839896 363.7973531954605,332.48272622290733 350.50000000000006,350.5" stroke="black" stroke-linecap="round" stroke-width="5" /><polyline clip-path="url(#border_clip)" fill="none" points="350.50000000000006,350.5 328.2479066043686,353.00720878181863 307.11162608824446,360.4031132097601 288.1510198141274,372.31685175319996 272.31685175319836,388.1510198141304 260.40311320976025,407.11162608824856 253.0072087818207,428.2479066043734 250.50000000000406,450.500000000005 253.00720878182273,472.75209339563645 260.4031132097642,493.8883739117606 272.316851753204,512.8489801858777 288.15101981413443,528.6831482468067 307.1116260882526,540.5968867902448 328.2479066043774,547.9927912181843 350.5000000000091,550.5000000000009 372.75209339564054,547.9927912181822 393.8883739117647,540.5968867902409 412.84898018588177,528.683148246801 428.6831482468108,512.8489801858706 440.5968867902489,493.88837391175235 447.9927912181884,472.7520933956275 450.50000000000506,450.4999999999959 447.9927912181864,428.24790660436446 440.596886790245,407.1116260882403 428.6831482468051,388.1510198141232 412.84898018587467,372.3168517531942 393.8883739117565,360.4031132097561 372.7520933956317,353.0072087818166 350.5,350.49999999999994 337.2026468045379,332.4827262229085 320.2294654279167,317.8761225684017 300.43156205819344,307.41262513558155 278.801686239171,301.6169173774901 256.42445026291097,300.77962028188597 234.42194218046308,304.9427194213909 213.8974596215538,313.8974596215621 195.88018584446237,327.19481281702423 181.27358218995553,344.1679941936454 170.81008475713543,363.9658975633687 165.01437699904395,385.59577338239114 164.1770799034398,407.97300935865115 168.34017904294475,429.9755174410991 177.29491924311594,450.50000000000836" stroke="black" stroke-linecap="round" stroke-width="5" /><polyline clip-path="url(#border_clip)" fill="none" points="177.29491924311594,450.50000000000836 190.59227243857805,468.5172737770998 207.56545381519922,483.1238774316066 227.3633571849225,493.58737486442675 248.99323300394494,499.38308262251826 271.370468980205,500.2203797181224 293.37297706265286,496.05728057861745 313.8974596215622,487.10254037844624 331.9147333986536,473.8051871829841 346.52133705316044,456.83200580636293 356.9848344859805,437.0341024366396 362.780542244072,415.4042266176172 363.61783933967615,393.0269906413572 359.4547402001712,371.02448255890926 350.5,350.5 359.45474020016934,329.9755174410899 363.6178393396723,307.9730093586416 362.7805422440661,285.59577338238165 356.98483448597267,263.9658975633597 346.5213370531508,244.1679941936374 331.9147333986424,227.19481281701752 313.89745962154973,213.89745962155706 293.3729770626396,204.94271942138772 271.37046898019133,200.77962028188475 248.99323300393138,201.61691737749092 227.3633571849095,207.41262513558436 207.56545381518714,217.87612256840626 190.59227243856728,232.48272622291466 177.2949192431068,250.50000000000728 168.34017904293745,271.0244825589174 164.17707990343447,293.02699064136567 165.01437699904065,315.4042266176256 170.8100847571341,337.0341024366476 181.273582189956,356.83200580636986 195.8801858444644,373.80518718298976 213.89745962155703,387.10254037845027 234.4219421804671,396.05728057861955 256.42445026291546,400.22037971812256 278.8016862391754,399.3830826225164 300.4315620581973,393.58737486442294 320.22946542791965,383.12387743160104 337.2026468045395,368.51727377709267 350.5,350.50000000000006" stroke="black" stroke-linecap="round" stroke-width="5" /><polyline clip-path="url(#border_clip)" fill="none" points="383.7050807568827,390.4999999999889 370.40772756142024,372.48272622289767 353.4345461847989,357.87612256839105 333.6366428150754,347.41262513557126 312.0067669960529,341.61691737748015 289.6295310197928,340.7796202818763 267.6270229373449,344.94271942138164 247.10254037843578,353.89745962155314 229.08526660134456,367.19481281701553 214.47866294683794,384.16799419363696 204.01516551401815,403.9658975633604 198.219457755927,425.59577338238296 197.3821606603232,447.973009358643 201.5452597998285,469.97551744109086 210.5,490.5 201.545259799831,511.0244825589103 197.38216066032837,533.0269906413587 198.21945775593488,555.4042266176186 204.01516551402867,577.0341024366404 214.47866294685087,596.8320058063626 229.08526660135954,613.8051871829823 247.10254037845237,627.1025403784424 267.62702293736265,636.0572805786114 289.629531019811,640.2203797181141 312.00676699607095,639.3830826225076 333.6366428150928,633.5873748644137 353.43454618481496,623.1238774315916 370.4077275614346,608.5172737770829 383.70508075689486,590.4999999999901 392.65982095706386,569.9755174410799 396.82292009656646,547.9730093586315 395.98562300095995,525.5957733823716 390.18991524286616,503.9658975633497 379.726417810044,484.1679941936275 365.1198141555353,467.19481281700786 347.1025403784425,453.8974596215477 326.5780578195322,444.9427194213786 304.57554973708386,440.779620281876 282.1983137608239,441.61691737748254 260.5684379418021,447.41262513557626 240.77053457207987,457.8761225683985 223.79735319546023,472.48272622290716 210.5,490.5" stroke="black" stroke-linecap="round" stroke-width="5" /><polyline clip-path="url(#border_clip)" fill="none" points="210.5,490.5 188.24790660436858,493.00720878181903 167.11162608824452,500.4031132097608 148.15101981412758,512.3168517532009 132.31685175319882,528.1510198141316 120.40311320976096,547.11162608825 113.00720878182176,568.247906604375 110.50000000000546,590.5000000000067 113.00720878182446,612.7520933956382 120.40311320976625,633.8883739117622 132.3168517532064,652.8489801858791 148.1510198141371,668.6831482468078 167.1116260882555,680.5968867902457 188.24790660438043,687.992791218185 210.50000000001216,690.5000000000013 232.75209339564358,687.9927912181822 253.88837391176764,680.5968867902404 272.84898018588456,668.6831482468003 288.68314824681335,652.8489801858696 300.5968867902512,633.8883739117512 307.9927912181904,612.7520933956263 310.5000000000067,590.4999999999945 307.9927912181877,568.2479066043632 300.59688679024595,547.1116260882391 288.6831482468058,528.1510198141222 272.8489801858751,512.3168517531933 253.88837391175673,500.4031132097555 232.75209339563176,493.0072087818163 210.50000000000003,490.5 197.2026468045376,472.48272622290875 180.22946542791618,457.87612256840214 160.43156205819272,447.41262513558235 138.80168623917018,441.6169173774912 116.42445026291011,440.7796202818874 94.42194218046222,444.94271942139267 73.89745962155308,453.89745962156417 55.880185844461835,467.1948128170266 41.27358218995522,484.16799419364804 30.810084757135428,503.96589756337147 25.01437699904426,525.595773382394 24.17707990344047,547.973009358654 28.34017904294575,569.9755174411019 37.29491924311725,590.5000000000111" stroke="black" stroke-linecap="round" stroke-width="5" /><polyline clip-path="url(#border_clip)" fill="none" points="37.29491924311725,590.5000000000111 50.59227243857964,608.5172737771023 67.56545381520107,623.1238774316089 87.3633571849245,633.5873748644287 108.99323300394704,639.3830826225199 131.37046898020708,640.2203797181237 153.37297706265494,636.0572805786185 173.8974596215641,627.102540378447 191.91473339865536,613.8051871829846 206.52133705316197,596.8320058063631 216.98483448598176,577.0341024366396 222.78054224407293,555.404226617617 223.61783933967672,533.0269906413571 219.45474020017141,511.0244825589092 210.49999999999991,490.5 219.45474020016894,469.9755174410898 223.61783933967158,447.9730093586414 222.78054224406503,425.5957733823814 216.98483448597128,403.9658975633596 206.52133705314907,384.1679941936374 191.9147333986404,367.19481281701775 173.89745962154757,353.8974596215575 153.37297706263732,344.9427194213885 131.37046898018895,340.7796202818859 108.99323300392899,341.6169173774924 87.36335718490716,347.4126251355862 67.56545381518498,357.8761225684084 50.59227243856532,372.48272622291705 37.294919243105085,390.5000000000099 28.340179042936086,411.02448255892017 24.17707990343348,433.02699064136857 25.014376999039996,455.4042266176285 30.81008475713378,477.0341024366503 41.27358218995596,496.83200580637254 55.88018584446462,513.8051871829921 73.89745962155746,527.1025403784524 94.42194218046768,536.0572805786214 116.42445026291605,540.220379718124 138.801686239176,539.3830826225176 160.43156205819784,533.5873748644237 180.22946542792002,523.1238774316015 197.20264680453965,508.5172737770929 210.4999999999999,490.5" stroke="black" stroke-linecap="round" stroke-width="5" /><polyline clip-path="url(#border_clip)" fill="none" points="243.7050807568811,530.4999999999862 230.40772756141843,512.4827262228952 213.43454618479674,497.87612256838884 193.63664281507312,487.41262513556933 172.0067669960505,481.61691737747856 149.62953101979042,480.7796202818751 127.62702293734262,484.94271942138073 107.10254037843359,493.89745962155257 89.08526660134254,507.1948128170153 74.47866294683621,524.167994193637 64.0151655140167,543.9658975633606 58.21945775592587,565.5957733823832 57.38216066032243,587.9730093586433 61.5452597998281,609.9755174410911 70.49999999999994,630.5000000000001 61.54525979983123,651.0244825589104 57.382160660328964,673.0269906413589 58.21945775593582,695.4042266176189 64.01516551402995,717.0341024366408 74.47866294685247,736.8320058063628 89.08526660136141,753.8051871829821 107.10254037845448,767.1025403784421 127.62702293736487,776.0572805786107 149.62953101981333,780.220379718113 172.00676699607328,779.3830826225062 193.63664281509503,773.5873748644121 213.43454618481707,763.1238774315896 230.4077275614365,748.5172737770806 243.70508075689642,730.4999999999875 252.6598209570651,709.9755174410772 256.8229200965674,687.9730093586287 255.98562300096052,665.5957733823687 250.1899152428664,643.965897563347 239.72641781004384,624.167994193625 225.1198141555349,607.1948128170055 207.10254037844183,593.8974596215455 186.57805781953144,584.9427194213769 164.57554973708298,580.7796202818746 142.19831376082303,581.6169173774815 120.56843794180128,587.4126251355756 100.77053457207924,597.8761225683982 83.79735319545983,612.4827262229071 70.49999999999989,630.5000000000002" stroke="black" stroke-linecap="round" stroke-width="5" /><polyline clip-path="url(#border_clip)" fill="none" points="70.49999999999989,630.5000000000002 48.247906604368495,633.0072087818196 27.111626088244577,640.4031132097616 8.151019814127835,652.3168517532022 -7.68314824680067,668.1510198141332 -19.596886790238216,687.1116260882517 -26.992791218177103,708.2479066043768 -29.499999999993065,730.5000000000085 -26.992791218173693,752.7520933956399 -19.596886790231565,773.8883739117639 -7.68314824679112,792.8489801858806 8.15101981413983,808.6831482468091 27.11162608825839,820.5968867902466 48.247906604383445,827.9927912181855 70.50000000001523,830.5000000000015 92.75209339564663,827.9927912181821 113.88837391177057,820.59688679024 132.8489801858873,808.6831482467995 148.68314824681582,792.8489801858686 160.59688679025336,773.88837391175 167.99279121819225,752.752093395625 170.5000000000082,730.4999999999932 167.99279121818884,708.2479066043618 160.59688679024674,687.1116260882379 148.6831482468063,668.1510198141211 132.84898018587535,652.3168517531926 113.88837391175679,640.403113209755 92.75209339563173,633.0072087818162 70.49999999999994,630.5000000000002 57.20264680453727,612.4827262229092 40.22946542791561,597.8761225684029 20.431562058191957,587.4126251355834 -1.198313760830672,581.6169173774927 -23.57554973709074,580.7796202818892 -45.57805781953857,584.9427194213948 -66.1025403784476,593.8974596215667 -84.11981415553862,607.1948128170293 -98.72641781004495,624.167994193651 -109.18991524286446,643.9658975633747 -114.98562300095529,665.5957733823973 -115.82292009655873,687.9730093586574 -111.65982095705306,709.9755174411052 -102.70508075688122,730.5000000000142" stroke="black" stroke-linecap="round" stroke-width="5" /><polyline clip-path="url(#border_clip)" fill="none" points="-102.70508075688122,730.5000000000142 -89.40772756141854,748.5172737771052 -72.43454618479689,763.1238774316116 -52.63664281507323,773.587374864431 -31.0067669960506,779.3830826225219 -8.629531019790534,780.2203797181253 13.372977062657299,776.0572805786196 33.89745962156633,767.1025403784479 51.91473339865735,753.8051871829852 66.52133705316368,736.8320058063634 76.98483448598319,717.0341024366398 82.78054224407401,695.4042266176173 83.61783933967746,673.0269906413571 79.45474020017178,651.0244825589093 70.49999999999994,630.5000000000002 79.45474020016866,609.9755174410899 83.61783933967092,587.9730093586414 82.78054224406407,565.5957733823815 76.98483448596994,543.9658975633597 66.52133705314742,524.1679941936377 51.914733398638475,507.19481281701826 33.89745962154541,493.89745962155826 13.372977062635016,484.9427194213896 -8.629531019813442,480.7796202818873 -31.006766996073395,481.61691737749413 -52.63664281509517,487.4126251355883 -72.43454618481724,497.8761225684108 -89.40772756143667,512.4827262229197 -102.70508075689662,530.5000000000128 -111.65982095706534,551.0244825589232 -115.82292009656766,573.0269906413716 -114.9856230009608,595.4042266176316 -109.18991524286668,617.0341024366534 -98.72641781004415,636.8320058063755 -84.11981415553521,653.8051871829948 -66.10254037844214,667.1025403784548 -45.57805781953175,676.0572805786235 -23.575549737083293,680.2203797181259 -1.1983137608233392,679.3830826225189 20.431562058198438,673.5873748644249 40.229465427920445,663.1238774316023 57.20264680453988,648.5172737770934 70.49999999999983,630.5000000000003" stroke="black" stroke-linecap="round" stroke-width="5" /><polyline clip-path="url(#border_clip)" fill="none" points="803.7050807568799,530.4999999999835 790.407727561417,512.4827262228927 773.4345461847951,497.87612256838656 753.6366428150712,487.4126251355674 732.0067669960486,481.61691737747685 709.6295310197884,480.7796202818738 687.6270229373406,484.94271942137976 667.1025403784317,493.8974596215519 649.0852666013409,507.19481281701485 634.4786629468347,524.1679941936368 624.0151655140155,543.9658975633606 618.2194577559251,565.5957733823833 617.3821606603219,587.9730093586434 621.5452597998278,609.9755174410911 630.5,630.5 621.5452597998317,651.0244825589107 617.3821606603296,673.0269906413591 618.2194577559369,695.4042266176191 624.0151655140313,717.0341024366408 634.4786629468541,736.8320058063626 649.0852666013634,753.8051871829819 667.1025403784566,767.1025403784415 687.6270229373672,776.0572805786098 709.6295310198157,780.2203797181119 732.0067669960756,779.3830826225046 753.6366428150973,773.5873748644102 773.4345461848193,763.1238774315874 790.4077275614384,748.5172737770781 803.705080756898,730.4999999999849 812.6598209570665,709.9755174410743 816.8229200965684,687.9730093586259 815.9856230009613,665.5957733823659 810.1899152428668,643.9658975633442 799.726417810044,624.1679941936222 785.1198141555348,607.1948128170031 767.1025403784415,593.8974596215435 746.5780578195308,584.942719421375 724.5755497370824,580.7796202818731 702.1983137608224,581.6169173774803 680.5684379418008,587.4126251355748 660.7705345720789,597.8761225683976 643.7973531954597,612.4827262229069 630.5,630.5000000000001" stroke="black" stroke-linecap="round" stroke-width="5" /><polyline clip-path="url(#border_clip)" fill="none" points="630.5,630.5000000000001 608.2479066043686,633.0072087818198 587.1116260882447,640.4031132097623 568.1510198141282,652.3168517532031 552.3168517531999,668.1510198141343 540.4031132097625,687.111626088253 533.0072087818239,708.2479066043783 530.5000000000084,730.5000000000101 533.007208781828,752.7520933956415 540.4031132097705,773.8883739117654 552.3168517532113,792.8489801858819 568.1510198141425,808.6831482468102 587.1116260882612,820.5968867902475 608.2479066043865,827.9927912181861 630.5000000000183,830.5000000000016 652.7520933956497,827.992791218182 673.8883739117736,820.5968867902395 692.8489801858901,808.6831482467987 708.6831482468184,792.8489801858675 720.5968867902557,773.8883739117487 727.9927912181943,752.7520933956234 730.5000000000098,730.4999999999916 727.9927912181902,708.2479066043602 720.5968867902477,687.1116260882363 708.6831482468069,668.1510198141198 692.8489801858757,652.3168517531915 673.8883739117568,640.4031132097543 652.7520933956316,633.0072087818157 630.4999999999998,630.5000000000001 617.2026468045368,612.4827262229093 600.2294654279149,597.8761225684032 580.431562058191,587.412625135584 558.8016862391682,581.6169173774935 536.4244502629082,580.7796202818904 514.4219421804604,584.9427194213963 493.8974596215515,593.8974596215685 475.88018584446064,607.1948128170316 461.27358218995454,624.1679941936534 450.8100847571353,643.9658975633772 445.0143769990449,665.5957733824 444.1770799034417,687.9730093586601 448.34017904294774,709.9755174411079 457.2949192431199,730.5000000000168" stroke="black" stroke-linecap="round" stroke-width="5" /><polyline clip-path="url(#border_clip)" fill="none" points="457.2949192431199,730.5000000000168 470.5922724385829,748.5172737771077 487.5654538152048,763.1238774316137 507.36335718492865,773.587374864433 528.9932330039514,779.3830826225235 551.3704689802115,780.2203797181265 573.3729770626594,776.0572805786205 593.8974596215683,767.1025403784483 611.9147333986591,753.8051871829853 626.5213370531652,736.8320058063634 636.9848344859845,717.0341024366396 642.7805422440749,695.4042266176168 643.6178393396781,673.0269906413567 639.454740200172,651.024482558909 630.4999999999998,630.5 639.4547402001682,609.9755174410896 643.6178393396701,587.9730093586409 642.780542244063,565.5957733823809 636.9848344859686,543.9658975633592 626.5213370531457,524.1679941936374 611.9147333986364,507.1948128170181 593.8974596215431,493.89745962155837 573.3729770626326,484.94271942139 551.370468980184,480.779620281888 528.993233003924,481.61691737749527 507.3633571849023,487.41262513558974 487.5654538151804,497.8761225684126 470.59227243856117,512.4827262229218 457.2949192431015,530.5000000000151 448.3401790429331,551.0244825589257 444.1770799034311,573.0269906413743 445.0143769990383,595.4042266176342 450.81008475713276,617.034102436656 461.2735821899556,636.8320058063778 475.8801858444648,653.8051871829971 493.89745962155814,667.1025403784568 514.4219421804687,676.0572805786252 536.4244502629173,680.2203797181271 558.8016862391772,679.38308262252 580.431562058199,673.5873748644256 600.2294654279208,663.1238774316028 617.2026468045401,648.5172737770935 630.4999999999998,630.5000000000002" stroke="black" stroke-linecap="round" stroke-width="5" /><polyline clip-path="url(#border_clip)" fill="none" points="0.5,0.5 140.5,0.5 140.5,140.5 0.5,140.50000000000003 0.5,0.5" stroke="black" stroke-linecap="round" stroke-width="5" /><polyline clip-path="url(#border_clip)" fill="none" points="70.5,70.5 92.75209339563145,67.99279121818233 113.88837391175582,60.596886790241854 132.84898018587336,48.68314824680294 148.68314824680297,32.8489801858733 160.5968867902419,13.888373911755764 167.99279121818236,-7.247906604368609 170.5,-29.500000000000057 167.99279121818236,-51.752093395631505 160.5968867902419,-72.88837391175588 148.68314824680297,-91.84898018587342 132.84898018587333,-107.68314824680306 113.88837391175579,-119.59688679024197 92.75209339563139,-126.99279121818239 70.49999999999994,-129.5 48.247906604368495,-126.99279121818233 27.111626088244122,-119.59688679024185 8.151019814126585,-107.68314824680294 -7.683148246803057,-91.8489801858733 -19.596886790242024,-72.88837391175576 -26.992791218182504,-51.75209339563139 -29.50000000000017,-29.499999999999943 -26.992791218182504,-7.247906604368495 -19.596886790242024,13.888373911755878 -7.683148246803114,32.848980185873415 8.151019814126528,48.68314824680306 27.111626088244066,60.596886790242024 48.24790660436844,67.9927912181825 70.49999999999989,70.50000000000017 83.79735319546114,88.5172737770921 100.7705345720816,103.12387743159968 120.56843794180432,113.58737486442064 142.1983137608264,119.38308262251309 164.5755497370863,120.22037971811827 186.57805781953434,116.05728057861432 207.10254037844393,107.1025403784441 225.1198141555359,93.80518718298288 239.72641781004347,76.83200580636242 250.1899152428644,57.03410243663973 255.98562300095688,35.40422661761767 256.82292009656203,13.02699064135777 252.6598209570581,-8.975517441090233 243.70508075688787,-29.49999999999983" stroke="black" stroke-linecap="round" stroke-width="5" /><polyline clip-path="url(#border_clip)" fill="none" points="140.5,0.5 280.5000000000005,0.5000000000002842 280.5000000000002,140.5000000000008 140.49999999999974,140.50000000000054 140.49999999999997,0.5" stroke="black" stroke-linecap="round" stroke-width="5" /><polyline clip-path="url(#border_clip)" fill="none" points="210.5,70.5 310.50000000000034,70.50000000000017 229.59830056250524,129.27852522924758 260.5000000000002,34.17287359973193 291.4016994374949,129.27852522924766 210.49999999999997,70.50000000000006 260.5000000000001,157.10254037844427 169.1454542357397,116.42887607086405 266.9602143091206,95.63770698908809 200.0471536732345,169.95218953682775 210.49999999999991,70.50000000000006 160.49999999999974,157.10254037844425 150.04715367323433,57.65035084161656 216.96021430912043,131.96483338935624 119.14545423573946,111.17366430758028 210.4999999999999,70.50000000000006 110.49999999999949,70.50000000000017 191.40169943749447,11.721474770752536 160.49999999999974,106.8271264002683 129.59830056250473,11.721474770752593 210.4999999999999,70.5 160.49999999999952,-16.102540378444132 251.85454576426005,24.571123929135865 154.03978569087917,45.36229301091214 220.95284632676504,-28.952189536827746 210.49999999999991,70.5 260.4999999999999,-16.10254037844436 270.95284632676555,83.34964915838333 204.03978569087923,9.035166610643842 301.85454576426025,29.82633569241949 210.49999999999994,70.5" stroke="black" stroke-linecap="round" stroke-width="5" /><polyline clip-path="url(#border_clip)" fill="none" points="280.5,0.5 420.50000000000057,0.49999999999943157 420.50000000000114,140.5 280.50000000000057,140.50000000000057 280.5,0.5" stroke="black" stroke-linecap="round" stroke-width="5" /><polyline clip-path="url(#border_clip)" fill="none" points="350.5,70.5 450.5000000000004,70.4999999999996 400.50000000000057,157.10254037844402 350.5,70.50000000000006 400.5000000000006,157.102540378444 300.5000000000002,157.1025403784445 350.49999999999994,70.50000000000006 300.5000000000003,157.1025403784445 250.4999999999996,70.50000000000063 350.4999999999999,70.5 250.4999999999996,70.50000000000068 300.49999999999915,-16.10254037844379 350.49999999999994,70.5 300.49999999999915,-16.10254037844379 400.49999999999943,-16.10254037844453 350.49999999999994,70.5 400.4999999999994,-16.10254037844453 450.5000000000002,70.49999999999915 350.5,70.5" stroke="black" stroke-linecap="round" stroke-width="5" /><polyline clip-path="url(#border_clip)" fill="none" points="420.5,0.5 560.5000000000003,0.49999999999874944 560.5000000000016,140.49999999999912 420.50000000000125,140.5000000000004 420.5,0.5" stroke="black" stroke-linecap="round" stroke-width="5" /><polyline clip-path="url(#border_clip)" fill="none" points="490.5,70.5 590.5000000000002,70.49999999999909 640.5000000000013,157.1025403784427 590.5000000000019,243.7050807568873 490.50000000000165,243.70508075688826 440.5000000000007,157.10254037844464 490.49999999999994,70.50000000000006 540.5000000000009,157.10254037844365 490.5000000000017,243.70508075688826 390.5000000000014,243.7050807568893 340.5000000000004,157.10254037844572 390.4999999999996,70.50000000000108 490.4999999999999,70.5 440.5000000000007,157.10254037844467 340.5000000000004,157.10254037844578 290.49999999999926,70.50000000000222 340.49999999999847,-16.102540378442484 440.49999999999875,-16.10254037844362 490.4999999999999,70.49999999999994 390.4999999999996,70.50000000000114 340.4999999999984,-16.10254037844237 390.4999999999975,-102.70508075688713 490.49999999999784,-102.70508075688838 540.4999999999991,-16.10254037844487 490.5,70.49999999999989 440.49999999999875,-16.102540378443564 490.4999999999977,-102.70508075688838 590.4999999999981,-102.70508075688969 640.4999999999993,-16.102540378446236 590.5000000000003,70.49999999999858 490.5,70.49999999999994 540.499999999999,-16.102540378444928 640.4999999999993,-16.10254037844635 690.5000000000007,70.49999999999704 640.5000000000018,157.10254037844192 540.5000000000015,157.10254037844336 490.5,70.5" stroke="black" stroke-linecap="round" stroke-width="5" /><polyline clip-path="url(#border_clip)" fill="none" points="560.5,0.5 700.5000000000005,0.4999999999978968 700.5000000000025,140.49999999999832 560.5000000000022,140.50000000000043 560.5,0.5" stroke="black" stroke-linecap="round" stroke-width="5" /><polyline clip-path="url(#border_clip)" fill="none" points="630.5,70.5 652.7520933956314,67.99279121818199 673.8883739117557,60.59688679024123 692.8489801858732,48.68314824680198 708.6831482468026,32.84898018587205 720.5968867902413,13.888373911754286 727.9927912181814,-7.247906604370257 730.4999999999987,-29.50000000000182 727.9927912181807,-51.752093395633324 720.59688679024,-72.88837391175764 708.6831482468008,-91.84898018587506 692.8489801858708,-107.68314824680454 673.888373911753,-119.59688679024322 652.7520933956284,-126.99279121818336 630.4999999999969,-129.50000000000068 608.2479066043654,-126.99279121818267 587.1116260882411,-119.59688679024191 568.1510198141236,-107.68314824680266 552.3168517531942,-91.84898018587273 540.4031132097555,-72.88837391175497 533.0072087818154,-51.752093395630425 530.4999999999981,-29.499999999998863 533.007208781816,-7.247906604367358 540.4031132097568,13.888373911756958 552.316851753196,32.84898018587438 568.151019814126,48.68314824680385 587.1116260882438,60.596886790242536 608.2479066043684,67.99279121818267 630.4999999999999,70.5 643.7973531954615,88.51727377709182 660.7705345720822,103.12387743159917 680.5684379418051,113.58737486441984 702.1983137608272,119.38308262251198 724.5755497370872,120.22037971811682 746.5780578195352,116.05728057861253 767.1025403784447,107.102540378442 785.1198141555366,93.80518718298043 799.7264178100439,76.83200580635975 810.1899152428646,57.03410243663683 815.9856230009568,35.4042266176146 816.8229200965616,13.026990641354644 812.6598209570573,-8.97551744109336 803.7050807568868,-29.5000000000029" stroke="black" stroke-linecap="round" stroke-width="5" /><polyline clip-path="url(#border_clip)" fill="none" points="0.5,140.5 140.5000000000006,140.49999999999807 140.50000000000256,280.49999999999864 0.5000000000019327,280.5000000000006 0.49999999999994316,140.50000000000003" stroke="black" stroke-linecap="round" stroke-width="5" /><polyline clip-path="url(#border_clip)" fill="none" points="70.5,210.5 170.50000000000043,210.49999999999858 89.59830056250621,269.2785252292473 120.49999999999972,174.17287359973108 151.40169943749598,269.2785252292464 70.5,210.5 120.5000000000015,297.10254037844345 29.14545423574043,256.4288760708647 126.96021430912108,235.63770698908715 60.04715367323615,309.9521895368279 70.5,210.5 20.500000000001137,297.10254037844504 10.047153673234163,197.6503508416174 76.96021430912145,271.96483338935604 -20.854545764259854,251.17366430758165 70.5,210.49999999999994 -29.500000000000455,210.50000000000162 51.401699437493676,151.7214747707527 20.500000000000398,246.82712640026898 -10.401699437496063,151.72147477075373 70.5,210.49999999999991 20.499999999998295,123.89745962155655 111.85454576425948,164.57112392913515 14.039785690878887,185.36229301091288 80.95284632676368,111.04781046317197 70.50000000000006,210.49999999999991 120.49999999999869,123.89745962155479 130.9528463267659,223.34964915838236 64.03978569087843,149.03516661064384 161.8545457642598,169.82633569241804 70.50000000000006,210.49999999999994" stroke="black" stroke-linecap="round" stroke-width="5" /><polyline clip-path="url(#border_clip)" fill="none" points="140.5,140.5 280.50000000000057,140.49999999999733 280.5000000000033,280.49999999999795 140.50000000000267,280.50000000000057 140.5,140.5" stroke="black" stroke-linecap="round" stroke-width="5" /><polyline clip-path="url(#border_clip)" fill="none" points="210.5,210.5 310.50000000000045,210.49999999999807 260.50000000000193,297.1025403784433 210.5,210.50000000000003 260.50000000000193,297.1025403784432 160.50000000000153,297.10254037844527 210.49999999999997,210.50000000000003 160.50000000000156,297.10254037844527 110.49999999999955,210.5000000000021 210.49999999999994,210.5 110.49999999999955,210.50000000000216 160.49999999999787,123.89745962155686 210.49999999999997,210.49999999999997 160.49999999999784,123.89745962155689 260.49999999999824,123.89745962155465 210.5,210.49999999999994 260.4999999999982,123.89745962155462 310.5000000000004,210.4999999999976 210.50000000000003,210.49999999999997" stroke="black" stroke-linecap="round" stroke-width="5" /><polyline clip-path="url(#border_clip)" fill="none" points="280.5,140.5 420.5000000000005,140.49999999999665 420.50000000000387,280.49999999999716 280.50000000000335,280.5000000000005 280.5,140.5" stroke="black" stroke-linecap="round" stroke-width="5" /><polyline clip-path="url(#border_clip)" fill="none" points="350.5,210.5 450.50000000000034,210.49999999999758 500.5000000000026,297.10254037844055 450.50000000000455,383.70508075688593 350.5000000000042,383.7050807568884 300.5000000000019,297.10254037844544 350.4999999999999,210.5 400.5000000000023,297.10254037844294 350.50000000000426,383.7050807568884 250.5000000000039,383.70508075689094 200.50000000000148,297.102540378448 250.49999999999943,210.50000000000253 350.49999999999983,210.49999999999994 300.5000000000019,297.10254037844544 200.5000000000015,297.10254037844805 150.49999999999903,210.50000000000523 200.4999999999969,123.8974596215597 300.49999999999727,123.897459621557 350.49999999999983,210.49999999999983 250.49999999999943,210.50000000000256 200.49999999999687,123.89745962155973 250.49999999999469,37.29491924311418 350.49999999999505,37.294919243111394 400.49999999999767,123.89745962155419 350.4999999999999,210.49999999999977 300.49999999999727,123.897459621557 350.499999999995,37.294919243111394 450.49999999999534,37.29491924310855 500.49999999999807,123.89745962155132 450.50000000000034,210.49999999999696 350.49999999999994,210.49999999999986 400.4999999999976,123.89745962155422 500.499999999998,123.89745962155126 550.5000000000007,210.49999999999397 500.5000000000031,297.10254037843964 400.5000000000028,297.10254037844265 350.5,210.49999999999994" stroke="black" stroke-linecap="round" stroke-width="5" /><polyline clip-path="url(#border_clip)" fill="none" points="420.5,140.5 560.5000000000005,140.49999999999577 560.5000000000048,280.49999999999625 420.5000000000042,280.5000000000005 420.5,140.5" stroke="black" stroke-linecap="round" stroke-width="5" /><polyline clip-path="url(#border_clip)" fill="none" points="490.5,210.5 512.7520933956314,207.99279121818168 533.8883739117557,200.59688679024057 552.848980185873,188.683148246801 568.6831482468021,172.84898018587083 580.5968867902405,153.88837391175286 587.9927912181804,132.75209339562818 590.4999999999974,110.49999999999659 587.992791218179,88.24790660436514 580.5968867902379,67.11162608824094 568.6831482467984,48.151019814123686 552.8489801858682,32.3168517531945 533.8883739117503,20.4031132097561 512.7520933956255,13.007208781816246 490.4999999999939,10.499999999999261 468.24790660436247,13.00720878181761 447.11162608823827,20.403113209758715 428.151019814121,32.31685175319825 412.31685175319177,48.151019814128404 400.40311320975337,67.1116260882464 393.0072087818135,88.24790660437111 390.49999999999653,110.50000000000273 393.0072087818149,132.75209339563418 400.403113209756,153.8883739117584 412.3168517531955,172.84898018587566 428.15101981412573,188.68314824680488 447.1116260882437,200.59688679024327 468.2479066043684,207.99279121818313 490.5,210.5000000000001 503.7973531954618,228.51727377709173 520.7705345720827,243.12387743159883 540.5684379418059,253.58737486441922 562.1983137608282,259.38308262251104 584.5755497370882,260.2203797181155 606.5780578195361,256.05728057861086 627.1025403784455,247.10254037844004 645.1198141555371,233.8051871829782 659.7264178100442,216.83200580635724 670.1899152428646,197.03410243663416 675.9856230009564,175.40422661761184 676.8229200965608,153.02699064135186 672.6598209570561,131.02448255890388 663.7050807568853,110.49999999999449" stroke="black" stroke-linecap="round" stroke-width="5" /><polyline clip-path="url(#border_clip)" fill="none" points="560.5,140.5 700.5000000000007,140.49999999999588 700.5000000000048,280.4999999999966 560.5000000000041,280.5000000000007 560.5,140.50000000000003" stroke="black" stroke-linecap="round" stroke-width="5" /><polyline clip-path="url(#border_clip)" fill="none" points="630.5,210.5 730.5000000000005,210.49999999999702 649.5983005625071,269.27852522924707 680.4999999999991,174.17287359973028 711.4016994374969,269.2785252292452 630.5,210.50000000000003 680.5000000000028,297.10254037844277 589.145454235741,256.4288760708654 686.9602143091215,235.63770698908633 620.0471536732376,309.9521895368282 630.4999999999999,210.50000000000006 580.5000000000024,297.10254037844595 570.0471536732339,197.65035084161843 636.9602143091224,271.9648333893561 539.1454542357407,251.17366430758318 630.4999999999999,210.5 530.4999999999993,210.50000000000324 611.4016994374927,151.721474770753 580.5000000000008,246.82712640026983 549.5983005625028,151.72147477075504 630.4999999999999,210.49999999999997 580.4999999999968,123.89745962155735 671.8545457642587,164.5711239291345 574.0397856908783,185.36229301091385 640.952846326762,111.04781046317177 630.5,210.49999999999997 680.4999999999973,123.89745962155393 690.9528463267661,223.3496491583814 624.0397856908774,149.03516661064393 721.8545457642591,169.82633569241656 630.5,210.5" stroke="black" stroke-linecap="round" stroke-width="5" /><polyline clip-path="url(#border_clip)" fill="none" points="0.5,280.5 140.5000000000007,280.49999999999505 140.50000000000566,420.4999999999958 0.5000000000049454,420.50000000000074 0.5,280.5" stroke="black" stroke-linecap="round" stroke-width="5" /><polyline clip-path="url(#border_clip)" fill="none" points="70.5,350.5 170.5000000000005,350.4999999999964 120.50000000000335,437.10254037844254 70.5,350.5 120.50000000000338,437.1025403784425 20.5000000000029,437.1025403784462 70.49999999999994,350.50000000000006 20.5000000000029,437.1025403784462 -29.50000000000057,350.50000000000375 70.49999999999989,350.5 -29.50000000000057,350.5000000000038 20.499999999996362,263.89745962155763 70.49999999999989,350.49999999999994 20.499999999996362,263.8974596215577 120.49999999999679,263.8974596215538 70.49999999999994,350.49999999999994 120.49999999999676,263.89745962155376 170.5000000000004,350.499999999996 70.5,350.5" stroke="black" stroke-linecap="round" stroke-width="5" /><polyline clip-path="url(#border_clip)" fill="none" points="140.5,280.5 280.50000000000057,280.4999999999944 280.5000000000062,420.499999999995 140.50000000000563,420.5000000000006 140.5,280.5" stroke="black" stroke-linecap="round" stroke-width="5" /><polyline clip-path="url(#border_clip)" fill="none" points="210.5,350.5 310.50000000000045,350.49999999999596 360.50000000000415,437.10254037843816 310.50000000000745,523.7050807568844 210.50000000000702,523.7050807568885 160.50000000000327,437.1025403784463 210.49999999999991,350.5 260.5000000000037,437.1025403784422 210.50000000000708,523.7050807568885 110.50000000000665,523.7050807568926 60.50000000000284,437.1025403784505 110.49999999999943,350.5000000000042 210.49999999999986,350.5 160.5000000000033,437.10254037844635 60.50000000000284,437.10254037845056 10.499999999998977,350.50000000000847 60.49999999999551,263.8974596215621 160.49999999999594,263.8974596215578 210.49999999999986,350.4999999999999 110.49999999999943,350.5000000000042 60.49999999999545,263.8974596215621 110.49999999999193,177.29491924311574 210.49999999999238,177.2949192431114 260.49999999999636,263.8974596215535 210.49999999999994,350.4999999999999 160.4999999999959,263.89745962155786 210.49999999999233,177.2949192431114 310.4999999999928,177.294919243107 360.4999999999968,263.89745962154905 310.50000000000045,350.4999999999955 210.5,350.49999999999994 260.49999999999636,263.8974596215535 360.49999999999676,263.897459621549 410.5000000000009,350.49999999999096 360.50000000000455,437.1025403784375 260.5000000000041,437.10254037844203 210.49999999999997,350.5" stroke="black" stroke-linecap="round" stroke-width="5" /><polyline clip-path="url(#border_clip)" fill="none" points="280.5,280.5 420.5000000000006,280.49999999999363 420.50000000000705,420.49999999999426 280.50000000000637,420.5000000000006 280.5,280.5" stroke="black" stroke-linecap="round" stroke-width="5" /><polyline clip-path="url(#border_clip)" fill="none" points="350.5,350.5 372.75209339563145,347.9927912181813 393.88837391175554,340.59688679023986 412.8489801858726,328.68314824680004 428.6831482468016,312.8489801858696 440.59688679023975,293.88837391175144 447.99279121817926,272.7520933956266 450.49999999999585,250.49999999999497 447.9927912181772,228.24790660436355 440.59688679023577,207.1116260882394 428.6831482467959,188.15101981412232 412.84898018586546,172.31685175319333 393.8883739117473,160.40311320975522 372.7520933956225,153.0072087818157 350.49999999999085,150.49999999999906 328.2479066043594,153.00720878181772 307.11162608823525,160.40311320975917 288.1510198141182,172.31685175319902 272.3168517531892,188.15101981412946 260.4031132097511,207.11162608824762 253.00720878181158,228.24790660437242 250.49999999999494,250.5000000000041 253.00720878181363,272.75209339563554 260.4031132097551,293.8883739117597 272.3168517531949,312.8489801858767 288.15101981412533,328.68314824680573 307.1116260882435,340.59688679024384 328.2479066043683,347.99279121818336 350.5,350.5 363.7973531954621,368.5172737770914 380.7705345720833,383.12387743159826 400.56843794180656,393.58737486441834 422.19831376082897,399.3830826225098 444.575549737089,400.2203797181139 466.57805781953687,396.0572805786089 487.1025403784462,387.10254037843777 505.1198141555376,373.80518718297566 519.7264178100444,356.83200580635446 530.1899152428645,337.0341024366312 535.9856230009559,315.40422661760874 536.8229200965601,293.0269906413488 532.6598209570551,271.02448255890084 523.705080756884,250.4999999999916" stroke="black" stroke-linecap="round" stroke-width="5" /><polyline clip-path="url(#border_clip)" fill="none" points="420.5,280.5 560.5000000000008,280.4999999999937 560.500000000007,420.49999999999443 420.5000000000063,420.5000000000008 420.5,280.5" stroke="black" stroke-linecap="round" stroke-width="5" /><polyline clip-path="url(#border_clip)" fill="none" points="490.5,350.5 590.5000000000006,350.49999999999545 509.59830056250803,409.2785252292468 540.4999999999986,314.1728735997295 571.4016994374979,409.27852522924394 490.5,350.50000000000006 540.5000000000043,437.1025403784421 449.14545423574185,396.42887607086607 546.960214309122,375.6377069890855 480.0471536732392,449.9521895368284 490.5,350.50000000000006 440.50000000000375,437.10254037844675 430.0471536732337,337.65035084161934 496.9602143091234,411.964833389356 399.14545423574134,391.1736643075846 490.5,350.5 390.49999999999943,350.5000000000048 471.4016994374918,291.7214747707533 440.5000000000015,386.82712640027063 409.59830056250195,291.72147477075623 490.5,350.5 440.4999999999955,263.8974596215581 531.8545457642581,304.5711239291339 434.039785690878,325.3622930109147 500.95284632676055,251.0478104631716 490.5,350.5 540.499999999996,263.8974596215532 550.9528463267663,363.34964915838054 484.0397856908765,289.035166610644 581.8545457642585,309.8263356924152 490.50000000000006,350.5" stroke="black" stroke-linecap="round" stroke-width="5" /><polyline clip-path="url(#border_clip)" fill="none" points="560.5,280.5 700.5000000000007,280.49999999999295 700.5000000000077,420.4999999999937 560.500000000007,420.50000000000074 560.5,280.5" stroke="black" stroke-linecap="round" stroke-width="5" /><polyline clip-path="url(#border_clip)" fill="none" points="630.5,350.5 730.5000000000006,350.49999999999494 680.5000000000048,437.1025403784418 630.5,350.50000000000006 680.5000000000048,437.1025403784418 580.5000000000042,437.102540378447 630.5,350.50000000000006 580.5000000000043,437.102540378447 530.4999999999994,350.50000000000523 630.5,350.5 530.4999999999994,350.5000000000053 580.4999999999951,263.8974596215583 630.5,350.5 580.4999999999951,263.8974596215583 680.4999999999957,263.8974596215529 630.5,350.49999999999994 680.4999999999957,263.8974596215529 730.5000000000007,350.4999999999945 630.5000000000001,350.5" stroke="black" stroke-linecap="round" stroke-width="5" /><polyline clip-path="url(#border_clip)" fill="none" points="0.5,420.5 140.50000000000074,420.49999999999227 140.50000000000847,560.499999999993 0.5000000000077307,560.5000000000007 0.5,420.5" stroke="black" stroke-linecap="round" stroke-width="5" /><polyline clip-path="url(#border_clip)" fill="none" points="70.5,490.5 170.50000000000054,490.49999999999443 220.50000000000563,577.1025403784361 170.50000000001017,663.7050807568831 70.50000000000966,663.7050807568887 20.500000000004547,577.1025403784472 70.49999999999994,490.50000000000006 120.50000000000509,577.1025403784415 70.50000000000972,663.7050807568887 -29.499999999990848,663.7050807568944 -79.49999999999602,577.1025403784529 -29.500000000000682,490.5000000000057 70.49999999999989,490.5 20.500000000004547,577.1025403784472 -79.49999999999602,577.1025403784529 -129.5000000000013,490.5000000000115 -79.50000000000603,403.8974596215643 20.499999999994543,403.8974596215585 70.49999999999983,490.4999999999999 -29.50000000000074,490.5000000000057 -79.50000000000608,403.8974596215643 -29.500000000010914,317.294919243117 70.49999999998965,317.29491924311117 120.49999999999505,403.8974596215525 70.49999999999989,490.49999999999983 20.499999999994486,403.8974596215585 70.4999999999896,317.2949192431111 170.49999999999017,317.29491924310514 220.49999999999562,403.8974596215465 170.50000000000054,490.49999999999386 70.5,490.49999999999983 120.49999999999505,403.89745962155246 220.4999999999956,403.89745962154643 270.50000000000114,490.4999999999877 220.50000000000608,577.1025403784352 120.50000000000554,577.1025403784412 70.5,490.4999999999999" stroke="black" stroke-linecap="round" stroke-width="5" /><polyline clip-path="url(#border_clip)" fill="none" points="140.5,420.5 280.5000000000008,420.4999999999914 280.5000000000093,560.4999999999922 140.50000000000858,560.5000000000008 140.49999999999997,420.5" stroke="black" stroke-linecap="round" stroke-width="5" /><polyline clip-path="url(#border_clip)" fill="none" points="210.5,490.5 232.75209339563142,487.99279121818097 253.88837391175545,480.5968867902392 272.8489801858724,468.683148246799 288.6831482468011,452.8489801858683 300.59688679023895,433.88837391174997 307.9927912181781,412.752093395625 310.49999999999443,390.4999999999933 307.9927912181754,368.2479066043619 300.5968867902336,347.1116260882378 288.68314824679345,328.1510198141209 272.8489801858628,312.31685175319217 253.8883739117444,300.40311320975434 232.75209339561945,293.00720878181517 210.49999999998775,290.49999999999886 188.24790660435633,293.00720878181784 167.1116260882323,300.4031132097596 148.1510198141154,312.3168517531998 132.31685175318663,328.1510198141305 120.4031132097488,347.11162608824884 113.0072087818096,368.2479066043738 110.49999999999329,390.5000000000055 113.0072087818123,412.75209339563696 120.40311320975408,433.888373911761 132.31685175319424,452.8489801858779 148.15101981412494,468.6831482468067 167.11162608824333,480.5968867902445 188.24790660436827,487.9927912181837 210.5,490.5 223.7973531954624,508.51727377709125 240.77053457208382,523.1238774315979 260.5684379418073,533.5873748644176 282.1983137608298,539.3830826225088 304.5755497370899,540.2203797181126 326.5780578195377,536.0572805786073 347.1025403784469,527.1025403784358 365.1198141555381,513.8051871829734 379.7264178100447,496.83200580635196 390.1899152428645,477.03410243662853 395.9856230009557,455.404226617606 396.82292009655947,433.02699064134595 392.6598209570542,411.02448255889806 383.7050807568827,390.4999999999889" stroke="black" stroke-linecap="round" stroke-width="5" /><polyline clip-path="url(#border_clip)" fill="none" points="280.5,420.5 420.50000000000085,420.4999999999915 420.5000000000094,560.4999999999924 280.5000000000085,560.5000000000009 280.5,420.5" stroke="black" stroke-linecap="round" stroke-width="5" /><polyline clip-path="url(#border_clip)" fill="none" points="350.5,490.5 450.50000000000057,490.49999999999386 369.59830056250894,549.2785252292465 400.49999999999807,454.1728735997287 431.40169943749885,549.2785252292426 350.5,490.5 400.5000000000056,577.1025403784413 309.1454542357425,536.4288760708666 406.96021430912236,515.6377069890846 340.04715367324076,589.9521895368287 350.49999999999994,490.5 300.5000000000051,577.1025403784475 290.0471536732334,477.65035084162025 356.96021430912435,551.9648333893559 259.14545423574185,531.173664307586 350.4999999999999,490.5 250.49999999999932,490.50000000000637 331.40169943749083,431.72147477075356 300.50000000000193,526.8271264002715 269.5983005625009,431.7214747707575 350.49999999999994,490.49999999999994 300.49999999999403,403.89745962155877 391.85454576425735,444.57112392913314 294.0397856908775,465.36229301091555 360.95284632675896,391.04781046317134 350.5,490.49999999999994 400.49999999999466,403.8974596215523 410.9528463267666,503.3496491583795 344.0397856908754,429.03516661064407 441.854545764258,449.8263356924137 350.5,490.5" stroke="black" stroke-linecap="round" stroke-width="5" /><polyline clip-path="url(#border_clip)" fill="none" points="420.5,420.5 560.5000000000009,420.49999999999073 560.5000000000101,560.4999999999916 420.50000000000927,560.5000000000009 420.5,420.5" stroke="black" stroke-linecap="round" stroke-width="5" /><polyline clip-path="url(#border_clip)" fill="none" points="490.5,490.5 590.5000000000007,490.4999999999934 540.5000000000061,577.1025403784411 490.5,490.50000000000006 540.5000000000061,577.1025403784411 440.50000000000546,577.1025403784479 490.49999999999994,490.5000000000001 440.50000000000546,577.1025403784479 390.4999999999993,490.5000000000069 490.4999999999999,490.50000000000006 390.4999999999993,490.50000000000693 440.49999999999363,403.89745962155905 490.4999999999999,490.5 440.49999999999363,403.8974596215591 540.4999999999942,403.8974596215522 490.49999999999994,490.5 540.4999999999942,403.8974596215521 590.5000000000006,490.49999999999295 490.5,490.5" stroke="black" stroke-linecap="round" stroke-width="5" /><polyline clip-path="url(#border_clip)" fill="none" points="560.5,420.5 700.5000000000008,420.4999999999901 700.5000000000107,560.4999999999909 560.5000000000099,560.5000000000008 560.5,420.5" stroke="black" stroke-linecap="round" stroke-width="5" /><polyline clip-path="url(#border_clip)" fill="none" points="630.5,490.5 730.5000000000006,490.4999999999929 780.500000000007,577.1025403784337 730.500000000013,663.7050807568816 630.5000000000123,663.7050807568887 580.5000000000059,577.1025403784479 630.5,490.5 680.5000000000065,577.1025403784408 630.5000000000125,663.7050807568887 530.5000000000118,663.705080756896 480.50000000000534,577.1025403784552 530.4999999999993,490.5000000000072 630.5,490.5 580.5000000000059,577.102540378448 480.5000000000054,577.1025403784553 430.49999999999875,490.5000000000146 480.4999999999927,403.89745962156655 580.4999999999933,403.8974596215592 630.5,490.4999999999999 530.4999999999993,490.5000000000073 480.4999999999927,403.8974596215666 530.4999999999866,317.29491924311856 630.4999999999872,317.2949192431111 680.4999999999939,403.8974596215518 630.5,490.4999999999999 580.4999999999932,403.8974596215592 630.499999999987,317.29491924311117 730.4999999999876,317.29491924310366 780.4999999999944,403.8974596215443 730.5000000000007,490.4999999999924 630.5000000000001,490.4999999999999 680.4999999999939,403.8974596215518 780.4999999999944,403.8974596215442 830.5000000000014,490.49999999998477 780.5000000000076,577.1025403784329 680.500000000007,577.1025403784406 630.5000000000002,490.5" stroke="black" stroke-linecap="round" stroke-width="5" /><polyline clip-path="url(#border_clip)" fill="none" points="0.5,560.5 140.5000000000008,560.4999999999893 140.5000000000115,700.4999999999901 0.5000000000106866,700.5000000000009 0.49999999999994316,560.5" stroke="black" stroke-linecap="round" stroke-width="5" /><polyline clip-path="url(#border_clip)" fill="none" points="70.5,630.5 92.75209339563139,627.9927912181806 113.88837391175531,620.5968867902385 132.84898018587205,608.683148246798 148.68314824680056,592.848980185867 160.5968867902381,573.8883739117485 167.99279121817696,552.7520933956234 170.4999999999929,530.4999999999917 167.99279121817352,508.2479066043603 160.59688679023142,487.11162608823645 148.68314824679098,468.15101981411965 132.84898018586006,452.31685175319114 113.8883739117415,440.40311320975366 92.75209339561644,433.00720878181477 70.49999999998465,430.4999999999988 48.24790660435326,433.0072087818182 27.111626088229343,440.40311320976025 8.151019814112601,452.31685175320075 -7.683148246815904,468.1510198141317 -19.59688679025345,487.1116260882502 -26.992791218192338,508.2479066043753 -29.5000000000083,530.500000000007 -26.992791218188927,552.7520933956384 -19.5968867902468,573.8883739117624 -7.683148246806354,592.8489801858791 8.151019814124595,608.6831482468076 27.111626088243156,620.5968867902452 48.24790660436821,627.992791218184 70.5,630.5 83.79735319546268,648.5172737770911 100.77053457208433,663.1238774315974 120.56843794180796,673.5873748644169 142.1983137608306,679.3830826225078 164.57554973709065,680.2203797181112 186.57805781953846,676.0572805786055 207.1025403784475,667.1025403784337 225.1198141555385,653.8051871829709 239.72641781004486,636.8320058063493 250.18991524286434,617.0341024366257 255.98562300095517,595.4042266176032 256.8229200965586,573.026990641343 252.65982095705294,551.0244825588952 243.7050807568811,530.4999999999862" stroke="black" stroke-linecap="round" stroke-width="5" /><polyline clip-path="url(#border_clip)" fill="none" points="140.5,560.5 280.5000000000009,560.4999999999893 280.50000000001165,700.4999999999902 140.5000000000107,700.5000000000009 140.49999999999997,560.5" stroke="black" stroke-linecap="round" stroke-width="5" /><polyline clip-path="url(#border_clip)" fill="none" points="210.5,630.5 310.5000000000007,630.4999999999923 229.5983005625099,689.2785252292463 260.4999999999975,594.1728735997278 291.4016994374998,689.2785252292415 210.5,630.5 260.50000000000705,717.1025403784406 169.14545423574316,676.4288760708673 266.96021430912276,655.6377069890837 200.04715367324226,729.9521895368289 210.49999999999994,630.5 160.50000000000637,717.1025403784483 150.04715367323317,617.6503508416212 216.96021430912526,691.9648333893558 119.14545423574242,671.1736643075874 210.49999999999991,630.5 110.49999999999926,630.5000000000078 191.40169943748987,571.7214747707537 160.50000000000247,666.8271264002722 129.59830056249996,571.7214747707586 210.49999999999991,630.4999999999999 160.49999999999267,543.8974596215594 251.8545457642566,584.5711239291325 154.03978569087707,605.3622930109163 220.95284632675737,531.0478104631711 210.49999999999994,630.4999999999999 260.4999999999933,543.8974596215514 270.95284632676675,643.3496491583785 204.03978569087445,569.0351666106441 301.85454576425735,589.8263356924122 210.49999999999997,630.5" stroke="black" stroke-linecap="round" stroke-width="5" /><polyline clip-path="url(#border_clip)" fill="none" points="280.5,560.5 420.5000000000009,560.4999999999885 420.5000000000124,700.4999999999895 280.5000000000115,700.5000000000009 280.5,560.5" stroke="black" stroke-linecap="round" stroke-width="5" /><polyline clip-path="url(#border_clip)" fill="none" points="350.5,630.5 450.5000000000007,630.4999999999918 400.50000000000745,717.1025403784404 350.5,630.5 400.5000000000075,717.1025403784404 300.5000000000068,717.1025403784486 350.49999999999994,630.5 300.5000000000069,717.1025403784486 250.49999999999932,630.5000000000084 350.4999999999999,630.5 250.49999999999932,630.5000000000084 300.49999999999227,543.8974596215598 350.4999999999999,630.5 300.49999999999227,543.8974596215598 400.49999999999284,543.8974596215514 350.49999999999994,630.5 400.4999999999928,543.8974596215514 450.5000000000005,630.4999999999914 350.5,630.5" stroke="black" stroke-linecap="round" stroke-width="5" /><polyline clip-path="url(#border_clip)" fill="none" points="420.5,560.5 560.5000000000007,560.499999999988 560.5000000000128,700.4999999999886 420.50000000001216,700.5000000000007 420.5,560.5" stroke="black" stroke-linecap="round" stroke-width="5" /><polyline clip-path="url(#border_clip)" fill="none" points="490.5,630.5 590.5000000000006,630.4999999999914 640.5000000000084,717.1025403784313 590.5000000000157,803.70508075688 490.5000000000151,803.7050807568887 440.5000000000073,717.1025403784487 490.49999999999994,630.5 540.5000000000077,717.1025403784399 490.5000000000151,803.7050807568887 390.50000000001455,803.7050807568975 340.50000000000665,717.1025403784575 390.4999999999993,630.5000000000089 490.4999999999999,630.5 440.5000000000073,717.1025403784488 340.5000000000067,717.1025403784577 290.49999999999875,630.5000000000177 340.4999999999913,543.8974596215689 440.49999999999187,543.8974596215601 490.4999999999999,630.5 390.4999999999993,630.5000000000089 340.49999999999125,543.8974596215689 390.49999999998374,457.29491924312015 490.49999999998437,457.29491924311117 540.4999999999925,543.897459621551 490.5,630.4999999999999 440.4999999999918,543.8974596215601 490.4999999999843,457.29491924311117 590.4999999999849,457.2949192431021 640.4999999999931,543.8974596215419 590.5000000000007,630.4999999999908 490.50000000000006,630.4999999999999 540.4999999999925,543.897459621551 640.499999999993,543.8974596215418 690.5000000000013,630.4999999999816 640.5000000000089,717.1025403784306 540.5000000000084,717.1025403784397 490.5000000000001,630.5" stroke="black" stroke-linecap="round" stroke-width="5" /><polyline clip-path="url(#border_clip)" fill="none" points="560.5,560.5 700.5000000000008,560.499999999987 700.5000000000136,700.499999999988 560.500000000013,700.5000000000009 560.5,560.5" stroke="black" stroke-linecap="round" stroke-width="5" /><polyline clip-path="url(#border_clip)" fill="none" points="630.5,630.5 652.7520933956314,627.9927912181803 673.8883739117551,620.5968867902378 692.8489801858717,608.6831482467971 708.6831482468,592.8489801858659 720.5968867902372,573.8883739117472 727.9927912181759,552.752093395622 730.4999999999914,530.4999999999902 727.9927912181718,508.24790660435883 720.5968867902293,487.111626088235 708.6831482467885,468.15101981411846 692.8489801858573,452.31685175319024 673.8883739117387,440.403113209753 652.7520933956134,433.00720878181437 630.4999999999816,430.4999999999988 608.2479066043503,433.00720878181846 587.1116260882266,440.40311320976093 568.15101981411,452.3168517532017 552.3168517531817,468.15101981413284 540.4031132097443,487.1116260882516 533.0072087818058,508.2479066043768 530.4999999999902,530.5000000000086 533.0072087818099,552.75209339564 540.4031132097524,573.8883739117638 552.3168517531931,592.8489801858804 568.1510198141243,608.6831482468086 587.111626088243,620.5968867902459 608.2479066043683,627.9927912181845 630.5000000000001,630.5 643.7973531954631,648.5172737770908 660.7705345720849,663.1238774315971 680.5684379418087,673.5873748644162 702.1983137608315,679.3830826225067 724.5755497370916,680.2203797181098 746.5780578195394,676.0572805786038 767.1025403784483,667.1025403784317 785.1198141555392,653.8051871829687 799.7264178100452,636.8320058063468 810.1899152428643,617.034102436623 815.9856230009549,595.4042266176002 816.8229200965579,573.0269906413401 812.659820957052,551.0244825588924 803.7050807568799,530.4999999999835" stroke="black" stroke-linecap="round" stroke-width="5" /></svg>