<?xml version="1.0" encoding="utf-8" ?>
<svg baseProfile="full" height="5000px" version="1.1" width="5000px" xmlns="http://www.w3.org/2000/svg" xmlns:ev="http://www.w3.org/2001/xml-events" xmlns:xlink="http://www.w3.org/1999/xlink"><defs><clipPath id="border_clip"><rect height="5000" width="5000" x="0" y="0" /></clipPath></defs><polyline clip-path="url(#border_clip)" fill="none" points="673.7050807568883,400.5 660.407727561427,382.48272622290824 643.4345461848065,367.87612256840066 623.6366428150839,357.4126251355797 602.0067669960617,351.6169173774874 579.6295310198018,350.7796202818822 557.6270229373538,354.9427194213863 537.1025403784442,363.89745962155666 519.0852666013523,377.1948128170179 504.4786629468447,394.16799419363815 494.0151655140237,413.96589756336107 488.2194577559312,435.59577338238296 487.382160660326,457.9730093586429 491.54525979982986,479.9755174410909 500.5,500.50000000000045 491.54525979982986,521.02448255891 487.382160660326,543.026990641358 488.2194577559312,565.404226617618 494.0151655140237,587.0341024366401 504.4786629468447,606.8320058063628 519.0852666013523,623.8051871829832 537.1025403784442,637.1025403784445 557.6270229373538,646.0572805786146 579.6295310198018,650.2203797181187 602.0067669960617,649.3830826225135 623.6366428150839,643.587374864421 643.4345461848065,633.1238774316 660.407727561427,618.5172737770924 673.7050807568883,600.5000000000005 682.6598209570584,579.9755174410909 686.8229200965625,557.9730093586429 685.9856230009573,535.595773382383 680.1899152428648,513.9658975633608 669.7264178100438,494.16799419363815 655.1198141555362,477.1948128170177 637.1025403784442,463.89745962155644 616.5780578195347,454.9427194213861 594.5755497370867,450.7796202818822 572.1983137608267,451.6169173774874 550.5684379418046,457.4126251355799 530.7705345720819,467.8761225684009 513.7973531954615,482.48272622290847 500.5000000000002,500.50000000000045" stroke="black" stroke-linecap="round" stroke-width="5" /><polyline clip-path="url(#border_clip)" fill="none" points="500.5000000000002,500.50000000000045 478.24790660436884,503.007208781818 457.1116260882443,510.40311320975843 438.1510198141268,522.3168517531974 422.31685175319717,538.151019814127 410.403113209758,557.1116260882445 403.00720878181755,578.2479066043688 400.5,600.5000000000002 403.00720878181755,622.7520933956316 410.403113209758,643.8883739117562 422.3168517531967,662.8489801858739 438.15101981412636,678.6831482468035 457.11162608824384,690.5968867902425 478.24790660436815,697.9927912181829 500.49999999999955,700.5000000000007 522.7520933956309,697.9927912181831 543.8883739117555,690.5968867902427 562.8489801858732,678.6831482468037 578.6831482468028,662.8489801858741 590.5968867902418,643.8883739117566 597.9927912181822,622.7520933956323 600.5,600.5000000000009 597.9927912181824,578.2479066043695 590.596886790242,557.111626088245 578.6831482468031,538.1510198141273 562.8489801858734,522.3168517531976 543.8883739117559,510.40311320975866 522.7520933956316,503.00720878181824 500.5000000000002,500.50000000000045 487.202646804539,482.48272622290847 470.2294654279185,467.8761225684009 450.4315620581956,457.4126251355799 428.8016862391737,451.6169173774874 406.424450262914,450.7796202818822 384.421942180466,454.9427194213861 363.8974596215562,463.8974596215562 345.880185844464,477.19481281701746 331.2735821899564,494.1679941936379 320.8100847571354,513.9658975633606 315.0143769990427,535.5957733823827 314.1770799034375,557.9730093586427 318.3401790429416,579.9755174410907 327.29491924311196,600.5000000000002" stroke="black" stroke-linecap="round" stroke-width="5" /><polyline clip-path="url(#border_clip)" fill="none" points="327.29491924311196,600.5000000000002 340.5922724385732,618.5172737770922 357.56545381519345,633.1238774315998 377.36335718491637,643.5873748644208 398.99323300393826,649.3830826225133 421.370468980198,650.2203797181185 443.372977062646,646.0572805786146 463.8974596215555,637.1025403784445 481.9147333986475,623.8051871829832 496.5213370531551,606.8320058063628 506.9848344859761,587.0341024366401 512.7805422440686,565.404226617618 513.6178393396738,543.026990641358 509.4547402001699,521.02448255891 500.4999999999998,500.50000000000045 509.45474020017014,479.9755174410909 513.6178393396742,457.9730093586429 512.780542244069,435.59577338238296 506.98483448597653,413.9658975633606 496.52133705315555,394.1679941936377 481.91473339864797,377.194812817017 463.897459621556,363.89745962155575 443.37297706264644,354.9427194213854 421.37046898019844,350.7796202818813 398.9932330039387,351.6169173774865 377.36335718491637,357.41262513557876 357.56545381519345,367.87612256839975 340.59227243857276,382.48272622290733 327.2949192431115,400.4999999999991 318.34017904294114,421.02448255890886 314.17707990343706,443.02699064135686 315.01437699904227,465.4042266176168 320.8100847571345,487.03410243663893 331.2735821899555,506.8320058063616 345.8801858444631,523.8051871829821 363.89745962155484,537.1025403784433 384.4219421804646,546.0572805786137 406.4244502629126,550.2203797181178 428.80168623917234,549.3830826225126 450.4315620581947,543.5873748644201 470.2294654279174,533.1238774315991 487.20264680453784,518.5172737770915 500.4999999999991,500.49999999999955" stroke="black" stroke-linecap="round" stroke-width="5" /><polygon clip-path="url(#border_clip)" fill="#ff0000" fill-rule="evenodd" points="3500.5,500.5 3600.5,500.4999999999991 3650.500000000001,587.1025403784427 3600.500000000002,673.7050807568871 3500.500000000002,673.705080756888 3450.5000000000005,587.1025403784445 3500.5,500.5" stroke-width="0" /><polygon clip-path="url(#border_clip)" fill="#ff0000" fill-rule="evenodd" points="3500.5,500.5 3550.500000000001,587.1025403784436 3500.500000000002,673.7050807568883 3400.5000000000014,673.7050807568894 3350.5000000000005,587.1025403784458 3400.4999999999995,500.50000000000114 3500.5,500.5" stroke-width="0" /><polyline clip-path="url(#border_clip)" fill="none" points="3500.5,500.5 3550.500000000001,587.1025403784436 3500.500000000002,673.7050807568883 3400.5000000000014,673.7050807568894 3350.5000000000005,587.1025403784458 3400.4999999999995,500.50000000000114 3500.5,500.5" stroke="black" stroke-linecap="round" stroke-width="5" /><polygon clip-path="url(#border_clip)" fill="#ff0000" fill-rule="evenodd" points="3500.5,500.5 3450.500000000001,587.1025403784447 3350.5000000000005,587.1025403784458 3300.499999999999,500.5000000000023 3350.4999999999986,413.8974596215576 3450.499999999999,413.8974596215562 3500.5,500.4999999999998" stroke-width="0" /><polyline clip-path="url(#border_clip)" fill="none" points="3500.5,500.5 3450.500000000001,587.1025403784447 3350.5000000000005,587.1025403784458 3300.499999999999,500.5000000000023 3350.4999999999986,413.8974596215576 3450.499999999999,413.8974596215562 3500.5,500.4999999999998" stroke="black" stroke-linecap="round" stroke-width="5" /><polygon clip-path="url(#border_clip)" fill="#ff0000" fill-rule="evenodd" points="3500.5,500.4999999999998 3400.4999999999995,500.5000000000009 3350.499999999998,413.8974596215576 3400.4999999999973,327.2949192431129 3500.4999999999977,327.2949192431115 3550.499999999999,413.89745962155484 3500.5,500.49999999999955" stroke-width="0" /><polyline clip-path="url(#border_clip)" fill="none" points="3500.5,500.4999999999998 3400.4999999999995,500.5000000000009 3350.499999999998,413.8974596215576 3400.4999999999973,327.2949192431129 3500.4999999999977,327.2949192431115 3550.499999999999,413.89745962155484 3500.5,500.49999999999955" stroke="black" stroke-linecap="round" stroke-width="5" /><polygon clip-path="url(#border_clip)" fill="#ff0000" fill-rule="evenodd" points="3500.5,500.49999999999955 3450.4999999999986,413.8974596215562 3500.4999999999977,327.2949192431115 3600.499999999998,327.29491924311014 3650.499999999999,413.8974596215535 3600.5,500.4999999999982 3500.5,500.49999999999955" stroke-width="0" /><polyline clip-path="url(#border_clip)" fill="none" points="3500.5,500.49999999999955 3450.4999999999986,413.8974596215562 3500.4999999999977,327.2949192431115 3600.499999999998,327.29491924311014 3650.499999999999,413.8974596215535 3600.5,500.4999999999982 3500.5,500.49999999999955" stroke="black" stroke-linecap="round" stroke-width="5" /><polygon clip-path="url(#border_clip)" fill="#ff0000" fill-rule="evenodd" points="3500.5,500.49999999999955 3550.499999999999,413.89745962155484 3650.499999999999,413.8974596215535 3700.5000000000005,500.4999999999968 3650.500000000002,587.1025403784417 3550.5000000000014,587.1025403784431 3500.5,500.4999999999998" stroke-width="0" /><polyline clip-path="url(#border_clip)" fill="none" points="3500.5,500.49999999999955 3550.499999999999,413.89745962155484 3650.499999999999,413.8974596215535 3700.5000000000005,500.4999999999968 3650.500000000002,587.1025403784417 3550.5000000000014,587.1025403784431 3500.5,500.4999999999998" stroke="black" stroke-linecap="round" stroke-width="5" /><polyline clip-path="url(#border_clip)" fill="none" points="4673.705080756887,400.4999999999977 4660.407727561425,382.48272622290597 4643.434546184804,367.87612256839884 4623.636642815081,357.4126251355783 4602.006766996059,351.61691737748606 4579.629531019798,350.7796202818813 4557.627022937351,354.9427194213854 4537.1025403784415,363.89745962155575 4519.08526660135,377.19481281701746 4504.478662946842,394.16799419363815 4494.015165514022,413.96589756336107 4488.219457755929,435.5957733823834 4487.382160660325,457.97300935864337 4491.545259799829,479.97551744109137 4500.5,500.5000000000009 4491.54525979983,521.0244825589107 4487.382160660326,543.0269906413589 4488.219457755931,565.4042266176189 4494.015165514024,587.034102436641 4504.478662946845,606.8320058063637 4519.085266601353,623.8051871829839 4537.102540378445,637.1025403784449 4557.627022937355,646.0572805786148 4579.629531019804,650.2203797181185 4602.006766996063,649.383082622513 4623.636642815085,643.5873748644203 4643.434546184808,633.1238774315991 4660.407727561427,618.5172737770913 4673.7050807568885,600.4999999999991 4682.659820957058,579.9755174410893 4686.822920096562,557.9730093586411 4685.985623000956,535.5957733823811 4680.189915242863,513.965897563359 4669.726417810042,494.16799419363633 4655.119814155534,477.1948128170161 4637.102540378442,463.8974596215551 4616.578057819532,454.94271942138516 4594.575549737085,450.7796202818813 4572.198313760824,451.61691737748697 4550.568437941803,457.4126251355797 4530.77053457208,467.8761225684009 4513.797353195459,482.4827262229087 4500.499999999998,500.5000000000009" stroke="black" stroke-linecap="round" stroke-width="5" /><polyline clip-path="url(#border_clip)" fill="none" points="4500.499999999998,500.5000000000009 4478.247906604367,503.0072087818189 4457.111626088243,510.4031132097598 4438.151019814126,522.316851753199 4422.316851753196,538.1510198141289 4410.403113209757,557.1116260882466 4403.007208781817,578.2479066043711 4400.5,600.5000000000027 4403.007208781818,622.7520933956341 4410.403113209759,643.8883739117584 4422.316851753198,662.8489801858759 4438.151019814128,678.6831482468053 4457.111626088245,690.5968867902441 4478.24790660437,697.9927912181843 4500.500000000002,700.5000000000016 4522.752093395633,697.9927912181836 4543.888373911757,690.5968867902427 4562.848980185874,678.6831482468035 4578.683148246804,662.8489801858736 4590.596886790243,643.8883739117559 4597.992791218183,622.7520933956314 4600.5,600.4999999999998 4597.992791218183,578.2479066043684 4590.596886790241,557.1116260882441 4578.683148246802,538.1510198141266 4562.848980185872,522.3168517531972 4543.888373911755,510.40311320975843 4522.75209339563,503.00720878181824 4500.499999999998,500.5000000000009 4487.202646804537,482.48272622290915 4470.229465427916,467.8761225684018 4450.431562058193,457.41262513558104 4428.801686239171,451.6169173774888 4406.424450262912,450.77962028188404 4384.421942180463,454.94271942138835 4363.897459621554,463.89745962155894 4345.880185844462,477.1948128170204 4331.273582189955,494.1679941936411 4320.810084757134,513.965897563364 4315.014376999042,535.5957733823861 4314.177079903437,557.9730093586461 4318.340179042942,579.9755174410941 4327.2949192431115,600.5000000000036" stroke="black" stroke-linecap="round" stroke-width="5" /><polyline clip-path="url(#border_clip)" fill="none" points="4327.2949192431115,600.5000000000036 4340.592272438573,618.5172737770954 4357.565453815194,633.1238774316028 4377.363357184917,643.5873748644235 4398.993233003939,649.3830826225158 4421.370468980199,650.2203797181205 4443.372977062647,646.0572805786162 4463.897459621557,637.1025403784456 4481.914733398648,623.8051871829841 4496.521337053156,606.8320058063634 4506.9848344859765,587.0341024366405 4512.780542244069,565.4042266176184 4513.617839339673,543.0269906413585 4509.454740200169,521.0244825589104 4500.499999999998,500.5000000000009 4509.454740200168,479.97551744109114 4513.617839339672,457.9730093586429 4512.780542244067,435.59577338238296 4506.984834485974,413.96589756336107 4496.521337053153,394.1679941936386 4481.914733398645,377.1948128170184 4463.897459621552,363.8974596215571 4443.372977062643,354.9427194213872 4421.370468980194,350.7796202818836 4398.993233003935,351.61691737748924 4377.363357184912,357.41262513558195 4357.56545381519,367.8761225684034 4340.592272438569,382.4827262229114 4327.294919243109,400.50000000000364 4318.340179042939,421.0244825589134 4314.177079903435,443.0269906413614 4315.014376999041,465.40422661762136 4320.810084757133,487.0341024366435 4331.273582189954,506.83200580636617 4345.880185844462,523.8051871829864 4363.897459621554,537.1025403784474 4384.421942180465,546.0572805786173 4406.424450262913,550.220379718121 4428.801686239172,549.3830826225155 4450.431562058195,543.5873748644228 4470.229465427918,533.1238774316016 4487.202646804537,518.5172737770938 4500.499999999998,500.5000000000016" stroke="black" stroke-linecap="round" stroke-width="5" /><polygon clip-path="url(#border_clip)" fill="#ff0000" fill-rule="evenodd" points="2500.5,1500.5 2600.5000000000005,1500.4999999999977 2650.5000000000027,1587.1025403784406 2600.5000000000045,1673.705080756886 2500.500000000004,1673.7050807568885 2450.500000000002,1587.1025403784456 2500.5,1500.5" stroke-width="0" /><polygon clip-path="url(#border_clip)" fill="#ff0000" fill-rule="evenodd" points="2500.5,1500.5 2550.5000000000023,1587.1025403784429 2500.500000000004,1673.7050807568885 2400.500000000004,1673.7050807568908 2350.5000000000014,1587.1025403784479 2400.4999999999995,1500.5000000000025 2500.5,1500.5" stroke-width="0" /><polyline clip-path="url(#border_clip)" fill="none" points="2500.5,1500.5 2550.5000000000023,1587.1025403784429 2500.500000000004,1673.7050807568885 2400.500000000004,1673.7050807568908 2350.5000000000014,1587.1025403784479 2400.4999999999995,1500.5000000000025 2500.5,1500.5" stroke="black" stroke-linecap="round" stroke-width="5" /><polygon clip-path="url(#border_clip)" fill="#ff0000" fill-rule="evenodd" points="2500.5,1500.5 2450.500000000002,1587.1025403784454 2350.5000000000014,1587.1025403784479 2300.499999999999,1500.500000000005 2350.499999999997,1413.8974596215596 2450.4999999999973,1413.897459621557 2500.5,1500.4999999999998" stroke-width="0" /><polyline clip-path="url(#border_clip)" fill="none" points="2500.5,1500.5 2450.500000000002,1587.1025403784454 2350.5000000000014,1587.1025403784479 2300.499999999999,1500.500000000005 2350.499999999997,1413.8974596215596 2450.4999999999973,1413.897459621557 2500.5,1500.4999999999998" stroke="black" stroke-linecap="round" stroke-width="5" /><polygon clip-path="url(#border_clip)" fill="#ff0000" fill-rule="evenodd" points="2500.5,1500.4999999999998 2400.4999999999995,1500.5000000000025 2350.499999999997,1413.8974596215596 2400.4999999999945,1327.294919243114 2500.499999999995,1327.2949192431113 2550.4999999999977,1413.8974596215542 2500.5,1500.4999999999998" stroke-width="0" /><polyline clip-path="url(#border_clip)" fill="none" points="2500.5,1500.4999999999998 2400.4999999999995,1500.5000000000025 2350.499999999997,1413.8974596215596 2400.4999999999945,1327.294919243114 2500.499999999995,1327.2949192431113 2550.4999999999977,1413.8974596215542 2500.5,1500.4999999999998" stroke="black" stroke-linecap="round" stroke-width="5" /><polygon clip-path="url(#border_clip)" fill="#ff0000" fill-rule="evenodd" points="2500.5,1500.4999999999998 2450.4999999999973,1413.8974596215571 2500.499999999995,1327.2949192431115 2600.4999999999955,1327.2949192431086 2650.499999999998,1413.8974596215512 2600.5000000000005,1500.4999999999968 2500.5,1500.4999999999995" stroke-width="0" /><polyline clip-path="url(#border_clip)" fill="none" points="2500.5,1500.4999999999998 2450.4999999999973,1413.8974596215571 2500.499999999995,1327.2949192431115 2600.4999999999955,1327.2949192431086 2650.499999999998,1413.8974596215512 2600.5000000000005,1500.4999999999968 2500.5,1500.4999999999995" stroke="black" stroke-linecap="round" stroke-width="5" /><polygon clip-path="url(#border_clip)" fill="#ff0000" fill-rule="evenodd" points="2500.5,1500.4999999999995 2550.4999999999977,1413.897459621554 2650.499999999998,1413.897459621551 2700.500000000001,1500.4999999999936 2650.500000000003,1587.1025403784392 2550.5000000000027,1587.1025403784422 2500.5,1500.4999999999995" stroke-width="0" /><polyline clip-path="url(#border_clip)" fill="none" points="2500.5,1500.4999999999995 2550.4999999999977,1413.897459621554 2650.499999999998,1413.897459621551 2700.500000000001,1500.4999999999936 2650.500000000003,1587.1025403784392 2550.5000000000027,1587.1025403784422 2500.5,1500.4999999999995" stroke="black" stroke-linecap="round" stroke-width="5" /><polyline clip-path="url(#border_clip)" fill="none" points="3673.7050807568858,1400.4999999999948 3660.4077275614236,1382.4827262229032 3643.4345461848025,1367.876122568396 3623.6366428150795,1357.4126251355758 3602.006766996057,1351.616917377484 3579.6295310197975,1350.7796202818795 3557.6270229373495,1354.942719421384 3537.1025403784397,1363.8974596215548 3519.0852666013484,1377.1948128170168 3504.4786629468413,1394.1679941936377 3494.0151655140207,1413.9658975633608 3488.219457755929,1435.5957733823832 3487.382160660324,1457.9730093586431 3491.545259799829,1479.9755174410911 3500.5,1500.5000000000005 3491.54525979983,1521.0244825589104 3487.382160660327,1543.0269906413587 3488.219457755933,1565.4042266176186 3494.015165514026,1587.0341024366408 3504.4786629468476,1606.8320058063632 3519.0852666013557,1623.8051871829832 3537.102540378448,1637.102540378444 3557.627022937358,1646.0572805786137 3579.6295310198066,1650.2203797181169 3602.0067669960663,1649.3830826225112 3623.636642815088,1643.587374864418 3643.4345461848106,1633.1238774315964 3660.407727561431,1618.5172737770881 3673.705080756891,1600.499999999996 3682.659820957061,1579.9755174410857 3686.8229200965643,1557.9730093586377 3685.9856230009586,1535.5957733823775 3680.1899152428655,1513.9658975633556 3669.726417810044,1494.1679941936331 3655.119814155536,1477.194812817013 3637.1025403784433,1463.8974596215523 3616.5780578195336,1454.9427194213827 3594.575549737085,1450.7796202818793 3572.198313760825,1451.6169173774852 3550.5684379418035,1457.4126251355783 3530.7705345720806,1467.8761225684 3513.797353195461,1482.4827262229082 3500.5,1500.5000000000005" stroke="black" stroke-linecap="round" stroke-width="5" /><polyline clip-path="url(#border_clip)" fill="none" points="3500.5,1500.5000000000005 3478.2479066043684,1503.007208781819 3457.111626088244,1510.40311320976 3438.151019814127,1522.3168517531994 3422.3168517531976,1538.1510198141298 3410.4031132097593,1557.1116260882477 3403.0072087818194,1578.2479066043725 3400.5000000000027,1600.500000000004 3403.0072087818207,1622.7520933956355 3410.403113209762,1643.8883739117598 3422.3168517532013,1662.848980185877 3438.151019814132,1678.6831482468062 3457.11162608825,1690.5968867902448 3478.2479066043743,1697.9927912181845 3500.500000000006,1700.5000000000014 3522.7520933956375,1697.9927912181831 3543.888373911762,1690.596886790242 3562.848980185879,1678.6831482468024 3578.6831482468083,1662.8489801858723 3590.5968867902466,1643.8883739117541 3597.9927912181865,1622.7520933956296 3600.5000000000036,1600.499999999998 3597.9927912181856,1578.2479066043666 3590.5968867902448,1557.1116260882422 3578.683148246805,1538.151019814125 3562.848980185875,1522.3168517531958 3543.888373911757,1510.4031132097575 3522.752093395632,1503.0072087818176 3500.5000000000005,1500.5000000000005 3487.2026468045387,1482.482726222909 3470.2294654279176,1467.8761225684018 3450.4315620581947,1457.4126251355815 3428.8016862391723,1451.6169173774897 3406.4244502629126,1450.7796202818852 3384.4219421804646,1454.9427194213897 3363.897459621555,1463.8974596215605 3345.880185844463,1477.1948128170225 3331.273582189956,1494.1679941936432 3320.810084757136,1513.9658975633665 3315.014376999044,1535.5957733823889 3314.1770799034393,1557.9730093586486 3318.3401790429443,1579.9755174410966 3327.294919243115,1600.5000000000061" stroke="black" stroke-linecap="round" stroke-width="5" /><polyline clip-path="url(#border_clip)" fill="none" points="3327.294919243115,1600.5000000000061 3340.592272438577,1618.5172737770977 3357.5654538151975,1633.1238774316048 3377.363357184921,1643.5873748644253 3398.9932330039433,1649.3830826225171 3421.370468980203,1650.2203797181216 3443.372977062651,1646.0572805786169 3463.8974596215603,1637.102540378446 3481.914733398652,1623.8051871829844 3496.521337053159,1606.8320058063634 3506.9848344859797,1587.0341024366403 3512.7805422440715,1565.404226617618 3513.617839339676,1543.026990641358 3509.4547402001713,1521.02448255891 3500.5000000000005,1500.5000000000005 3509.4547402001704,1479.9755174410907 3513.6178393396735,1457.9730093586425 3512.780542244068,1435.5957733823825 3506.9848344859747,1413.9658975633606 3496.521337053153,1394.1679941936382 3481.914733398645,1377.1948128170181 3463.897459621552,1363.8974596215573 3443.3729770626423,1354.9427194213877 3421.3704689801943,1350.7796202818843 3398.993233003934,1351.6169173774902 3377.3633571849123,1357.4126251355833 3357.56545381519,1367.876122568405 3340.5922724385696,1382.482726222913 3327.294919243109,1400.5000000000055 3318.340179042939,1421.0244825589155 3314.1770799034357,1443.0269906413637 3315.014376999042,1465.4042266176236 3320.8100847571345,1487.0341024366458 3331.273582189956,1506.8320058063682 3345.8801858444644,1523.8051871829882 3363.8974596215567,1537.102540378449 3384.4219421804664,1546.0572805786187 3406.424450262915,1550.2203797181219 3428.801686239175,1549.3830826225162 3450.431562058197,1543.587374864423 3470.2294654279194,1533.1238774316016 3487.2026468045397,1518.5172737770936 3500.5,1500.500000000001" stroke="black" stroke-linecap="round" stroke-width="5" /><polygon clip-path="url(#border_clip)" fill="#ff0000" fill-rule="evenodd" points="1500.5,2500.5 1600.5000000000005,2500.499999999996 1650.500000000004,2587.1025403784383 1600.5000000000075,2673.7050807568844 1500.500000000007,2673.7050807568885 1450.5000000000032,2587.1025403784465 1500.5,2500.5" stroke-width="0" /><polygon clip-path="url(#border_clip)" fill="#ff0000" fill-rule="evenodd" points="1500.5,2500.5 1550.5000000000036,2587.102540378442 1500.500000000007,2673.7050807568885 1400.5000000000066,2673.7050807568926 1350.5000000000027,2587.1025403784506 1400.4999999999993,2500.500000000004 1500.4999999999998,2500.5" stroke-width="0" /><polyline clip-path="url(#border_clip)" fill="none" points="1500.5,2500.5 1550.5000000000036,2587.102540378442 1500.500000000007,2673.7050807568885 1400.5000000000066,2673.7050807568926 1350.5000000000027,2587.1025403784506 1400.4999999999993,2500.500000000004 1500.4999999999998,2500.5" stroke="black" stroke-linecap="round" stroke-width="5" /><polygon clip-path="url(#border_clip)" fill="#ff0000" fill-rule="evenodd" points="1500.4999999999998,2500.5 1450.5000000000032,2587.1025403784465 1350.5000000000027,2587.1025403784506 1300.4999999999989,2500.5000000000086 1350.4999999999955,2413.897459621562 1450.499999999996,2413.897459621558 1500.4999999999998,2500.5" stroke-width="0" /><polyline clip-path="url(#border_clip)" fill="none" points="1500.4999999999998,2500.5 1450.5000000000032,2587.1025403784465 1350.5000000000027,2587.1025403784506 1300.4999999999989,2500.5000000000086 1350.4999999999955,2413.897459621562 1450.499999999996,2413.897459621558 1500.4999999999998,2500.5" stroke="black" stroke-linecap="round" stroke-width="5" /><polygon clip-path="url(#border_clip)" fill="#ff0000" fill-rule="evenodd" points="1500.4999999999998,2500.5 1400.4999999999993,2500.500000000004 1350.4999999999955,2413.897459621562 1400.4999999999918,2327.2949192431156 1500.4999999999923,2327.2949192431115 1550.4999999999964,2413.8974596215535 1500.4999999999998,2500.5" stroke-width="0" /><polyline clip-path="url(#border_clip)" fill="none" points="1500.4999999999998,2500.5 1400.4999999999993,2500.500000000004 1350.4999999999955,2413.897459621562 1400.4999999999918,2327.2949192431156 1500.4999999999923,2327.2949192431115 1550.4999999999964,2413.8974596215535 1500.4999999999998,2500.5" stroke="black" stroke-linecap="round" stroke-width="5" /><polygon clip-path="url(#border_clip)" fill="#ff0000" fill-rule="evenodd" points="1500.4999999999998,2500.5 1450.4999999999957,2413.897459621558 1500.499999999992,2327.2949192431115 1600.4999999999925,2327.294919243107 1650.4999999999966,2413.897459621549 1600.5000000000002,2500.4999999999955 1500.4999999999998,2500.5" stroke-width="0" /><polyline clip-path="url(#border_clip)" fill="none" points="1500.4999999999998,2500.5 1450.4999999999957,2413.897459621558 1500.499999999992,2327.2949192431115 1600.4999999999925,2327.294919243107 1650.4999999999966,2413.897459621549 1600.5000000000002,2500.4999999999955 1500.4999999999998,2500.5" stroke="black" stroke-linecap="round" stroke-width="5" /><polygon clip-path="url(#border_clip)" fill="#ff0000" fill-rule="evenodd" points="1500.4999999999998,2500.5 1550.4999999999961,2413.8974596215535 1650.4999999999966,2413.897459621549 1700.5000000000007,2500.499999999991 1650.5000000000043,2587.1025403784374 1550.5000000000039,2587.102540378442 1500.4999999999998,2500.5" stroke-width="0" /><polyline clip-path="url(#border_clip)" fill="none" points="1500.4999999999998,2500.5 1550.4999999999961,2413.8974596215535 1650.4999999999966,2413.897459621549 1700.5000000000007,2500.499999999991 1650.5000000000043,2587.1025403784374 1550.5000000000039,2587.102540378442 1500.4999999999998,2500.5" stroke="black" stroke-linecap="round" stroke-width="5" /><polyline clip-path="url(#border_clip)" fill="none" points="2673.705080756884,2400.499999999992 2660.407727561422,2382.4827262229 2643.4345461848006,2367.8761225683934 2623.6366428150773,2357.4126251355733 2602.006766996055,2351.616917377482 2579.6295310197947,2350.7796202818777 2557.627022937347,2354.9427194213827 2537.102540378438,2363.897459621554 2519.0852666013466,2377.194812817016 2504.4786629468394,2394.1679941936372 2494.0151655140194,2413.9658975633606 2488.219457755928,2435.595773382383 2487.3821606603237,2457.9730093586427 2491.5452597998287,2479.9755174410907 2500.5,2500.5 2491.5452597998305,2521.02448255891 2487.382160660328,2543.026990641358 2488.219457755934,2565.4042266176184 2494.0151655140276,2587.0341024366403 2504.4786629468495,2606.8320058063628 2519.0852666013575,2623.8051871829825 2537.10254037845,2637.102540378443 2557.6270229373604,2646.0572805786123 2579.629531019809,2650.220379718115 2602.0067669960686,2649.383082622509 2623.6366428150905,2643.5873748644153 2643.434546184813,2633.1238774315934 2660.4077275614327,2618.5172737770854 2673.705080756893,2600.4999999999927 2682.6598209570625,2579.9755174410825 2686.822920096565,2557.973009358634 2685.985623000959,2535.5957733823743 2680.189915242866,2513.9658975633524 2669.726417810044,2494.16799419363 2655.1198141555356,2477.19481281701 2637.102540378443,2463.89745962155 2616.5780578195327,2454.9427194213804 2594.5755497370847,2450.7796202818777 2572.1983137608245,2451.616917377484 2550.5684379418026,2457.412625135577 2530.7705345720806,2467.876122568399 2513.7973531954603,2482.4827262229073 2500.5,2500.5" stroke="black" stroke-linecap="round" stroke-width="5" /><polyline clip-path="url(#border_clip)" fill="none" points="2500.5,2500.5 2478.2479066043684,2503.0072087818185 2457.1116260882445,2510.4031132097602 2438.1510198141273,2522.3168517532 2422.3168517531985,2538.1510198141304 2410.4031132097602,2557.1116260882486 2403.0072087818207,2578.2479066043734 2400.500000000004,2600.500000000005 2403.0072087818226,2622.7520933956366 2410.4031132097643,2643.8883739117605 2422.316851753204,2662.8489801858777 2438.1510198141345,2678.6831482468065 2457.1116260882527,2690.5968867902448 2478.2479066043775,2697.9927912181843 2500.500000000009,2700.500000000001 2522.7520933956407,2697.9927912181824 2543.8883739117646,2690.5968867902407 2562.848980185882,2678.683148246801 2578.6831482468106,2662.8489801858705 2590.596886790249,2643.8883739117523 2597.9927912181884,2622.7520933956275 2600.500000000005,2600.499999999996 2597.9927912181865,2578.2479066043643 2590.5968867902448,2557.1116260882404 2578.683148246805,2538.151019814123 2562.8489801858746,2522.3168517531944 2543.8883739117564,2510.403113209756 2522.7520933956316,2503.0072087818166 2500.5,2500.5 2487.202646804538,2482.4827262229087 2470.2294654279167,2467.8761225684016 2450.4315620581933,2457.4126251355815 2428.801686239171,2451.61691737749 2406.424450262911,2450.779620281886 2384.4219421804632,2454.942719421391 2363.897459621554,2463.897459621562 2345.880185844462,2477.1948128170243 2331.2735821899555,2494.1679941936454 2320.8100847571354,2513.965897563369 2315.014376999044,2535.595773382391 2314.17707990344,2557.9730093586513 2318.340179042945,2579.975517441099 2327.294919243116,2600.500000000008" stroke="black" stroke-linecap="round" stroke-width="5" /><polyline clip-path="url(#border_clip)" fill="none" points="2327.294919243116,2600.500000000008 2340.592272438578,2618.5172737771 2357.5654538151994,2633.1238774316066 2377.3633571849223,2643.5873748644267 2398.993233003945,2649.383082622518 2421.370468980205,2650.2203797181223 2443.372977062653,2646.0572805786173 2463.897459621562,2637.102540378446 2481.9147333986534,2623.805187182984 2496.5213370531606,2606.8320058063628 2506.9848344859806,2587.03410243664 2512.780542244072,2565.404226617617 2513.6178393396763,2543.0269906413573 2509.4547402001713,2521.0244825589093 2500.5,2500.5 2509.4547402001695,2479.97551744109 2513.617839339672,2457.973009358642 2512.780542244066,2435.5957733823816 2506.984834485973,2413.9658975633597 2496.521337053151,2394.1679941936372 2481.9147333986425,2377.1948128170175 2463.89745962155,2363.897459621557 2443.3729770626396,2354.9427194213877 2421.370468980191,2350.779620281885 2398.9932330039314,2351.616917377491 2377.3633571849095,2357.412625135584 2357.565453815187,2367.876122568406 2340.5922724385673,2382.4827262229146 2327.294919243107,2400.5000000000073 2318.3401790429375,2421.0244825589175 2314.1770799034343,2443.0269906413655 2315.0143769990405,2465.4042266176257 2320.810084757134,2487.0341024366476 2331.273582189956,2506.83200580637 2345.8801858444644,2523.80518718299 2363.897459621557,2537.10254037845 2384.4219421804673,2546.0572805786196 2406.4244502629153,2550.2203797181223 2428.8016862391755,2549.383082622516 2450.4315620581974,2543.587374864423 2470.2294654279194,2533.123877431601 2487.2026468045397,2518.5172737770927 2500.5,2500.5" stroke="black" stroke-linecap="round" stroke-width="5" /><polygon clip-path="url(#border_clip)" fill="#ff0000" fill-rule="evenodd" points="500.5,3500.5 600.5000000000005,3500.4999999999945 650.5000000000055,3587.102540378436 600.50000000001,3673.705080756883 500.50000000000955,3673.705080756889 450.50000000000455,3587.1025403784474 500.5,3500.5000000000005" stroke-width="0" /><polygon clip-path="url(#border_clip)" fill="#ff0000" fill-rule="evenodd" points="500.5,3500.5000000000005 550.5000000000052,3587.102540378442 500.5000000000098,3673.7050807568894 400.5000000000091,3673.705080756895 350.5000000000041,3587.1025403784533 400.49999999999955,3500.5000000000064 500.5,3500.5000000000005" stroke-width="0" /><polyline clip-path="url(#border_clip)" fill="none" points="500.5,3500.5000000000005 550.5000000000052,3587.102540378442 500.5000000000098,3673.7050807568894 400.5000000000091,3673.705080756895 350.5000000000041,3587.1025403784533 400.49999999999955,3500.5000000000064 500.5,3500.5000000000005" stroke="black" stroke-linecap="round" stroke-width="5" /><polygon clip-path="url(#border_clip)" fill="#ff0000" fill-rule="evenodd" points="500.5,3500.5000000000005 450.50000000000455,3587.102540378448 350.5000000000041,3587.1025403784533 300.49999999999864,3500.500000000012 350.4999999999941,3413.897459621565 450.49999999999454,3413.897459621559 500.4999999999998,3500.5" stroke-width="0" /><polyline clip-path="url(#border_clip)" fill="none" points="500.5,3500.5000000000005 450.50000000000455,3587.102540378448 350.5000000000041,3587.1025403784533 300.49999999999864,3500.500000000012 350.4999999999941,3413.897459621565 450.49999999999454,3413.897459621559 500.4999999999998,3500.5" stroke="black" stroke-linecap="round" stroke-width="5" /><polygon clip-path="url(#border_clip)" fill="#ff0000" fill-rule="evenodd" points="500.4999999999998,3500.5 400.4999999999991,3500.500000000006 350.49999999999363,3413.897459621565 400.49999999998863,3327.2949192431174 500.4999999999891,3327.2949192431115 550.4999999999945,3413.897459621553 500.4999999999993,3500.5" stroke-width="0" /><polyline clip-path="url(#border_clip)" fill="none" points="500.4999999999998,3500.5 400.4999999999991,3500.500000000006 350.49999999999363,3413.897459621565 400.49999999998863,3327.2949192431174 500.4999999999891,3327.2949192431115 550.4999999999945,3413.897459621553 500.4999999999993,3500.5" stroke="black" stroke-linecap="round" stroke-width="5" /><polygon clip-path="url(#border_clip)" fill="#ff0000" fill-rule="evenodd" points="500.4999999999993,3500.5 450.4999999999941,3413.8974596215585 500.4999999999893,3327.2949192431115 600.4999999999898,3327.2949192431056 650.4999999999952,3413.8974596215467 600.5000000000002,3500.499999999994 500.4999999999998,3500.5" stroke-width="0" /><polyline clip-path="url(#border_clip)" fill="none" points="500.4999999999993,3500.5 450.4999999999941,3413.8974596215585 500.4999999999893,3327.2949192431115 600.4999999999898,3327.2949192431056 650.4999999999952,3413.8974596215467 600.5000000000002,3500.499999999994 500.4999999999998,3500.5" stroke="black" stroke-linecap="round" stroke-width="5" /><polygon clip-path="url(#border_clip)" fill="#ff0000" fill-rule="evenodd" points="500.4999999999998,3500.5 550.4999999999948,3413.897459621553 650.4999999999952,3413.8974596215467 700.5000000000007,3500.499999999988 650.5000000000057,3587.1025403784356 550.5000000000052,3587.1025403784415 500.4999999999998,3500.5000000000005" stroke-width="0" /><polyline clip-path="url(#border_clip)" fill="none" points="500.4999999999998,3500.5 550.4999999999948,3413.897459621553 650.4999999999952,3413.8974596215467 700.5000000000007,3500.499999999988 650.5000000000057,3587.1025403784356 550.5000000000052,3587.1025403784415 500.4999999999998,3500.5000000000005" stroke="black" stroke-linecap="round" stroke-width="5" /><polyline clip-path="url(#border_clip)" fill="none" points="1673.7050807568826,3400.499999999989 1660.4077275614202,3382.482726222898 1643.4345461847988,3367.876122568391 1623.6366428150754,3357.412625135571 1602.0067669960526,3351.61691737748 1579.6295310197927,3350.7796202818763 1557.627022937345,3354.9427194213818 1537.1025403784356,3363.897459621553 1519.0852666013443,3377.1948128170156 1504.4786629468379,3394.167994193637 1494.015165514018,3413.96589756336 1488.219457755927,3435.595773382383 1487.382160660323,3457.973009358643 1491.5452597998283,3479.975517441091 1500.5,3500.5 1491.545259799831,3521.02448255891 1487.3821606603283,3543.0269906413587 1488.2194577559349,3565.4042266176184 1494.0151655140285,3587.0341024366408 1504.4786629468508,3606.8320058063628 1519.0852666013595,3623.805187182982 1537.1025403784524,3637.1025403784424 1557.6270229373627,3646.0572805786114 1579.629531019811,3650.220379718114 1602.0067669960708,3649.3830826225076 1623.6366428150927,3643.5873748644135 1643.434546184815,3633.1238774315916 1660.4077275614345,3618.5172737770827 1673.7050807568949,3600.49999999999 1682.6598209570639,3579.97551744108 1686.8229200965666,3557.9730093586313 1685.98562300096,3535.5957733823716 1680.1899152428662,3513.9658975633492 1669.726417810044,3494.1679941936272 1655.119814155535,3477.1948128170075 1637.1025403784424,3463.8974596215476 1616.5780578195322,3454.9427194213786 1594.5755497370837,3450.779620281876 1572.1983137608238,3451.6169173774824 1550.568437941802,3457.412625135576 1530.7705345720797,3467.8761225683984 1513.79735319546,3482.482726222907 1500.4999999999998,3500.5" stroke="black" stroke-linecap="round" stroke-width="5" /><polyline clip-path="url(#border_clip)" fill="none" points="1500.4999999999998,3500.5 1478.2479066043684,3503.007208781819 1457.1116260882443,3510.4031132097607 1438.1510198141273,3522.316851753201 1422.3168517531985,3538.1510198141314 1410.4031132097607,3557.11162608825 1403.0072087818214,3578.247906604375 1400.500000000005,3600.5000000000064 1403.007208781824,3622.752093395638 1410.4031132097657,3643.888373911762 1422.3168517532058,3662.848980185879 1438.1510198141366,3678.683148246808 1457.111626088255,3690.5968867902457 1478.24790660438,3697.9927912181847 1500.5000000000118,3700.5000000000014 1522.752093395643,3697.9927912181824 1543.8883739117673,3690.5968867902407 1562.848980185884,3678.6831482468006 1578.6831482468128,3662.8489801858696 1590.5968867902507,3643.8883739117514 1597.9927912181897,3622.7520933956266 1600.5000000000061,3600.4999999999945 1597.992791218187,3578.2479066043634 1590.5968867902452,3557.111626088239 1578.683148246805,3538.1510198141223 1562.8489801858746,3522.3168517531935 1543.8883739117562,3510.4031132097557 1522.7520933956312,3503.0072087818166 1500.4999999999995,3500.5 1487.202646804537,3482.482726222909 1470.2294654279156,3467.8761225684025 1450.4315620581922,3457.412625135583 1428.8016862391696,3451.6169173774915 1406.4244502629097,3450.7796202818877 1384.4219421804619,3454.942719421393 1363.8974596215528,3463.8974596215644 1345.8801858444615,3477.194812817027 1331.2735821899548,3494.167994193648 1320.810084757135,3513.965897563372 1315.0143769990439,3535.5957733823943 1314.17707990344,3557.973009358654 1318.3401790429452,3579.975517441102 1327.2949192431167,3600.500000000011" stroke="black" stroke-linecap="round" stroke-width="5" /><polyline clip-path="url(#border_clip)" fill="none" points="1327.2949192431167,3600.500000000011 1340.5922724385791,3618.5172737771027 1357.5654538152005,3633.123877431609 1377.3633571849239,3643.587374864429 1398.9932330039464,3649.3830826225203 1421.3704689802064,3650.2203797181237 1443.3729770626542,3646.0572805786187 1463.8974596215633,3637.102540378447 1481.9147333986543,3623.805187182985 1496.521337053161,3606.8320058063637 1506.9848344859809,3587.03410243664 1512.780542244072,3565.4042266176175 1513.6178393396758,3543.0269906413578 1509.4547402001704,3521.0244825589098 1500.499999999999,3500.5000000000005 1509.454740200168,3479.9755174410902 1513.6178393396706,3457.973009358642 1512.780542244064,3435.595773382382 1506.9848344859702,3413.96589756336 1496.521337053148,3394.167994193638 1481.9147333986393,3377.1948128170184 1463.8974596215464,3363.897459621558 1443.3729770626362,3354.942719421389 1421.3704689801878,3350.7796202818863 1398.9932330039278,3351.616917377493 1377.363357184906,3357.4126251355865 1357.5654538151837,3367.876122568409 1340.5922724385641,3382.482726222918 1327.294919243104,3400.5000000000105 1318.340179042935,3421.0244825589207 1314.1770799034323,3443.026990641369 1315.0143769990389,3465.4042266176293 1320.8100847571327,3487.0341024366508 1331.2735821899548,3506.832005806373 1345.8801858444635,3523.805187182993 1363.8974596215564,3537.1025403784533 1384.4219421804667,3546.0572805786223 1406.4244502629151,3550.2203797181246 1428.801686239175,3549.3830826225185 1450.431562058197,3543.5873748644244 1470.2294654279192,3533.1238774316025 1487.2026468045387,3518.5172737770936 1500.499999999999,3500.500000000001" stroke="black" stroke-linecap="round" stroke-width="5" /><polygon clip-path="url(#border_clip)" fill="#ff0000" fill-rule="evenodd" points="4500.5,3500.5 4600.5,3500.4999999999927 4650.500000000007,3587.102540378434 4600.500000000013,3673.7050807568817 4500.500000000013,3673.7050807568885 4450.5000000000055,3587.102540378448 4500.5,3500.5" stroke-width="0" /><polygon clip-path="url(#border_clip)" fill="#ff0000" fill-rule="evenodd" points="4500.5,3500.5 4550.500000000006,3587.1025403784406 4500.500000000013,3673.7050807568885 4400.500000000012,3673.7050807568958 4350.5000000000055,3587.102540378455 4400.499999999999,3500.5000000000073 4500.5,3500.5" stroke-width="0" /><polyline clip-path="url(#border_clip)" fill="none" points="4500.5,3500.5 4550.500000000006,3587.1025403784406 4500.500000000013,3673.7050807568885 4400.500000000012,3673.7050807568958 4350.5000000000055,3587.102540378455 4400.499999999999,3500.5000000000073 4500.5,3500.5" stroke="black" stroke-linecap="round" stroke-width="5" /><polygon clip-path="url(#border_clip)" fill="#ff0000" fill-rule="evenodd" points="4500.5,3500.5 4450.5000000000055,3587.102540378448 4350.5000000000055,3587.102540378455 4300.499999999998,3500.5000000000146 4350.499999999993,3413.8974596215667 4450.499999999993,3413.897459621559 4500.5,3500.5" stroke-width="0" /><polyline clip-path="url(#border_clip)" fill="none" points="4500.5,3500.5 4450.5000000000055,3587.102540378448 4350.5000000000055,3587.102540378455 4300.499999999998,3500.5000000000146 4350.499999999993,3413.8974596215667 4450.499999999993,3413.897459621559 4500.5,3500.5" stroke="black" stroke-linecap="round" stroke-width="5" /><polygon clip-path="url(#border_clip)" fill="#ff0000" fill-rule="evenodd" points="4500.5,3500.5 4400.499999999999,3500.5000000000073 4350.499999999993,3413.8974596215667 4400.499999999986,3327.2949192431183 4500.499999999987,3327.294919243111 4550.499999999994,3413.8974596215517 4500.5,3500.4999999999995" stroke-width="0" /><polyline clip-path="url(#border_clip)" fill="none" points="4500.5,3500.5 4400.499999999999,3500.5000000000073 4350.499999999993,3413.8974596215667 4400.499999999986,3327.2949192431183 4500.499999999987,3327.294919243111 4550.499999999994,3413.8974596215517 4500.5,3500.4999999999995" stroke="black" stroke-linecap="round" stroke-width="5" /><polygon clip-path="url(#border_clip)" fill="#ff0000" fill-rule="evenodd" points="4500.5,3500.4999999999995 4450.499999999993,3413.897459621559 4500.499999999987,3327.294919243111 4600.499999999987,3327.2949192431033 4650.4999999999945,3413.897459621544 4600.5,3500.4999999999923 4500.5,3500.4999999999995" stroke-width="0" /><polyline clip-path="url(#border_clip)" fill="none" points="4500.5,3500.4999999999995 4450.499999999993,3413.897459621559 4500.499999999987,3327.294919243111 4600.499999999987,3327.2949192431033 4650.4999999999945,3413.897459621544 4600.5,3500.4999999999923 4500.5,3500.4999999999995" stroke="black" stroke-linecap="round" stroke-width="5" /><polygon clip-path="url(#border_clip)" fill="#ff0000" fill-rule="evenodd" points="4500.5,3500.4999999999995 4550.499999999994,3413.8974596215517 4650.4999999999945,3413.897459621544 4700.500000000001,3500.4999999999845 4650.500000000007,3587.1025403784324 4550.500000000007,3587.10254037844 4500.5,3500.4999999999995" stroke-width="0" /><polyline clip-path="url(#border_clip)" fill="none" points="4500.5,3500.4999999999995 4550.499999999994,3413.8974596215517 4650.4999999999945,3413.897459621544 4700.500000000001,3500.4999999999845 4650.500000000007,3587.1025403784324 4550.500000000007,3587.10254037844 4500.5,3500.4999999999995" stroke="black" stroke-linecap="round" stroke-width="5" /><polyline clip-path="url(#border_clip)" fill="none" points="673.7050807568817,4400.499999999986 660.407727561419,4382.4827262228955 643.4345461847975,4367.876122568388 623.6366428150739,4357.412625135569 602.0067669960513,4351.616917377478 579.6295310197911,4350.779620281875 557.6270229373433,4354.94271942138 537.1025403784342,4363.897459621552 519.0852666013432,4377.194812817015 504.4786629468367,4394.167994193636 494.0151655140173,4413.96589756336 488.21945775592644,4435.5957733823825 487.38216066032305,4457.973009358643 491.5452597998287,4479.975517441091 500.50000000000045,4500.5 491.5452597998317,4521.024482558911 487.3821606603294,4543.026990641359 488.2194577559362,4565.404226617618 494.0151655140303,4587.034102436641 504.47866294685286,4606.832005806362 519.0852666013618,4623.805187182981 537.1025403784549,4637.1025403784415 557.6270229373654,4646.0572805786105 579.6295310198138,4650.220379718112 602.0067669960738,4649.383082622506 623.6366428150955,4643.587374864412 643.4345461848175,4633.123877431589 660.4077275614368,4618.51727377708 673.7050807568967,4600.499999999987 682.6598209570654,4579.975517441077 686.8229200965677,4557.973009358628 685.9856230009609,4535.595773382368 680.1899152428668,4513.9658975633465 669.7264178100443,4494.1679941936245 655.1198141555353,4477.194812817005 637.1025403784422,4463.897459621545 616.5780578195318,4454.942719421377 594.5755497370833,4450.7796202818745 572.1983137608233,4451.6169173774815 550.5684379418017,4457.412625135576 530.7705345720797,4467.8761225683975 513.7973531954603,4482.482726222906 500.50000000000045,4500.5" stroke="black" stroke-linecap="round" stroke-width="5" /><polyline clip-path="url(#border_clip)" fill="none" points="500.50000000000045,4500.5 478.24790660436906,4503.007208781819 457.1116260882452,4510.403113209761 438.15101981412863,4522.316851753201 422.3168517531999,4538.151019814133 410.4031132097625,4557.111626088252 403.00720878182346,4578.247906604376 400.50000000000773,4600.500000000008 403.0072087818271,4622.75209339564 410.40311320976934,4643.888373911764 422.3168517532099,4662.8489801858805 438.1510198141409,4678.68314824681 457.1116260882595,4690.596886790247 478.2479066043845,4697.992791218186 500.50000000001637,4700.500000000002 522.7520933956478,4697.992791218182 543.8883739117716,4690.596886790239 562.8489801858884,4678.683148246799 578.6831482468169,4662.848980185869 590.5968867902545,4643.88837391175 597.9927912181934,4622.752093395624 600.5000000000093,4600.499999999993 597.99279121819,4578.247906604362 590.5968867902479,4557.111626088237 578.6831482468074,4538.15101981412 562.8489801858764,4522.316851753192 543.8883739117578,4510.403113209755 522.7520933956328,4503.007208781816 500.5000000000009,4500.5 487.2026468045383,4482.482726222909 470.2294654279167,4467.876122568403 450.43156205819287,4457.412625135583 428.80168623917007,4451.616917377492 406.4244502629099,4450.779620281889 384.4219421804619,4454.942719421395 363.897459621553,4463.897459621567 345.8801858444622,4477.194812817029 331.27358218995596,4494.167994193651 320.81008475713634,4513.965897563374 315.01437699904545,4535.595773382396 314.17707990344206,4557.973009358657 318.3401790429475,4579.975517441105 327.29491924311924,4600.500000000014" stroke="black" stroke-linecap="round" stroke-width="5" /><polyline clip-path="url(#border_clip)" fill="none" points="327.29491924311924,4600.500000000014 340.59227243858186,4618.5172737771045 357.56545381520345,4633.123877431611 377.3633571849273,4643.58737486443 398.9932330039501,4649.383082622521 421.37046898021026,4650.220379718125 443.37297706265826,4646.05728057862 463.89745962156735,4637.102540378448 481.9147333986584,4623.805187182985 496.52133705316487,4606.832005806364 506.98483448598427,4587.034102436639 512.7805422440751,4565.404226617617 513.6178393396785,4543.026990641356 509.45474020017286,4521.024482558909 500.50000000000114,4500.5 509.4547402001699,4479.975517441089 513.6178393396722,4457.97300935864 512.7805422440654,4435.595773382381 506.9848344859713,4413.965897563359 496.5213370531487,4394.167994193637 481.9147333986398,4377.194812817018 463.89745962154666,4363.897459621558 443.37297706263644,4354.9427194213895 421.370468980188,4350.779620281886 398.9932330039278,4351.616917377493 377.3633571849059,4357.412625135587 357.5654538151839,4367.87612256841 340.5922724385646,4382.482726222919 327.2949192431047,4400.500000000013 318.34017904293614,4421.0244825589225 314.1770799034339,4443.026990641371 315.0143769990409,4465.404226617631 320.810084757135,4487.034102436653 331.2735821899573,4506.832005806375 345.88018584446627,4523.805187182994 363.8974596215594,4537.102540378454 384.4219421804696,4546.057280578623 406.42445026291807,4550.220379718125 428.80168623917825,4549.3830826225185 450.43156205820014,4543.587374864424 470.22946542792215,4533.123877431602 487.2026468045415,4518.517273777093 500.50000000000136,4500.499999999999" stroke="black" stroke-linecap="round" stroke-width="5" /><polygon clip-path="url(#border_clip)" fill="#ff0000" fill-rule="evenodd" points="3500.5,4500.5 3600.5000000000005,4500.499999999991 3650.500000000008,4587.1025403784315 3600.5000000000155,4673.70508075688 3500.500000000015,4673.7050807568885 3450.5000000000073,4587.102540378449 3500.5,4500.5" stroke-width="0" /><polygon clip-path="url(#border_clip)" fill="#ff0000" fill-rule="evenodd" points="3500.5,4500.5 3550.5000000000077,4587.102540378441 3500.500000000015,4673.7050807568885 3400.5000000000146,4673.705080756898 3350.5000000000064,4587.102540378457 3400.499999999999,4500.500000000009 3500.5,4500.5" stroke-width="0" /><polyline clip-path="url(#border_clip)" fill="none" points="3500.5,4500.5 3550.5000000000077,4587.102540378441 3500.500000000015,4673.7050807568885 3400.5000000000146,4673.705080756898 3350.5000000000064,4587.102540378457 3400.499999999999,4500.500000000009 3500.5,4500.5" stroke="black" stroke-linecap="round" stroke-width="5" /><polygon clip-path="url(#border_clip)" fill="#ff0000" fill-rule="evenodd" points="3500.5,4500.5 3450.5000000000073,4587.102540378448 3350.5000000000064,4587.102540378457 3300.4999999999986,4500.500000000017 3350.4999999999914,4413.8974596215685 3450.499999999992,4413.897459621559 3500.5,4500.499999999999" stroke-width="0" /><polyline clip-path="url(#border_clip)" fill="none" points="3500.5,4500.5 3450.5000000000073,4587.102540378448 3350.5000000000064,4587.102540378457 3300.4999999999986,4500.500000000017 3350.4999999999914,4413.8974596215685 3450.499999999992,4413.897459621559 3500.5,4500.499999999999" stroke="black" stroke-linecap="round" stroke-width="5" /><polygon clip-path="url(#border_clip)" fill="#ff0000" fill-rule="evenodd" points="3500.5,4500.499999999999 3400.499999999999,4500.500000000008 3350.499999999991,4413.8974596215685 3400.4999999999836,4327.29491924312 3500.499999999984,4327.294919243111 3550.4999999999923,4413.89745962155 3500.5,4500.499999999999" stroke-width="0" /><polyline clip-path="url(#border_clip)" fill="none" points="3500.5,4500.499999999999 3400.499999999999,4500.500000000008 3350.499999999991,4413.8974596215685 3400.4999999999836,4327.29491924312 3500.499999999984,4327.294919243111 3550.4999999999923,4413.89745962155 3500.5,4500.499999999999" stroke="black" stroke-linecap="round" stroke-width="5" /><polygon clip-path="url(#border_clip)" fill="#ff0000" fill-rule="evenodd" points="3500.5,4500.499999999999 3450.499999999992,4413.897459621559 3500.499999999984,4327.29491924311 3600.4999999999845,4327.294919243101 3650.4999999999927,4413.897459621541 3600.5000000000005,4500.49999999999 3500.5,4500.499999999999" stroke-width="0" /><polyline clip-path="url(#border_clip)" fill="none" points="3500.5,4500.499999999999 3450.499999999992,4413.897459621559 3500.499999999984,4327.29491924311 3600.4999999999845,4327.294919243101 3650.4999999999927,4413.897459621541 3600.5000000000005,4500.49999999999 3500.5,4500.499999999999" stroke="black" stroke-linecap="round" stroke-width="5" /><polygon clip-path="url(#border_clip)" fill="#ff0000" fill-rule="evenodd" points="3500.5,4500.499999999999 3550.4999999999923,4413.89745962155 3650.4999999999927,4413.897459621541 3700.500000000001,4500.49999999998 3650.500000000009,4587.10254037843 3550.500000000008,4587.102540378439 3500.5,4500.499999999998" stroke-width="0" /><polyline clip-path="url(#border_clip)" fill="none" points="3500.5,4500.499999999999 3550.4999999999923,4413.89745962155 3650.4999999999927,4413.897459621541 3700.500000000001,4500.49999999998 3650.500000000009,4587.10254037843 3550.500000000008,4587.102540378439 3500.5,4500.499999999998" stroke="black" stroke-linecap="round" stroke-width="5" /><polyline clip-path="url(#border_clip)" fill="none" points="4673.70508075688,4400.499999999984 4660.407727561417,4382.482726222892 4643.434546184795,4367.876122568387 4623.636642815071,4357.412625135567 4602.006766996048,4351.616917377477 4579.629531019788,4350.779620281874 4557.62702293734,4354.9427194213795 4537.1025403784315,4363.897459621552 4519.085266601342,4377.194812817015 4504.478662946835,4394.167994193636 4494.015165514016,4413.96589756336 4488.219457755926,4435.595773382383 4487.382160660322,4457.973009358643 4491.545259799828,4479.975517441091 4500.5,4500.5 4491.545259799832,4521.024482558911 4487.382160660331,4543.026990641359 4488.219457755938,4565.404226617618 4494.015165514032,4587.034102436641 4504.4786629468545,4606.832005806363 4519.085266601363,4623.805187182982 4537.102540378457,4637.102540378442 4557.627022937368,4646.0572805786105 4579.629531019817,4650.220379718112 4602.006766996076,4649.383082622506 4623.636642815098,4643.587374864411 4643.434546184821,4633.123877431588 4660.40772756144,4618.517273777079 4673.705080756899,4600.499999999985 4682.6598209570675,4579.975517441075 4686.82292009657,4557.973009358626 4685.985623000963,4535.595773382366 4680.189915242869,4513.965897563345 4669.726417810045,4494.167994193623 4655.119814155536,4477.194812817003 4637.102540378442,4463.897459621544 4616.578057819532,4454.942719421376 4594.575549737084,4450.779620281874 4572.198313760824,4451.616917377481 4550.568437941802,4457.412625135576 4530.77053457208,4467.876122568398 4513.79735319546,4482.482726222907 4500.500000000001,4500.500000000001" stroke="black" stroke-linecap="round" stroke-width="5" /><polyline clip-path="url(#border_clip)" fill="none" points="4500.500000000001,4500.500000000001 4478.24790660437,4503.007208781821 4457.111626088245,4510.4031132097625 4438.1510198141295,4522.316851753203 4422.316851753201,4538.151019814135 4410.403113209763,4557.111626088254 4403.007208781824,4578.247906604379 4400.500000000009,4600.500000000011 4403.007208781829,4622.752093395642 4410.403113209772,4643.8883739117655 4422.316851753212,4662.848980185882 4438.151019814143,4678.683148246811 4457.111626088263,4690.596886790248 4478.247906604387,4697.9927912181865 4500.500000000019,4700.500000000002 4522.752093395651,4697.992791218183 4543.888373911775,4690.59688679024 4562.848980185891,4678.6831482468 4578.68314824682,4662.848980185869 4590.5968867902575,4643.88837391175 4597.992791218196,4622.752093395625 4600.500000000011,4600.499999999993 4597.992791218192,4578.247906604362 4590.596886790249,4557.111626088238 4578.683148246809,4538.151019814121 4562.848980185878,4522.316851753193 4543.888373911759,4510.403113209756 4522.752093395634,4503.007208781817 4500.500000000002,4500.500000000002 4487.202646804539,4482.482726222911 4470.229465427917,4467.876122568405 4450.431562058193,4457.412625135586 4428.8016862391705,4451.616917377495 4406.42445026291,4450.779620281892 4384.421942180463,4454.942719421399 4363.897459621554,4463.89745962157 4345.880185844462,4477.194812817033 4331.273582189957,4494.167994193655 4320.810084757137,4513.965897563379 4315.014376999046,4535.595773382402 4314.177079903444,4557.973009358662 4318.34017904295,4579.975517441109 4327.2949192431215,4600.500000000018" stroke="black" stroke-linecap="round" stroke-width="5" /><polyline clip-path="url(#border_clip)" fill="none" points="4327.2949192431215,4600.500000000018 4340.592272438585,4618.51727377711 4357.565453815207,4633.123877431615 4377.3633571849305,4643.587374864435 4398.993233003954,4649.383082622526 4421.370468980213,4650.220379718128 4443.372977062661,4646.057280578622 4463.89745962157,4637.10254037845 4481.914733398661,4623.805187182987 4496.521337053167,4606.8320058063655 4506.9848344859865,4587.034102436641 4512.780542244077,4565.404226617618 4513.61783933968,4543.026990641358 4509.454740200174,4521.024482558911 4500.500000000002,4500.500000000002 4509.45474020017,4479.975517441091 4513.617839339672,4457.973009358642 4512.780542244065,4435.5957733823825 4506.98483448597,4413.965897563361 4496.521337053147,4394.167994193639 4481.914733398638,4377.19481281702 4463.897459621545,4363.897459621559 4443.372977062634,4354.942719421391 4421.370468980186,4350.77962028189 4398.993233003926,4351.616917377497 4377.363357184904,4357.412625135591 4357.565453815182,4367.876122568414 4340.592272438563,4382.482726222923 4327.294919243103,4400.500000000016 4318.340179042935,4421.024482558927 4314.177079903433,4443.026990641376 4315.01437699904,4465.404226617636 4320.810084757135,4487.034102436657 4331.273582189958,4506.832005806379 4345.880185844467,4523.805187182998 4363.89745962156,4537.102540378459 4384.421942180471,4546.057280578627 4406.424450262919,4550.220379718128 4428.80168623918,4549.383082622522 4450.431562058201,4543.587374864427 4470.229465427923,4533.123877431604 4487.202646804542,4518.517273777095 4500.500000000002,4500.500000000002" stroke="black" stroke-linecap="round" stroke-width="5" /><polyline clip-path="url(#border_clip)" fill="none" points="0.5,0.5 1000.5,0.5 1000.5,1000.5 0.5,1000.5000000000002 0.5,0.5" stroke="black" stroke-linecap="round" stroke-width="5" /><polyline clip-path="url(#border_clip)" fill="none" points="500.5,500.5 522.7520933956314,497.99279121818245 543.8883739117557,490.596886790242 562.8489801858732,478.68314824680306 578.6831482468028,462.8489801858734 590.5968867902418,443.88837391175593 597.9927912181822,422.7520933956316 600.4999999999998,400.5 597.9927912181822,378.2479066043684 590.5968867902418,357.11162608824407 578.6831482468028,338.15101981412636 562.8489801858732,322.3168517531967 543.8883739117557,310.403113209758 522.7520933956314,303.00720878181755 500.5,300.5 478.2479066043686,303.00720878181755 457.1116260882443,310.403113209758 438.1510198141268,322.3168517531967 422.31685175319717,338.15101981412636 410.40311320975843,357.11162608824407 403.007208781818,378.2479066043684 400.50000000000045,400.5 403.007208781818,422.7520933956316 410.40311320975843,443.88837391175593 422.31685175319717,462.8489801858734 438.1510198141268,478.68314824680306 457.1116260882443,490.596886790242 478.2479066043686,497.99279121818245 500.5,500.5 513.7973531954613,518.517273777092 530.7705345720817,533.1238774315996 550.5684379418044,543.5873748644206 572.1983137608265,549.383082622513 594.5755497370865,550.2203797181182 616.5780578195345,546.0572805786144 637.102540378444,537.1025403784442 655.119814155536,523.805187182983 669.7264178100436,506.83200580636253 680.1899152428646,487.03410243663984 685.985623000957,465.4042266176177 686.8229200965623,443.02699064135777 682.6598209570584,421.02448255890977 673.7050807568883,400.5" stroke="black" stroke-linecap="round" stroke-width="5" /><polyline clip-path="url(#border_clip)" fill="none" points="1000.5,0.5 2000.5000000000036,0.500000000001819 2000.5000000000018,1000.5000000000055 1000.4999999999982,1000.5000000000036 1000.4999999999998,0.5" stroke="black" stroke-linecap="round" stroke-width="5" /><polyline clip-path="url(#border_clip)" fill="none" points="1500.5,500.5 1600.5000000000005,500.5000000000002 1519.5983005625053,559.2785252292476 1550.5000000000002,464.17287359973193 1581.401699437495,559.2785252292476 1500.5,500.5 1550.5,587.1025403784442 1459.1454542357396,546.4288760708641 1556.9602143091206,525.6377069890882 1490.0471536732346,599.952189536828 1500.5,500.5000000000002 1450.4999999999998,587.1025403784445 1440.0471536732343,487.6503508416167 1506.9602143091206,561.9648333893565 1409.1454542357396,541.1736643075806 1500.5,500.5000000000002 1400.4999999999995,500.5000000000002 1481.4016994374945,441.7214747707526 1450.4999999999998,536.8271264002683 1419.5983005625048,441.7214747707526 1500.5,500.5 1450.4999999999995,413.89745962155575 1541.8545457642601,454.57112392913564 1444.0397856908792,475.3622930109118 1510.9528463267652,401.047810463172 1500.5,500.4999999999998 1550.5,413.8974596215553 1560.9528463267657,513.349649158383 1494.0397856908792,439.0351666106435 1591.8545457642601,459.8263356924192 1500.5,500.4999999999998" stroke="black" stroke-linecap="round" stroke-width="5" /><polyline clip-path="url(#border_clip)" fill="none" points="2000.5,0.5 3000.500000000004,0.4999999999959073 3000.500000000008,1000.5 2000.500000000004,1000.5000000000041 2000.4999999999998,0.5" stroke="black" stroke-linecap="round" stroke-width="5" /><polyline clip-path="url(#border_clip)" fill="none" points="2500.5,500.5 2600.5000000000005,500.49999999999955 2550.5000000000005,587.102540378444 2500.5,500.5 2550.5000000000005,587.102540378444 2450.5000000000005,587.1025403784445 2500.5,500.5 2450.5000000000005,587.1025403784445 2400.4999999999995,500.5000000000007 2500.5,500.5 2400.4999999999995,500.5000000000007 2450.499999999999,413.8974596215562 2500.5,500.5 2450.499999999999,413.8974596215562 2550.4999999999995,413.8974596215553 2500.5,500.4999999999998 2550.4999999999995,413.8974596215553 2600.5000000000005,500.4999999999991 2500.5,500.5" stroke="black" stroke-linecap="round" stroke-width="5" /><polyline clip-path="url(#border_clip)" fill="none" points="3000.5,0.5 4000.5000000000027,0.49999999999090505 4000.500000000012,1000.4999999999936 3000.500000000009,1000.5000000000027 3000.5,0.5" stroke="black" stroke-linecap="round" stroke-width="5" /><polyline clip-path="url(#border_clip)" fill="none" points="3500.5,500.5 3600.5,500.4999999999991 3650.500000000001,587.1025403784427 3600.500000000002,673.7050807568871 3500.500000000002,673.705080756888 3450.5000000000005,587.1025403784445 3500.5,500.5" stroke="black" stroke-linecap="round" stroke-width="5" /><polyline clip-path="url(#border_clip)" fill="none" points="4000.5,0.5 5000.500000000004,0.49999999998499334 5000.500000000018,1000.4999999999882 4000.500000000015,1000.5000000000032 4000.5,0.5" stroke="black" stroke-linecap="round" stroke-width="5" /><polyline clip-path="url(#border_clip)" fill="none" points="4500.5,500.5 4522.752093395631,497.992791218182 4543.8883739117555,490.5968867902411 4562.848980185873,478.6831482468019 4578.683148246802,462.84898018587205 4590.596886790241,443.8883739117541 4597.992791218181,422.75209339562934 4600.499999999998,400.4999999999977 4597.992791218181,378.2479066043661 4590.596886790239,357.1116260882418 4578.683148246801,338.15101981412454 4562.8489801858705,322.3168517531949 4543.888373911753,310.40311320975616 4522.752093395628,303.0072087818162 4500.499999999996,300.4999999999991 4478.247906604365,303.0072087818171 4457.111626088241,310.403113209758 4438.151019814123,322.31685175319717 4422.316851753194,338.15101981412727 4410.403113209755,357.111626088245 4403.007208781815,378.24790660436975 4400.499999999998,400.50000000000136 4403.007208781815,422.752093395633 4410.403113209757,443.8883739117573 4422.316851753196,462.8489801858748 4438.151019814126,478.6831482468042 4457.111626088244,490.59688679024293 4478.247906604368,497.99279121818313 4500.5,500.50000000000045 4513.797353195461,518.5172737770922 4530.7705345720815,533.1238774315996 4550.568437941805,543.5873748644203 4572.198313760828,549.3830826225123 4594.575549737087,550.2203797181171 4616.578057819535,546.0572805786128 4637.102540378444,537.1025403784422 4655.119814155536,523.8051871829807 4669.726417810043,506.83200580636003 4680.189915242864,487.0341024366371 4685.985623000956,465.404226617615 4686.822920096562,443.02699064135504 4682.659820957057,421.02448255890704 4673.705080756887,400.4999999999977" stroke="black" stroke-linecap="round" stroke-width="5" /><polyline clip-path="url(#border_clip)" fill="none" points="0.5,1000.5 1000.5000000000041,1000.4999999999861 1000.500000000018,2000.4999999999905 0.5000000000136424,2000.5000000000043 0.49999999999954525,1000.5" stroke="black" stroke-linecap="round" stroke-width="5" /><polyline clip-path="url(#border_clip)" fill="none" points="500.5,1500.5 600.5000000000005,1500.4999999999986 519.5983005625062,1559.2785252292474 550.4999999999998,1464.1728735997312 581.4016994374961,1559.2785252292465 500.5,1500.5 550.5000000000016,1587.1025403784436 459.14545423574054,1546.4288760708646 556.9602143091213,1525.6377069890873 490.0471536732364,1599.952189536828 500.5000000000002,1500.5 450.50000000000136,1587.1025403784452 440.04715367323433,1487.6503508416176 506.96021430912174,1561.964833389356 409.14545423574054,1541.1736643075817 500.50000000000045,1500.5 400.5,1500.5000000000018 481.401699437494,1441.7214747707528 450.5000000000009,1536.8271264002692 419.5983005625044,1441.721474770754 500.50000000000045,1500.5 450.49999999999864,1413.8974596215567 541.8545457642599,1454.5711239291352 444.0397856908794,1475.362293010913 510.9528463267643,1401.047810463172 500.5000000000007,1500.5 550.4999999999993,1413.8974596215548 560.9528463267666,1513.3496491583824 494.03978569087917,1439.035166610644 591.8545457642606,1459.826335692418 500.5000000000009,1500.5" stroke="black" stroke-linecap="round" stroke-width="5" /><polyline clip-path="url(#border_clip)" fill="none" points="1000.5,1000.5 2000.500000000004,1000.4999999999811 2000.5000000000232,2000.4999999999854 1000.5000000000191,2000.5000000000045 1000.5,1000.5000000000002" stroke="black" stroke-linecap="round" stroke-width="5" /><polyline clip-path="url(#border_clip)" fill="none" points="1500.5,1500.5 1600.5000000000005,1500.4999999999982 1550.5000000000018,1587.1025403784433 1500.5,1500.5 1550.5000000000018,1587.1025403784433 1450.5000000000016,1587.1025403784452 1500.5,1500.5 1450.5000000000016,1587.1025403784452 1400.4999999999995,1500.500000000002 1500.5,1500.5 1400.4999999999995,1500.500000000002 1450.499999999998,1413.8974596215567 1500.5,1500.4999999999998 1450.499999999998,1413.8974596215567 1550.4999999999982,1413.8974596215544 1500.5,1500.4999999999995 1550.4999999999982,1413.8974596215544 1600.5000000000005,1500.4999999999973 1500.5,1500.4999999999998" stroke="black" stroke-linecap="round" stroke-width="5" /><polyline clip-path="url(#border_clip)" fill="none" points="2000.5,1000.5 3000.5000000000036,1000.4999999999761 3000.5000000000273,2000.4999999999795 2000.500000000024,2000.5000000000036 2000.5,1000.5000000000002" stroke="black" stroke-linecap="round" stroke-width="5" /><polyline clip-path="url(#border_clip)" fill="none" points="2500.5,1500.5 2600.5000000000005,1500.4999999999977 2650.5000000000027,1587.1025403784406 2600.5000000000045,1673.705080756886 2500.500000000004,1673.7050807568885 2450.500000000002,1587.1025403784456 2500.5,1500.5" stroke="black" stroke-linecap="round" stroke-width="5" /><polyline clip-path="url(#border_clip)" fill="none" points="3000.5,1000.5 4000.5000000000036,1000.4999999999698 4000.5000000000337,2000.4999999999732 3000.5000000000305,2000.5000000000036 3000.5,1000.5" stroke="black" stroke-linecap="round" stroke-width="5" /><polyline clip-path="url(#border_clip)" fill="none" points="3500.5,1500.5 3522.752093395631,1497.9927912181815 3543.8883739117555,1490.5968867902407 3562.848980185873,1478.683148246801 3578.6831482468024,1462.848980185871 3590.5968867902407,1443.888373911753 3597.99279121818,1422.7520933956282 3600.4999999999973,1400.4999999999966 3597.9927912181793,1378.2479066043652 3590.596886790238,1357.1116260882409 3578.6831482467983,1338.1510198141236 3562.848980185868,1322.3168517531944 3543.88837391175,1310.403113209756 3522.7520933956257,1303.0072087818162 3500.499999999994,1300.4999999999993 3478.2479066043625,1303.0072087818176 3457.111626088238,1310.4031132097587 3438.151019814121,1322.3168517531983 3422.3168517531917,1338.1510198141284 3410.4031132097534,1357.1116260882463 3403.0072087818135,1378.247906604371 3400.4999999999964,1400.5000000000027 3403.007208781815,1422.7520933956341 3410.403113209756,1443.8883739117584 3422.316851753196,1462.8489801858757 3438.151019814126,1478.6831482468049 3457.1116260882436,1490.5968867902434 3478.2479066043684,1497.9927912181831 3500.5,1500.5 3513.7973531954617,1518.5172737770918 3530.770534572083,1533.1238774315989 3550.568437941806,1543.5873748644194 3572.1983137608286,1549.3830826225112 3594.5755497370883,1550.2203797181155 3616.5780578195363,1546.057280578611 3637.1025403784456,1537.1025403784402 3655.119814155537,1523.8051871829784 3669.726417810044,1506.8320058063573 3680.1899152428646,1487.0341024366344 3685.9856230009564,1465.404226617612 3686.8229200965607,1443.026990641352 3682.6598209570566,1421.024482558904 3673.7050807568858,1400.4999999999948" stroke="black" stroke-linecap="round" stroke-width="5" /><polyline clip-path="url(#border_clip)" fill="none" points="4000.5,1000.5 5000.5000000000055,1000.4999999999704 5000.500000000035,2000.4999999999754 4000.5000000000296,2000.500000000005 4000.5,1000.5" stroke="black" stroke-linecap="round" stroke-width="5" /><polyline clip-path="url(#border_clip)" fill="none" points="4500.5,1500.5 4600.5,1500.499999999997 4519.598300562508,1559.278525229247 4550.499999999999,1464.1728735997303 4581.401699437497,1559.2785252292451 4500.5,1500.5 4550.500000000003,1587.1025403784429 4459.1454542357405,1546.4288760708655 4556.9602143091215,1525.6377069890864 4490.0471536732375,1599.9521895368282 4500.5,1500.5 4450.500000000003,1587.1025403784458 4440.047153673234,1487.6503508416183 4506.960214309122,1561.964833389356 4409.1454542357405,1541.173664307583 4500.5,1500.5 4400.5,1500.5000000000032 4481.401699437492,1441.7214747707528 4450.500000000001,1536.8271264002697 4419.598300562503,1441.7214747707549 4500.5,1500.4999999999998 4450.499999999997,1413.8974596215571 4541.8545457642595,1454.5711239291343 4444.0397856908785,1475.3622930109136 4510.9528463267625,1401.0478104631716 4500.5,1500.4999999999998 4550.499999999998,1413.8974596215537 4560.952846326767,1513.3496491583812 4494.039785690878,1439.0351666106437 4591.8545457642595,1459.8263356924163 4500.5,1500.4999999999995" stroke="black" stroke-linecap="round" stroke-width="5" /><polyline clip-path="url(#border_clip)" fill="none" points="0.5,2000.5 1000.500000000005,2000.4999999999648 1000.5000000000405,3000.49999999997 0.5000000000354703,3000.5000000000055 0.5,2000.5" stroke="black" stroke-linecap="round" stroke-width="5" /><polyline clip-path="url(#border_clip)" fill="none" points="500.5,2500.5 600.5000000000005,2500.4999999999964 550.5000000000034,2587.1025403784424 500.5,2500.5 550.5000000000034,2587.1025403784424 450.50000000000273,2587.102540378446 500.4999999999998,2500.5 450.50000000000273,2587.102540378446 400.4999999999991,2500.5000000000036 500.49999999999955,2500.5 400.4999999999991,2500.5000000000036 450.4999999999959,2413.8974596215576 500.4999999999993,2500.5 450.4999999999959,2413.8974596215576 550.4999999999964,2413.897459621554 500.49999999999955,2500.5 550.4999999999964,2413.897459621554 600.5,2500.499999999996 500.49999999999955,2500.5" stroke="black" stroke-linecap="round" stroke-width="5" /><polyline clip-path="url(#border_clip)" fill="none" points="1000.5,2000.5 2000.500000000004,2000.49999999996 2000.5000000000443,3000.499999999964 1000.50000000004,3000.5000000000045 1000.4999999999998,2000.5" stroke="black" stroke-linecap="round" stroke-width="5" /><polyline clip-path="url(#border_clip)" fill="none" points="1500.5,2500.5 1600.5000000000005,2500.499999999996 1650.500000000004,2587.1025403784383 1600.5000000000075,2673.7050807568844 1500.500000000007,2673.7050807568885 1450.5000000000032,2587.1025403784465 1500.5,2500.5" stroke="black" stroke-linecap="round" stroke-width="5" /><polyline clip-path="url(#border_clip)" fill="none" points="2000.5,2000.5 3000.5000000000045,2000.4999999999545 3000.50000000005,3000.499999999959 2000.5000000000457,3000.5000000000045 2000.5,2000.5" stroke="black" stroke-linecap="round" stroke-width="5" /><polyline clip-path="url(#border_clip)" fill="none" points="2500.5,2500.5 2522.7520933956316,2497.9927912181815 2543.8883739117555,2490.5968867902398 2562.8489801858727,2478.6831482468 2578.6831482468015,2462.8489801858696 2590.5968867902398,2443.8883739117514 2597.9927912181793,2422.7520933956266 2600.499999999996,2400.499999999995 2597.992791218177,2378.2479066043634 2590.5968867902357,2357.1116260882395 2578.683148246796,2338.1510198141223 2562.8489801858655,2322.3168517531935 2543.8883739117473,2310.4031132097552 2522.7520933956225,2303.0072087818157 2500.499999999991,2300.499999999999 2478.2479066043593,2303.0072087818176 2457.1116260882354,2310.4031132097593 2438.151019814118,2322.316851753199 2422.3168517531894,2338.1510198141295 2410.403113209751,2357.1116260882477 2403.0072087818116,2378.2479066043725 2400.499999999995,2400.500000000004 2403.0072087818135,2422.7520933956357 2410.4031132097552,2443.8883739117596 2422.316851753195,2462.848980185877 2438.1510198141254,2478.6831482468056 2457.1116260882436,2490.596886790244 2478.2479066043684,2497.9927912181834 2500.5,2500.5 2513.797353195462,2518.5172737770913 2530.7705345720833,2533.1238774315984 2550.5684379418067,2543.5873748644185 2572.198313760829,2549.38308262251 2594.575549737089,2550.220379718114 2616.5780578195368,2546.057280578609 2637.102540378446,2537.102540378438 2655.1198141555374,2523.8051871829757 2669.7264178100445,2506.8320058063546 2680.1899152428646,2487.034102436631 2685.985623000956,2465.404226617609 2686.82292009656,2443.0269906413487 2682.659820957055,2421.0244825589007 2673.705080756884,2400.499999999992" stroke="black" stroke-linecap="round" stroke-width="5" /><polyline clip-path="url(#border_clip)" fill="none" points="3000.5,2000.5 4000.5000000000055,2000.499999999955 4000.5000000000505,3000.4999999999604 3000.500000000045,3000.5000000000055 3000.4999999999995,2000.5" stroke="black" stroke-linecap="round" stroke-width="5" /><polyline clip-path="url(#border_clip)" fill="none" points="3500.5,2500.5 3600.5000000000005,2500.4999999999955 3519.598300562508,2559.278525229247 3550.499999999998,2464.1728735997294 3581.401699437498,2559.2785252292438 3500.5,2500.5 3550.500000000004,2587.102540378442 3459.1454542357415,2546.428876070866 3556.9602143091215,2525.6377069890855 3490.047153673239,2599.9521895368284 3500.5,2500.5 3450.5000000000036,2587.1025403784465 3440.0471536732334,2487.6503508416195 3506.9602143091233,2561.964833389356 3409.145454235741,2541.1736643075847 3500.4999999999995,2500.5 3400.499999999999,2500.5000000000045 3481.4016994374915,2441.7214747707535 3450.500000000001,2536.8271264002706 3419.5983005625017,2441.7214747707562 3500.4999999999995,2500.5 3450.4999999999955,2413.897459621558 3541.8545457642576,2454.571123929134 3444.0397856908776,2475.3622930109145 3510.95284632676,2401.0478104631716 3500.5,2500.5 3550.4999999999955,2413.897459621553 3560.952846326766,2513.3496491583805 3494.039785690876,2439.035166610644 3591.8545457642585,2459.8263356924153 3500.5,2500.5" stroke="black" stroke-linecap="round" stroke-width="5" /><polyline clip-path="url(#border_clip)" fill="none" points="4000.5,2000.5 5000.5000000000055,2000.4999999999495 5000.500000000056,3000.499999999955 4000.5000000000505,3000.5000000000055 4000.5,2000.5" stroke="black" stroke-linecap="round" stroke-width="5" /><polyline clip-path="url(#border_clip)" fill="none" points="4500.5,2500.5 4600.5,2500.499999999995 4550.500000000005,2587.102540378442 4500.5,2500.5 4550.500000000005,2587.102540378442 4450.500000000004,2587.102540378447 4500.5,2500.5 4450.500000000004,2587.102540378447 4400.499999999999,2500.5000000000055 4500.5,2500.5 4400.499999999999,2500.5000000000055 4450.4999999999945,2413.8974596215585 4500.5,2500.5 4450.4999999999945,2413.8974596215585 4550.499999999995,2413.897459621553 4500.5,2500.5 4550.499999999995,2413.897459621553 4600.5,2500.4999999999945 4500.5,2500.5" stroke="black" stroke-linecap="round" stroke-width="5" /><polyline clip-path="url(#border_clip)" fill="none" points="0.5,3000.5 1000.5000000000055,3000.499999999945 1000.5000000000607,4000.49999999995 0.5000000000554792,4000.5000000000055 0.5,3000.5" stroke="black" stroke-linecap="round" stroke-width="5" /><polyline clip-path="url(#border_clip)" fill="none" points="500.5,3500.5 600.5000000000005,3500.4999999999945 650.5000000000055,3587.102540378436 600.50000000001,3673.705080756883 500.50000000000955,3673.705080756889 450.50000000000455,3587.1025403784474 500.5,3500.5000000000005" stroke="black" stroke-linecap="round" stroke-width="5" /><polyline clip-path="url(#border_clip)" fill="none" points="1000.5,3000.5 2000.5000000000055,3000.4999999999386 2000.5000000000668,4000.4999999999445 1000.5000000000614,4000.5000000000055 1000.5,3000.5" stroke="black" stroke-linecap="round" stroke-width="5" /><polyline clip-path="url(#border_clip)" fill="none" points="1500.5,3500.5 1522.7520933956314,3497.992791218181 1543.8883739117555,3490.5968867902393 1562.8489801858723,3478.6831482467987 1578.683148246801,3462.848980185868 1590.5968867902388,3443.88837391175 1597.9927912181781,3422.752093395625 1600.4999999999945,3400.499999999993 1597.9927912181754,3378.2479066043616 1590.5968867902336,3357.1116260882377 1578.6831482467935,3338.151019814121 1562.8489801858627,3322.316851753192 1543.8883739117446,3310.4031132097543 1522.7520933956193,3303.0072087818153 1500.4999999999877,3300.4999999999986 1478.2479066043563,3303.007208781818 1457.1116260882322,3310.40311320976 1438.1510198141152,3322.3168517531994 1422.3168517531865,3338.1510198141304 1410.4031132097487,3357.1116260882486 1403.0072087818094,3378.247906604374 1400.4999999999932,3400.5000000000055 1403.007208781812,3422.7520933956366 1410.4031132097539,3443.888373911761 1422.316851753194,3462.8489801858777 1438.1510198141248,3478.6831482468065 1457.1116260882432,3490.5968867902443 1478.2479066043682,3497.992791218184 1500.5,3500.5 1513.7973531954622,3518.517273777091 1530.7705345720838,3533.123877431598 1550.5684379418071,3543.5873748644176 1572.1983137608297,3549.3830826225085 1594.5755497370897,3550.220379718113 1616.5780578195377,3546.0572805786073 1637.102540378447,3537.102540378436 1655.119814155538,3523.8051871829734 1669.7264178100445,3506.832005806352 1680.1899152428646,3487.0341024366285 1685.9856230009555,3465.404226617606 1686.8229200965593,3443.026990641346 1682.659820957054,3421.024482558898 1673.7050807568826,3400.499999999989" stroke="black" stroke-linecap="round" stroke-width="5" /><polyline clip-path="url(#border_clip)" fill="none" points="2000.5,3000.5 3000.500000000006,3000.499999999939 3000.500000000067,4000.4999999999454 2000.5000000000607,4000.5000000000064 2000.4999999999998,3000.5000000000005" stroke="black" stroke-linecap="round" stroke-width="5" /><polyline clip-path="url(#border_clip)" fill="none" points="2500.5,3500.5 2600.5000000000005,3500.4999999999936 2519.598300562509,3559.2785252292465 2550.499999999998,3464.1728735997285 2581.401699437499,3559.2785252292424 2500.5,3500.5 2550.5000000000055,3587.1025403784415 2459.1454542357424,3546.428876070867 2556.9602143091224,3525.6377069890846 2490.0471536732407,3599.952189536829 2500.5,3500.5 2450.500000000005,3587.102540378448 2440.0471536732334,3487.6503508416204 2506.9602143091242,3561.964833389356 2409.145454235742,3541.1736643075865 2500.5,3500.5 2400.499999999999,3500.5000000000064 2481.4016994374906,3441.721474770754 2450.500000000002,3536.8271264002715 2419.5983005625008,3441.7214747707576 2500.5,3500.5000000000005 2450.499999999994,3413.8974596215594 2541.854545764257,3454.5711239291336 2444.0397856908776,3475.362293010916 2510.952846326759,3401.047810463172 2500.5,3500.5000000000005 2550.4999999999945,3413.897459621553 2560.9528463267666,3513.34964915838 2494.0397856908753,3439.0351666106444 2591.854545764258,3459.8263356924144 2500.5,3500.5000000000005" stroke="black" stroke-linecap="round" stroke-width="5" /><polyline clip-path="url(#border_clip)" fill="none" points="3000.5,3000.5 4000.5000000000064,3000.499999999934 4000.5000000000728,4000.49999999994 3000.5000000000664,4000.5000000000064 3000.5,3000.5" stroke="black" stroke-linecap="round" stroke-width="5" /><polyline clip-path="url(#border_clip)" fill="none" points="3500.5,3500.5 3600.500000000001,3500.4999999999936 3550.5000000000064,3587.102540378441 3500.5,3500.5 3550.5000000000064,3587.102540378441 3450.5000000000055,3587.102540378448 3500.5,3500.5 3450.5000000000055,3587.102540378448 3400.499999999999,3500.500000000007 3500.5,3500.5 3400.499999999999,3500.500000000007 3450.4999999999936,3413.897459621559 3500.5,3500.5 3450.4999999999936,3413.897459621559 3550.4999999999945,3413.897459621552 3500.5,3500.5 3550.4999999999945,3413.897459621552 3600.500000000001,3500.4999999999927 3500.5,3500.5" stroke="black" stroke-linecap="round" stroke-width="5" /><polyline clip-path="url(#border_clip)" fill="none" points="4000.5,3000.5 5000.5000000000055,3000.499999999929 5000.500000000076,4000.499999999935 4000.500000000071,4000.500000000006 4000.5,3000.5000000000005" stroke="black" stroke-linecap="round" stroke-width="5" /><polyline clip-path="url(#border_clip)" fill="none" points="4500.5,3500.5 4600.5,3500.4999999999927 4650.500000000007,3587.102540378434 4600.500000000013,3673.7050807568817 4500.500000000013,3673.7050807568885 4450.5000000000055,3587.102540378448 4500.5,3500.5" stroke="black" stroke-linecap="round" stroke-width="5" /><polyline clip-path="url(#border_clip)" fill="none" points="0.5,4000.5 1000.5000000000059,4000.4999999999236 1000.5000000000825,5000.499999999929 0.5000000000768523,5000.5000000000055 0.5,4000.5" stroke="black" stroke-linecap="round" stroke-width="5" /><polyline clip-path="url(#border_clip)" fill="none" points="500.5,4500.5 522.7520933956314,4497.992791218181 543.8883739117553,4490.596886790238 562.848980185872,4478.683148246798 578.6831482468006,4462.848980185867 590.5968867902382,4443.888373911748 597.992791218177,4422.752093395624 600.499999999993,4400.499999999992 597.9927912181736,4378.24790660436 590.5968867902316,4357.111626088236 578.683148246791,4338.1510198141195 562.84898018586,4322.316851753191 543.8883739117414,4310.403113209753 522.7520933956164,4303.007208781814 500.49999999998454,4300.499999999998 478.24790660435315,4303.007208781818 457.1116260882293,4310.40311320976 438.1510198141127,4322.3168517532 422.316851753184,4338.151019814131 410.4031132097466,4357.11162608825 403.00720878180755,4378.247906604375 400.4999999999918,4400.500000000007 403.0072087818112,4422.752093395638 410.4031132097534,4443.888373911763 422.316851753194,4462.84898018588 438.151019814125,4478.683148246808 457.1116260882436,4490.596886790245 478.2479066043686,4497.992791218184 500.50000000000045,4500.5 513.7973531954631,4518.517273777091 530.7705345720847,4533.123877431597 550.5684379418083,4543.587374864417 572.1983137608308,4549.383082622508 594.575549737091,4550.220379718111 616.5780578195388,4546.057280578605 637.1025403784479,4537.102540378433 655.119814155539,4523.805187182971 669.7264178100454,4506.832005806349 680.1899152428648,4487.034102436626 685.9856230009557,4465.404226617603 686.8229200965591,4443.026990641343 682.6598209570534,4421.024482558895 673.7050807568817,4400.499999999986" stroke="black" stroke-linecap="round" stroke-width="5" /><polyline clip-path="url(#border_clip)" fill="none" points="1000.5,4000.5 2000.5000000000068,4000.4999999999236 2000.5000000000832,5000.499999999931 1000.5000000000764,5000.500000000007 1000.4999999999998,4000.5" stroke="black" stroke-linecap="round" stroke-width="5" /><polyline clip-path="url(#border_clip)" fill="none" points="1500.5,4500.5 1600.5000000000007,4500.499999999993 1519.5983005625098,4559.278525229246 1550.4999999999975,4464.172873599728 1581.4016994374997,4559.2785252292415 1500.5,4500.5 1550.500000000007,4587.102540378441 1459.1454542357433,4546.428876070867 1556.9602143091229,4525.637706989083 1490.0471536732425,4599.952189536829 1500.5,4500.5 1450.5000000000066,4587.102540378448 1440.0471536732334,4487.650350841621 1506.9602143091256,4561.964833389356 1409.1454542357426,4541.173664307587 1500.5,4500.5 1400.4999999999995,4500.500000000007 1481.4016994374902,4441.721474770754 1450.5000000000027,4536.827126400272 1419.5983005625003,4441.7214747707585 1500.5000000000002,4500.5 1450.499999999993,4413.897459621559 1541.854545764257,4454.571123929132 1444.0397856908774,4475.362293010916 1510.9528463267577,4401.047810463171 1500.5000000000005,4500.5 1550.4999999999936,4413.897459621551 1560.952846326767,4513.349649158378 1494.0397856908749,4439.0351666106435 1591.8545457642576,4459.826335692413 1500.5000000000005,4500.5" stroke="black" stroke-linecap="round" stroke-width="5" /><polyline clip-path="url(#border_clip)" fill="none" points="2000.5,4000.5 3000.500000000007,4000.499999999918 3000.5000000000887,5000.499999999925 2000.5000000000819,5000.500000000007 2000.5,4000.5" stroke="black" stroke-linecap="round" stroke-width="5" /><polyline clip-path="url(#border_clip)" fill="none" points="2500.5,4500.5 2600.5000000000005,4500.499999999992 2550.5000000000073,4587.102540378441 2500.5,4500.5 2550.5000000000073,4587.102540378441 2450.500000000007,4587.102540378448 2500.5,4500.5 2450.500000000007,4587.102540378448 2400.4999999999995,4500.500000000008 2500.5,4500.5 2400.4999999999995,4500.500000000008 2450.4999999999923,4413.897459621559 2500.5,4500.5 2450.4999999999923,4413.897459621559 2550.4999999999927,4413.897459621551 2500.5,4500.5 2550.4999999999927,4413.897459621551 2600.5000000000005,4500.499999999991 2500.5,4500.5" stroke="black" stroke-linecap="round" stroke-width="5" /><polyline clip-path="url(#border_clip)" fill="none" points="3000.5,4000.5 4000.5000000000055,4000.4999999999136 4000.500000000092,5000.499999999918 3000.500000000087,5000.5000000000055 3000.5,4000.5" stroke="black" stroke-linecap="round" stroke-width="5" /><polyline clip-path="url(#border_clip)" fill="none" points="3500.5,4500.5 3600.5000000000005,4500.499999999991 3650.500000000008,4587.1025403784315 3600.5000000000155,4673.70508075688 3500.500000000015,4673.7050807568885 3450.5000000000073,4587.102540378449 3500.5,4500.5" stroke="black" stroke-linecap="round" stroke-width="5" /><polyline clip-path="url(#border_clip)" fill="none" points="4000.5,4000.5 5000.5000000000055,4000.4999999999077 5000.500000000098,5000.499999999914 4000.5000000000923,5000.5000000000055 4000.5,4000.5" stroke="black" stroke-linecap="round" stroke-width="5" /><polyline clip-path="url(#border_clip)" fill="none" points="4500.5,4500.5 4522.752093395631,4497.99279121818 4543.8883739117555,4490.5968867902375 4562.848980185872,4478.683148246797 4578.683148246801,4462.848980185866 4590.5968867902375,4443.888373911747 4597.992791218176,4422.752093395622 4600.499999999992,4400.49999999999 4597.992791218172,4378.247906604359 4590.59688679023,4357.1116260882345 4578.68314824679,4338.151019814119 4562.848980185858,4322.31685175319 4543.888373911739,4310.4031132097525 4522.752093395614,4303.007208781814 4500.499999999982,4300.499999999998 4478.247906604351,4303.007208781818 4457.111626088227,4310.403113209761 4438.15101981411,4322.316851753201 4422.316851753182,4338.151019814133 4410.403113209744,4357.111626088252 4403.007208781806,4378.247906604377 4400.499999999991,4400.500000000009 4403.00720878181,4422.75209339564 4410.4031132097525,4443.888373911764 4422.316851753194,4462.8489801858805 4438.151019814125,4478.683148246809 4457.111626088244,4490.596886790247 4478.247906604369,4497.992791218185 4500.500000000001,4500.5 4513.797353195464,4518.517273777091 4530.770534572086,4533.123877431597 4550.568437941809,4543.587374864416 4572.198313760832,4549.383082622507 4594.575549737092,4550.22037971811 4616.57805781954,4546.057280578603 4637.102540378449,4537.1025403784315 4655.11981415554,4523.805187182968 4669.726417810046,4506.832005806346 4680.189915242865,4487.034102436623 4685.9856230009555,4465.4042266176 4686.822920096558,4443.02699064134 4682.659820957053,4421.0244825588925 4673.70508075688,4400.499999999984" stroke="black" stroke-linecap="round" stroke-width="5" /></svg>