<?xml version="1.0" encoding="utf-8" ?>
<svg baseProfile="full" height="500px" version="1.1" width="500px" xmlns="http://www.w3.org/2000/svg" xmlns:ev="http://www.w3.org/2001/xml-events" xmlns:xlink="http://www.w3.org/1999/xlink"><defs><clipPath id="border_clip"><rect height="500" width="500" x="0" y="0" /></clipPath></defs><polyline clip-path="url(#border_clip)" fill="none" points="250.5,250.5 250.5,350.5 250.5,300.5 299.99747468305833,349.99747468305833 250.5,300.5 201.00252531694167,349.99747468305833" stroke="#ffa500" stroke-linecap="round" stroke-width="10" /><polyline clip-path="url(#border_clip)" fill="none" points="250.5,250.5 250.5,380.5 250.5,280.5 250.5,330.5 264.1808057330268,328.0877048314363 276.21150438746156,321.1417777247591 285.1410161513775,310.5 289.89231012048833,297.44592710667723 289.89231012048833,283.55407289332277 285.1410161513775,270.5 276.21150438746156,259.85822227524085 264.1808057330268,252.91229516856365 250.5,250.5" stroke="#00ffff" stroke-linecap="round" stroke-width="10" /><polyline clip-path="url(#border_clip)" fill="none" points="200.5,250.5 108.57611844574882,158.57611844574882 179.28679656440357,229.28679656440357 143.9314575050762,193.9314575050762 135.9634172710721,205.3109982829101 132.36794082886829,218.72949904263177 133.57869570097537,232.56849055663892 139.44964698097843,245.15878620657995 149.27267129849625,254.98181052409777 161.86296694843725,260.85276180410085 175.70195846244442,262.06351667620794 189.12045922216606,258.4680402340041 200.5,250.50000000000003" stroke="#00ffff" stroke-linecap="round" stroke-width="10" /><polyline clip-path="url(#border_clip)" fill="none" points="300.5,250.5 229.78932188134524,179.7893218813452 265.1446609406726,215.1446609406726 195.1446609406726,215.1446609406726 265.1446609406726,215.1446609406726 265.1446609406726,145.14466094067257" stroke="#ffa500" stroke-linecap="round" stroke-width="10" /></svg>