<?xml version="1.0" encoding="utf-8" ?>
<svg baseProfile="full" height="1000px" version="1.1" width="1000px" xmlns="http://www.w3.org/2000/svg" xmlns:ev="http://www.w3.org/2001/xml-events" xmlns:xlink="http://www.w3.org/1999/xlink"><defs><clipPath id="border_clip"><rect height="1000" width="1000" x="0" y="0" /></clipPath></defs><polyline clip-path="url(#border_clip)" fill="none" points="500.5,500.5 667.1666666666666,500.5 667.1666666666666,667.1666666666666 500.5,667.1666666666667 500.49999999999994,500.5" stroke="black" stroke-linecap="round" stroke-width="1" /><polyline clip-path="url(#border_clip)" fill="none" points="833.8333333333333,500.49999999999994 1000.4999999999999,500.4999999999999 1000.5,667.1666666666665 833.8333333333333,667.1666666666666 833.8333333333333,500.5" stroke="black" stroke-linecap="round" stroke-width="1" /><polyline clip-path="url(#border_clip)" fill="none" points="1167.1666666666665,500.49999999999983 1333.833333333333,500.4999999999997 1333.8333333333333,667.1666666666664 1167.1666666666665,667.1666666666665 1167.1666666666665,500.49999999999983" stroke="black" stroke-linecap="round" stroke-width="1" /><polyline clip-path="url(#border_clip)" fill="none" points="0.5,167.1666666666663 167.16666666666663,167.16666666666617 167.16666666666674,333.8333333333328 0.5000000000001137,333.833333333333 0.49999999999994316,167.1666666666663" stroke="black" stroke-linecap="round" stroke-width="1" /><polyline clip-path="url(#border_clip)" fill="none" points="333.83333333333326,167.16666666666595 500.4999999999999,167.16666666666578 500.5000000000001,333.83333333333246 333.8333333333334,333.8333333333326 333.83333333333326,167.16666666666595" stroke="black" stroke-linecap="round" stroke-width="1" /><polyline clip-path="url(#border_clip)" fill="none" points="667.1666666666665,167.16666666666555 833.8333333333333,167.16666666666532 833.8333333333335,333.833333333332 667.1666666666667,333.83333333333223 667.1666666666665,167.16666666666555" stroke="black" stroke-linecap="round" stroke-width="1" /><polyline clip-path="url(#border_clip)" fill="none" points="0.5,-166.16666666666833 167.16666666666663,-166.16666666666856 167.16666666666686,0.4999999999980673 0.5000000000002274,0.49999999999835154 0.49999999999994316,-166.16666666666833" stroke="black" stroke-linecap="round" stroke-width="1" /><polyline clip-path="url(#border_clip)" fill="none" points="333.83333333333326,-166.1666666666689 500.4999999999999,-166.16666666666924 500.5000000000002,0.4999999999973852 333.83333333333354,0.4999999999976694 333.83333333333326,-166.16666666666902" stroke="black" stroke-linecap="round" stroke-width="1" /><polyline clip-path="url(#border_clip)" fill="none" points="667.1666666666665,-166.1666666666697 833.8333333333333,-166.16666666667004 833.8333333333335,0.4999999999965894 667.1666666666669,0.49999999999693046 667.1666666666665,-166.1666666666697" stroke="black" stroke-linecap="round" stroke-width="1" /></svg>